<svg width="927" height="927" viewBox="0 0 927 927" fill="none" xmlns="http://www.w3.org/2000/svg">
<path d="M598.455 802.96H372.808L326.763 882.852C325.797 884.535 325.29 886.442 325.294 888.383C325.298 890.323 325.811 892.229 326.783 893.908C327.756 895.587 329.152 896.982 330.833 897.951C332.514 898.921 334.421 899.431 336.361 899.432H600.204L615.575 823.84C616.089 821.306 616.033 818.69 615.411 816.181C614.788 813.671 613.615 811.332 611.975 809.333C610.336 807.333 608.272 805.724 605.934 804.622C603.595 803.519 601.04 802.952 598.455 802.96V802.96Z" fill="#D4D4D4"/>
<path d="M506.692 268.847H433.307C431.309 281.839 430.167 294.948 429.89 308.09C429.89 318.26 428.925 339.631 428.925 346.875C428.925 357.65 429.89 365.417 429.89 376.634C429.89 397.204 430.413 414.978 430.413 414.978H443.919C443.919 414.978 451.049 375.996 458.635 343.294C464.898 316.429 465.47 301.451 469.656 301.451C472.926 301.451 473.09 313.796 480.285 343.294C488.264 375.996 496.08 414.978 496.08 414.978H509.602C509.602 414.978 510.109 390.451 510.109 379.348V313.486C510.158 298.688 506.692 268.847 506.692 268.847Z" fill="#0071BC" stroke="#ED1C24" stroke-width="0.47" stroke-miterlimit="10"/>
<path d="M434.943 156.53L432.228 186.11C432.228 186.11 432.228 207.039 431.705 214.005C431.509 216.932 430.07 227.249 428.435 238.172H424.134L423.955 238.842H428.337C426.146 253.64 423.677 269.321 423.677 269.321L414.487 268.356C414.487 268.356 413.85 247.231 414.193 238.172C414.193 237.665 414.193 237.191 414.193 236.766C414.536 230.879 413.424 219.139 414.013 213.318C414.831 205.142 419.327 155.615 419.327 155.615L434.321 156.498L434.943 156.53Z" fill="#DB8661"/>
<path d="M525.087 237.093C525.545 245.105 524.842 268.683 524.842 268.683L515.652 269.648C515.652 269.648 513.101 253.297 510.861 238.254C509.226 227.413 507.82 217.226 507.591 214.316C507.15 207.366 507.084 186.42 507.084 186.42L504.354 156.857H505.187L519.904 155.991C519.904 155.991 524.4 205.486 525.234 213.678C525.855 219.384 524.744 231.108 525.087 237.093Z" fill="#DB8661"/>
<path d="M520.934 164.739H508.49H504.239C504.239 164.739 504.239 156.04 502.391 156.972C499.808 158.28 502.391 192.699 500.642 214.348C500.206 222.348 500.755 230.371 502.277 238.237C504.811 253.084 508.981 266.198 507.836 268.454C504.059 275.976 432.997 274.831 431.165 265.756C430.626 263.075 433.193 251.449 435.024 238.908C436.272 231.388 436.792 223.766 436.578 216.147C434.779 187.287 438.213 158.214 436.725 156.972C435.237 155.729 434.779 164.739 434.779 164.739H430.773H418.51C418.51 164.739 414.405 150.022 426.685 141.226C434.387 135.633 468.92 124.482 468.92 124.482C468.92 124.482 497.927 134.816 510.551 141.226C522.814 147.439 520.934 164.739 520.934 164.739Z" fill="#F2F2F2"/>
<path d="M481.102 165.344L481.249 165.262C482.307 164.414 483.641 163.989 484.994 164.068C486.285 164.143 487.516 164.643 488.493 165.491C489.155 166.012 489.71 166.656 490.128 167.387C491.098 168.953 492.47 170.229 494.101 171.083C494.557 171.35 495.039 171.569 495.54 171.737C495.549 171.752 495.553 171.769 495.553 171.786C495.553 171.803 495.549 171.82 495.54 171.835C495.057 172.034 494.552 172.176 494.036 172.26C493.446 172.364 492.851 172.435 492.254 172.473C491.363 172.523 490.471 172.44 489.605 172.227L488.591 171.999L488.28 171.819C488.241 171.811 488.205 171.796 488.172 171.773C488.14 171.75 488.113 171.721 488.093 171.687C488.072 171.653 488.06 171.615 488.056 171.576C488.051 171.536 488.055 171.497 488.068 171.459C488.15 170.725 488.15 169.985 488.068 169.252C488.026 168.802 487.886 168.367 487.659 167.976C487.432 167.586 487.122 167.25 486.752 166.992C486.381 166.733 485.959 166.559 485.514 166.48C485.069 166.402 484.613 166.421 484.176 166.537C483.415 166.729 482.741 167.173 482.263 167.796C482.016 168.053 481.827 168.359 481.708 168.695C481.59 169.03 481.545 169.387 481.576 169.742C481.594 170.201 481.736 170.648 481.985 171.034C482.202 171.339 482.503 171.573 482.852 171.706C483.202 171.84 483.582 171.868 483.947 171.786C484.469 171.724 484.965 171.527 485.386 171.214C485.687 170.902 485.871 170.495 485.907 170.063C485.943 169.631 485.828 169.2 485.582 168.843C485.445 168.639 485.251 168.479 485.024 168.384C484.797 168.289 484.548 168.263 484.306 168.308C484.064 168.353 483.841 168.468 483.664 168.639C483.487 168.809 483.364 169.028 483.309 169.268C483.26 169.394 483.26 169.534 483.309 169.66C483.38 169.847 483.519 170 483.698 170.088C483.877 170.177 484.083 170.193 484.274 170.135C484.363 170.102 484.443 170.05 484.508 169.981C484.573 169.912 484.621 169.829 484.648 169.739C484.675 169.648 484.681 169.552 484.664 169.459C484.647 169.366 484.609 169.278 484.552 169.202C484.552 169.202 484.47 169.039 484.372 169.072C484.274 169.104 484.372 169.186 484.372 169.268C484.38 169.371 484.38 169.475 484.372 169.579C484.383 169.629 484.379 169.681 484.36 169.728C484.342 169.776 484.31 169.817 484.268 169.847C484.226 169.876 484.176 169.893 484.125 169.895C484.074 169.897 484.024 169.883 483.98 169.857C483.894 169.824 483.819 169.765 483.767 169.689C483.714 169.614 483.686 169.524 483.686 169.431C483.687 169.259 483.746 169.091 483.852 168.955C483.959 168.819 484.107 168.722 484.274 168.679C484.443 168.612 484.63 168.602 484.804 168.653C484.979 168.703 485.132 168.81 485.239 168.957C485.356 169.149 485.432 169.362 485.463 169.584C485.494 169.807 485.479 170.033 485.419 170.249C485.394 170.443 485.313 170.626 485.185 170.774C485.057 170.923 484.888 171.03 484.699 171.083C484.385 171.204 484.054 171.276 483.718 171.295C483.49 171.326 483.257 171.3 483.04 171.22C482.824 171.14 482.63 171.009 482.476 170.838C482.301 170.648 482.171 170.422 482.094 170.176C482.018 169.93 481.997 169.67 482.034 169.415C482.095 168.798 482.366 168.22 482.803 167.78C483.315 167.283 483.975 166.967 484.683 166.881C485.143 166.822 485.611 166.888 486.037 167.072C486.462 167.256 486.831 167.551 487.103 167.927C487.448 168.456 487.656 169.063 487.708 169.693C487.806 170.101 487.806 170.527 487.708 170.936C487.552 171.359 487.306 171.743 486.987 172.062C486.668 172.381 486.283 172.627 485.86 172.783C485.063 173.109 484.201 173.244 483.342 173.176C482.943 173.167 482.551 173.067 482.198 172.882C481.776 172.668 481.386 172.399 481.037 172.08C480.506 171.646 480.095 171.083 479.843 170.445C479.621 169.72 479.571 168.953 479.696 168.205C479.798 167.44 480.085 166.71 480.53 166.079C480.726 165.867 480.906 165.638 481.102 165.344Z" fill="#817E23"/>
<path d="M481.102 165.344C480.906 165.638 480.644 165.867 480.432 166.161C479.986 166.792 479.7 167.521 479.598 168.287C479.473 169.035 479.523 169.802 479.745 170.527C479.993 171.167 480.405 171.731 480.939 172.162C481.288 172.48 481.678 172.75 482.1 172.963C482.453 173.148 482.845 173.249 483.244 173.258C484.103 173.325 484.965 173.191 485.762 172.865C486.185 172.709 486.57 172.463 486.889 172.144C487.208 171.825 487.454 171.441 487.61 171.017C487.708 170.609 487.708 170.183 487.61 169.775C487.553 169.151 487.346 168.551 487.005 168.025C486.737 167.644 486.37 167.343 485.943 167.156C485.517 166.969 485.047 166.902 484.585 166.962C483.877 167.049 483.216 167.365 482.705 167.862C482.268 168.302 481.997 168.88 481.936 169.497C481.901 169.748 481.92 170.004 481.994 170.247C482.067 170.49 482.193 170.713 482.361 170.903C482.519 171.075 482.716 171.206 482.935 171.285C483.154 171.365 483.389 171.391 483.62 171.361C483.956 171.341 484.287 171.269 484.601 171.148C484.79 171.095 484.959 170.988 485.087 170.84C485.214 170.691 485.296 170.509 485.321 170.314C485.381 170.098 485.396 169.872 485.365 169.65C485.334 169.428 485.258 169.214 485.141 169.023C485.034 168.876 484.881 168.768 484.706 168.718C484.531 168.668 484.345 168.677 484.176 168.745C484.009 168.788 483.861 168.885 483.754 169.021C483.648 169.157 483.589 169.324 483.587 169.497C483.588 169.589 483.616 169.679 483.669 169.755C483.721 169.831 483.796 169.889 483.882 169.922C483.924 169.947 483.973 169.96 484.022 169.958C484.071 169.957 484.119 169.942 484.16 169.915C484.201 169.887 484.234 169.849 484.254 169.804C484.274 169.759 484.281 169.709 484.274 169.66C484.283 169.551 484.283 169.442 484.274 169.333C484.274 169.333 484.274 169.153 484.274 169.137C484.274 169.121 484.421 169.137 484.454 169.268C484.508 169.345 484.543 169.432 484.558 169.525C484.573 169.617 484.567 169.711 484.54 169.801C484.513 169.891 484.467 169.973 484.404 170.042C484.341 170.111 484.263 170.165 484.176 170.2C483.985 170.258 483.779 170.242 483.6 170.154C483.421 170.066 483.282 169.913 483.211 169.726C483.162 169.6 483.162 169.459 483.211 169.333C483.266 169.093 483.389 168.875 483.566 168.704C483.743 168.533 483.966 168.418 484.208 168.373C484.45 168.328 484.699 168.355 484.926 168.45C485.153 168.545 485.347 168.704 485.484 168.908C485.73 169.265 485.844 169.697 485.809 170.129C485.773 170.561 485.589 170.967 485.288 171.279C484.87 171.598 484.372 171.796 483.849 171.851C483.484 171.936 483.103 171.909 482.753 171.775C482.404 171.641 482.102 171.406 481.887 171.099C481.64 170.718 481.498 170.278 481.478 169.824C481.445 169.467 481.49 169.107 481.608 168.768C481.727 168.429 481.917 168.12 482.165 167.862C482.647 167.243 483.319 166.8 484.078 166.603C484.515 166.487 484.971 166.467 485.416 166.546C485.861 166.624 486.283 166.799 486.654 167.057C487.024 167.315 487.334 167.651 487.561 168.042C487.788 168.432 487.928 168.867 487.97 169.317C488.051 170.05 488.051 170.791 487.97 171.524C487.957 171.562 487.953 171.602 487.957 171.641C487.962 171.68 487.974 171.718 487.994 171.752C488.015 171.786 488.042 171.816 488.074 171.838C488.106 171.861 488.143 171.877 488.182 171.884L488.493 172.064C488.317 172.452 488.067 172.802 487.757 173.094C486.907 173.973 485.814 174.576 484.618 174.827C483.88 175.007 483.113 175.038 482.364 174.917C481.614 174.796 480.896 174.527 480.252 174.124C479.245 173.439 478.479 172.455 478.061 171.312C477.711 170.314 477.432 169.292 477.227 168.254C477.011 167.117 476.637 166.017 476.115 164.984C475.728 164.274 475.206 163.646 474.578 163.136C474.282 162.891 473.944 162.703 473.581 162.58C474.949 162.582 476.308 162.809 477.603 163.251C478.91 163.681 480.105 164.396 481.102 165.344Z" fill="#262C57"/>
<path d="M468.103 57.3438C455.153 57.3438 444.655 63.034 444.655 70.0487V108.163C444.527 111.684 445.467 115.162 447.353 118.138C451.114 123.239 458.08 126.738 460.892 128.128C462.743 129.047 464.669 129.807 466.648 130.401C467.399 130.692 468.197 130.842 469.002 130.842C469.752 130.843 470.494 130.704 471.193 130.434C472.981 129.943 474.676 129.164 476.213 128.128C477.848 127.033 484.176 123.223 487.953 118.138C489.947 115.155 491.182 111.731 491.551 108.163V70.0487C491.551 63.034 481.053 57.3438 468.103 57.3438Z" fill="#DB8661"/>
<path d="M456.379 94.7717C457.625 94.7717 458.635 93.7615 458.635 92.5153C458.635 91.269 457.625 90.2588 456.379 90.2588C455.133 90.2588 454.123 91.269 454.123 92.5153C454.123 93.7615 455.133 94.7717 456.379 94.7717Z" fill="black"/>
<path d="M479.827 94.7717C481.073 94.7717 482.083 93.7615 482.083 92.5153C482.083 91.269 481.073 90.2588 479.827 90.2588C478.581 90.2588 477.57 91.269 477.57 92.5153C477.57 93.7615 478.581 94.7717 479.827 94.7717Z" fill="black"/>
<path d="M468.103 92.5153C466.893 92.5153 465.323 110.109 465.013 113.903C465.003 113.994 465.013 114.086 465.042 114.173C465.071 114.26 465.118 114.34 465.179 114.408C465.241 114.476 465.316 114.53 465.4 114.567C465.484 114.604 465.575 114.623 465.667 114.622H470.196C470.275 114.62 470.352 114.602 470.424 114.57C470.496 114.537 470.56 114.49 470.613 114.432C470.667 114.375 470.708 114.306 470.734 114.232C470.761 114.158 470.773 114.079 470.768 114.001C470.539 110.436 469.28 92.5153 468.103 92.5153Z" fill="#AD664E"/>
<path d="M451.425 80.3499C452.876 79.3303 454.606 78.7832 456.379 78.7832C458.152 78.7832 459.883 79.3303 461.333 80.3499C461.333 80.3499 458.685 79.4343 451.425 80.3499Z" fill="black"/>
<path d="M484.781 80.3499C483.33 79.3303 481.6 78.7832 479.827 78.7832C478.053 78.7832 476.323 79.3303 474.872 80.3499C474.872 80.3499 477.456 79.4343 484.781 80.3499Z" fill="black"/>
<path d="M461.105 120.345C464.277 121.735 470.032 123.468 474.921 120.558C474.98 120.528 475.026 120.478 475.052 120.418C475.077 120.357 475.08 120.29 475.061 120.227C475.041 120.164 475 120.11 474.945 120.075C474.889 120.04 474.823 120.025 474.758 120.034C470.263 120.359 465.747 120.271 461.268 119.773C461.192 119.751 461.111 119.76 461.042 119.799C460.973 119.837 460.922 119.901 460.9 119.977C460.879 120.053 460.888 120.134 460.926 120.203C460.965 120.272 461.029 120.323 461.105 120.345Z" fill="black"/>
<path d="M444.214 415.403C444.214 415.403 448.514 423.922 447.713 428.124C447.402 429.759 441.172 431.394 438.932 432.212C435.172 433.569 432.392 437.117 424.134 437.951C424.134 437.951 407.195 437.951 411.544 433.814L417.365 431.329C417.365 431.329 425.541 425.279 428.942 420.554L428.598 415.403H444.214Z" stroke="#F7931E" stroke-width="0.37" stroke-miterlimit="10"/>
<path d="M495.246 415.403C495.246 415.403 491.371 423.922 492.09 428.124C492.368 429.759 497.977 431.394 500.004 432.212C503.405 433.569 505.956 437.117 513.379 437.951C513.379 437.951 528.651 437.951 524.727 433.814L519.478 431.329C519.478 431.329 512.12 425.279 509.03 420.554L509.341 415.403H495.246Z" stroke="#F7931E" stroke-width="0.35" stroke-miterlimit="10"/>
<path d="M586.666 814.504L598.569 812.999L574.451 414.814H574.991V390.909H419.85V410.53L395.471 812.999L407.358 814.504L409.32 782.341H584.72L586.666 814.504ZM571.508 564.117H422.532L425.917 508.261H568.172L571.508 564.117ZM572.276 576.773L575.661 632.629H418.379L421.764 576.773H572.276ZM576.413 645.268L579.798 701.124H414.226L417.61 645.268H576.413ZM567.387 495.687H426.767L431.672 414.814H562.482L567.387 495.687ZM410.072 769.701L413.457 713.845H580.567L583.951 769.701H410.072Z" fill="#603813"/>
<path d="M570.135 888.46L583.624 886.825L556.301 441.761H556.906V415.043H381.229V436.986L353.612 886.776L367.085 888.411L369.292 852.438H567.943L570.135 888.46ZM552.966 608.707H384.254L388.08 546.278H549.123L552.966 608.707ZM553.832 622.851L557.675 685.263H379.561L383.404 622.851H553.832ZM558.541 699.407L562.368 761.82H374.868L378.694 699.407H558.541ZM548.273 532.151H388.963L394.506 441.761H542.73L548.273 532.151ZM370.159 838.393L374.002 775.964H563.234L567.06 838.393H370.159Z" fill="#F7931E"/>
<path d="M644.565 238.172H324.686C302.561 238.172 284.626 256.108 284.626 278.232V545.444C284.626 567.569 302.561 585.505 324.686 585.505H644.565C666.69 585.505 684.626 567.569 684.626 545.444V278.232C684.626 256.108 666.69 238.172 644.565 238.172Z" fill="white"/>
<path d="M513.706 458.129C513.595 457.041 513.595 455.946 513.706 454.858C514.096 452.612 514.83 450.439 515.881 448.416C517.695 445.075 520.484 442.365 523.877 440.649C525.439 439.905 527.086 439.356 528.782 439.014C530.781 438.737 532.801 438.654 534.816 438.769C535.678 438.835 536.529 439.005 537.35 439.276C538.086 439.439 538.789 439.701 539.509 439.897C541.58 440.54 543.499 441.597 545.15 443.004C547.604 445.002 549.511 447.59 550.693 450.525C551.138 451.756 551.467 453.026 551.674 454.319C552.022 456.481 552.11 458.677 551.936 460.859C551.8 463.228 551.147 465.539 550.023 467.629C548.761 470.128 546.941 472.304 544.704 473.988C542.467 475.672 539.872 476.82 537.121 477.341C535.348 477.715 533.537 477.88 531.726 477.832C530.625 477.764 529.532 477.611 528.455 477.374C527.076 477.1 525.733 476.673 524.449 476.099C521.826 474.934 519.53 473.143 517.762 470.883C516.45 469.229 515.427 467.366 514.737 465.372C513.88 463.059 513.529 460.589 513.706 458.129ZM522.029 457.9C522.02 460.132 522.541 462.335 523.55 464.326C524.391 465.972 525.653 467.366 527.209 468.365C528.764 469.364 530.557 469.933 532.404 470.013C534.251 470.092 536.086 469.681 537.722 468.819C539.358 467.958 540.736 466.678 541.716 465.111C542.781 463.281 543.411 461.231 543.558 459.119C543.706 457.007 543.366 454.889 542.566 452.929C542.081 451.404 541.209 450.031 540.033 448.944C538.858 447.858 537.421 447.096 535.862 446.732C532.069 445.767 528.472 446.078 525.594 449.07C523.307 451.414 522.028 454.56 522.029 457.834V457.9Z" fill="#1A1A1A"/>
<path d="M411.07 470.915V474.692C411.089 474.949 411.01 475.203 410.849 475.403C410.688 475.603 410.457 475.735 410.203 475.772C408.944 476.115 407.734 476.655 406.459 476.883C404.797 477.293 403.099 477.539 401.39 477.619C400.061 477.693 398.729 477.693 397.4 477.619C394.569 477.308 391.863 476.284 389.535 474.643C386.736 472.623 384.529 469.891 383.142 466.729C382.514 465.272 382.037 463.755 381.719 462.2C381.323 459.965 381.268 457.682 381.556 455.431C381.808 452.87 382.635 450.4 383.976 448.203C386.114 444.427 389.443 441.465 393.443 439.783C394.711 439.2 396.074 438.851 397.466 438.752C398.365 438.752 399.248 438.425 400.164 438.458C401.596 438.562 403.02 438.747 404.431 439.014C406.242 439.379 408.019 439.893 409.745 440.551C410.163 440.651 410.531 440.897 410.783 441.245C411.035 441.593 411.154 442.02 411.119 442.448C411.119 444.819 411.119 447.19 411.119 449.561C411.119 450.329 411.119 450.362 410.367 450.051C408.732 449.315 407.325 448.416 405.723 447.827C403.492 446.857 401.042 446.501 398.627 446.797C396.852 447.023 395.183 447.762 393.823 448.924C392.463 450.086 391.473 451.62 390.974 453.338C390.395 454.91 390.085 456.568 390.059 458.243C390.05 459.688 390.253 461.126 390.663 462.511C391.175 464.345 392.182 466.002 393.574 467.302C395.168 468.703 397.167 469.562 399.281 469.754C400.977 469.926 402.69 469.782 404.333 469.329C406.137 468.831 407.869 468.1 409.484 467.155C409.811 466.975 410.187 466.877 410.514 466.664C411.119 466.304 411.184 466.664 411.184 467.122C411.184 468.43 411.184 469.738 411.184 471.046L411.07 470.915Z" fill="#1A1A1A"/>
<path d="M492.499 466.337C492.717 466.927 492.806 467.557 492.761 468.185C492.842 470.327 492.875 472.469 492.924 474.611C492.935 474.847 492.865 475.08 492.725 475.27C492.585 475.461 492.384 475.597 492.156 475.657C490.602 476.131 489.032 476.524 487.463 476.932C484.668 477.63 481.768 477.802 478.911 477.439C476.54 477.15 474.262 476.341 472.24 475.068C469.005 473.12 466.451 470.219 464.931 466.762C464.302 465.345 463.847 463.857 463.574 462.331C463.284 460.971 463.131 459.585 463.116 458.194C463.133 456.777 463.281 455.365 463.557 453.975C463.978 451.945 464.7 449.988 465.699 448.171C467.104 445.624 469.066 443.428 471.439 441.745C473.153 440.525 475.06 439.602 477.08 439.014C477.77 438.791 478.483 438.648 479.205 438.589C480.088 438.589 480.988 438.344 481.887 438.36C483.712 438.423 485.524 438.703 487.283 439.194C488.918 439.619 490.553 440.175 492.09 440.747C492.355 440.833 492.58 441.01 492.727 441.246C492.874 441.483 492.932 441.764 492.891 442.039C492.891 444.099 492.793 446.16 492.728 448.22C492.728 448.629 492.728 449.021 492.728 449.413C492.728 450.149 492.532 450.247 491.894 449.871C490.695 449.151 489.443 448.522 488.149 447.991C485.546 446.767 482.627 446.379 479.794 446.879C478.018 447.211 476.378 448.057 475.078 449.313C473.779 450.569 472.877 452.179 472.485 453.943C472.054 455.293 471.812 456.696 471.766 458.112C471.733 459.604 471.971 461.088 472.469 462.494C472.923 463.932 473.656 465.265 474.627 466.419C475.887 467.825 477.548 468.812 479.385 469.247C481.187 469.741 483.078 469.814 484.912 469.46C486.687 469.101 488.4 468.484 489.997 467.629C490.782 467.171 491.632 466.762 492.499 466.337Z" fill="#1A1A1A"/>
<path d="M584.376 477.75C580.935 477.682 577.602 476.538 574.844 474.48C574.157 473.94 573.503 473.417 572.882 472.845C572.26 472.272 572.277 471.945 572.8 471.34L576.969 466.435C577.017 466.351 577.084 466.28 577.165 466.228C577.246 466.175 577.339 466.143 577.435 466.133C577.531 466.123 577.628 466.137 577.717 466.172C577.807 466.208 577.887 466.264 577.95 466.337C578.975 467.312 580.124 468.148 581.368 468.822C583.919 470 585.619 469.901 587.5 467.907C587.863 467.596 588.149 467.205 588.334 466.764C588.519 466.323 588.598 465.844 588.565 465.367C588.531 464.89 588.387 464.428 588.142 464.017C587.897 463.606 587.56 463.258 587.156 463.001C585.736 461.868 584.147 460.963 582.447 460.32C580.806 459.748 579.214 459.043 577.689 458.21C576.079 457.146 574.862 455.584 574.222 453.763C573.561 451.795 573.387 449.697 573.715 447.647C574.014 445.073 575.319 442.722 577.345 441.107C578.435 440.106 579.746 439.377 581.172 438.981C583.093 438.31 585.159 438.163 587.156 438.556C587.908 438.785 588.791 438.671 589.527 438.883C591.764 439.408 593.847 440.45 595.61 441.925C596.035 442.284 595.986 442.562 595.61 442.906C594.825 443.805 594.056 444.737 593.222 445.571C592.389 446.405 592.111 446.879 591.587 447.5C591.26 447.844 590.982 447.958 590.574 447.729C589.375 447.088 588.129 446.541 586.845 446.094C586.355 445.81 585.798 445.659 585.231 445.655C584.664 445.652 584.106 445.795 583.611 446.072C583.117 446.349 582.703 446.75 582.41 447.236C582.117 447.721 581.955 448.274 581.94 448.841C581.888 449.437 581.996 450.035 582.251 450.575C582.507 451.115 582.902 451.578 583.395 451.915C584.911 453.075 586.6 453.991 588.399 454.629C591.489 456.003 594.351 457.589 596.051 460.761C597.174 462.882 597.527 465.326 597.049 467.678C596.457 470.481 594.835 472.961 592.503 474.627C591.223 475.667 589.774 476.48 588.219 477.031C586.97 477.417 585.681 477.659 584.376 477.75V477.75Z" fill="#1A1A1A"/>
<path d="M563.888 512.856C556.122 513.02 550.889 507.444 551.151 499.465C551.123 496.333 552.313 493.313 554.47 491.043C556.627 488.773 559.582 487.431 562.711 487.299C572.113 486.776 576.005 493.186 576.593 498.598C576.869 500.546 576.689 502.532 576.068 504.399C575.447 506.265 574.401 507.963 573.012 509.357C571.828 510.555 570.401 511.487 568.828 512.09C567.254 512.694 565.57 512.955 563.888 512.856V512.856ZM563.316 492.286C562.1 492.292 560.913 492.662 559.91 493.35C558.907 494.038 558.134 495.012 557.691 496.145C556.721 498.185 556.512 500.505 557.103 502.686C557.38 503.926 558.008 505.061 558.913 505.954C559.818 506.847 560.96 507.461 562.204 507.722C563.409 508.103 564.7 508.118 565.913 507.766C567.127 507.414 568.209 506.71 569.023 505.743C569.872 504.755 570.486 503.586 570.817 502.326C571.148 501.065 571.189 499.746 570.936 498.467C570.698 496.657 569.776 495.007 568.358 493.858C566.941 492.708 565.136 492.145 563.316 492.286Z" fill="#1A1A1A"/>
<path d="M481.135 499.644V488.526C481.135 487.806 481.445 487.495 482.247 487.495C484.634 487.495 486.989 487.495 489.376 487.495C490.477 487.421 491.582 487.532 492.646 487.822C493.661 488.125 494.59 488.661 495.359 489.388C496.129 490.115 496.717 491.013 497.077 492.008C497.545 493.494 497.635 495.074 497.339 496.603C497.2 497.672 496.817 498.694 496.219 499.59C495.62 500.487 494.823 501.233 493.889 501.77C493.006 502.293 492.793 502.195 493.48 503.193L499.072 511.548C499.208 511.72 499.323 511.906 499.415 512.104C499.53 512.431 499.415 512.693 499.039 512.693H494.134C493.349 512.693 493.022 511.99 492.679 511.466C491.044 509.21 489.621 506.904 488.084 504.632C487.857 504.198 487.558 503.805 487.201 503.471C487.038 503.356 486.923 503.144 486.694 503.258C486.606 503.309 486.533 503.383 486.484 503.472C486.435 503.562 486.412 503.663 486.416 503.765C486.416 503.994 486.416 504.206 486.416 504.435V511.695C486.416 512.431 486.122 512.725 485.337 512.742H482.966C481.511 512.742 481.118 512.333 481.102 510.894L481.135 499.644ZM486.449 495.115C486.449 496.047 486.449 496.995 486.449 497.927C486.449 498.565 486.825 498.843 487.446 498.86C488.112 498.847 488.772 498.742 489.409 498.549C490.139 498.444 490.804 498.067 491.27 497.495C491.737 496.922 491.971 496.196 491.927 495.458C492.013 494.725 491.816 493.986 491.375 493.393C490.934 492.8 490.283 492.398 489.556 492.27C488.75 492.031 487.906 491.953 487.07 492.041C486.612 492.041 486.433 492.303 486.433 492.744C486.465 493.545 486.449 494.33 486.449 495.115Z" fill="#1A1A1A"/>
<path d="M432.801 458.145V439.995C432.801 439.406 433.03 439.21 433.585 439.227H439.439C440.764 439.227 441.074 439.586 441.074 440.862C441.074 441.614 441.074 442.382 441.074 443.151V470.915C441.074 472.55 441.074 474.071 441.172 475.657C441.172 476.704 440.829 477.112 439.815 477.112C437.804 477.112 435.809 477.112 433.814 477.112C433.062 477.112 432.866 476.802 432.866 476.148C432.866 470.13 432.866 464.097 432.866 458.08L432.801 458.145Z" fill="#1A1A1A"/>
<path d="M524.4 512.693C523.811 512.693 523.207 512.693 522.618 512.693C522.373 512.713 522.127 512.655 521.918 512.525C521.709 512.396 521.547 512.202 521.457 511.973C520.987 511.015 520.582 510.027 520.247 509.014C520.128 508.63 519.889 508.294 519.566 508.055C519.242 507.817 518.85 507.689 518.448 507.689C516.045 507.689 513.657 507.689 511.254 507.689C510.874 507.681 510.502 507.805 510.204 508.041C509.905 508.277 509.698 508.609 509.619 508.981C509.299 510.002 508.888 510.992 508.392 511.941C508.305 512.146 508.159 512.32 507.973 512.442C507.787 512.565 507.569 512.629 507.346 512.627C506.038 512.627 504.73 512.627 503.422 512.627C503.078 512.627 502.718 512.627 502.947 512.022C503.912 509.537 504.828 507.117 505.809 504.566C506.953 501.705 508.147 498.876 509.292 496.014C510.224 493.676 511.123 491.305 512.022 488.934C512.129 488.418 512.429 487.962 512.86 487.658C513.291 487.354 513.822 487.226 514.344 487.299C514.924 487.217 515.513 487.217 516.094 487.299C516.52 487.409 516.908 487.633 517.216 487.947C517.524 488.261 517.741 488.653 517.843 489.082C518.824 491.6 519.827 494.118 520.852 496.636C522.095 499.628 523.239 502.686 524.449 505.694C525.299 507.771 526.166 509.848 527.049 511.908C527.278 512.464 527.049 512.644 526.526 512.676C526.003 512.709 525.152 512.676 524.466 512.676L524.4 512.693ZM514.851 503.062C515.685 503.062 516.486 503.062 517.369 503.062C517.712 503.062 517.892 503.062 517.729 502.62L515.145 496.358C515.145 496.194 515.047 496.014 514.818 496.014C514.589 496.014 514.557 496.194 514.491 496.358C513.674 498.434 512.856 500.511 512.022 502.588C511.891 502.915 511.908 503.078 512.333 503.062C513.167 503.045 514.017 503.062 514.851 503.062Z" fill="#1A1A1A"/>
<path d="M467.269 543.94C466.239 543.94 465.192 543.94 464.162 543.94C461.906 543.94 462.249 544.234 461.497 545.902C461.186 546.621 460.908 547.341 460.614 548.06C460.523 548.303 460.36 548.511 460.146 548.658C459.933 548.804 459.679 548.881 459.42 548.878C458.178 548.878 456.951 548.878 455.709 548.878C455.038 548.878 454.94 548.633 455.185 547.979C456.036 545.804 456.821 543.613 457.704 541.438C458.439 539.689 459.126 537.906 459.846 536.14L462.462 529.6C463.148 527.85 463.868 526.117 464.571 524.384C464.637 524.171 464.773 523.988 464.958 523.863C465.142 523.738 465.363 523.68 465.585 523.697C466.321 523.697 467.073 523.697 467.809 523.697C468.166 523.684 468.519 523.775 468.826 523.957C469.134 524.14 469.382 524.407 469.542 524.727C470.343 526.264 470.866 527.899 471.553 529.469C472.567 531.873 473.597 534.276 474.529 536.713C475.281 538.658 476.164 540.571 476.867 542.501C477.57 544.43 478.355 546.343 479.156 548.24C479.385 548.796 479.156 548.911 478.699 548.927C477.407 548.927 476.131 548.927 474.84 548.927C473.957 548.927 473.45 548.257 473.09 547.063C472.893 546.268 472.613 545.495 472.256 544.757C472.134 544.489 471.932 544.266 471.676 544.12C471.421 543.973 471.126 543.91 470.834 543.94H467.269ZM466.811 539.312L469.346 539.149C469.852 539.149 470.081 539.051 469.803 538.429C469.051 536.794 468.381 535.028 467.661 533.328C467.569 533.075 467.46 532.83 467.334 532.592C467.155 532.281 466.942 532.249 466.762 532.592C466.468 533.23 466.157 533.867 465.863 534.522C465.354 535.721 464.917 536.949 464.555 538.201C464.293 539.067 464.473 539.28 465.356 539.28L466.811 539.312Z" fill="#1A1A1A"/>
<path d="M452.684 512.644C453.55 510.126 454.564 507.738 455.512 505.416C456.265 503.536 456.951 501.623 457.704 499.726C458.21 498.434 458.783 497.159 459.339 495.867C460.205 493.693 460.974 491.534 461.889 489.327C462.086 488.835 462.31 488.355 462.56 487.888C462.613 487.779 462.694 487.685 462.794 487.616C462.894 487.547 463.011 487.506 463.132 487.495C464.22 487.404 465.314 487.404 466.402 487.495C466.811 487.495 467.089 487.904 467.302 488.28C467.972 489.523 468.414 490.864 468.937 492.155C470.147 495.001 471.226 497.911 472.469 500.74C473.335 502.702 474.104 504.73 474.856 506.724C475.51 508.36 476.18 509.995 476.851 511.728C477.096 512.317 476.949 512.644 476.295 512.66C475.068 512.66 473.826 512.66 472.599 512.66C471.667 512.66 471.389 511.826 471.079 511.156C470.768 510.485 470.474 509.521 470.13 508.654C470.018 508.342 469.808 508.074 469.53 507.891C469.253 507.709 468.925 507.621 468.593 507.64H461.105C460.785 507.626 460.469 507.714 460.202 507.89C459.935 508.066 459.73 508.322 459.617 508.621C459.142 509.733 458.685 510.878 458.227 512.006C458.184 512.16 458.095 512.297 457.973 512.399C457.85 512.502 457.699 512.564 457.54 512.578C455.926 512.736 454.301 512.758 452.684 512.644ZM467.645 503.094C467 500.642 466.038 498.284 464.784 496.08C463.665 498.063 462.797 500.178 462.2 502.375C462.053 502.866 462.2 503.209 462.756 503.209C464.375 503.193 466.01 503.274 467.645 503.094Z" fill="#1A1A1A"/>
<path d="M385.071 500.249V489.065C385.047 488.821 385.047 488.574 385.071 488.329C385.08 488.218 385.11 488.109 385.16 488.009C385.211 487.908 385.281 487.819 385.366 487.747C385.451 487.674 385.55 487.618 385.656 487.584C385.763 487.549 385.875 487.536 385.987 487.545H398.365C398.464 487.53 398.566 487.538 398.662 487.567C398.758 487.596 398.847 487.646 398.922 487.713C398.997 487.78 399.056 487.862 399.095 487.955C399.135 488.047 399.153 488.147 399.15 488.248C399.15 489.441 399.15 490.651 399.15 491.861C399.15 492.319 398.823 492.319 398.545 492.319C397.515 492.319 396.468 492.319 395.438 492.319C394.408 492.319 392.969 492.319 391.743 492.319C391.582 492.293 391.418 492.302 391.261 492.345C391.104 492.388 390.958 492.464 390.833 492.567C390.707 492.671 390.606 492.8 390.534 492.946C390.463 493.092 390.423 493.252 390.418 493.415C390.205 494.582 390.205 495.779 390.418 496.947C390.418 497.437 390.745 497.601 391.236 497.601H398.12C399.019 497.601 399.101 497.601 399.035 498.533C398.945 499.594 398.945 500.66 399.035 501.721C399.035 502.261 398.872 502.359 398.447 502.391C397.22 502.49 395.994 502.506 394.751 502.49H391.579C390.778 502.49 390.467 502.784 390.304 503.569C390.075 504.713 390.075 505.891 390.304 507.035C390.418 507.526 390.565 507.771 391.236 507.755C393.558 507.755 395.88 507.755 398.201 507.755C398.659 507.755 398.937 507.934 398.937 508.458C398.937 509.635 398.97 510.812 399.035 511.99C399.035 512.333 398.839 512.398 398.594 512.464C397.858 512.659 397.099 512.758 396.337 512.758H386.625C384.99 512.758 384.81 512.513 384.81 510.91V500.249H385.071Z" fill="#1A1A1A"/>
<path d="M449.969 492.303C449.937 492.945 449.937 493.589 449.969 494.232C449.969 494.935 449.724 494.919 449.25 494.674C448.323 494.174 447.361 493.742 446.372 493.382C444.734 492.748 442.959 492.551 441.221 492.81C440.01 493.124 438.909 493.769 438.043 494.673C437.177 495.577 436.579 496.704 436.316 497.927C436.052 499.146 435.98 500.399 436.103 501.639C436.191 502.954 436.673 504.211 437.487 505.247C438.301 506.283 439.409 507.048 440.665 507.444C442.437 507.992 444.343 507.911 446.061 507.215C447.108 506.839 448.171 506.479 449.201 506.021C449.561 505.858 449.937 505.874 449.969 506.463C450.084 508.098 449.969 509.619 449.969 511.188C449.969 511.842 449.332 511.99 448.89 512.12C447.232 512.654 445.53 513.042 443.805 513.281C442.783 513.381 441.752 513.326 440.747 513.118C439.274 512.828 437.848 512.332 436.512 511.646C434.404 510.536 432.716 508.767 431.705 506.61C430.35 503.761 429.916 500.561 430.462 497.453C431.067 494.341 432.818 491.57 435.368 489.687C436.511 488.752 437.828 488.052 439.243 487.626C440.007 487.393 440.799 487.261 441.598 487.234C443.5 487.163 445.403 487.384 447.239 487.888C447.768 488.034 448.287 488.214 448.792 488.427C449.153 488.568 449.463 488.815 449.679 489.137C449.896 489.458 450.008 489.839 450.002 490.226C450.002 490.929 449.969 491.616 449.969 492.303Z" fill="#1A1A1A"/>
<path d="M547.881 492.008C547.881 492.728 547.881 493.447 547.881 494.15C547.881 494.853 547.733 494.952 547.177 494.641C546.031 493.943 544.8 493.393 543.515 493.006C542.29 492.562 540.97 492.45 539.689 492.679C538.732 492.866 537.81 493.203 536.958 493.676C535.991 494.39 535.247 495.366 534.816 496.489C534.399 497.54 534.114 498.638 533.966 499.759C533.878 500.646 533.972 501.542 534.244 502.391C534.522 503.772 535.219 505.034 536.238 506.005C536.972 506.705 537.855 507.23 538.821 507.539C539.787 507.847 540.81 507.932 541.814 507.787C543.637 507.49 545.409 506.94 547.079 506.152C547.619 505.923 547.799 506.152 547.799 506.545C547.799 508.18 547.799 509.815 547.799 511.45C547.799 512.12 547.21 512.039 546.916 512.153C545.18 512.795 543.364 513.197 541.52 513.347C539.85 513.435 538.181 513.179 536.614 512.595C534.912 512.062 533.363 511.126 532.102 509.864C530.52 508.233 529.422 506.195 528.929 503.977C528.514 502.543 528.316 501.055 528.341 499.563C528.494 496.425 529.771 493.448 531.938 491.174C533.148 489.84 534.639 488.79 536.304 488.1C537.287 487.648 538.347 487.387 539.427 487.332C540.413 487.275 541.401 487.275 542.386 487.332C543.459 487.487 544.518 487.716 545.559 488.019C546.049 488.149 546.507 488.362 546.981 488.526C547.266 488.601 547.516 488.772 547.689 489.01C547.862 489.249 547.947 489.54 547.93 489.834C547.93 490.569 547.93 491.322 547.93 492.057L547.881 492.008Z" fill="#1A1A1A"/>
<path d="M512.268 528.145V530.287C512.268 530.99 512.137 531.088 511.532 530.777C510.332 530.081 509.053 529.532 507.722 529.142C506.489 528.733 505.171 528.649 503.896 528.897C502.859 529.12 501.88 529.554 501.018 530.172C499.961 531.083 499.204 532.291 498.843 533.639C498.534 534.544 498.379 535.494 498.385 536.451C498.307 537.483 498.459 538.52 498.83 539.486C499.202 540.452 499.784 541.323 500.533 542.037C501.283 542.75 502.182 543.288 503.165 543.612C504.148 543.935 505.191 544.036 506.218 543.907C508.045 543.587 509.825 543.038 511.515 542.272C512.022 542.076 512.202 542.272 512.202 542.648C512.202 544.283 512.333 545.918 512.202 547.553C512.199 547.658 512.162 547.759 512.098 547.842C512.033 547.924 511.943 547.983 511.842 548.011C510.916 548.377 509.966 548.678 508.997 548.911C508.016 549.205 507.002 549.074 506.038 549.369C505.498 549.481 504.942 549.481 504.403 549.369C501.089 549.073 498.019 547.507 495.833 544.999C493.648 542.49 492.518 539.234 492.679 535.911C492.864 532.683 494.125 529.609 496.26 527.18C497.522 525.805 499.083 524.736 500.822 524.057C501.911 523.583 503.084 523.327 504.272 523.305C505.686 523.233 507.104 523.343 508.49 523.632C509.521 523.926 510.534 524.302 511.532 524.678C511.761 524.767 511.954 524.929 512.081 525.139C512.208 525.349 512.262 525.595 512.235 525.839C512.235 526.591 512.235 527.327 512.235 528.063L512.268 528.145Z" fill="#1A1A1A"/>
<path d="M403.875 499.939V488.673C403.875 487.659 403.875 487.594 404.938 487.545C406.001 487.495 407.113 487.463 408.208 487.545C409.304 487.626 409.353 487.79 409.353 488.738C409.353 494.118 409.353 499.497 409.353 504.877C409.353 507.689 409.5 507.068 411.757 507.231C413.146 507.346 414.553 507.133 415.959 507.231C416.515 507.231 416.744 507.493 416.744 508.065C416.744 509.417 416.744 510.774 416.744 512.137C416.744 512.513 416.744 512.676 416.237 512.693C412.362 512.856 408.486 512.693 404.611 512.693C404.186 512.693 404.006 512.595 403.957 512.137C403.908 511.679 403.859 511.107 403.859 510.502L403.875 499.939Z" fill="#1A1A1A"/>
<path d="M581.204 499.792V488.607C581.204 487.545 581.204 487.479 582.365 487.495C583.526 487.512 584.622 487.495 585.766 487.495C586.518 487.495 586.666 487.839 586.666 488.493C586.666 493.671 586.666 498.854 586.666 504.043C586.666 504.664 586.666 505.286 586.666 505.891C586.666 506.496 586.96 507.035 587.728 507.117C589.525 507.24 591.328 507.24 593.124 507.117C593.991 507.117 594.138 507.199 594.122 508.033C594.122 509.308 594.122 510.6 594.122 511.875C594.122 512.284 594.007 512.415 593.599 512.464C590.156 512.742 586.699 512.807 583.248 512.66C583.006 512.666 582.764 512.638 582.529 512.578C581.466 512.349 581.302 512.169 581.302 511.09L581.204 499.792Z" fill="#1A1A1A"/>
<path d="M521.996 546.131C521.975 546.938 521.637 547.704 521.056 548.263C520.475 548.823 519.697 549.132 518.89 549.123C518.28 549.116 517.686 548.928 517.183 548.583C516.68 548.238 516.291 547.75 516.066 547.183C515.841 546.616 515.79 545.995 515.919 545.399C516.048 544.803 516.352 544.258 516.791 543.835C517.23 543.412 517.786 543.129 518.386 543.023C518.987 542.916 519.606 542.991 520.164 543.237C520.722 543.483 521.194 543.89 521.521 544.405C521.847 544.92 522.013 545.521 521.996 546.131V546.131Z" fill="#1A1A1A"/>
<path d="M488.787 546.131C488.823 546.557 488.764 546.985 488.616 547.385C488.468 547.786 488.233 548.149 487.929 548.448C487.625 548.748 487.258 548.977 486.855 549.119C486.453 549.261 486.024 549.313 485.599 549.27C485.187 549.244 484.786 549.135 484.418 548.948C484.051 548.761 483.726 548.502 483.462 548.185C483.199 547.868 483.003 547.5 482.887 547.105C482.771 546.71 482.736 546.295 482.786 545.886C482.857 545.086 483.24 544.346 483.852 543.826C484.464 543.306 485.256 543.047 486.057 543.106C487.463 543.155 489.18 544.496 488.787 546.131Z" fill="#1A1A1A"/>
<path d="M449.953 297.249C450.522 296.982 451.069 296.671 451.588 296.317C463.852 286.163 478.175 282.516 493.807 282.827C509.014 283.138 521.604 289.793 533.246 298.884C540.759 304.739 547.109 311.949 551.968 320.141C562.809 338.438 578.359 351.633 596.673 361.902C601.882 364.875 607.356 367.36 613.024 369.325C613.053 369.435 613.058 369.549 613.04 369.662C613.023 369.774 612.982 369.881 612.92 369.976C612.859 370.071 612.778 370.153 612.683 370.215C612.588 370.278 612.482 370.32 612.37 370.339C606.899 372.641 601.174 374.288 595.315 375.244C588.644 376.062 582.006 377.337 575.252 377.615C565.184 378.13 555.093 377.216 545.281 374.901C541.504 373.969 537.726 373.07 533.933 372.154C532.766 371.427 531.548 370.787 530.287 370.241C529.859 370.137 529.457 369.947 529.105 369.684C528.752 369.421 528.457 369.089 528.235 368.709C528.014 368.329 527.872 367.908 527.817 367.472C527.762 367.035 527.795 366.592 527.916 366.169C528.897 357.87 528.897 349.484 527.916 341.185C527.156 332.767 523.375 324.908 517.271 319.061C507.804 310.052 496.57 307.779 483.931 310.559C474.823 312.57 468.332 318.064 462.445 324.817C456.902 331.178 453.812 338.323 454.662 346.859C455.153 351.993 456.183 357.029 459.257 361.297C464.735 368.9 472.338 371.222 481.347 369.832C487.277 369.181 492.924 366.95 497.699 363.373C504.697 357.667 505.465 344.766 499.906 336.574C498.419 334.219 496.25 332.373 493.689 331.281C491.128 330.189 488.294 329.902 485.566 330.458C479.271 331.374 475.902 335.576 474.12 341.397C473.703 342.888 473.766 344.473 474.3 345.927C475.641 350.112 481.315 352.876 485.19 351.241C489.441 349.475 490.684 345.322 488.346 340.645C487.953 339.86 487.528 338.814 486.433 339.124C485.337 339.435 485.419 340.482 485.501 341.397C485.679 342.595 485.794 343.801 485.844 345.011C485.909 345.563 485.821 346.122 485.588 346.626C485.355 347.13 484.987 347.56 484.525 347.869C484.063 348.177 483.524 348.351 482.969 348.372C482.414 348.393 481.864 348.259 481.38 347.987C480.411 347.663 479.571 347.037 478.983 346.202C478.394 345.366 478.088 344.365 478.11 343.343C478.116 341.377 478.768 339.468 479.964 337.909C481.16 336.349 482.835 335.225 484.732 334.71C486.652 333.986 488.757 333.915 490.722 334.506C492.687 335.097 494.403 336.317 495.606 337.98C498.794 342.444 498.451 347.447 497.666 352.5C497.383 354.693 496.472 356.757 495.041 358.443C493.611 360.129 491.722 361.364 489.605 362C486.04 363.359 482.281 364.143 478.47 364.322C473.155 364.534 468.021 363.586 464.326 359.22C462.402 357.067 460.968 354.522 460.121 351.762C459.274 349.001 459.035 346.09 459.42 343.229C460.175 336.433 463.295 330.118 468.234 325.389C473.911 319.687 481.375 316.108 489.376 315.252C494.586 314.554 499.888 315.298 504.705 317.403C509.522 319.507 513.67 322.892 516.699 327.188C521.015 332.944 522.536 339.958 523.566 346.989C524.237 351.649 524.874 356.391 523.305 360.97C519.789 371.287 512.071 377.582 502.473 381.899C493.431 385.954 483.816 386.625 474.104 386.265C469.621 386.134 465.222 385.018 461.219 382.995C456.475 380.524 452.077 377.44 448.138 373.822C442.497 368.655 437.281 363.095 434.697 355.606C431.82 347.316 431.852 338.846 433.062 330.327C434.231 321.678 437.492 313.444 442.562 306.34C444.753 303.152 447.631 300.47 449.953 297.249Z" fill="#817E23"/>
<path d="M449.953 297.249C447.631 300.519 444.672 303.152 442.366 306.406C437.31 313.522 434.055 321.759 432.882 330.409C431.721 338.912 431.705 347.398 434.517 355.688C437.117 363.177 442.333 368.769 447.975 373.903C451.91 377.522 456.309 380.601 461.056 383.06C465.046 385.1 469.444 386.217 473.924 386.33C483.653 386.706 493.267 386.036 502.293 381.965C511.891 377.648 519.626 371.369 523.141 361.035C524.694 356.473 524.073 351.731 523.403 347.055C522.373 340.024 520.852 333.009 516.519 327.253C513.489 322.978 509.348 319.613 504.544 317.52C499.74 315.428 494.455 314.689 489.261 315.382C481.254 316.231 473.782 319.811 468.103 325.52C463.255 330.247 460.203 336.514 459.469 343.245C459.085 346.107 459.325 349.017 460.171 351.778C461.018 354.538 462.452 357.082 464.375 359.236C468.07 363.602 473.188 364.551 478.502 364.338C482.318 364.152 486.081 363.369 489.654 362.016C491.771 361.38 493.66 360.145 495.09 358.459C496.521 356.773 497.432 354.709 497.715 352.516C498.5 347.464 498.843 342.46 495.655 337.98C494.439 336.334 492.718 335.131 490.755 334.555C488.791 333.98 486.693 334.063 484.781 334.791C482.883 335.304 481.206 336.428 480.01 337.988C478.813 339.548 478.163 341.458 478.159 343.425C478.138 344.444 478.445 345.443 479.033 346.276C479.622 347.109 480.461 347.731 481.429 348.052C481.911 348.33 482.461 348.468 483.017 348.45C483.573 348.433 484.113 348.261 484.577 347.954C485.04 347.646 485.409 347.216 485.642 346.71C485.874 346.205 485.961 345.645 485.893 345.093C485.893 343.883 485.664 342.673 485.55 341.463C485.55 340.547 485.55 339.5 486.482 339.206C487.414 338.912 488.002 339.926 488.378 340.71C490.733 345.387 489.49 349.54 485.239 351.322C481.364 352.958 475.69 350.178 474.349 345.992C473.815 344.544 473.752 342.965 474.169 341.479C475.902 335.642 479.287 331.456 485.615 330.54C488.344 329.978 491.18 330.261 493.744 331.351C496.309 332.44 498.481 334.285 499.971 336.639C505.531 344.815 504.746 357.748 497.764 363.439C492.99 367.016 487.343 369.246 481.413 369.897C472.436 371.287 464.8 368.965 459.322 361.378C456.232 357.094 455.218 352.058 454.711 346.94C453.877 338.389 456.968 331.259 462.511 324.899C468.381 318.146 474.889 312.652 483.996 310.641C496.636 307.861 507.869 310.134 517.336 319.143C523.44 324.99 527.221 332.848 527.981 341.266C528.962 349.566 528.962 357.952 527.981 366.251C527.861 366.673 527.826 367.115 527.88 367.551C527.934 367.986 528.075 368.406 528.295 368.786C528.514 369.166 528.808 369.498 529.159 369.762C529.51 370.026 529.91 370.217 530.336 370.323C531.6 370.866 532.824 371.5 533.998 372.219C532.013 376.599 529.198 380.553 525.708 383.861C515.505 393.378 504.059 401.243 490.161 403.483C473.057 406.328 456.019 405.756 440.845 395.585C429.122 387.72 421.355 376.749 416.204 363.7C411.789 352.532 409.484 340.809 406.868 329.199C403.99 316.429 400.54 303.806 394.293 292.18C389.863 284.199 383.927 277.152 376.814 271.43C373.45 268.687 369.654 266.521 365.581 265.021C381.049 265.609 396.223 267.212 410.939 272.689C425.598 277.894 438.922 286.282 449.953 297.249V297.249Z" fill="#262C57"/>
<path d="M442.48 88.5255C441.21 88.9565 439.823 88.8832 438.605 88.3206C437.387 87.758 436.432 86.7492 435.937 85.5025C435.441 84.2559 435.444 82.8666 435.944 81.6216C436.443 80.3767 437.402 79.3712 438.622 78.8129C437.666 78.4245 436.861 77.7379 436.326 76.8551C435.792 75.9724 435.557 74.9407 435.656 73.9136C435.755 72.8865 436.183 71.9189 436.877 71.1548C437.57 70.3906 438.492 69.8708 439.505 69.6726C438.652 68.9433 438.07 67.9476 437.853 66.8465C437.636 65.7454 437.796 64.6033 438.309 63.6049C438.821 62.6065 439.655 61.8101 440.677 61.3445C441.698 60.8789 442.846 60.7713 443.936 61.0391C443.576 58.6682 443.265 56.1338 444.574 54.0572C445.882 51.9805 449.479 51.6372 450.395 53.8773C449.872 52.9568 449.711 51.8752 449.941 50.8424C450.172 49.8096 450.778 48.8993 451.642 48.2881C452.506 47.6769 453.566 47.4084 454.616 47.5348C455.667 47.6611 456.633 48.1733 457.327 48.9719C457.852 47.2675 459.001 45.8239 460.544 44.9296C462.087 44.0354 463.91 43.7563 465.65 44.1483C466.337 45.7834 468.414 46.0941 470.13 45.9796C471.823 45.607 473.588 45.7493 475.199 46.3884C476.671 47.2877 476.834 50.1002 475.101 50.3618C476.498 50.1364 477.929 50.4146 479.14 51.1466C480.252 52.0132 480.35 54.1226 479.042 54.5967C480.029 54.6872 480.98 55.0119 481.816 55.5437C482.652 56.0755 483.35 56.7992 483.85 57.6546C484.351 58.5101 484.64 59.4726 484.694 60.4622C484.748 61.4518 484.565 62.44 484.16 63.3446L486.629 62.5271L486.76 67.0073H489.752L489.883 73.8748C489.221 71.7363 487.819 69.9035 485.928 68.705C484.037 67.5064 481.782 67.0205 479.565 67.3343C478.851 65.937 477.797 64.7419 476.499 63.8589C475.202 62.976 473.704 62.4336 472.142 62.2818C469.017 62.0188 465.871 62.2898 462.838 63.083C457.115 64.244 450.967 65.6665 447.157 70.0977C442.693 75.2647 442.824 82.8353 443.184 89.6374" fill="#191514"/>
<path d="M483.996 58.8644C483.986 58.5984 484.034 58.3333 484.138 58.0884C484.243 57.8434 484.4 57.6247 484.599 57.4479C484.798 57.2711 485.034 57.1407 485.29 57.0662C485.545 56.9916 485.814 56.9747 486.077 57.0166C486.34 57.0586 486.59 57.1584 486.81 57.3088C487.029 57.4593 487.213 57.6566 487.347 57.8865C487.481 58.1165 487.563 58.3734 487.585 58.6386C487.608 58.9038 487.572 59.1708 487.479 59.4203C488.168 59.4544 488.84 59.6441 489.444 59.9752C490.049 60.3063 490.571 60.7702 490.971 61.3321C491.371 61.8939 491.638 62.539 491.752 63.219C491.867 63.8989 491.826 64.5959 491.632 65.2577C493.382 65.0779 494.428 67.1708 494.723 68.904C495.504 73.5831 494.699 78.3892 492.433 82.5573L491.698 87.4627C490.038 77.6642 487.599 68.0136 484.405 58.6028" fill="#191514"/>
<path d="M488.673 68.1192C486.465 67.4815 484.029 66.6803 482.901 64.6691C482.28 63.2907 482.021 61.7769 482.149 60.2706C482.103 59.7737 482.218 59.2752 482.476 58.8481C482.786 58.4556 483.506 58.3902 483.718 58.8481C483.677 58.7081 483.666 58.5608 483.687 58.4162C483.708 58.2717 483.76 58.1334 483.839 58.0108C483.918 57.8881 484.023 57.784 484.146 57.7056C484.269 57.6271 484.408 57.5762 484.552 57.5563C484.849 57.5353 485.146 57.5958 485.411 57.7313C485.676 57.8667 485.9 58.0719 486.057 58.3248C486.362 58.8271 486.573 59.3814 486.678 59.9599L488.754 68.5443" fill="#191514"/>
<path d="M443.347 93.202C441.434 87.0303 441.468 80.4188 443.445 74.2673C443.691 73.5151 444.181 72.6321 444.966 72.6321C445.751 72.6321 446.094 73.8421 446.11 74.7087C446.224 80.1058 445.802 85.5008 444.851 90.8147L445.113 93.2837C444.502 93.4801 443.844 93.4801 443.233 93.2837" fill="#191514"/>
<path d="M514.916 238.172H510.861C509.226 227.331 507.82 217.144 507.591 214.234C507.15 207.284 507.084 186.339 507.084 186.339L504.354 156.776H505.187C506.305 158.599 507.231 160.533 507.951 162.548C510.567 171.214 510.24 207.824 510.24 207.824C510.273 220.856 514.916 238.172 514.916 238.172Z" fill="#C77A58"/>
<path d="M434.943 156.53L432.228 186.11C432.228 186.11 432.228 207.039 431.705 214.005C431.509 216.932 430.07 227.249 428.435 238.172C428.435 238.172 428.598 220.349 428.598 209.034C428.598 209.034 428.271 173.061 430.887 164.624C431.605 161.728 432.787 158.967 434.387 156.449L434.943 156.53Z" fill="#C77A58"/>
<path d="M439.962 238.842H435.057C436.304 231.323 436.825 223.701 436.61 216.081C434.812 187.222 438.246 158.149 436.758 156.906C435.27 155.664 434.812 164.673 434.812 164.673H430.806C430.953 163.381 437.068 144.79 439.962 162.58C439.962 162.58 439.145 214.038 439.962 221.248C440.469 225.647 439.962 238.842 439.962 238.842Z" fill="#D4D4D4"/>
<path d="M508.523 164.69H504.272C504.272 164.69 504.272 155.991 502.424 156.923C499.841 158.231 502.424 192.65 500.675 214.299C500.239 222.299 500.788 230.322 502.31 238.188H498.843V160.356C502.113 145.64 508 162.498 508 162.498C508.163 163.103 508.327 163.839 508.523 164.69Z" fill="#D4D4D4"/>
</svg>
