<?xml version="1.0" encoding="utf-8"?>
<!-- Generator: Adobe Illustrator 25.3.1, SVG Export Plug-In . SVG Version: 6.00 Build 0)  -->
<svg version="1.1" id="Capa_1" xmlns="http://www.w3.org/2000/svg" xmlns:xlink="http://www.w3.org/1999/xlink" x="0px" y="0px"
	 viewBox="0 0 283.5 283.5" style="enable-background:new 0 0 283.5 283.5;" xml:space="preserve">
<style type="text/css">
	.st0{fill:#817E23;}
	.st1{fill:#C7C7C7;}
	.st2{fill:#262C57;}
</style>
<g id="Capa_4">
	<polygon class="st0" points="283,284 0,284 105,229 170,229 	"/>
</g>
<g id="Capa_1_1_">
	<path class="st1" d="M138.1,51c-34.2,0-61.9,15-61.9,33.5v100.6c0,1.4-0.5,16,7.1,26.4c9.9,13.4,28.3,22.7,35.7,26.3
		c4.9,2.4,10,4.4,15.2,6c2,0.8,4.1,1.2,6.2,1.2c2,0,3.9-0.4,5.8-1.1c4.7-1.3,9.2-3.4,13.3-6.1c4.3-2.9,21-12.9,30.9-26.3
		c7.6-10.4,9.5-24.9,9.5-26.4V84.5C200,66,172.3,51,138.1,51z"/>
	<g>
		<path class="st2" d="M129.8,172.3l-0.3-4.1c-1-8.6,1.9-18,9.9-27.5c7.2-8.4,11.1-14.6,11.1-21.8c0-8.1-5.1-13.5-15.1-13.7
			c-5.7,0-12.1,1.9-16.1,4.9l-3.8-10c5.3-3.8,14.3-6.4,22.8-6.4c18.3,0,26.6,11.3,26.6,23.4c0,10.8-6.1,18.6-13.7,27.7
			c-7,8.3-9.6,15.3-9.1,23.4l0.2,4.1H129.8z M126.3,194.6c0-5.9,4-10,9.6-10s9.4,4.1,9.4,10c0,5.6-3.7,9.9-9.6,9.9
			C130.1,204.5,126.3,200.2,126.3,194.6z"/>
	</g>
</g>
</svg>
