<svg width="359" height="359" viewBox="0 0 359 359" fill="none" xmlns="http://www.w3.org/2000/svg">
<path d="M181.716 305.562C261.094 305.562 325.443 301.139 325.443 295.684C325.443 290.229 261.094 285.807 181.716 285.807C102.338 285.807 37.9894 290.229 37.9894 295.684C37.9894 301.139 102.338 305.562 181.716 305.562Z" fill="#F2F2F2"/>
<path d="M315.059 131.443V270.358C315.059 282.388 305.308 292.265 293.152 292.265H70.7869C58.757 292.265 48.8797 282.515 48.8797 270.358V131.443C48.8797 123.972 52.552 117.387 58.2504 113.462C61.7961 110.929 66.1016 109.536 70.7869 109.536H293.278C297.964 109.536 302.269 111.056 305.815 113.462C311.387 117.387 315.059 123.972 315.059 131.443Z" fill="#EBE9D4"/>
<path d="M305.688 287.58L193.239 197.798C186.655 192.606 177.284 192.606 170.699 197.798L58.2504 287.58C61.7961 290.113 66.1016 291.505 70.7869 291.505H293.278C297.837 291.505 302.269 289.986 305.688 287.58Z" fill="#F2F0DB"/>
<path d="M305.688 113.462L193.239 203.243C186.655 208.435 177.284 208.435 170.699 203.243L58.2504 113.462C61.7961 110.929 66.1016 109.536 70.7869 109.536H293.278C297.837 109.536 302.269 111.056 305.688 113.462Z" fill="#FFFDE6"/>
<path d="M165.001 274.537H85.7294C81.424 274.537 77.8783 270.991 77.8783 266.686V228.443C77.8783 224.138 81.424 220.592 85.7294 220.592H165.001C169.306 220.592 172.852 224.138 172.852 228.443V266.686C172.852 270.991 169.306 274.537 165.001 274.537Z" fill="white"/>
<path d="M118.02 229.963C118.02 230.089 118.02 230.343 117.894 230.596C117.894 230.596 117.767 230.722 117.767 230.849C117.767 230.976 117.641 230.976 117.514 231.102C117.387 231.229 117.387 231.229 117.261 231.229C117.134 231.229 117.134 231.356 117.134 231.356C117.007 231.482 116.754 231.609 116.374 231.862C115.994 232.115 115.741 232.242 115.361 232.495C114.981 232.749 114.601 232.875 114.222 233.128C113.842 233.382 113.462 233.508 113.082 233.762C112.702 234.015 112.322 234.142 111.942 234.395C111.562 234.521 111.182 234.775 110.929 234.901C110.676 235.028 110.549 235.155 110.296 235.281C110.043 235.408 109.916 235.534 109.663 235.661C109.41 235.788 109.283 235.914 109.03 235.914C108.776 236.041 108.65 236.041 108.396 236.041C108.27 236.041 108.143 236.041 108.017 236.041C107.89 236.041 107.763 235.914 107.637 235.914C107.51 235.788 107.51 235.788 107.383 235.661C107.257 235.534 107.257 235.408 107.257 235.281C107.257 235.155 107.257 235.155 107.383 235.028C107.383 234.901 107.51 234.901 107.637 234.901C107.763 234.901 107.763 234.775 107.89 234.775C108.017 234.775 108.143 234.648 108.143 234.648C108.27 234.648 108.396 234.521 108.523 234.521C108.65 234.521 108.776 234.395 108.903 234.395C109.03 234.395 109.156 234.268 109.283 234.268C109.41 234.268 109.536 234.141 109.663 234.141C109.789 234.015 110.043 233.888 110.169 233.762C110.296 233.635 110.423 233.508 110.549 233.255C110.676 233.002 110.802 232.875 110.929 232.749C111.056 232.622 111.182 232.369 111.309 232.242C111.436 232.115 111.436 231.989 111.562 231.862C111.562 231.736 111.689 231.609 111.689 231.482C111.689 231.356 111.816 231.229 111.816 231.102C111.816 230.976 111.816 230.849 111.816 230.722C111.816 230.343 111.689 230.089 111.562 229.836C111.436 229.583 111.182 229.456 110.929 229.456C110.802 229.456 110.549 229.456 110.423 229.583C110.169 229.709 110.043 229.836 109.789 229.963C109.536 230.089 109.41 230.216 109.283 230.469C109.156 230.596 109.03 230.722 108.903 230.849C108.65 231.102 108.396 231.356 108.143 231.736C107.89 232.115 107.763 232.369 107.51 232.749C107.257 233.128 107.13 233.382 107.004 233.762C106.877 234.142 106.624 234.395 106.497 234.775C106.37 235.028 106.37 235.281 106.244 235.661C106.244 235.914 106.117 236.294 106.117 236.674C106.117 237.434 105.99 238.067 105.99 238.7C105.99 239.333 105.864 239.84 105.864 240.346C105.864 240.473 105.737 240.726 105.611 240.853C105.484 240.98 105.357 241.106 105.104 241.106C105.104 241.106 104.977 241.106 104.851 241.106C104.724 241.106 104.724 240.98 104.598 240.98C104.471 240.98 104.471 240.853 104.344 240.853C104.218 240.853 104.218 240.726 104.218 240.6C104.218 240.473 104.218 240.22 104.218 239.967C104.218 239.713 104.218 239.46 104.344 239.207C104.471 238.953 104.471 238.7 104.471 238.447C104.471 238.194 104.471 238.067 104.471 237.94C104.598 237.434 104.598 236.801 104.724 236.041C104.724 235.408 104.851 234.648 104.851 233.888C104.851 233.762 104.851 233.508 104.851 233.255C104.851 233.002 104.851 232.749 104.851 232.369C104.851 232.115 104.851 231.862 104.851 231.609C104.851 231.356 104.851 231.229 104.851 231.102C104.977 230.089 105.231 229.456 105.737 229.456C105.864 229.456 105.864 229.456 105.99 229.583C106.117 229.583 106.117 229.709 106.244 229.709C106.37 229.836 106.37 229.836 106.37 229.963C106.37 230.089 106.37 230.089 106.37 230.216C106.37 230.469 106.37 230.596 106.37 230.849C106.37 231.102 106.244 231.356 106.244 231.482C106.244 231.736 106.117 231.989 106.117 232.115C106.117 232.242 106.117 232.495 106.117 232.749C106.117 232.875 106.117 233.002 106.117 233.002C106.497 232.242 106.877 231.736 107.257 231.102C107.637 230.596 108.017 230.089 108.396 229.836C108.65 229.583 108.903 229.456 109.156 229.203C109.41 229.076 109.663 228.823 109.916 228.696C110.169 228.57 110.423 228.443 110.676 228.443C110.929 228.443 111.182 228.316 111.436 228.316C111.689 228.316 111.816 228.316 112.069 228.443C112.322 228.57 112.449 228.696 112.575 228.95C112.702 229.203 112.829 229.33 112.955 229.709C113.082 229.963 113.082 230.343 113.082 230.722C113.082 230.976 113.082 231.229 112.955 231.609C112.829 231.862 112.702 232.115 112.575 232.369C112.449 232.622 112.195 232.875 112.069 233.128C111.816 233.382 111.689 233.635 111.436 233.762C111.942 233.635 112.322 233.382 112.829 233.128C113.335 232.875 113.842 232.622 114.222 232.369C114.728 232.115 115.108 231.736 115.614 231.482C116.121 231.229 116.501 230.849 116.881 230.596C117.007 230.469 117.134 230.469 117.134 230.343C117.261 230.343 117.261 230.216 117.387 230.216C117.514 230.216 117.514 230.216 117.514 230.343C118.02 229.836 118.02 229.836 118.02 229.963Z" fill="black"/>
<path d="M128.024 229.709C128.024 229.836 128.024 230.089 127.898 230.343C127.771 230.596 127.644 230.722 127.518 230.976C127.138 231.482 126.758 231.862 126.378 232.242C125.998 232.622 125.618 233.002 125.238 233.382C124.859 233.762 124.479 234.015 123.972 234.268C123.592 234.521 123.212 234.521 122.832 234.521C122.706 234.521 122.579 234.521 122.453 234.395C122.326 234.268 122.199 234.268 122.073 234.141C121.946 234.015 121.819 233.888 121.819 233.762C121.693 233.635 121.693 233.508 121.566 233.255C121.566 233.128 121.566 233.128 121.44 233.002C121.313 232.875 121.44 232.749 121.313 232.749C121.313 232.622 121.313 232.622 121.186 232.495C121.186 232.495 121.186 232.369 121.06 232.369C121.06 232.369 120.933 232.369 120.933 232.495C120.806 232.622 120.806 232.622 120.68 232.749C120.553 232.875 120.426 233.002 120.426 233.128C120.3 233.255 120.173 233.382 120.047 233.508C119.92 233.635 119.793 233.762 119.793 233.888C119.667 234.015 119.667 234.141 119.54 234.141C119.413 234.395 119.16 234.521 118.907 234.775C118.654 235.028 118.4 235.155 118.147 235.281C117.894 235.408 117.641 235.534 117.514 235.661C117.261 235.788 117.134 235.788 117.134 235.788C116.881 235.788 116.754 235.788 116.501 235.661C116.248 235.534 116.121 235.534 115.994 235.408C115.868 235.281 115.741 235.155 115.614 234.901C115.488 234.648 115.488 234.521 115.488 234.268C115.488 233.888 115.614 233.382 115.741 232.875C115.868 232.369 116.121 231.862 116.374 231.229C116.628 230.722 117.007 230.216 117.261 229.709C117.641 229.203 118.02 228.823 118.4 228.443C118.78 228.063 119.287 227.683 119.793 227.557C120.3 227.43 120.806 227.303 121.313 227.303C121.44 227.303 121.44 227.303 121.566 227.303C121.693 227.303 121.693 227.43 121.693 227.43C121.693 227.43 121.819 227.557 121.819 227.683C121.819 227.81 121.946 227.81 121.946 227.937L122.073 228.063C122.199 228.063 122.199 228.19 122.326 228.19C122.453 228.19 122.453 228.316 122.579 228.316L122.706 228.443C122.706 228.57 122.706 228.696 122.579 228.823C122.579 228.95 122.453 229.076 122.453 229.33C122.453 229.456 122.326 229.709 122.326 229.963C122.326 230.216 122.199 230.469 122.199 230.722C122.199 230.976 122.199 231.102 122.199 231.356C122.199 231.609 122.326 231.862 122.326 232.115C122.453 232.369 122.453 232.495 122.579 232.749C122.706 233.002 122.832 233.002 122.959 233.002C123.086 233.002 123.339 233.002 123.466 232.875C123.592 232.749 123.845 232.622 124.099 232.369C124.605 231.989 125.112 231.482 125.618 230.976C126.125 230.469 126.631 229.963 127.138 229.456C127.265 229.33 127.265 229.33 127.391 229.33C128.024 229.456 128.024 229.583 128.024 229.709ZM121.566 228.823C121.566 228.696 121.566 228.696 121.566 228.823C121.566 228.696 121.44 228.57 121.44 228.57L121.313 228.443H121.186C120.933 228.443 120.806 228.57 120.553 228.696C120.3 228.823 120.047 228.95 119.793 229.203C119.54 229.456 119.287 229.709 119.034 230.089C118.78 230.469 118.4 230.849 118.147 231.482C118.02 231.609 117.894 231.862 117.894 231.989C117.767 232.242 117.641 232.369 117.514 232.622C117.387 232.875 117.387 233.128 117.261 233.382C117.134 233.635 117.134 233.888 117.134 234.141C117.134 234.268 117.134 234.395 117.261 234.521C117.387 234.648 117.514 234.648 117.641 234.648C117.767 234.648 118.02 234.521 118.147 234.395C118.274 234.268 118.654 234.015 118.907 233.762C119.16 233.508 119.413 233.255 119.667 232.875C119.92 232.495 120.173 232.242 120.426 231.862C120.68 231.482 120.806 231.229 121.06 230.849C121.313 230.469 121.313 230.216 121.44 229.963C121.44 229.836 121.44 229.836 121.44 229.709C121.44 229.583 121.44 229.456 121.44 229.33C121.44 229.203 121.44 229.076 121.44 229.076C121.566 228.823 121.566 228.823 121.566 228.823Z" fill="black"/>
<path d="M134.862 229.709V229.836C134.862 229.836 134.862 229.963 134.862 230.089C134.862 230.216 134.862 230.216 134.736 230.216C134.609 230.216 134.609 230.343 134.609 230.343H134.483C134.356 230.343 134.356 230.343 134.229 230.343C134.103 230.343 134.103 230.343 133.976 230.343C133.849 230.343 133.849 230.343 133.849 230.343C132.836 230.469 131.95 230.849 131.19 231.482C130.557 232.115 129.924 233.128 129.417 234.268C129.291 234.521 129.291 234.775 129.164 235.028C129.037 235.281 129.037 235.534 128.911 235.788C128.911 235.914 128.784 236.041 128.784 236.168C128.784 236.294 128.784 236.421 128.657 236.547C128.657 236.547 128.657 236.674 128.531 236.674C128.404 236.674 128.404 236.801 128.278 236.801C128.151 236.801 128.024 236.801 128.024 236.927C127.898 236.927 127.898 236.927 127.771 236.927C127.391 236.927 127.138 236.547 127.138 235.788C127.138 235.534 127.138 235.408 127.138 235.155C127.138 235.028 127.138 234.775 127.138 234.648C127.138 234.521 127.138 234.268 127.138 234.141C127.138 234.015 127.138 233.762 127.138 233.508C127.138 233.255 127.138 232.875 127.265 232.495C127.391 232.115 127.391 231.735 127.391 231.356C127.391 230.976 127.518 230.596 127.518 230.216C127.518 229.836 127.644 229.583 127.644 229.329C127.644 229.076 127.771 228.823 127.898 228.696C128.024 228.57 128.151 228.443 128.404 228.443H128.531C128.657 228.443 128.657 228.57 128.657 228.57L128.784 228.696V228.823C128.784 228.95 128.784 229.076 128.784 229.329C128.784 229.456 128.784 229.709 128.784 229.836C128.784 229.963 128.784 230.216 128.657 230.343C128.657 230.469 128.531 230.722 128.531 230.849C128.404 231.102 128.404 231.482 128.404 231.609C128.404 231.862 128.278 231.989 128.278 232.242C128.278 232.495 128.278 232.622 128.151 232.875C128.151 233.128 128.024 233.382 128.024 233.762C128.151 233.508 128.151 233.382 128.278 233.255C128.404 233.128 128.404 233.002 128.404 232.875C128.404 232.749 128.531 232.622 128.531 232.622C128.531 232.495 128.657 232.495 128.657 232.369C128.657 232.242 128.784 232.115 128.784 231.989C128.911 231.862 128.911 231.735 129.037 231.609C129.417 230.976 129.797 230.469 130.304 230.089C130.684 229.709 131.19 229.329 131.57 229.203C132.077 228.95 132.456 228.823 132.71 228.823C132.836 228.823 132.963 228.823 133.216 228.823C133.469 228.823 133.596 228.823 133.849 228.95C134.103 229.076 134.229 229.076 134.356 229.203C134.736 229.456 134.862 229.456 134.862 229.709Z" fill="black"/>
<path d="M144.74 233.762C144.74 233.888 144.74 233.888 144.74 234.015C144.74 234.141 144.613 234.268 144.613 234.395C144.486 234.521 144.36 234.775 144.233 234.901C144.107 235.028 143.853 235.281 143.727 235.408C143.473 235.534 143.347 235.661 143.093 235.788C142.84 235.914 142.587 235.914 142.334 235.914C141.954 235.914 141.701 235.788 141.447 235.661C141.194 235.534 140.941 235.281 140.814 235.028C140.687 234.775 140.434 234.521 140.434 234.141C140.308 233.762 140.181 233.382 140.181 233.002C139.928 233.382 139.674 233.762 139.295 234.015C138.915 234.268 138.661 234.648 138.281 234.901C137.902 235.155 137.522 235.408 137.268 235.534C137.015 235.661 136.635 235.788 136.382 235.788C136.255 235.788 136.002 235.788 135.875 235.661C135.749 235.534 135.622 235.408 135.496 235.281C135.369 235.155 135.242 234.901 135.242 234.775C135.116 234.521 135.116 234.395 135.116 234.141C135.116 233.888 135.116 233.762 135.116 233.508C135.116 233.255 135.242 233.002 135.242 232.749C135.242 232.495 135.496 232.115 135.622 231.862C135.749 231.482 135.875 231.229 136.129 230.849C136.382 230.469 136.635 229.963 136.889 229.583C137.142 229.203 137.522 228.823 137.775 228.57C138.028 228.316 138.408 228.063 138.661 227.937C138.915 227.81 139.168 227.683 139.295 227.683H139.421C139.421 227.683 139.548 227.683 139.674 227.81C139.801 227.937 139.801 227.81 139.928 227.937C140.054 227.937 140.054 227.937 140.054 227.937H140.181C140.181 227.937 140.308 227.937 140.308 227.81C140.308 227.683 140.434 227.81 140.434 227.683H140.561C140.687 227.683 140.687 227.683 140.814 227.81C140.941 227.81 140.941 227.937 141.067 227.937C141.194 228.063 141.194 228.063 141.321 228.19C141.321 228.316 141.447 228.316 141.447 228.443C141.447 228.57 141.447 228.57 141.574 228.696C141.701 228.823 141.701 228.823 141.701 228.823L141.827 228.95C141.827 228.95 141.827 229.076 141.827 229.203C141.827 229.203 141.827 229.329 141.827 229.583C141.827 229.709 141.701 229.963 141.701 230.216C141.701 230.469 141.574 230.722 141.574 230.976C141.574 231.229 141.574 231.482 141.574 231.735C141.574 232.369 141.574 232.749 141.701 233.128C141.827 233.508 141.827 233.762 141.954 234.015C142.08 234.268 142.207 234.395 142.334 234.521C142.46 234.648 142.714 234.648 142.84 234.648C143.22 234.648 143.6 234.521 143.853 234.395C144.107 234.268 144.36 234.015 144.613 233.762C144.613 233.635 144.74 233.635 144.74 233.508L144.866 233.382C144.993 233.382 144.993 233.382 145.12 233.508C145.246 233.635 144.74 233.762 144.74 233.762ZM140.181 230.089C140.181 229.709 140.181 229.329 140.054 229.203C139.928 229.076 139.801 228.95 139.674 228.95C139.548 228.95 139.421 228.95 139.295 229.076C139.168 229.076 139.041 229.203 138.915 229.33C138.788 229.456 138.661 229.456 138.535 229.583C138.408 229.709 138.281 229.836 138.281 229.836C138.155 229.963 138.028 230.216 137.902 230.469C137.775 230.722 137.648 230.976 137.522 231.229C137.395 231.482 137.268 231.735 137.142 231.989C137.015 232.242 136.889 232.495 136.762 232.749C136.635 233.002 136.635 233.255 136.509 233.508C136.509 233.762 136.382 233.888 136.382 234.141C136.382 234.395 136.382 234.648 136.509 234.775C136.635 234.901 136.762 235.028 137.015 235.028C137.142 235.028 137.268 235.028 137.395 234.901C137.522 234.775 137.775 234.648 138.028 234.395C138.281 234.268 138.408 234.015 138.661 233.762C138.915 233.508 139.041 233.382 139.168 233.128C139.295 232.875 139.421 232.749 139.548 232.495C139.674 232.242 139.801 231.989 139.928 231.735C140.054 231.482 140.181 231.229 140.181 230.976C140.054 230.469 140.181 230.343 140.181 230.089Z" fill="black"/>
<path d="M148.159 234.648C148.159 234.648 148.159 234.775 148.159 234.901C148.159 235.028 148.159 235.155 148.159 235.155C148.159 235.281 148.032 235.534 147.652 235.788C147.399 236.041 147.146 236.168 147.019 236.168C146.639 236.168 146.513 236.041 146.386 235.914C146.259 235.788 146.259 235.534 146.259 235.155C146.259 235.028 146.259 234.901 146.259 234.775C146.259 234.648 146.259 234.521 146.259 234.521C146.259 234.395 146.386 234.268 146.639 234.142C146.892 234.015 147.019 233.888 147.146 233.888C147.526 233.888 147.905 234.015 148.159 234.268C148.032 234.395 148.159 234.521 148.159 234.648ZM148.285 228.95C148.285 229.076 148.285 229.203 148.159 229.33C148.032 229.456 148.032 229.583 147.905 229.709C147.652 229.963 147.399 229.963 147.019 229.963C146.892 229.963 146.766 229.836 146.513 229.583C146.386 229.33 146.259 229.076 146.259 228.95C146.259 228.823 146.386 228.696 146.513 228.443C146.639 228.19 146.766 228.063 146.892 228.063C147.019 227.937 147.146 227.937 147.399 227.937C147.399 227.937 147.526 227.937 147.652 228.063C147.779 228.19 147.905 228.19 147.905 228.19C148.032 228.19 148.032 228.316 148.032 228.316C148.032 228.316 148.159 228.316 148.159 228.443C148.159 228.443 148.159 228.57 148.285 228.57C148.412 228.57 148.285 228.823 148.285 228.95Z" fill="black"/>
<path d="M132.203 247.944C132.203 247.691 132.203 247.438 132.203 247.184C132.33 246.678 132.456 246.171 132.71 245.665C133.09 244.905 133.723 244.272 134.483 243.892C134.862 243.765 135.242 243.639 135.622 243.512C136.129 243.386 136.509 243.512 137.015 243.512C137.268 243.512 137.395 243.639 137.648 243.639C137.775 243.639 138.028 243.765 138.155 243.765C138.661 243.892 139.041 244.145 139.421 244.525C140.054 245.032 140.434 245.538 140.687 246.298C140.814 246.551 140.814 246.931 140.941 247.184C141.067 247.691 141.067 248.198 140.941 248.704C140.941 249.211 140.687 249.717 140.561 250.224C140.181 251.11 139.421 251.743 138.535 252.123C138.281 252.25 137.902 252.376 137.522 252.376C137.142 252.503 136.762 252.503 136.255 252.503C136.002 252.503 135.749 252.503 135.496 252.376C135.116 252.25 134.862 252.25 134.609 252.123C133.976 251.87 133.469 251.49 133.09 250.983C132.836 250.604 132.583 250.224 132.456 249.717C132.203 248.957 132.077 248.451 132.203 247.944ZM134.103 247.818C134.103 248.324 134.229 248.831 134.483 249.337C134.862 250.224 135.622 250.604 136.509 250.604C137.395 250.604 138.155 250.224 138.661 249.464C139.168 248.577 139.168 247.691 138.915 246.678C138.661 245.918 138.155 245.412 137.395 245.285C136.509 245.032 135.749 245.158 134.989 245.792C134.356 246.425 134.103 247.058 134.103 247.818Z" fill="#020202"/>
<path d="M108.65 250.857C108.65 251.11 108.65 251.49 108.65 251.743C108.65 251.87 108.65 251.997 108.396 251.997C108.143 252.123 107.89 252.25 107.51 252.25C107.13 252.376 106.75 252.376 106.37 252.376C106.117 252.376 105.737 252.376 105.484 252.376C104.851 252.25 104.218 252.123 103.711 251.743C103.078 251.237 102.571 250.604 102.192 249.97C102.065 249.591 101.938 249.337 101.812 248.957C101.685 248.451 101.685 247.944 101.812 247.438C101.812 246.805 102.065 246.298 102.318 245.792C102.825 244.905 103.584 244.272 104.471 243.892C104.724 243.765 105.104 243.639 105.357 243.639C105.611 243.639 105.737 243.512 105.99 243.512C106.37 243.512 106.624 243.639 107.004 243.639C107.383 243.765 107.763 243.892 108.27 244.019C108.523 244.145 108.523 244.272 108.523 244.399C108.523 244.905 108.523 245.538 108.523 246.045C108.523 246.171 108.523 246.171 108.396 246.171C108.017 246.045 107.637 245.792 107.383 245.665C106.877 245.412 106.37 245.285 105.737 245.412C104.851 245.538 104.344 246.045 103.964 246.931C103.838 247.311 103.711 247.691 103.711 248.071C103.711 248.451 103.711 248.704 103.838 249.084C103.964 249.464 104.218 249.844 104.471 250.224C104.851 250.604 105.231 250.73 105.737 250.73C106.117 250.73 106.497 250.73 106.877 250.604C107.257 250.477 107.637 250.35 108.017 250.097C108.143 250.097 108.143 249.97 108.27 249.97C108.396 249.844 108.396 249.97 108.396 250.097C108.65 250.224 108.65 250.477 108.65 250.857Z" fill="#020202"/>
<path d="M127.265 249.717C127.391 249.844 127.265 249.97 127.265 250.097C127.265 250.604 127.265 251.11 127.265 251.617C127.265 251.743 127.138 251.87 127.138 251.87C126.758 251.996 126.378 252.123 126.125 252.123C125.492 252.25 124.859 252.25 124.225 252.25C123.719 252.25 123.212 251.997 122.706 251.743C121.946 251.237 121.439 250.604 121.06 249.844C120.933 249.464 120.806 249.211 120.806 248.831C120.806 248.577 120.68 248.198 120.68 247.944C120.68 247.564 120.68 247.311 120.806 246.931C120.933 246.425 121.06 246.045 121.313 245.538C121.693 244.905 122.073 244.525 122.579 244.019C122.959 243.765 123.466 243.512 123.845 243.386C123.972 243.386 124.099 243.259 124.352 243.259C124.605 243.259 124.732 243.259 124.985 243.259C125.365 243.259 125.872 243.386 126.251 243.512C126.631 243.639 127.011 243.765 127.391 243.892C127.518 243.892 127.644 244.019 127.518 244.145C127.518 244.652 127.518 245.032 127.518 245.538C127.518 245.665 127.518 245.665 127.518 245.792C127.518 245.918 127.518 246.045 127.265 245.918C127.011 245.792 126.758 245.665 126.378 245.538C125.745 245.285 125.112 245.158 124.479 245.285C123.592 245.412 123.086 246.045 122.832 246.931C122.706 247.185 122.706 247.564 122.706 247.944C122.706 248.324 122.706 248.577 122.832 248.957C122.959 249.337 123.086 249.591 123.339 249.844C123.592 250.224 123.972 250.35 124.479 250.477C124.859 250.604 125.365 250.604 125.745 250.477C126.125 250.35 126.505 250.224 126.885 250.097C126.885 249.97 127.138 249.844 127.265 249.717Z" fill="#020202"/>
<path d="M148.285 252.376C147.526 252.376 146.766 252.123 146.133 251.617C146.006 251.49 145.879 251.363 145.626 251.237C145.499 251.11 145.499 250.983 145.626 250.857C146.006 250.477 146.259 250.097 146.639 249.717C146.766 249.59 146.766 249.59 146.892 249.717C147.146 249.97 147.399 250.097 147.652 250.224C148.285 250.477 148.665 250.477 149.045 249.97C149.425 249.59 149.298 249.211 148.919 248.831C148.665 248.577 148.159 248.324 147.779 248.198C147.399 248.071 147.019 247.944 146.639 247.691C146.259 247.438 146.006 247.058 145.879 246.678C145.753 246.171 145.753 245.792 145.753 245.285C145.879 244.652 146.133 244.145 146.639 243.765C146.892 243.512 147.146 243.386 147.526 243.259C147.905 243.132 148.412 243.006 148.919 243.132C149.045 243.132 149.298 243.132 149.425 243.259C149.932 243.386 150.438 243.639 150.818 243.892C150.945 244.019 150.945 244.019 150.818 244.145C150.691 244.399 150.438 244.525 150.311 244.778C150.185 244.905 150.058 245.032 149.932 245.158C149.805 245.285 149.805 245.285 149.678 245.158C149.425 245.032 149.172 244.905 148.792 244.778C148.159 244.525 147.779 244.778 147.652 245.412C147.652 245.665 147.779 245.918 148.032 246.171C148.412 246.425 148.792 246.678 149.172 246.805C149.932 247.058 150.565 247.438 150.945 248.198C151.198 248.704 151.325 249.211 151.198 249.844C151.071 250.477 150.691 250.983 150.185 251.49C149.932 251.743 149.552 251.87 149.172 251.996C148.919 252.376 148.539 252.376 148.285 252.376Z" fill="#020202"/>
<path d="M143.6 260.354C141.827 260.354 140.687 259.088 140.687 257.315C140.687 255.669 141.954 254.656 143.347 254.529C145.499 254.402 146.386 255.922 146.513 257.062C146.639 257.948 146.386 258.835 145.753 259.468C145.12 260.228 144.486 260.481 143.6 260.354ZM143.473 255.669C142.967 255.669 142.46 255.922 142.207 256.555C141.954 257.062 141.954 257.568 142.08 258.075C142.207 258.708 142.587 259.088 143.22 259.214C143.853 259.341 144.36 259.214 144.74 258.835C145.12 258.328 145.246 257.822 145.12 257.188C145.12 256.302 144.486 255.669 143.473 255.669Z" fill="#020202"/>
<path d="M124.732 257.442C124.732 256.555 124.732 255.795 124.732 254.909C124.732 254.782 124.859 254.656 124.985 254.656C125.492 254.656 126.125 254.656 126.631 254.656C126.885 254.656 127.138 254.656 127.391 254.782C127.898 254.909 128.278 255.289 128.404 255.669C128.531 256.049 128.531 256.429 128.404 256.682C128.278 257.188 128.024 257.568 127.644 257.822C127.391 257.948 127.391 257.948 127.518 258.201C127.898 258.835 128.404 259.468 128.784 260.101C128.784 260.101 128.784 260.228 128.911 260.228C128.911 260.354 128.911 260.354 128.784 260.354C128.404 260.354 128.024 260.354 127.644 260.354C127.518 260.354 127.391 260.228 127.265 260.101C126.885 259.594 126.505 259.088 126.251 258.581C126.251 258.455 126.125 258.328 125.998 258.328C125.998 258.328 125.998 258.201 125.872 258.328V258.455V258.581C125.872 259.088 125.872 259.721 125.872 260.228C125.872 260.354 125.745 260.481 125.618 260.481C125.492 260.481 125.238 260.481 125.112 260.481C124.732 260.481 124.732 260.354 124.732 260.101C124.732 259.088 124.732 258.201 124.732 257.442ZM125.872 256.302C125.872 256.555 125.872 256.682 125.872 256.935C125.872 257.062 125.998 257.188 126.125 257.188C126.251 257.188 126.378 257.188 126.631 257.062C127.011 256.935 127.265 256.682 127.265 256.302C127.265 255.922 127.138 255.669 126.758 255.542C126.631 255.542 126.378 255.542 126.251 255.542C126.125 255.542 126.125 255.542 126.125 255.669C125.872 256.049 125.872 256.175 125.872 256.302Z" fill="#020202"/>
<path d="M113.588 247.944C113.588 246.551 113.588 245.158 113.588 243.765C113.588 243.639 113.588 243.639 113.715 243.639C114.222 243.639 114.601 243.639 115.108 243.639C115.361 243.639 115.488 243.765 115.488 244.019C115.488 244.145 115.488 244.399 115.488 244.525C115.488 246.678 115.488 248.704 115.488 250.857C115.488 251.237 115.488 251.617 115.488 251.997C115.488 252.25 115.361 252.376 115.235 252.376C114.728 252.376 114.348 252.376 113.842 252.376C113.715 252.376 113.588 252.25 113.588 252.123C113.588 250.604 113.588 249.211 113.588 247.944Z" fill="#020202"/>
<path d="M134.609 260.354C134.483 260.354 134.356 260.354 134.229 260.354C134.103 260.354 133.976 260.354 133.976 260.228C133.849 259.974 133.723 259.848 133.723 259.594C133.723 259.468 133.469 259.341 133.343 259.341C132.836 259.341 132.203 259.341 131.697 259.341C131.443 259.341 131.317 259.468 131.317 259.594C131.19 259.848 131.19 260.101 131.063 260.228C131.063 260.354 130.937 260.354 130.81 260.354C130.557 260.354 130.177 260.354 129.924 260.354C129.797 260.354 129.797 260.354 129.797 260.228C130.05 259.721 130.177 259.088 130.43 258.581C130.684 257.948 130.937 257.315 131.19 256.682C131.443 256.175 131.57 255.542 131.823 255.036C131.95 254.782 132.077 254.656 132.33 254.656C132.456 254.656 132.583 254.656 132.71 254.656C132.963 254.656 133.09 254.909 133.09 255.036C133.343 255.669 133.596 256.175 133.723 256.808C133.976 257.442 134.229 258.201 134.609 258.835C134.862 259.341 134.989 259.721 135.242 260.228C135.242 260.354 135.242 260.354 135.116 260.354C134.862 260.354 134.736 260.354 134.609 260.354ZM132.456 258.201C132.71 258.201 132.836 258.201 133.09 258.201C133.216 258.201 133.216 258.201 133.216 258.075C132.963 257.568 132.836 257.062 132.583 256.682C132.583 256.682 132.583 256.555 132.456 256.555C132.456 256.555 132.456 256.555 132.33 256.682C132.203 257.188 131.95 257.695 131.823 258.075C131.823 258.201 131.823 258.201 131.95 258.201C132.077 258.201 132.203 258.201 132.456 258.201Z" fill="#020202"/>
<path d="M121.566 267.572C121.313 267.572 121.06 267.572 120.806 267.572C120.3 267.572 120.426 267.699 120.173 268.079C120.047 268.205 120.047 268.459 119.92 268.585C119.92 268.712 119.793 268.712 119.667 268.712C119.413 268.712 119.16 268.712 118.78 268.712C118.654 268.712 118.654 268.712 118.654 268.459C118.907 267.952 119.033 267.446 119.287 266.939C119.413 266.559 119.667 266.179 119.793 265.673C120.047 265.166 120.173 264.66 120.426 264.153C120.553 263.773 120.806 263.393 120.933 263.013C120.933 262.887 121.06 262.887 121.186 262.887C121.313 262.887 121.566 262.887 121.693 262.887C121.819 262.887 121.946 263.013 122.073 263.14C122.199 263.52 122.326 263.9 122.579 264.28C122.832 264.786 123.086 265.419 123.212 265.926C123.339 266.432 123.592 266.812 123.719 267.192C123.845 267.572 124.099 268.079 124.225 268.459C124.225 268.585 124.225 268.585 124.099 268.585C123.845 268.585 123.466 268.585 123.212 268.585C122.959 268.585 122.832 268.459 122.832 268.205C122.832 268.079 122.706 267.825 122.579 267.699C122.453 267.572 122.453 267.572 122.199 267.572C122.073 267.572 121.819 267.572 121.566 267.572ZM121.439 266.432C121.566 266.432 121.819 266.432 122.073 266.432C122.199 266.432 122.199 266.432 122.199 266.306C122.073 265.926 121.819 265.546 121.693 265.166C121.693 265.166 121.693 265.04 121.566 265.04C121.566 264.913 121.439 264.913 121.439 265.04C121.313 265.166 121.313 265.293 121.186 265.546C121.06 265.799 120.933 266.053 120.933 266.432C120.933 266.686 120.933 266.686 121.06 266.686C121.186 266.432 121.313 266.432 121.439 266.432Z" fill="#020202"/>
<path d="M118.147 260.354C118.4 259.721 118.527 259.214 118.78 258.708C118.907 258.328 119.16 257.822 119.287 257.442C119.413 257.188 119.54 256.808 119.667 256.555C119.92 256.049 120.047 255.542 120.3 255.036C120.3 254.909 120.426 254.782 120.426 254.656L120.553 254.529C120.806 254.529 121.06 254.529 121.313 254.529C121.439 254.529 121.439 254.656 121.566 254.656C121.693 254.909 121.819 255.289 121.946 255.542C122.199 256.175 122.453 256.808 122.706 257.568C122.959 258.075 123.086 258.455 123.212 258.961C123.339 259.341 123.466 259.721 123.719 260.101C123.719 260.228 123.719 260.354 123.592 260.354C123.339 260.354 123.086 260.354 122.706 260.354C122.453 260.354 122.453 260.228 122.326 259.974C122.199 259.848 122.199 259.594 122.073 259.341C122.073 259.214 121.946 259.088 121.693 259.088C121.186 259.088 120.553 259.088 120.047 259.088C119.92 259.088 119.793 259.214 119.667 259.341C119.54 259.594 119.413 259.848 119.287 260.101C119.287 260.228 119.16 260.228 119.16 260.228C118.907 260.354 118.527 260.354 118.147 260.354ZM121.566 258.201C121.439 257.568 121.186 257.062 120.933 256.555C120.68 257.062 120.426 257.442 120.3 257.948C120.3 258.075 120.3 258.201 120.426 258.201C120.806 258.201 121.186 258.201 121.566 258.201Z" fill="#020202"/>
<path d="M102.698 257.568V255.036V254.909C102.698 254.782 102.825 254.782 102.951 254.782C103.838 254.782 104.851 254.782 105.737 254.782C105.864 254.782 105.864 254.782 105.864 254.909C105.864 255.162 105.864 255.416 105.864 255.795C105.864 255.922 105.737 255.922 105.737 255.922C105.484 255.922 105.231 255.922 104.977 255.922C104.724 255.922 104.471 255.922 104.091 255.922C103.964 255.922 103.838 256.049 103.838 256.175C103.838 256.429 103.838 256.682 103.838 256.935C103.838 257.062 103.964 257.062 103.964 257.062C104.471 257.062 104.977 257.062 105.484 257.062C105.737 257.062 105.737 257.062 105.737 257.315C105.737 257.568 105.737 257.822 105.737 258.075C105.737 258.201 105.737 258.201 105.611 258.201C105.357 258.201 105.104 258.201 104.724 258.201C104.471 258.201 104.218 258.201 103.964 258.201C103.838 258.201 103.711 258.328 103.711 258.455C103.711 258.708 103.711 258.961 103.711 259.214C103.711 259.341 103.711 259.341 103.964 259.341C104.471 259.341 104.977 259.341 105.611 259.341C105.737 259.341 105.737 259.341 105.737 259.468C105.737 259.721 105.737 259.974 105.737 260.228C105.737 260.354 105.737 260.354 105.611 260.354C105.484 260.354 105.231 260.481 105.104 260.481C104.344 260.481 103.711 260.481 102.951 260.481C102.951 260.481 102.951 260.481 102.825 260.481C102.445 260.481 102.445 260.481 102.318 260.101V257.568C102.698 257.568 102.698 257.568 102.698 257.568Z" fill="#020202"/>
<path d="M117.514 255.669C117.514 255.795 117.514 255.922 117.514 256.049C117.514 256.175 117.514 256.175 117.387 256.175C117.134 256.049 117.007 255.922 116.754 255.922C116.374 255.795 115.994 255.669 115.614 255.795C115.108 255.922 114.601 256.429 114.475 256.935C114.475 257.188 114.348 257.568 114.475 257.822C114.475 258.328 114.855 258.961 115.488 259.088C115.868 259.214 116.374 259.214 116.754 259.088C117.007 258.961 117.261 258.961 117.514 258.835C117.641 258.835 117.641 258.835 117.641 258.961C117.641 259.341 117.641 259.721 117.641 260.101C117.641 260.228 117.514 260.228 117.387 260.354C117.007 260.481 116.628 260.607 116.248 260.607C115.994 260.607 115.741 260.607 115.488 260.607C115.108 260.481 114.855 260.481 114.475 260.228C113.968 259.974 113.588 259.594 113.335 259.088C112.955 258.455 112.955 257.695 113.082 256.935C113.208 256.175 113.588 255.669 114.221 255.162C114.475 254.909 114.728 254.782 115.108 254.656C115.235 254.656 115.488 254.529 115.614 254.529C115.994 254.529 116.501 254.529 116.881 254.656C117.007 254.656 117.134 254.782 117.261 254.782C117.514 254.909 117.514 255.036 117.514 255.162C117.514 255.416 117.514 255.542 117.514 255.669Z" fill="#020202"/>
<path d="M139.928 255.669C139.928 255.795 139.928 256.049 139.928 256.175C139.928 256.302 139.928 256.302 139.801 256.302C139.548 256.175 139.295 256.049 138.915 255.922C138.661 255.795 138.281 255.795 138.028 255.795C137.775 255.795 137.648 255.922 137.395 256.049C137.142 256.175 137.015 256.429 136.889 256.682C136.762 256.935 136.762 257.188 136.635 257.442C136.635 257.695 136.635 257.822 136.762 258.075C136.889 258.328 137.015 258.708 137.268 258.961C137.648 259.341 138.028 259.468 138.535 259.341C138.915 259.341 139.295 259.088 139.801 258.961C139.928 258.961 139.928 258.961 139.928 259.088C139.928 259.468 139.928 259.848 139.928 260.228C139.928 260.354 139.801 260.354 139.674 260.354C139.295 260.481 138.915 260.607 138.408 260.607C138.028 260.607 137.648 260.607 137.268 260.481C136.889 260.354 136.509 260.101 136.255 259.848C135.875 259.468 135.622 258.961 135.496 258.455C135.369 258.075 135.369 257.822 135.369 257.442C135.369 256.682 135.622 256.049 136.255 255.542C136.509 255.289 136.889 255.036 137.268 254.782C137.522 254.656 137.775 254.656 138.028 254.656C138.281 254.656 138.535 254.656 138.661 254.656C138.915 254.656 139.168 254.782 139.421 254.782C139.548 254.782 139.674 254.909 139.801 254.909C139.928 254.909 140.054 255.036 140.054 255.162C139.928 255.289 139.928 255.416 139.928 255.669Z" fill="#020202"/>
<path d="M131.823 263.9C131.823 264.026 131.823 264.28 131.823 264.406C131.823 264.533 131.823 264.533 131.697 264.533C131.443 264.406 131.19 264.28 130.81 264.153C130.557 264.026 130.304 264.026 129.924 264.153C129.671 264.28 129.417 264.28 129.291 264.406C129.037 264.66 128.911 264.913 128.784 265.166C128.657 265.419 128.657 265.546 128.657 265.799C128.657 266.432 128.911 266.939 129.417 267.319C129.797 267.446 130.05 267.572 130.43 267.572C130.81 267.572 131.19 267.319 131.697 267.192C131.823 267.192 131.823 267.192 131.823 267.319C131.823 267.699 131.823 268.079 131.823 268.459C131.823 268.459 131.823 268.585 131.697 268.585C131.443 268.712 131.317 268.712 131.063 268.838C130.81 268.965 130.557 268.838 130.43 268.965C130.304 268.965 130.177 268.965 130.05 268.965C129.417 268.965 128.784 268.712 128.278 268.205C128.024 267.952 127.771 267.572 127.644 267.192C127.518 266.812 127.391 266.432 127.391 265.926C127.518 265.166 127.644 264.533 128.151 263.9C128.404 263.52 128.784 263.393 129.164 263.14C129.417 263.013 129.671 263.013 129.924 263.013C130.304 263.013 130.557 263.013 130.937 263.14C131.19 263.267 131.443 263.267 131.57 263.393C131.697 263.393 131.697 263.52 131.697 263.647C131.823 263.52 131.823 263.773 131.823 263.9Z" fill="#020202"/>
<path d="M107.004 257.442C107.004 256.682 107.004 255.795 107.004 255.036V254.909C107.004 254.656 107.004 254.656 107.257 254.656C107.51 254.656 107.763 254.656 108.017 254.656C108.27 254.656 108.27 254.656 108.27 254.909C108.27 256.175 108.27 257.315 108.27 258.581C108.27 259.214 108.27 259.088 108.776 259.088C109.156 259.088 109.41 259.088 109.789 259.088C109.916 259.088 109.916 259.088 109.916 259.214C109.916 259.468 109.916 259.848 109.916 260.101C109.916 260.228 109.916 260.228 109.789 260.228C108.903 260.228 108.017 260.228 107.13 260.228C107.004 260.228 107.004 260.228 107.004 260.101C107.004 259.974 107.004 259.848 107.004 259.721C107.004 259.088 107.004 258.328 107.004 257.442Z" fill="#020202"/>
<path d="M147.652 257.442L147.526 254.909C147.652 254.656 147.652 254.656 147.905 254.656C148.159 254.656 148.412 254.656 148.665 254.656C148.792 254.656 148.919 254.782 148.919 254.909C148.919 256.049 148.919 257.315 148.919 258.455C148.919 258.581 148.919 258.708 148.919 258.835C148.919 258.961 149.045 259.088 149.172 259.088C149.552 259.088 150.058 259.088 150.438 259.088C150.691 259.088 150.691 259.088 150.691 259.341C150.691 259.594 150.691 259.974 150.691 260.228C150.691 260.354 150.691 260.354 150.565 260.354C149.805 260.481 149.045 260.354 148.159 260.354H148.032C147.779 260.354 147.779 260.228 147.779 259.974V257.442H147.652Z" fill="#020202"/>
<path d="M134.103 268.079C134.103 268.459 133.723 268.838 133.343 268.712C132.963 268.712 132.583 268.332 132.583 267.952C132.583 267.572 132.836 267.319 133.343 267.192C133.723 267.319 134.103 267.572 134.103 268.079Z" fill="#020202"/>
<path d="M126.378 267.952C126.505 268.459 125.998 268.712 125.618 268.712C125.238 268.712 124.985 268.459 124.985 267.952C124.985 267.572 125.365 267.319 125.745 267.319C126.125 267.319 126.505 267.699 126.378 267.952Z" fill="#020202"/>
</svg>
