<svg width="284" height="284" viewBox="0 0 284 284" fill="none" xmlns="http://www.w3.org/2000/svg">
<path d="M140 197C193.572 197 237 189.778 237 180.87C237 171.962 193.572 164.74 140 164.74C86.4284 164.74 43 171.962 43 180.87C43 189.778 86.4284 197 140 197Z" fill="#E6E6E6"/>
<path d="M122.44 165.78C122.44 165.78 116.5 167.43 108.32 169.68C108.3 169.68 108.3 169.68 108.3 169.68H108.29C107.56 169.88 106.18 170.25 104.34 170.75C93.1 173.8 64.72 181.46 62.38 182C58.9 182.79 62.57 171.22 64.62 167.87L77.95 163.68H77.97L79.49 163.2L85.36 161.34L93.34 158.83L110.77 153.36L110.8 153.35L110.81 153.36L122.44 165.78Z" fill="#333333"/>
<path d="M230.19 180.67C229.94 178.36 228.38 176.44 226.19 175.69C222.3 174.4 216.13 171.48 212.21 165.35C212.21 163.15 212.11 160.97 211.93 158.8C211.08 148.84 208.39 139.26 204.14 130.52C203.46 129.11 202.73 127.72 201.97 126.36C201.3 105.44 167.81 78 132 78C96.11 78 58.62 110.11 58.03 132.46C56.62 135.59 55.38 138.84 54.36 142.19C45.73 148.25 51.44 156.05 51.44 156.05C51.44 156.05 65.92 160.42 77.95 163.68H77.97C78.39 163.79 78.8 163.9 79.21 164C81.12 164.52 82.96 165.01 84.63 165.42C86.95 166.01 88.96 166.48 90.52 166.78C91.01 166.89 102.01 168.77 108.29 169.68H108.3C108.3 169.68 108.3 169.68 108.32 169.68C143.71 174.74 180.26 175.62 205.42 180.21C207.24 180.54 209 180.89 210.69 181.26C215.62 182.34 226.37 186.76 230.61 184.42L230.19 180.67Z" fill="#F7931E"/>
<path d="M59.12 145.16C59.12 145.16 84.9 152.04 94.66 153.7C94.66 153.7 141.57 52.6 192.98 166.35L203.79 168.06C203.79 168.07 159.51 25.71 59.12 145.16Z" fill="#E6891C"/>
<path d="M210.63 178.89L205.42 180.21C180.26 175.62 143.71 174.74 108.32 169.68C108.3 169.68 108.3 169.68 108.3 169.68H108.29C102.01 168.77 91.01 166.89 90.52 166.78C88.96 166.48 86.95 166.01 84.63 165.42C82.96 165.01 81.12 164.52 79.21 164L79.49 163.2L88 151C88 151 96.22 154.27 106.54 158.05C107.89 158.54 107.59 162.5 109 163C110.4 163.5 113.52 160.56 114.96 161.06C116.01 161.43 115.94 164.64 117 165C118.25 165.43 120.63 163.01 121.87 163.42C122.73 163.7 123.15 166.73 124 167C125.08 167.35 126.58 164.95 127.63 165.28C133.28 167.04 138.38 168.42 142 169C157.29 171.45 202 164 202 164C202 164 211.26 173.79 210.63 178.89Z" fill="#E6891C"/>
<path d="M211.93 158.8L204.2 160.19L196.86 131.8L204.14 130.51C205.66 133.63 206.98 136.88 208.08 140.19C208.36 141.03 208.62 141.85 208.87 142.7C208.91 142.85 208.96 143.01 209 143.18C209.13 143.63 209.27 144.08 209.39 144.54C209.43 144.67 209.46 144.82 209.49 144.96L209.5 144.97C209.65 145.52 209.78 146.08 209.92 146.63C209.99 146.91 210.05 147.2 210.11 147.48C210.29 148.23 210.45 148.99 210.6 149.74C210.7 150.26 210.81 150.79 210.91 151.31C211.38 153.78 211.72 156.28 211.93 158.8Z" fill="white"/>
<path d="M209.52 144.98L209.51 144.97C209.47 144.97 209.42 145 209.38 145.04C209.2 145.2 209.1 145.61 209.1 146.07C209.11 146.34 209.16 146.52 209.25 146.62C209.35 146.74 209.43 146.58 209.43 146.26C209.43 146.13 209.43 145.98 209.42 145.83C209.42 145.73 209.42 145.61 209.46 145.56C209.5 145.53 209.52 145.65 209.53 145.74C209.63 146.31 209.59 146.8 209.41 147.01C209.25 147.2 209.01 146.88 208.95 146.37C208.92 146.21 208.92 146.03 208.94 145.83C209.01 145.16 209.16 144.65 209.42 144.54C209.3 144.08 209.17 143.63 209.03 143.18C208.91 143.37 208.79 143.63 208.69 143.91C208.48 144.49 208.36 145.21 208.33 146.03C208.3 146.76 208.36 147.39 208.52 147.94C208.68 148.46 208.89 148.57 209.12 148.55C209.28 148.54 209.45 148.43 209.6 148.27C209.79 148.08 209.91 147.72 209.94 147.13C209.95 146.97 209.95 146.79 209.95 146.62L209.52 144.98Z" fill="#817E23"/>
<path d="M210.63 149.75C210.48 150.12 210.32 150.42 210.12 150.66C209.75 151.14 209.33 151.23 208.92 151.18C208.73 151.15 208.55 151.05 208.37 150.79C208.18 150.49 207.98 150.13 207.82 149.7C207.58 149.09 207.37 148.43 207.25 147.53C207.13 146.54 207.13 145.53 207.18 144.51C207.24 143.46 207.37 142.51 207.58 141.66C207.68 141.27 207.8 140.94 207.91 140.55C207.92 140.52 207.95 140.49 207.97 140.45C208.01 140.36 208.04 140.27 208.09 140.2C208.37 141.04 208.63 141.86 208.88 142.71C208.72 143.01 208.57 143.41 208.43 143.86C208.19 144.62 208.07 145.47 208.1 146.49C208.11 147.1 208.16 147.7 208.29 148.21C208.53 149.12 208.84 149.39 209.23 149.23C209.47 149.13 209.72 148.92 209.92 148.47C210.02 148.23 210.1 147.89 210.13 147.5C210.32 148.24 210.48 149 210.63 149.75Z" fill="#817E23"/>
<path d="M208.93 145.83C209 145.16 209.15 144.65 209.41 144.54C209.45 144.67 209.48 144.82 209.51 144.96L209.52 144.97C209.46 144.97 209.42 144.98 209.37 145.03C209.19 145.19 209.09 145.6 209.09 146.06C209.1 146.33 209.15 146.51 209.24 146.61C209.34 146.73 209.42 146.57 209.42 146.25C209.42 146.12 209.42 145.97 209.41 145.82C209.41 145.72 209.41 145.6 209.45 145.55C209.49 145.52 209.51 145.64 209.52 145.73C209.62 146.3 209.58 146.79 209.4 147C209.24 147.19 209 146.87 208.94 146.36C208.91 146.21 208.91 146.03 208.93 145.83Z" fill="#262C57"/>
<path d="M210.14 147.49C210.11 147.88 210.04 148.22 209.93 148.46C209.74 148.91 209.48 149.12 209.24 149.22C208.85 149.38 208.54 149.12 208.3 148.2C208.17 147.69 208.12 147.09 208.11 146.48C208.08 145.46 208.2 144.61 208.44 143.85C208.57 143.4 208.72 143 208.89 142.7C208.93 142.85 208.98 143.01 209.02 143.18C208.9 143.37 208.78 143.63 208.68 143.91C208.47 144.49 208.35 145.21 208.32 146.03C208.29 146.76 208.35 147.39 208.51 147.94C208.67 148.46 208.88 148.57 209.11 148.55C209.27 148.54 209.44 148.43 209.59 148.27C209.78 148.08 209.9 147.72 209.93 147.13C209.94 146.97 209.94 146.79 209.94 146.62C210.02 146.92 210.08 147.21 210.14 147.49Z" fill="#262C57"/>
<path d="M210.94 151.32C210.55 152.25 210.12 152.99 209.6 153.25C208.88 153.58 208.17 153.52 207.52 152.31C207.01 151.37 206.7 150.05 206.47 148.5C206.28 147.17 206.19 145.78 206.08 144.39C205.95 142.87 205.81 141.36 205.54 139.98C205.36 139.01 205.11 138.19 204.81 137.48C204.66 137.15 204.51 136.91 204.33 136.72C204.99 136.79 205.63 136.99 206.24 137.63C206.87 138.29 207.42 139.23 207.9 140.56C207.8 140.95 207.68 141.28 207.57 141.67C207.36 142.52 207.23 143.48 207.17 144.52C207.13 145.54 207.13 146.55 207.24 147.54C207.36 148.44 207.57 149.09 207.81 149.71C207.97 150.14 208.17 150.5 208.36 150.8C208.54 151.05 208.72 151.16 208.91 151.19C209.31 151.23 209.73 151.15 210.11 150.67C210.3 150.43 210.47 150.13 210.62 149.76C210.73 150.27 210.84 150.79 210.94 151.32Z" fill="#262C57"/>
<path d="M80.31 197.55L41.46 193.07L53.41 131.8L92.27 136.28L80.31 197.55Z" fill="#F2F2F2"/>
<path d="M56.21 140.44C55.63 142.83 55.06 145.22 54.48 147.61C54.31 148.31 55.39 148.61 55.56 147.91C56.14 145.52 56.71 143.13 57.29 140.74C57.46 140.03 56.38 139.74 56.21 140.44Z" fill="#0F0F0F"/>
<path d="M56.44 142.16C56.48 142.24 56.43 142.12 56.42 142.1C56.39 142.01 56.41 142.14 56.41 142.04C56.41 142.01 56.42 141.89 56.4 141.98C56.41 141.92 56.43 141.86 56.44 141.8C56.45 141.77 56.46 141.75 56.47 141.73C56.47 141.74 56.44 141.8 56.47 141.74C56.5 141.69 56.52 141.65 56.55 141.6C56.58 141.55 56.55 141.6 56.54 141.61C56.56 141.59 56.57 141.57 56.59 141.55C56.63 141.5 56.68 141.46 56.73 141.42C56.66 141.47 56.77 141.4 56.79 141.39C56.82 141.38 56.93 141.33 56.85 141.36C56.9 141.34 56.95 141.33 57 141.32C56.99 141.32 56.92 141.33 56.99 141.32C57.03 141.32 57.07 141.32 57.11 141.32C57.14 141.32 57.17 141.32 57.2 141.32C57.19 141.32 57.13 141.31 57.2 141.32C57.26 141.33 57.31 141.35 57.37 141.36C57.4 141.37 57.43 141.38 57.45 141.39C57.44 141.38 57.39 141.36 57.45 141.39C57.51 141.42 57.57 141.46 57.63 141.49C57.7 141.54 57.64 141.49 57.7 141.55C57.74 141.59 57.79 141.63 57.83 141.68C57.87 141.73 57.94 141.82 58 141.93C58.05 142.02 57.98 141.87 58.02 141.96C58.03 141.99 58.04 142.02 58.05 142.04C58.07 142.1 58.08 142.16 58.1 142.22C58.11 142.29 58.12 142.42 58.11 142.55C58.1 142.72 58.02 142.99 57.93 143.16C57.8 143.4 57.68 143.55 57.47 143.74C57.03 144.14 56.44 144.33 55.84 144.44C55.54 144.49 55.37 144.86 55.45 145.13C55.54 145.44 55.84 145.58 56.14 145.52C57.68 145.24 59.21 144.16 59.24 142.46C59.25 141.67 58.85 140.94 58.19 140.51C57.57 140.11 56.72 140.07 56.12 140.51C55.41 141.03 55.12 141.92 55.49 142.73C55.62 143.01 56.01 143.07 56.26 142.93C56.52 142.76 56.56 142.44 56.44 142.16Z" fill="#0F0F0F"/>
<path d="M59.1 144.97C58.38 145.02 57.71 145.46 57.42 146.13C57.26 146.5 57.2 146.87 57.27 147.28C57.33 147.6 57.51 147.91 57.75 148.14C58.22 148.59 58.94 148.82 59.57 148.63C60.25 148.43 60.66 147.83 60.7 147.14C60.72 146.81 60.64 146.46 60.48 146.16C60.29 145.82 59.99 145.58 59.63 145.45C59.35 145.35 59 145.56 58.94 145.84C58.87 146.16 59.04 146.42 59.33 146.53C59.43 146.57 59.2 146.46 59.29 146.52C59.31 146.53 59.34 146.54 59.36 146.56C59.37 146.57 59.39 146.58 59.4 146.59C59.49 146.64 59.3 146.5 59.37 146.57C59.4 146.6 59.43 146.63 59.46 146.66C59.53 146.73 59.38 146.54 59.44 146.63C59.45 146.65 59.47 146.67 59.48 146.7C59.5 146.74 59.52 146.78 59.54 146.82C59.46 146.69 59.5 146.73 59.52 146.78C59.53 146.8 59.53 146.82 59.54 146.84C59.55 146.89 59.56 146.93 59.57 146.98C59.58 147.02 59.57 147.07 59.56 146.91C59.56 146.95 59.57 146.98 59.57 147.02C59.57 147.06 59.57 147.11 59.57 147.15C59.56 147.3 59.6 147.01 59.57 147.16C59.56 147.2 59.55 147.25 59.54 147.29C59.53 147.31 59.52 147.34 59.51 147.36C59.55 147.2 59.54 147.28 59.52 147.33C59.5 147.37 59.46 147.41 59.44 147.45C59.44 147.45 59.54 147.34 59.48 147.4C59.46 147.42 59.45 147.44 59.43 147.46C59.41 147.48 59.4 147.49 59.38 147.5C59.33 147.55 59.51 147.42 59.42 147.47C59.37 147.5 59.32 147.52 59.27 147.55C59.38 147.47 59.36 147.51 59.3 147.54C59.28 147.55 59.26 147.55 59.25 147.56C59.22 147.57 59.2 147.57 59.17 147.58C59.07 147.61 59.29 147.57 59.22 147.57C59.17 147.57 59.12 147.58 59.07 147.58C59.05 147.58 59.03 147.58 59.01 147.58C58.86 147.57 59.11 147.6 59.02 147.58C58.93 147.56 58.84 147.53 58.74 147.5C58.89 147.54 58.82 147.53 58.77 147.51C58.75 147.5 58.73 147.49 58.71 147.48C58.66 147.45 58.61 147.42 58.56 147.39C58.5 147.35 58.67 147.49 58.59 147.42C58.57 147.4 58.55 147.38 58.53 147.36C58.5 147.33 58.47 147.29 58.43 147.26C58.53 147.35 58.49 147.34 58.46 147.29C58.45 147.27 58.43 147.25 58.42 147.23C58.41 147.21 58.39 147.18 58.38 147.16C58.33 147.07 58.42 147.29 58.39 147.19C58.37 147.14 58.36 147.1 58.35 147.05C58.33 146.98 58.37 146.95 58.35 147.07C58.35 147.04 58.34 147 58.34 146.97C58.34 146.92 58.35 146.86 58.35 146.81C58.36 146.94 58.33 146.91 58.35 146.85C58.36 146.81 58.37 146.78 58.38 146.74C58.39 146.71 58.4 146.69 58.4 146.66C58.44 146.53 58.35 146.76 58.4 146.66C58.43 146.6 58.46 146.55 58.49 146.49C58.5 146.47 58.54 146.44 58.55 146.41C58.53 146.43 58.52 146.45 58.5 146.47C58.51 146.45 58.53 146.44 58.54 146.42C58.58 146.37 58.63 146.33 58.68 146.28C58.71 146.25 58.8 146.2 58.67 146.29C58.7 146.27 58.72 146.25 58.75 146.23C58.8 146.19 58.86 146.17 58.92 146.14C59.02 146.09 58.79 146.18 58.9 146.15C58.93 146.14 58.96 146.13 58.99 146.12C59.02 146.11 59.05 146.11 59.08 146.1C59.18 146.08 58.93 146.11 59.09 146.1C59.38 146.08 59.66 145.86 59.65 145.54C59.65 145.24 59.41 144.94 59.1 144.97Z" fill="#0F0F0F"/>
<path d="M61.28 145.3C61.24 146.42 61.19 147.53 61.15 148.65C61.52 148.6 61.88 148.55 62.25 148.5C62.23 148.44 62.22 148.38 62.21 148.32C62.2 148.26 62.2 148.26 62.21 148.33C62.21 148.3 62.2 148.27 62.2 148.24C62.19 148.12 62.2 148 62.21 147.88C62.2 148.03 62.22 147.83 62.23 147.8C62.24 147.74 62.26 147.68 62.28 147.62C62.3 147.56 62.32 147.5 62.34 147.45C62.29 147.58 62.35 147.42 62.37 147.4C62.42 147.3 62.48 147.2 62.55 147.11C62.59 147.06 62.59 147.06 62.54 147.11C62.56 147.09 62.58 147.06 62.6 147.04C62.64 146.99 62.68 146.95 62.72 146.91C62.76 146.87 62.81 146.83 62.86 146.79C62.76 146.88 62.91 146.76 62.93 146.74C63.03 146.67 63.14 146.62 63.25 146.57C63.52 146.46 63.6 146.04 63.45 145.8C63.27 145.52 62.97 145.48 62.68 145.6C61.49 146.11 60.84 147.56 61.17 148.79C61.24 149.06 61.51 149.23 61.78 149.19C62.06 149.15 62.25 148.92 62.27 148.64C62.31 147.52 62.36 146.41 62.4 145.29C62.41 145 62.13 144.72 61.84 144.73C61.53 144.75 61.3 144.98 61.28 145.3Z" fill="#0F0F0F"/>
<path d="M68.21 145.67C67.9 145.54 67.58 145.41 67.27 145.28C66.99 145.17 66.65 145.41 66.58 145.67C65.94 148.2 65.74 150.82 66.01 153.41C66.04 153.71 66.25 153.97 66.57 153.97C66.85 153.97 67.16 153.71 67.13 153.41C66.87 150.91 67.04 148.4 67.66 145.97C67.43 146.1 67.2 146.23 66.97 146.36C67.28 146.49 67.6 146.62 67.91 146.75C68.19 146.87 68.52 146.62 68.6 146.36C68.69 146.03 68.48 145.78 68.21 145.67Z" fill="#0F0F0F"/>
<path d="M66.72 149.41C67.22 149.35 67.73 149.29 68.23 149.22C68.38 149.2 68.51 149.17 68.63 149.06C68.73 148.96 68.8 148.8 68.79 148.66C68.78 148.52 68.74 148.36 68.63 148.26C68.53 148.17 68.38 148.08 68.23 148.1C67.73 148.16 67.22 148.22 66.72 148.29C66.57 148.31 66.44 148.34 66.32 148.45C66.22 148.55 66.15 148.71 66.16 148.85C66.17 148.99 66.21 149.15 66.32 149.25C66.42 149.34 66.57 149.43 66.72 149.41Z" fill="#0F0F0F"/>
<path d="M70.45 146.66C69.91 146.94 69.34 147.25 68.96 147.73C68.56 148.23 68.38 148.85 68.53 149.49C68.68 150.13 69.22 150.6 69.88 150.63C70.52 150.66 71.14 150.23 71.46 149.69C71.89 148.96 71.78 148.07 71.66 147.27C71.62 147 71.29 146.84 71.05 146.87C70.79 146.9 70.54 147.14 70.56 147.42C70.64 148.41 70.73 149.41 70.81 150.4C70.83 150.69 71.05 150.97 71.37 150.96C71.65 150.95 71.96 150.71 71.93 150.4C71.85 149.41 71.76 148.41 71.68 147.42C71.31 147.47 70.95 147.52 70.58 147.57C70.59 147.61 70.59 147.65 70.6 147.69C70.6 147.68 70.59 147.62 70.6 147.69C70.61 147.76 70.62 147.83 70.62 147.89C70.63 148.03 70.64 148.16 70.65 148.3C70.65 148.43 70.65 148.55 70.64 148.68C70.63 148.78 70.65 148.61 70.64 148.7C70.63 148.73 70.63 148.76 70.62 148.78C70.6 148.85 70.58 148.93 70.56 149C70.56 149 70.53 149.09 70.55 149.03C70.57 148.98 70.54 149.04 70.54 149.05C70.52 149.1 70.49 149.14 70.46 149.19C70.45 149.21 70.43 149.23 70.42 149.25C70.48 149.16 70.44 149.22 70.42 149.24C70.38 149.28 70.34 149.33 70.29 149.37C70.21 149.44 70.35 149.34 70.26 149.39C70.22 149.42 70.17 149.45 70.13 149.47C70.11 149.48 70.09 149.49 70.07 149.5C70.09 149.49 70.18 149.47 70.08 149.49C70.03 149.5 69.98 149.51 69.94 149.53C69.87 149.55 70.03 149.54 69.96 149.52C69.94 149.52 69.91 149.52 69.9 149.52C69.8 149.53 70 149.54 69.86 149.51C69.84 149.51 69.82 149.49 69.8 149.49C69.81 149.49 69.88 149.54 69.83 149.51C69.81 149.5 69.78 149.48 69.76 149.47C69.74 149.46 69.69 149.41 69.74 149.46C69.81 149.53 69.68 149.4 69.69 149.4C69.69 149.39 69.75 149.5 69.72 149.44C69.71 149.42 69.69 149.4 69.68 149.38C69.67 149.36 69.61 149.25 69.65 149.33C69.69 149.4 69.65 149.33 69.64 149.31C69.63 149.28 69.62 149.26 69.62 149.23C69.62 149.21 69.61 149.19 69.61 149.17C69.58 149.06 69.61 149.2 69.61 149.2C69.59 149.18 69.6 149.11 69.6 149.08C69.6 149.03 69.61 148.98 69.6 148.94C69.59 148.88 69.59 148.98 69.59 148.99C69.59 148.96 69.6 148.92 69.61 148.89C69.62 148.84 69.63 148.8 69.65 148.75C69.67 148.69 69.7 148.66 69.65 148.73C69.68 148.69 69.69 148.64 69.72 148.6C69.73 148.58 69.75 148.56 69.76 148.54C69.81 148.45 69.74 148.56 69.78 148.51C69.86 148.42 69.95 148.32 70.04 148.24C70.07 148.22 70.09 148.2 70.12 148.18C70.08 148.22 70.09 148.2 70.13 148.17C70.19 148.13 70.24 148.09 70.3 148.05C70.53 147.9 70.77 147.77 71.02 147.65C71.28 147.52 71.38 147.13 71.22 146.88C71.04 146.59 70.72 146.52 70.45 146.66Z" fill="#0F0F0F"/>
<path d="M72.62 147.61C72.31 148.97 72.7 150.42 73.66 151.43C73.93 151.72 74.33 151.59 74.54 151.32C75.33 150.26 75.71 148.88 75.59 147.57C75.56 147.28 75.35 147 75.03 147.01C74.75 147.02 74.44 147.26 74.47 147.57C74.5 147.88 74.5 148.18 74.47 148.49C74.47 148.51 74.44 148.72 74.46 148.63C74.45 148.69 74.44 148.74 74.43 148.8C74.4 148.95 74.37 149.1 74.33 149.25C74.25 149.54 74.17 149.76 74.06 149.98C73.92 150.26 73.76 150.52 73.58 150.77C73.87 150.73 74.17 150.69 74.46 150.66C74.25 150.44 74.17 150.33 74.01 150.04C73.98 149.98 73.94 149.91 73.91 149.85C73.9 149.83 73.84 149.69 73.88 149.79C73.83 149.66 73.78 149.52 73.74 149.38C73.7 149.24 73.67 149.1 73.65 148.96C73.67 149.08 73.65 148.9 73.64 148.9C73.63 148.83 73.63 148.76 73.63 148.69C73.63 148.55 73.63 148.4 73.64 148.26C73.64 148.22 73.65 148.19 73.65 148.15C73.64 148.21 73.64 148.21 73.65 148.14C73.66 148.07 73.68 148 73.69 147.93C73.76 147.64 73.6 147.31 73.3 147.24C73.03 147.15 72.69 147.3 72.62 147.61Z" fill="#0F0F0F"/>
<path d="M76.51 147.52C76.07 148.01 75.61 148.53 75.45 149.19C75.31 149.79 75.43 150.46 75.86 150.92C76.32 151.42 77.06 151.48 77.64 151.16C78.19 150.87 78.56 150.29 78.64 149.68C78.75 148.84 78.39 148.05 78.02 147.31C77.89 147.05 77.5 146.95 77.25 147.11C76.98 147.28 76.91 147.6 77.05 147.88C77.11 148 77.17 148.12 77.23 148.24C77.25 148.29 77.28 148.35 77.3 148.4C77.35 148.51 77.32 148.45 77.31 148.43C77.32 148.47 77.34 148.5 77.35 148.54C77.4 148.67 77.44 148.79 77.47 148.92C77.49 148.98 77.5 149.05 77.51 149.11C77.52 149.14 77.52 149.17 77.52 149.19C77.51 149.13 77.52 149.17 77.52 149.21C77.52 149.28 77.53 149.34 77.53 149.41C77.53 149.43 77.52 149.6 77.53 149.51C77.52 149.56 77.51 149.61 77.5 149.66C77.49 149.68 77.49 149.7 77.48 149.72C77.45 149.82 77.51 149.67 77.48 149.73C77.44 149.81 77.39 149.89 77.34 149.97C77.4 149.88 77.33 149.97 77.3 150.01C77.26 150.05 77.22 150.09 77.17 150.13C77.13 150.17 77.19 150.11 77.2 150.11C77.18 150.12 77.15 150.14 77.13 150.16C77.09 150.18 77.06 150.2 77.02 150.22C76.92 150.27 77.04 150.21 77.04 150.21C77.04 150.22 76.99 150.23 76.98 150.23C76.96 150.24 76.93 150.24 76.9 150.25C76.84 150.28 76.99 150.25 76.93 150.25C76.92 150.25 76.8 150.27 76.79 150.25C76.78 150.24 76.91 150.28 76.84 150.26C76.82 150.25 76.78 150.24 76.76 150.24C76.71 150.24 76.78 150.25 76.8 150.26C76.78 150.25 76.75 150.24 76.73 150.22C76.72 150.21 76.7 150.19 76.68 150.19C76.63 150.17 76.73 150.25 76.7 150.21C76.69 150.19 76.6 150.14 76.6 150.11C76.6 150.11 76.67 150.23 76.62 150.13C76.61 150.11 76.6 150.1 76.59 150.08C76.58 150.06 76.57 150.04 76.56 150.03C76.51 149.94 76.56 150.05 76.57 150.05C76.54 150.02 76.53 149.94 76.52 149.9C76.51 149.87 76.49 149.81 76.49 149.78C76.47 149.83 76.5 149.87 76.5 149.81C76.5 149.79 76.5 149.77 76.5 149.75C76.5 149.7 76.5 149.65 76.5 149.61C76.5 149.59 76.5 149.57 76.51 149.55C76.51 149.48 76.48 149.66 76.51 149.56C76.53 149.5 76.54 149.44 76.56 149.38C76.57 149.36 76.58 149.33 76.59 149.31C76.62 149.23 76.53 149.42 76.6 149.28C76.66 149.16 76.72 149.05 76.79 148.95C76.81 148.92 76.83 148.89 76.85 148.86C76.86 148.85 76.92 148.77 76.88 148.81C76.84 148.86 76.91 148.77 76.92 148.76C76.94 148.73 76.96 148.71 76.99 148.68C77.09 148.57 77.19 148.46 77.28 148.35C77.48 148.13 77.51 147.77 77.28 147.56C77.09 147.33 76.72 147.29 76.51 147.52Z" fill="#0F0F0F"/>
<path d="M78.81 148.13C78.81 148.93 78.81 149.73 78.81 150.53C79.18 150.48 79.54 150.43 79.91 150.38C79.91 150.4 79.92 150.51 79.92 150.43C79.92 150.41 79.92 150.38 79.92 150.36C79.92 150.31 79.92 150.26 79.92 150.21C79.92 150.16 79.93 150.12 79.93 150.07C79.94 150 79.9 150.22 79.93 150.1C79.93 150.08 79.94 150.06 79.94 150.03C79.96 149.94 79.99 149.84 80.02 149.75C80.06 149.63 79.98 149.84 80.03 149.73C80.05 149.68 80.08 149.64 80.1 149.59C80.12 149.55 80.15 149.51 80.17 149.47C80.18 149.45 80.2 149.43 80.21 149.41C80.25 149.35 80.2 149.43 80.18 149.44C80.22 149.42 80.25 149.36 80.28 149.32C80.31 149.29 80.34 149.25 80.38 149.22C80.42 149.19 80.46 149.16 80.5 149.12C80.48 149.14 80.41 149.19 80.47 149.15C80.49 149.14 80.51 149.12 80.53 149.11C80.62 149.05 80.71 149.01 80.8 148.97C81.07 148.85 81.15 148.44 81 148.2C80.82 147.92 80.52 147.87 80.23 148C79.76 148.2 79.37 148.6 79.12 149.04C79 149.26 78.9 149.5 78.85 149.75C78.79 150.06 78.79 150.34 78.83 150.66C78.85 150.78 78.98 150.94 79.09 150.99C79.2 151.05 79.32 151.07 79.45 151.06C79.72 151.02 79.94 150.79 79.94 150.51C79.94 149.71 79.94 148.91 79.94 148.11C79.94 147.82 79.68 147.54 79.38 147.55C79.06 147.58 78.81 147.82 78.81 148.13Z" fill="#0F0F0F"/>
<path d="M81.53 151.43C81.28 151.81 81.03 152.19 80.77 152.56C80.69 152.68 80.68 152.86 80.71 152.99C80.75 153.12 80.85 153.26 80.97 153.32C81.1 153.39 81.26 153.42 81.4 153.38C81.54 153.33 81.65 153.25 81.73 153.12C81.98 152.74 82.23 152.36 82.49 151.99C82.57 151.87 82.58 151.69 82.55 151.56C82.51 151.43 82.41 151.29 82.29 151.23C82.16 151.16 82 151.13 81.86 151.17C81.72 151.22 81.61 151.31 81.53 151.43Z" fill="#1A1A1A"/>
<path d="M54.82 153.45C54.25 155.53 53.68 157.6 53.12 159.68C52.93 160.38 54.01 160.67 54.2 159.98C54.77 157.9 55.34 155.83 55.9 153.75C56.1 153.05 55.01 152.75 54.82 153.45Z" fill="#0F0F0F"/>
<path d="M52.99 156.16C53.93 156.29 54.88 156.42 55.82 156.55C55.98 156.57 56.11 156.58 56.25 156.49C56.37 156.42 56.48 156.29 56.51 156.16C56.57 155.9 56.43 155.51 56.12 155.47C55.18 155.34 54.23 155.21 53.29 155.08C53.13 155.06 53 155.05 52.86 155.14C52.74 155.21 52.63 155.34 52.6 155.47C52.54 155.74 52.68 156.12 52.99 156.16Z" fill="#0F0F0F"/>
<path d="M57.46 157.89C56.78 158.18 56.13 158.52 55.69 159.14C55.29 159.69 55.24 160.45 55.52 161.06C55.82 161.7 56.56 162.04 57.24 161.84C57.9 161.65 58.45 161.04 58.59 160.37C58.78 159.43 58.37 158.54 57.95 157.72C57.81 157.46 57.43 157.36 57.18 157.52C56.91 157.69 56.83 158.01 56.98 158.29C57.05 158.42 57.12 158.55 57.18 158.68C57.21 158.74 57.24 158.8 57.27 158.87C57.29 158.91 57.3 158.94 57.32 158.98C57.29 158.91 57.34 159.03 57.34 159.04C57.39 159.18 57.44 159.31 57.47 159.46C57.49 159.53 57.5 159.61 57.52 159.69C57.52 159.68 57.51 159.62 57.52 159.68C57.52 159.73 57.53 159.77 57.53 159.82C57.53 159.9 57.53 159.97 57.52 160.05C57.52 160.06 57.5 160.15 57.52 160.08C57.53 160.01 57.51 160.1 57.51 160.12C57.5 160.17 57.48 160.22 57.47 160.27C57.44 160.37 57.47 160.28 57.47 160.26C57.45 160.29 57.44 160.33 57.42 160.36C57.39 160.41 57.36 160.45 57.34 160.49C57.4 160.39 57.31 160.52 57.29 160.55C57.25 160.59 57.21 160.62 57.18 160.66C57.13 160.71 57.26 160.62 57.19 160.65C57.16 160.67 57.13 160.69 57.1 160.71C57.06 160.73 56.92 160.78 57.04 160.75C56.99 160.76 56.95 160.78 56.9 160.79C56.89 160.79 56.85 160.81 56.84 160.8C56.9 160.82 56.93 160.8 56.87 160.79C56.84 160.79 56.81 160.79 56.79 160.79C56.69 160.79 56.85 160.82 56.8 160.79C56.78 160.78 56.74 160.77 56.72 160.77C56.66 160.76 56.74 160.78 56.75 160.79C56.73 160.78 56.7 160.76 56.68 160.75C56.65 160.73 56.59 160.73 56.7 160.77C56.66 160.75 56.64 160.7 56.6 160.68C56.54 160.65 56.64 160.76 56.62 160.7C56.61 160.67 56.58 160.65 56.57 160.62C56.56 160.61 56.53 160.56 56.53 160.55C56.53 160.54 56.57 160.66 56.55 160.59C56.54 160.54 56.52 160.49 56.5 160.44C56.5 160.42 56.49 160.4 56.49 160.38C56.46 160.27 56.49 160.41 56.49 160.41C56.47 160.39 56.48 160.26 56.48 160.23C56.48 160.21 56.48 160.19 56.48 160.17C56.48 160.06 56.47 160.19 56.47 160.2C56.46 160.17 56.5 160.07 56.51 160.04C56.52 160.02 56.56 159.88 56.54 159.95C56.51 160.02 56.54 159.94 56.55 159.92C56.57 159.89 56.58 159.86 56.6 159.82C56.62 159.79 56.64 159.76 56.65 159.74C56.68 159.7 56.69 159.7 56.65 159.74C56.7 159.68 56.75 159.63 56.8 159.58C56.85 159.53 56.91 159.48 56.96 159.43C56.94 159.44 56.88 159.49 56.96 159.43C56.99 159.41 57.01 159.39 57.04 159.37C57.16 159.29 57.3 159.21 57.43 159.14C57.49 159.11 57.55 159.08 57.61 159.05C57.64 159.04 57.67 159.02 57.7 159.01C57.72 159 57.86 158.94 57.75 158.99C58.02 158.88 58.24 158.61 58.14 158.3C58.07 158.02 57.75 157.77 57.46 157.89Z" fill="#0F0F0F"/>
<path d="M59.57 158.93C59.22 159.99 59.09 161.12 59.2 162.23C59.23 162.53 59.44 162.79 59.76 162.79C60.08 162.79 60.3 162.53 60.32 162.23C60.38 161.07 60.83 159.91 61.6 159.01C61.31 158.97 61.01 158.93 60.72 158.9C61.24 159.67 61.47 160.61 61.31 161.52C61.21 162.09 61.81 162.43 62.25 162.07C62.7 161.69 62.82 161.11 62.91 160.56C62.94 160.33 62.99 160.04 63.07 159.9C63.14 159.78 63.16 159.76 63.27 159.66C63.21 159.71 63.34 159.62 63.34 159.61C63.36 159.6 63.37 159.59 63.39 159.58C63.34 159.6 63.34 159.6 63.4 159.58C63.34 159.58 63.33 159.58 63.37 159.58C63.41 159.58 63.4 159.58 63.34 159.57C63.39 159.59 63.4 159.59 63.37 159.58C63.35 159.58 63.34 159.57 63.33 159.55C63.39 159.62 63.38 159.61 63.41 159.74C63.43 159.82 63.44 159.99 63.45 160.13C63.46 160.32 63.48 160.51 63.49 160.69C63.55 161.41 63.6 162.13 63.66 162.86C63.68 163.16 63.9 163.42 64.22 163.42C64.5 163.42 64.8 163.16 64.78 162.86C64.71 161.99 64.64 161.13 64.58 160.26C64.55 159.88 64.55 159.48 64.38 159.13C64.21 158.76 63.86 158.5 63.45 158.47C62.73 158.43 62.14 159.08 61.93 159.71C61.83 160.01 61.82 160.33 61.76 160.63C61.73 160.77 61.7 160.91 61.65 161.04C61.68 160.98 61.58 161.15 61.57 161.17C61.61 161.12 61.47 161.25 61.45 161.27C61.76 161.45 62.07 161.63 62.39 161.82C62.61 160.61 62.38 159.36 61.69 158.34C61.5 158.07 61.06 157.93 60.81 158.23C59.85 159.36 59.29 160.76 59.2 162.24C59.57 162.24 59.95 162.24 60.32 162.24C60.22 161.22 60.33 160.21 60.65 159.24C60.74 158.95 60.54 158.63 60.26 158.55C59.96 158.45 59.67 158.64 59.57 158.93Z" fill="#0F0F0F"/>
<path d="M66.83 159.65C66.14 160 65.43 160.4 65.02 161.08C64.6 161.78 64.57 162.71 65.12 163.35C65.57 163.87 66.33 163.97 66.96 163.77C67.68 163.54 68.19 163.03 68.45 162.33C68.78 161.47 68.64 160.51 68.51 159.62C68.47 159.35 68.14 159.18 67.9 159.22C67.65 159.26 67.38 159.49 67.41 159.77C67.54 161.05 67.68 162.33 67.81 163.62C67.84 163.92 68.04 164.18 68.37 164.18C68.65 164.18 68.96 163.92 68.93 163.62C68.8 162.34 68.66 161.06 68.53 159.77C68.16 159.82 67.8 159.87 67.43 159.92C67.5 160.42 67.59 161.13 67.49 161.61C67.43 161.9 67.37 162.07 67.22 162.3C67.28 162.2 67.18 162.35 67.16 162.37C67.13 162.4 67.09 162.44 67.06 162.47C66.99 162.54 67.04 162.49 67.06 162.47C67.04 162.48 67.02 162.5 67 162.51C66.95 162.55 66.89 162.58 66.84 162.61C66.81 162.63 66.68 162.68 66.78 162.64C66.73 162.66 66.68 162.68 66.62 162.69C66.57 162.71 66.51 162.72 66.46 162.73C66.43 162.74 66.36 162.73 66.47 162.73C66.44 162.73 66.41 162.73 66.38 162.74C66.33 162.74 66.27 162.73 66.22 162.74C66.16 162.75 66.25 162.74 66.26 162.75C66.23 162.74 66.2 162.74 66.17 162.73C66.15 162.72 66.01 162.67 66.07 162.7C66.15 162.74 65.93 162.61 66.01 162.66C66.06 162.7 65.96 162.61 65.93 162.59C65.93 162.59 65.88 162.53 65.91 162.57C65.95 162.62 65.89 162.53 65.88 162.52C65.87 162.5 65.85 162.47 65.84 162.45C65.85 162.48 65.86 162.53 65.84 162.43C65.83 162.4 65.83 162.38 65.82 162.35C65.81 162.33 65.81 162.21 65.81 162.31C65.81 162.24 65.81 162.18 65.81 162.12C65.81 162.05 65.81 162.12 65.81 162.13C65.82 162.09 65.82 162.06 65.83 162.02C65.84 161.96 65.86 161.91 65.88 161.86C65.91 161.76 65.9 161.81 65.89 161.83C65.91 161.8 65.92 161.76 65.94 161.73C65.98 161.66 66.02 161.6 66.06 161.54C66.02 161.6 66.08 161.52 66.08 161.51C66.11 161.47 66.15 161.43 66.18 161.4C66.3 161.27 66.37 161.22 66.49 161.14C66.77 160.95 67.08 160.79 67.38 160.64C67.65 160.5 67.73 160.12 67.58 159.87C67.44 159.58 67.1 159.52 66.83 159.65Z" fill="#0F0F0F"/>
<path d="M69.35 158.13C69.24 160.02 69.13 161.91 69.02 163.8C68.98 164.52 70.1 164.52 70.14 163.8C70.25 161.91 70.36 160.02 70.47 158.13C70.51 157.41 69.39 157.41 69.35 158.13Z" fill="#0F0F0F"/>
<path d="M72.2 161.99C72.29 162.02 72.08 161.93 72.17 161.98C72.2 161.99 72.23 162.01 72.25 162.02C72.27 162.03 72.29 162.05 72.32 162.06C72.41 162.12 72.24 161.99 72.3 162.04C72.34 162.08 72.38 162.12 72.42 162.16C72.44 162.18 72.45 162.2 72.47 162.22C72.51 162.26 72.42 162.15 72.42 162.16C72.43 162.18 72.44 162.19 72.45 162.2C72.48 162.25 72.51 162.3 72.54 162.35C72.55 162.37 72.56 162.4 72.57 162.42C72.6 162.47 72.54 162.34 72.54 162.35C72.55 162.37 72.56 162.39 72.56 162.41C72.58 162.46 72.59 162.51 72.61 162.56C72.62 162.59 72.62 162.62 72.63 162.65C72.65 162.73 72.62 162.5 72.63 162.62C72.63 162.68 72.64 162.74 72.64 162.79C72.64 162.82 72.64 162.84 72.64 162.87C72.64 162.9 72.62 163.01 72.64 162.9C72.65 162.79 72.64 162.89 72.63 162.92C72.62 162.95 72.62 162.98 72.61 163.01C72.6 163.04 72.59 163.06 72.59 163.09C72.59 163.1 72.58 163.11 72.58 163.13C72.56 163.19 72.64 163.02 72.61 163.07C72.58 163.12 72.56 163.17 72.53 163.22C72.52 163.24 72.5 163.26 72.48 163.29C72.48 163.3 72.57 163.19 72.53 163.23C72.51 163.25 72.5 163.26 72.49 163.28C72.47 163.3 72.45 163.32 72.43 163.34C72.42 163.35 72.41 163.36 72.4 163.37C72.36 163.41 72.47 163.32 72.46 163.32C72.41 163.35 72.36 163.39 72.3 163.42C72.28 163.43 72.25 163.44 72.23 163.45C72.22 163.45 72.36 163.4 72.3 163.42C72.29 163.42 72.28 163.43 72.26 163.43C72.2 163.45 72.14 163.47 72.08 163.48C72.07 163.48 72.05 163.48 72.04 163.49C71.98 163.5 72.13 163.47 72.12 163.48C72.1 163.49 72.05 163.49 72.03 163.49C71.97 163.49 71.91 163.49 71.86 163.49C71.83 163.49 71.72 163.47 71.83 163.49C71.94 163.5 71.84 163.49 71.81 163.49C71.75 163.48 71.7 163.47 71.64 163.45C71.61 163.44 71.58 163.43 71.55 163.42C71.45 163.39 71.61 163.45 71.58 163.44C71.53 163.41 71.47 163.39 71.42 163.35C71.4 163.34 71.38 163.32 71.35 163.31C71.34 163.3 71.33 163.29 71.32 163.29C71.31 163.29 71.42 163.38 71.38 163.34C71.34 163.3 71.29 163.26 71.25 163.21C71.23 163.19 71.22 163.17 71.2 163.15C71.16 163.11 71.25 163.22 71.25 163.21C71.24 163.2 71.23 163.19 71.23 163.18C71.2 163.13 71.17 163.07 71.14 163.02C71.11 162.97 71.17 163.1 71.17 163.09C71.17 163.08 71.16 163.06 71.16 163.05C71.15 163.02 71.14 162.98 71.13 162.95C71.12 162.92 71.12 162.89 71.11 162.86C71.11 162.86 71.12 162.99 71.12 162.94C71.12 162.92 71.12 162.9 71.12 162.88C71.12 162.82 71.13 162.75 71.13 162.69C71.13 162.68 71.11 162.82 71.12 162.77C71.12 162.76 71.13 162.74 71.13 162.73C71.14 162.69 71.15 162.65 71.16 162.61C71.17 162.58 71.18 162.54 71.19 162.51C71.23 162.4 71.14 162.6 71.19 162.52C71.23 162.45 71.26 162.39 71.3 162.32C71.31 162.31 71.32 162.3 71.33 162.28C71.37 162.22 71.31 162.31 71.3 162.32C71.33 162.3 71.35 162.26 71.38 162.23C71.43 162.18 71.49 162.14 71.53 162.09C71.53 162.09 71.43 162.16 71.48 162.13C71.5 162.12 71.52 162.1 71.54 162.09C71.57 162.07 71.6 162.05 71.63 162.04C71.66 162.02 71.7 162.01 71.72 161.99C71.72 161.99 71.6 162.03 71.65 162.02C71.67 162.01 71.7 162 71.72 161.99C71.75 161.98 71.79 161.97 71.82 161.96C71.83 161.96 71.85 161.95 71.86 161.95C71.93 161.93 71.81 161.96 71.8 161.96C71.88 161.96 71.96 161.95 72.04 161.96C72.33 161.98 72.61 161.69 72.6 161.4C72.59 161.08 72.35 160.86 72.04 160.84C71.27 160.78 70.52 161.31 70.2 162C70.02 162.39 69.96 162.8 70.05 163.23C70.12 163.57 70.33 163.91 70.6 164.13C71.14 164.58 71.91 164.78 72.59 164.54C72.97 164.41 73.27 164.18 73.5 163.85C73.7 163.56 73.79 163.19 73.79 162.84C73.8 162.46 73.69 162.07 73.5 161.74C73.27 161.36 72.94 161.1 72.53 160.94C72.26 160.84 71.9 161.06 71.84 161.33C71.73 161.62 71.9 161.88 72.2 161.99Z" fill="#0F0F0F"/>
<path d="M57.28 156.81C57.85 156.75 58.41 156.68 58.98 156.62C59.13 156.6 59.26 156.57 59.38 156.46C59.48 156.36 59.55 156.2 59.54 156.06C59.53 155.92 59.49 155.76 59.38 155.66C59.28 155.57 59.13 155.48 58.98 155.5C58.41 155.56 57.85 155.63 57.28 155.69C57.13 155.71 57 155.74 56.88 155.85C56.78 155.95 56.71 156.11 56.72 156.25C56.73 156.39 56.77 156.55 56.88 156.65C56.99 156.74 57.14 156.82 57.28 156.81Z" fill="#0F0F0F"/>
<path d="M76.31 164.36C76.31 164.29 76.31 164.22 76.31 164.15C76.31 164.09 76.3 164.04 76.27 163.99C76.25 163.94 76.22 163.89 76.18 163.86C76.14 163.82 76.1 163.79 76.05 163.77C76 163.74 75.95 163.73 75.89 163.73C75.85 163.73 75.82 163.74 75.78 163.74C75.71 163.76 75.65 163.8 75.6 163.85C75.58 163.88 75.56 163.91 75.53 163.93C75.49 164 75.47 164.07 75.47 164.14C75.47 164.21 75.47 164.28 75.47 164.35C75.47 164.41 75.48 164.46 75.51 164.51C75.53 164.56 75.56 164.61 75.6 164.64C75.64 164.68 75.68 164.71 75.73 164.73C75.78 164.76 75.83 164.77 75.89 164.77C75.93 164.77 75.96 164.76 76 164.76C76.07 164.74 76.13 164.7 76.18 164.65C76.2 164.62 76.22 164.59 76.25 164.57C76.29 164.51 76.31 164.44 76.31 164.36Z" fill="#0F0F0F"/>
<path d="M59.95 176.5C60.01 176.48 60.08 176.46 60.14 176.43C61.54 175.55 63.07 175.37 64.68 175.61C66.25 175.85 67.46 176.71 68.53 177.8C69.23 178.51 69.78 179.34 70.17 180.25C71.04 182.29 72.47 183.86 74.22 185.17C74.72 185.55 75.25 185.88 75.8 186.16C75.8 186.23 75.76 186.25 75.72 186.26C75.12 186.4 74.52 186.54 73.89 186.54C73.19 186.53 72.49 186.57 71.79 186.51C70.74 186.42 69.72 186.21 68.73 185.82C68.35 185.67 67.97 185.53 67.6 185.38C67.48 185.3 67.37 185.2 67.25 185.13C67.05 185.03 67.01 184.89 67.06 184.68C67.28 183.83 67.39 182.98 67.41 182.1C67.43 181.19 67.18 180.37 66.61 179.67C65.76 178.61 64.63 178.22 63.28 178.34C62.31 178.42 61.57 178.9 60.87 179.52C60.21 180.1 59.8 180.8 59.77 181.69C59.75 182.23 59.79 182.76 60.05 183.24C60.51 184.1 61.27 184.44 62.21 184.42C62.83 184.41 63.46 184.3 63.99 183.98C64.79 183.49 65.04 182.17 64.58 181.24C64.29 180.66 63.8 180.41 63.18 180.41C62.52 180.42 62.11 180.81 61.85 181.38C61.78 181.54 61.78 181.69 61.81 181.85C61.89 182.3 62.44 182.66 62.86 182.55C63.32 182.42 63.51 182.01 63.33 181.5C63.3 181.41 63.27 181.3 63.15 181.32C63.04 181.34 63.03 181.45 63.02 181.54C63.01 181.67 63.02 181.79 63.01 181.92C62.97 182.19 62.75 182.3 62.51 182.17C62.3 182.06 62.21 181.88 62.23 181.65C62.27 181.25 62.58 180.94 63.03 180.85C63.48 180.76 63.91 180.95 64.11 181.33C64.38 181.84 64.27 182.35 64.12 182.86C63.98 183.35 63.64 183.62 63.16 183.73C62.77 183.82 62.37 183.85 61.98 183.82C61.43 183.77 60.91 183.6 60.59 183.1C60.25 182.57 60.15 182 60.31 181.38C60.49 180.67 60.88 180.09 61.45 179.66C62.13 179.16 62.92 178.87 63.77 178.9C64.94 178.94 65.85 179.48 66.42 180.5C66.79 181.15 66.85 181.9 66.86 182.64C66.87 183.13 66.87 183.63 66.64 184.08C66.14 185.1 65.25 185.64 64.2 185.96C63.21 186.26 62.21 186.19 61.21 186.02C60.75 185.94 60.32 185.79 59.92 185.51C59.46 185.19 59.05 184.81 58.69 184.38C58.18 183.77 57.72 183.13 57.55 182.32C57.37 181.43 57.48 180.55 57.72 179.69C57.96 178.8 58.4 178.02 59.03 177.34C59.33 177.03 59.67 176.8 59.95 176.5Z" fill="#817E23"/>
<path d="M59.95 176.5C59.67 176.8 59.33 177.04 59.04 177.34C58.41 178.02 57.97 178.8 57.73 179.69C57.49 180.55 57.38 181.43 57.56 182.32C57.73 183.13 58.19 183.77 58.7 184.38C59.06 184.81 59.47 185.18 59.93 185.51C60.32 185.78 60.76 185.94 61.22 186.02C62.22 186.19 63.22 186.25 64.21 185.96C65.26 185.65 66.14 185.1 66.65 184.08C66.87 183.63 66.87 183.13 66.87 182.64C66.86 181.9 66.8 181.15 66.43 180.5C65.86 179.48 64.95 178.94 63.78 178.9C62.92 178.87 62.14 179.15 61.46 179.66C60.88 180.09 60.5 180.67 60.32 181.38C60.16 182 60.26 182.57 60.6 183.1C60.92 183.6 61.44 183.77 61.99 183.82C62.38 183.86 62.78 183.82 63.17 183.73C63.65 183.62 63.99 183.35 64.13 182.86C64.28 182.35 64.38 181.84 64.12 181.33C63.92 180.95 63.49 180.76 63.04 180.85C62.59 180.94 62.28 181.26 62.24 181.65C62.22 181.89 62.31 182.06 62.52 182.17C62.77 182.3 62.98 182.2 63.02 181.92C63.04 181.8 63.03 181.67 63.03 181.54C63.03 181.44 63.05 181.34 63.16 181.32C63.28 181.3 63.31 181.42 63.34 181.5C63.52 182.02 63.33 182.43 62.87 182.55C62.45 182.66 61.9 182.3 61.82 181.85C61.79 181.69 61.79 181.54 61.86 181.38C62.12 180.8 62.52 180.42 63.19 180.41C63.81 180.4 64.3 180.66 64.59 181.24C65.05 182.16 64.8 183.48 64 183.98C63.47 184.31 62.85 184.41 62.22 184.42C61.27 184.44 60.52 184.1 60.06 183.24C59.8 182.76 59.76 182.22 59.78 181.69C59.81 180.8 60.23 180.1 60.88 179.52C61.58 178.9 62.32 178.42 63.29 178.34C64.63 178.22 65.76 178.61 66.62 179.67C67.19 180.37 67.43 181.19 67.42 182.1C67.4 182.97 67.29 183.83 67.07 184.68C67.01 184.9 67.06 185.03 67.26 185.13C67.39 185.19 67.5 185.29 67.61 185.38C67.34 185.81 67.01 186.17 66.6 186.47C65.42 187.31 64.13 187.97 62.66 188.02C60.86 188.08 59.1 187.79 57.68 186.53C56.58 185.56 55.93 184.32 55.57 182.9C55.27 181.69 55.19 180.45 55.08 179.21C54.96 177.85 54.77 176.5 54.29 175.22C53.95 174.32 53.43 173.54 52.78 172.83C52.47 172.5 52.11 172.23 51.71 172.02C53.3 172.29 54.84 172.66 56.29 173.43C57.71 174.2 58.96 175.19 59.95 176.5Z" fill="#262C57"/>
<path d="M90.52 166.78C89.4 166.57 88.02 166.26 86.49 165.88L84.49 176.16C86.6 175.59 88.75 175.01 90.93 174.41L92.07 167.07C91.52 166.98 91.01 166.89 90.52 166.78Z" fill="#292929"/>
<path opacity="0.24" d="M92.27 136.28L86.97 163.46L86.49 165.88L89.28 166.53L90.01 166.68L91.07 166.89C91.4 166.95 91.72 167.02 92.06 167.08C92.06 167.08 91.07 160.28 91 158C90.84 152.56 92.27 136.28 92.27 136.28Z" fill="#282828"/>
</svg>
