<?xml version="1.0" encoding="utf-8"?>
<!-- Generator: Adobe Illustrator 25.3.1, SVG Export Plug-In . SVG Version: 6.00 Build 0)  -->
<svg version="1.1" xmlns="http://www.w3.org/2000/svg" xmlns:xlink="http://www.w3.org/1999/xlink" x="0px" y="0px"
	 viewBox="0 0 640 800" style="enable-background:new 0 0 640 800;" xml:space="preserve">
<style type="text/css">
	.st0{fill:#D88FFF;}
	.st1{fill:#3D1D4D;}
	.st2{fill:#FFFFFF;}
	.st3{fill:#333333;}
	.st4{fill:#A6FF33;}
	.st5{fill:#F7931E;}
	.st6{fill:#1A1A1A;}
	.st7{fill:#0071BC;}
	.st8{fill:#9C5C13;}
	.st9{fill:none;stroke:#333333;stroke-width:2.4242;stroke-miterlimit:10;}
	.st10{fill:#CCCCCC;}
	.st11{fill:none;}
	.st12{fill:#30173D;}
	.st13{fill:#FFA53D;}
	.st14{fill:#292929;}
	.st15{fill:#E5E5E5;}
	.st16{fill:#0088E3;}
	.st17{fill:#4F4F4F;}
	.st18{fill:#592A70;}
</style>
<g id="Capa_1">
	<rect class="st0" width="640" height="800"/>
</g>
<g id="Capa_2">
	<rect x="511" y="280.6" class="st1" width="16.5" height="212"/>
	<rect x="29.2" y="280.6" class="st1" width="16.5" height="212"/>
	<rect x="0" y="483.4" class="st1" width="640" height="12.9"/>
	<rect x="44.9" y="299.7" class="st2" width="466.1" height="176.7"/>
	<path class="st1" d="M99.3,393.8v63.8H80.1v-63.8H66.5v-20.1h46.4v20.1H99.3z"/>
	<path class="st1" d="M144.7,404.3v35.3c0,6.7-1.6,11.5-4.7,14.4c-3.1,2.9-7.2,4.4-12.2,4.4c-5.3,0-9.5-1.4-12.7-4.2
		c-3.2-2.8-4.8-7.4-4.8-13.7v-36.2h13.1v34.2c0,2.6,0.4,4.4,1.3,5.6c0.8,1.2,2.2,1.8,4.1,1.8c1.5,0,2.8-0.4,3.8-1.3
		c1-0.8,1.6-1.8,1.8-2.9c0.2-1.1,0.3-3.2,0.3-6.2v-31.2H144.7z"/>
	<path class="st1" d="M220.3,404.3v53.3h-11.9v-38.1l-7.7,38.1h-8.2l-8-38.1v38.1h-9.6v-53.3h16.8l6.1,28.3l5.8-28.3H220.3z"/>
	<path class="st1" d="M256.7,457.6l-3.2-14.1h-15.1l-3.4,14.1h-14l17.3-71.6h18.2l17.6,71.6H256.7z M241.4,427.9h9.1l-4.5-20.8
		L241.4,427.9z"/>
	<path class="st1" d="M312.4,457.6h-14.2l-6.1-20.4h-4v20.4h-12.8v-53.3H297c4.8,0,8.6,1.4,11.2,4.3c2.7,2.9,4,6.7,4,11.4
		c0,3.1-0.5,5.8-1.5,8.1c-1,2.4-3,4.4-5.9,6.2L312.4,457.6z M288,425.8h5.5c1.6,0,2.9-0.4,3.9-1.3c1-0.9,1.5-2.1,1.5-3.8
		c0-3.4-1.6-5.1-4.9-5.1H288V425.8z"/>
	<path class="st1" d="M344.8,437.3l11.7,0.9c-0.6,6.5-2.4,11.5-5.7,15c-3.2,3.5-7.2,5.2-11.9,5.2c-5.7,0-10.3-2.4-13.8-7.2
		c-3.5-4.8-5.2-11.4-5.2-19.8c0-8.4,1.7-15.1,5-20.2c3.3-5.1,7.9-7.7,13.9-7.7c5.5,0,9.8,2,12.8,5.9c3,3.9,4.7,9.1,5,15.5l-12,0.8
		c0-3.6-0.5-6.1-1.6-7.7c-1.1-1.6-2.3-2.4-3.8-2.4c-4,0-6.1,5.2-6.1,15.5c0,5.8,0.5,9.8,1.6,11.8c1.1,2.1,2.5,3.1,4.4,3.1
		C342.5,446.1,344.4,443.2,344.8,437.3z"/>
	<path class="st1" d="M381.3,445.3l10.8,0.2l2.7-10.9l-9.6-4.9l2.5-10.1l48.7,25.3L433,458l-54.9,0L381.3,445.3z M405.5,439.5
		l-1.6,6.6l15.8,0.4L405.5,439.5z"/>
	<path class="st3" d="M365.3,237.5c-0.5-0.7-1.9-1.6-2.2-2.3c-0.3-0.8,0.3-2.6,0.1-3.7c-0.5-4.7-7.4-4.8-6.8,0
		c0.3,2.9-0.8,5,0.9,7.7c0.7,1,1.6,1.7,2.3,2.6c0.3,0.3,0.5,1,0.8,1.3c-3.5-0.5-6,5-2.3,6.8c4.1,2.1,9.1-0.6,9.4-5.9
		C367.5,241.6,366.7,239.3,365.3,237.5z"/>
	<g>
		<g>
			<g>
				<g>
					<path class="st4" d="M365.3,236.4c-22.1-7.2-45.7,4.9-52.9,27c-2.9,9.1-2.6,18.5,0.3,26.8c3.3,9.5,10,17.7,19.1,22.8
						c2.4,1.3,4.9,2.4,7.5,3.3c5.9,1.9,11.8,2.4,17.6,1.8h0c1.5-0.2,3.1-0.4,4.6-0.8c8.5-1.9,16.3-6.5,22.2-13.1
						c3.7-4.2,6.7-9.2,8.5-14.9c1.4-4.3,2.1-8.6,2.1-12.8C394.4,258.7,383.1,242.1,365.3,236.4z M382.9,286.2
						c-3.4,10.4-11.5,17.8-21.1,20.8c-3.3,1-6.7,1.5-10.2,1.4c-2.7-0.1-5.5-0.5-8.2-1.3c-0.3-0.1-0.7-0.2-1-0.3
						c-3-1-5.8-2.4-8.3-4.1c-5.2-3.6-9.2-8.6-11.6-14.3c-2.8-6.8-3.3-14.6-0.8-22.1c0.5-1.4,1-2.7,1.6-4
						c6.9-14.3,23.4-21.7,38.9-16.7c5,1.6,9.4,4.4,12.9,7.9c6.3,6.4,9.8,15.3,9.3,24.4c0,0,0,0,0,0
						C384.3,280.8,383.8,283.5,382.9,286.2z"/>
				</g>
			</g>
			<g>
				<g>
					<path class="st4" d="M370.7,262.3c-0.3-1-0.7-2.1-1.3-3.1c-2.3-3.7-5.4-6.2-9.2-7.4l-10.1-3.3h0l-0.2-0.1l-1.6-0.2
						c-1,0.1-1.9,0.4-2.7,1c-0.9,0.7-1.6,1.8-2.1,3.2l-2.9,8.8l-9.3,28.8c-0.7,2-0.7,3.5-0.2,4.6c0.6,1.4,1.6,2.4,3,2.8l0.5,0.2
						c0.4,0.1,0.8,0.2,1.1,0.2h0c2.6-0.1,4.2-1.3,4.9-3.5l4.2-12.9l5.6,17.1c0.8,3.1,1.9,4.9,3.4,5.4l1,0.3c1.1,0.4,2.3,0.2,3.6-0.5
						c0.7-0.4,1.3-0.9,1.7-1.5c0.3-0.4,0.5-0.8,0.6-1.2l0.2-0.5l0.1-0.7c0.1-0.4,0-1.4-0.5-3.1c-0.4-1.3-0.9-3.1-1.7-5.2l-1.6-4.7
						l-1.2-3.7l0-0.1c0.8,0,1.9-0.2,3.3-0.4c1.5-0.4,2.8-1,4-1.6c3.2-1.8,5.4-4.6,6.6-8.2l0.4-1.3l0-0.1
						C371.5,268.2,371.5,265.2,370.7,262.3z M348.3,270.9l2.8-8.6l0.8-2.6l4.3,1.4c1.2,0.4,2.2,0.9,2.9,1.6c0.9,0.7,1.5,1.6,1.8,2.5
						c0.3,1,0.2,2.1-0.2,3.4c-0.3,1.1-0.8,1.9-1.4,2.7c-1.7,1.5-3.8,1.9-6.3,1.1L348.3,270.9z"/>
				</g>
			</g>
		</g>
	</g>
	<circle class="st1" cx="462.3" cy="450.6" r="7.8"/>
	<path class="st3" d="M640,498.8v71.6h-76c-12.3,0-22.3-12.7-22.3-28.3c0-15.6,10-28.3,22.3-28.3h32.4v-15H640z"/>
	<path class="st5" d="M640,349.3v156.5h-75.2v-73.5l0.1-0.6l12.8-60.7c0.5-2.5,1.4-4.8,2.5-7c4.6-8.9,13.9-14.7,24.3-14.7H640z"/>
	<path class="st6" d="M599.6,521.8h-30.1c-11.4,0-20.7,9.4-20.7,20.9s9.3,20.9,20.7,20.9H640v-41.8H599.6z"/>
	<path class="st3" d="M585.9,542.7c0,8.3-6.8,15.1-15.1,15.1c-7.7,0-14-5.7-15-13.1c-0.1-0.6-0.1-1.3-0.1-2
		c0-8.3,6.8-15.1,15.1-15.1c4.3,0,8.2,1.8,10.9,4.7C584.3,535,585.9,538.6,585.9,542.7z"/>
	<path class="st3" d="M632.6,540.9c0,8.3-6.8,15.1-15.1,15.1c-6.4,0-11.8-3.9-14-9.5c-0.7-1.7-1.1-3.6-1.1-5.6
		c0-8.3,6.8-15.1,15.1-15.1c5.1,0,9.6,2.5,12.3,6.4C631.6,534.7,632.6,537.7,632.6,540.9z"/>
	<path class="st7" d="M628,364v71.5h-63.2v-3.2l13-61.3c0.1-0.3,0.1-0.6,0.2-1c0.5-1.9,1.1-3.7,2-5.4c0.1-0.2,0.2-0.4,0.3-0.6H628z"
		/>
	<rect x="564.8" y="441.9" class="st8" width="46.9" height="4.2"/>
	<rect x="564.8" y="451.2" class="st8" width="52.7" height="4.2"/>
	<rect x="564.8" y="459.5" class="st8" width="48.3" height="4.2"/>
	<line class="st9" x1="367.4" y1="149.6" x2="640" y2="296"/>
	<line class="st9" x1="359.5" y1="147.4" x2="359.5" y2="202.4"/>
	<path class="st5" d="M640,240.3v44.5l-269.9-136c-3.9,1.5-10.6,1.6-10.6,1.6s-5.7-2.5-7-5.9c-0.2-0.4-0.3-0.9-0.3-1.3
		c0-4,3.2-20.5,7.2-20.5c0,0,0,0,0,0c2.1-1.7,4.8-2.7,7.7-2.7c0.8,0,1.5,0.1,2.2,0.2l7.4-0.3L499.4,176L640,240.3z"/>
	<line class="st9" x1="359.5" y1="210.3" x2="359.5" y2="228.7"/>
	<path class="st5" d="M373.1,204.2c0,7.3-5.9,13.3-13.3,13.3c-0.3,0-0.6,0-0.8,0c-6.9-0.4-12.4-6.2-12.4-13.2
		c0-7.2,5.8-13.1,12.9-13.2c0.1,0,0.2,0,0.3,0C367.2,190.9,373.1,196.9,373.1,204.2z"/>
	<g>
		<path class="st8" d="M619.2,491.9c0,0,0,0.1,0,0.1c-1,0.4-2,0.8-3,0.9c-0.8,0.1-1.5,0.2-2.3,0.3c-1.8,0.2-3.6,0.2-5.3-0.2
			c-1-0.2-1.9-0.5-2.9-0.7c-0.2-0.1-0.4-0.2-0.6-0.3c-0.3-0.1-0.4-0.3-0.4-0.6c0-0.3,0.1-0.6,0.1-1c0.1-1.3,0.1-2.6-0.2-3.9
			c-0.5-2.3-1.8-3.8-4-4.6c-0.9-0.3-1.8-0.3-2.7-0.2c-0.8,0.1-1.6,0.3-2.3,0.7c-0.8,0.5-1.5,1.1-2.1,1.8c-1.5,1.7-1.7,3.6-0.9,5.6
			c0.5,1.3,1.5,2,2.9,2.2c1.2,0.1,2.3-0.2,3.4-0.7c0.5-0.2,0.9-0.6,1.2-1c0.7-1.3,0.7-2.6,0-3.8c-0.6-1.1-1.7-1.5-2.9-1.2
			c-1,0.3-1.5,1.2-1.6,2c-0.2,1.1,0.9,1.8,1.8,1.6c0.4-0.1,0.7-0.3,0.9-0.8c0.2-0.5,0-0.9-0.3-1.3c-0.1-0.2-0.3-0.1-0.4,0.1
			c0,0.1,0,0.2,0,0.2c0,0.2,0.1,0.4,0.1,0.7c0,0.4-0.3,0.6-0.7,0.5c-0.5-0.1-0.7-0.5-0.7-1c0.1-1,1.4-1.7,2.4-1.2
			c0.6,0.3,0.9,0.8,1,1.3c0.1,0.5,0.1,1,0,1.5c-0.1,0.8-0.5,1.4-1.2,1.7c-0.8,0.3-1.6,0.5-2.4,0.5c-0.4,0-0.8-0.1-1.2-0.2
			c-0.8-0.3-1.3-1-1.6-1.8c-0.4-1-0.2-2,0.2-3c0.4-1,1.2-1.8,2.1-2.4c1.2-0.8,2.6-1.2,4-1c1.9,0.3,3.1,1.4,3.9,3
			c0.4,0.8,0.5,1.7,0.6,2.7c0.1,0.5,0.1,0.9,0.1,1.4c-0.1,1-0.6,1.8-1.2,2.5c-1.4,1.5-3.2,2.2-5.2,2.4c-0.8,0.1-1.6,0.1-2.3,0
			c-0.7,0-1.3-0.2-1.9-0.5c-1.4-0.7-2.5-1.6-3.5-2.8c-1-1.1-1.5-2.4-1.6-3.8c-0.1-1,0-1.9,0.2-2.9c0.3-1.6,0.9-3,1.9-4.2
			c0.3-0.4,0.7-0.7,0.9-1.1c0.2-0.1,0.3-0.1,0.4-0.2c0.5-0.4,1-0.7,1.5-1c1.5-0.8,3.1-1.1,4.8-1.2c1.2,0,2.4,0.1,3.6,0.5
			c2.9,1.1,5.3,3,7,5.6c0.8,1.2,1.6,2.5,2.7,3.5c2,2,4.3,3.6,6.9,4.8C618.4,491.6,618.8,491.8,619.2,491.9z"/>
		<path class="st8" d="M577.6,474c0.1,0.1,0.2,0.1,0.3,0.1c1.7,0.1,3.4,0.3,5,0.7c3.1,0.8,5.8,2.3,8.1,4.5c0.1,0.1,0.2,0.2,0.3,0.3
			c-0.3,0.4-0.6,0.7-0.9,1.1c-1,1.2-1.7,2.7-1.9,4.2c-0.2,1-0.2,1.9-0.2,2.9c0.1,1.4,0.6,2.7,1.6,3.8c1,1.1,2.1,2.1,3.5,2.8
			c0.6,0.3,1.2,0.4,1.9,0.5c0.8,0,1.6,0,2.3,0c2-0.2,3.8-0.9,5.2-2.4c0.7-0.7,1.1-1.6,1.2-2.5c0.1-0.5,0-0.9-0.1-1.4
			c-0.1-0.9-0.3-1.8-0.6-2.7c-0.8-1.7-2.1-2.8-3.9-3c-1.4-0.2-2.8,0.1-4,1c-0.9,0.6-1.7,1.4-2.1,2.4c-0.4,1-0.6,2-0.2,3
			c0.3,0.8,0.8,1.4,1.6,1.8c0.4,0.2,0.8,0.2,1.2,0.2c0.8,0,1.6-0.1,2.4-0.5c0.8-0.3,1.2-0.9,1.2-1.7c0.1-0.5,0.1-1,0-1.5
			c-0.1-0.6-0.4-1.1-1-1.3c-0.9-0.4-2.2,0.2-2.4,1.2c-0.1,0.5,0.2,0.9,0.7,1c0.4,0.1,0.6-0.1,0.7-0.5c0-0.2,0-0.4-0.1-0.7
			c0-0.1,0-0.2,0-0.2c0.1-0.2,0.3-0.2,0.4-0.1c0.3,0.4,0.4,0.8,0.3,1.3c-0.1,0.4-0.4,0.7-0.9,0.8c-0.8,0.2-1.9-0.5-1.8-1.6
			c0.1-0.8,0.6-1.7,1.6-2c1.2-0.3,2.3,0.1,2.9,1.2c0.7,1.3,0.7,2.5,0,3.8c-0.3,0.5-0.7,0.8-1.2,1c-1.1,0.5-2.2,0.8-3.4,0.7
			c-1.4-0.1-2.4-0.9-2.9-2.2c-0.8-2-0.6-3.9,0.9-5.6c0.6-0.7,1.3-1.4,2.1-1.8c0.7-0.4,1.5-0.6,2.3-0.7c0.9-0.1,1.8-0.1,2.7,0.2
			c2.2,0.8,3.5,2.3,4,4.6c0.3,1.3,0.3,2.6,0.2,3.9c0,0.3-0.1,0.6-0.1,1c0,0.4,0.1,0.5,0.4,0.6c0.2,0.1,0.4,0.2,0.6,0.3
			c-0.5,1-1.1,1.8-1.9,2.4c-1,0.8-2,1.6-3.1,2.1c-1.2,0.6-2.5,0.8-3.8,1c-0.1,0-0.2,0-0.2,0.1c-0.8,0-1.6,0-2.4,0
			c-0.1-0.1-0.3-0.1-0.5-0.1c-2-0.3-3.7-1.1-5.2-2.4c-1.3-1.1-2.2-2.5-2.9-4.1c-0.7-1.5-1.1-3.2-1.4-4.8c-0.4-1.7-0.8-3.5-1.3-5.1
			c-0.6-1.6-1.3-3.2-2.4-4.5c-1-1.2-2-2.2-3.5-2.8c-0.1,0-0.1-0.1-0.1-0.1C577.1,474,577.3,474,577.6,474z"/>
	</g>
	<g>
		<path class="st10" d="M395.6,299.7c-0.3,1.2-0.6,2.4-1,3.6c-7.2,22.1-30.8,34.1-52.9,27c-14.6-4.7-24.8-16.6-28-30.5h3.7
			c3.6,5.4,8.5,10,14.4,13.3c3.5,3.5,7.9,6.3,12.9,7.9c15.5,5,32.1-2.4,39-16.7c1.3-1.4,2.4-2.9,3.5-4.5H395.6z"/>
		<g>
			<g>
				<path class="st10" d="M335.1,299.7h10.7l-2.5,7.6c-0.3-0.1-0.7-0.2-1-0.3c-3-1-5.8-2.4-8.3-4.1L335.1,299.7z"/>
				<path class="st10" d="M361.8,307.1c-3.3,1-6.7,1.5-10.2,1.4l-2.9-8.8h2.2c0.7,2.4,1.8,3.8,3.1,4.2l1,0.3
					c1.1,0.4,2.3,0.2,3.6-0.5c0.7-0.4,1.3-0.9,1.7-1.5l1.1,3.3C361.5,306,361.6,306.6,361.8,307.1z"/>
			</g>
		</g>
	</g>
	<line class="st11" x1="348.7" y1="299.7" x2="345.9" y2="299.7"/>
	<polygon class="st12" points="564.8,483.4 564.8,496.3 0,496.3 0,494.3 558.8,489.8 558.8,483.4 	"/>
	<path class="st13" d="M359,217.4c-6.9-0.4-12.4-6.2-12.4-13.2c0-7.2,5.8-13.1,12.9-13.2C354.5,196.5,346,208.6,359,217.4z"/>
	<path class="st13" d="M499.4,176c-26.3-8.1-82.8-26.3-114.9-43.3c-21.7-11.6-29.4,3-32,11.8c-0.2-0.4-0.3-0.9-0.3-1.3
		c0-4,3.2-20.5,7.2-20.5c0,0,0,0,0,0c2.1-1.7,4.8-2.7,7.7-2.7c0.8,0,1.5,0.1,2.2,0.2l7.4-0.3L499.4,176z"/>
	<path class="st14" d="M640,505.8v3.9c-8.4,3-22,4.8-43.6,0.6v-4.5H640z"/>
	<path class="st15" d="M511,427.5v48.9H44.9v-3.1c65,1.4,383.1,6.9,433.9-13.8C493.6,453.5,503.8,441.5,511,427.5z"/>
	<g>
		<path class="st2" d="M144.4,85.6v-6.1H170v6.1h-8.9v27.5h8.9v6.2h-25.6v-6.2h8.9V85.6H144.4z"/>
		<path class="st2" d="M197.5,119.3l-10.8-23.8l-2.2-5.1v16.5v12.4h-6.9V79.5h9.4l11.1,23.9l2,4.7V90.5v-11h6.9v39.8H197.5z"/>
		<path class="st2" d="M230.8,85.7v33.6H223V85.7h-11.1v-6.2h30v6.2H230.8z"/>
		<path class="st2" d="M268.8,119.3l-5.7-12.8c-0.5-1.2-1.3-2.1-2.2-2.8c-1-0.6-2.1-0.9-3.4-0.9H256v16.5h-7.6V79.5h11.8
			c2.2,0,4.3,0.2,6.1,0.6c1.8,0.4,3.4,1,4.6,1.9c1.3,0.9,2.3,2,3,3.4c0.7,1.4,1,3.1,1,5.1c0,1.5-0.2,2.8-0.7,3.9
			c-0.4,1.1-1,2.1-1.8,2.9c-0.8,0.8-1.7,1.5-2.8,2s-2.3,0.9-3.5,1.1c1,0.2,1.9,0.8,2.7,1.7c0.8,0.9,1.7,2.2,2.5,3.9l6.5,13.3H268.8z
			 M266.9,91.2c0-1.9-0.6-3.4-1.9-4.2c-1.3-0.9-3.1-1.3-5.7-1.3H256V97h3.1c1.2,0,2.2-0.1,3.2-0.4s1.8-0.6,2.5-1.1s1.2-1.1,1.6-1.8
			C266.7,93,266.9,92.1,266.9,91.2z"/>
		<path class="st2" d="M313,99.2c0,3.6-0.4,6.7-1.3,9.4c-0.9,2.6-2,4.8-3.5,6.5c-1.5,1.7-3.3,2.9-5.3,3.7c-2,0.8-4.2,1.2-6.5,1.2
			c-5.3,0-9.3-1.7-12-5.2c-2.7-3.5-4-8.5-4-15.2c0-3.6,0.4-6.7,1.3-9.4c0.9-2.6,2-4.8,3.5-6.5c1.5-1.7,3.3-2.9,5.3-3.7
			c2-0.8,4.2-1.2,6.5-1.2c5.3,0,9.3,1.7,12,5.2C311.6,87.5,313,92.6,313,99.2z M304.9,99.6c0-4.7-0.6-8.2-1.9-10.5
			c-1.3-2.3-3.4-3.5-6.3-3.5c-1.5,0-2.7,0.3-3.7,0.9c-1,0.6-1.9,1.5-2.6,2.6c-0.7,1.2-1.2,2.6-1.5,4.3c-0.3,1.7-0.5,3.6-0.5,5.8
			c0,4.7,0.6,8.2,1.9,10.5c1.3,2.3,3.4,3.5,6.3,3.5c1.5,0,2.7-0.3,3.8-0.9c1-0.6,1.9-1.5,2.6-2.6c0.7-1.2,1.1-2.6,1.5-4.3
			S304.9,101.8,304.9,99.6z"/>
		<path class="st2" d="M347.3,98.9c0,3.1-0.4,5.9-1.2,8.4c-0.8,2.5-2,4.7-3.6,6.4c-1.6,1.8-3.7,3.1-6.3,4.1c-2.6,1-5.6,1.4-9.2,1.4
			h-10.3V79.5h12c3.1,0,5.8,0.4,8.1,1.1c2.3,0.8,4.3,1.9,5.8,3.5c1.5,1.6,2.7,3.6,3.5,6C346.9,92.6,347.3,95.5,347.3,98.9z
			 M339.2,99.4c0-2.2-0.2-4.1-0.5-5.8c-0.4-1.7-0.9-3.1-1.8-4.3c-0.8-1.2-2-2.1-3.4-2.7s-3.1-0.9-5.2-0.9h-3.9V113h3.3
			c3.7,0,6.6-1.1,8.5-3.3C338.2,107.5,339.2,104.1,339.2,99.4z"/>
		<path class="st2" d="M381.2,104.6c0,2.5-0.3,4.8-1,6.7c-0.7,1.9-1.7,3.5-3,4.8c-1.3,1.3-2.9,2.2-4.7,2.9c-1.9,0.6-3.9,1-6.3,1
			c-2.6,0-4.8-0.3-6.7-1c-1.9-0.6-3.4-1.6-4.5-2.8c-1.2-1.2-2-2.7-2.5-4.4c-0.5-1.7-0.8-3.7-0.8-5.9V79.5h7.6v26
			c0,1.3,0.1,2.5,0.4,3.6c0.2,1,0.7,1.9,1.2,2.6c0.6,0.7,1.3,1.3,2.2,1.6s2,0.5,3.3,0.5c1.3,0,2.3-0.2,3.2-0.5
			c0.9-0.3,1.6-0.8,2.2-1.5s1-1.6,1.3-2.7s0.4-2.4,0.4-4V79.5h7.6V104.6z"/>
		<path class="st2" d="M414.9,117.7c-1.8,0.7-3.5,1.2-5.2,1.6c-1.7,0.3-3.4,0.5-5.2,0.5c-2.9,0-5.5-0.4-7.7-1.3
			c-2.2-0.8-4.1-2.1-5.7-3.8c-1.5-1.7-2.7-3.7-3.5-6.2c-0.8-2.5-1.2-5.3-1.2-8.6c0-3.4,0.4-6.3,1.3-8.9c0.9-2.6,2.1-4.8,3.7-6.6
			s3.6-3.2,5.9-4.1c2.3-0.9,4.9-1.4,7.8-1.4c0.9,0,1.8,0,2.6,0.1c0.8,0,1.6,0.1,2.4,0.2c0.8,0.1,1.6,0.3,2.4,0.4
			c0.8,0.2,1.6,0.4,2.5,0.7v7.4c-1.8-0.8-3.4-1.4-5-1.7c-1.6-0.3-3-0.5-4.3-0.5c-1.9,0-3.6,0.3-4.9,1c-1.4,0.7-2.5,1.6-3.4,2.9
			c-0.9,1.2-1.5,2.7-1.9,4.4c-0.4,1.7-0.6,3.6-0.6,5.6c0,2.2,0.2,4.1,0.6,5.8c0.4,1.7,1.1,3.1,2,4.3s2,2.1,3.4,2.7
			c1.4,0.6,3,0.9,4.9,0.9c0.7,0,1.4-0.1,2.2-0.2c0.8-0.1,1.6-0.3,2.4-0.5c0.8-0.2,1.6-0.5,2.4-0.8c0.8-0.3,1.5-0.6,2.2-0.9V117.7z"
			/>
		<path class="st2" d="M449.8,117.7c-1.8,0.7-3.5,1.2-5.2,1.6c-1.7,0.3-3.4,0.5-5.2,0.5c-2.9,0-5.5-0.4-7.7-1.3
			c-2.2-0.8-4.1-2.1-5.7-3.8c-1.5-1.7-2.7-3.7-3.5-6.2c-0.8-2.5-1.2-5.3-1.2-8.6c0-3.4,0.4-6.3,1.3-8.9c0.9-2.6,2.1-4.8,3.7-6.6
			s3.6-3.2,5.9-4.1c2.3-0.9,4.9-1.4,7.8-1.4c0.9,0,1.8,0,2.6,0.1c0.8,0,1.6,0.1,2.4,0.2c0.8,0.1,1.6,0.3,2.4,0.4
			c0.8,0.2,1.6,0.4,2.5,0.7v7.4c-1.8-0.8-3.4-1.4-5-1.7c-1.6-0.3-3-0.5-4.3-0.5c-1.9,0-3.6,0.3-4.9,1c-1.4,0.7-2.5,1.6-3.4,2.9
			c-0.9,1.2-1.5,2.7-1.9,4.4c-0.4,1.7-0.6,3.6-0.6,5.6c0,2.2,0.2,4.1,0.6,5.8c0.4,1.7,1.1,3.1,2,4.3s2,2.1,3.4,2.7
			c1.4,0.6,3,0.9,4.9,0.9c0.7,0,1.4-0.1,2.2-0.2c0.8-0.1,1.6-0.3,2.4-0.5c0.8-0.2,1.6-0.5,2.4-0.8c0.8-0.3,1.5-0.6,2.2-0.9V117.7z"
			/>
		<path class="st2" d="M458.2,85.6v-6.1h25.6v6.1h-8.9v27.5h8.9v6.2h-25.6v-6.2h8.9V85.6H458.2z"/>
		<path class="st2" d="M522.2,99.2c0,3.6-0.4,6.7-1.3,9.4c-0.9,2.6-2,4.8-3.5,6.5c-1.5,1.7-3.3,2.9-5.3,3.7c-2,0.8-4.2,1.2-6.5,1.2
			c-5.3,0-9.3-1.7-12-5.2c-2.7-3.5-4-8.5-4-15.2c0-3.6,0.4-6.7,1.3-9.4c0.9-2.6,2-4.8,3.5-6.5c1.5-1.7,3.3-2.9,5.3-3.7
			c2-0.8,4.2-1.2,6.5-1.2c5.3,0,9.3,1.7,12,5.2C520.8,87.5,522.2,92.6,522.2,99.2z M514.1,99.6c0-4.7-0.6-8.2-1.9-10.5
			c-1.3-2.3-3.4-3.5-6.3-3.5c-1.5,0-2.7,0.3-3.7,0.9c-1,0.6-1.9,1.5-2.6,2.6c-0.7,1.2-1.2,2.6-1.5,4.3c-0.3,1.7-0.5,3.6-0.5,5.8
			c0,4.7,0.6,8.2,1.9,10.5c1.3,2.3,3.4,3.5,6.3,3.5c1.5,0,2.7-0.3,3.8-0.9c1-0.6,1.9-1.5,2.6-2.6c0.7-1.2,1.1-2.6,1.5-4.3
			S514.1,101.8,514.1,99.6z M509.6,75.2h-7.6l6.9-6.9h10.2L509.6,75.2z"/>
		<path class="st2" d="M546.3,119.3l-10.8-23.8l-2.2-5.1v16.5v12.4h-6.9V79.5h9.4l11.1,23.9l2,4.7V90.5v-11h6.9v39.8H546.3z"/>
		<path class="st2" d="M166.1,194.2l-2.2-7.9h-14.1l-2.3,7.9h-7.6l12-39.8h10.7l12,39.8H166.1z M156.9,161.7l-5.3,18.5h10.6
			L156.9,161.7z"/>
		<path class="st2" d="M180.7,194.2v-39.8h7.7v33.4h17.1v6.4H180.7z"/>
		<path class="st2" d="M268.8,194.2l-5.7-12.8c-0.5-1.2-1.3-2.1-2.2-2.8c-1-0.6-2.1-0.9-3.4-0.9H256v16.5h-7.6v-39.8h11.8
			c2.2,0,4.3,0.2,6.1,0.6c1.8,0.4,3.4,1,4.6,1.9c1.3,0.9,2.3,2,3,3.4c0.7,1.4,1,3.1,1,5.1c0,1.5-0.2,2.8-0.7,3.9
			c-0.4,1.1-1,2.1-1.8,2.9c-0.8,0.8-1.7,1.5-2.8,2s-2.3,0.9-3.5,1.1c1,0.2,1.9,0.8,2.7,1.7c0.8,0.9,1.7,2.2,2.5,3.9l6.5,13.3H268.8z
			 M266.9,166.1c0-1.9-0.6-3.4-1.9-4.2c-1.3-0.9-3.1-1.3-5.7-1.3H256v11.2h3.1c1.2,0,2.2-0.1,3.2-0.4s1.8-0.6,2.5-1.1
			s1.2-1.1,1.6-1.8C266.7,167.8,266.9,167,266.9,166.1z"/>
		<path class="st2" d="M284.9,194.2v-39.8h24.4v6.3h-16.6v9.9h15.9v6.2h-15.9v11.1h16.6v6.3H284.9z"/>
		<path class="st2" d="M331.7,177.3v-6.2h14.4v21.2c-1.9,0.9-3.8,1.5-5.8,1.9c-2,0.4-4.2,0.6-6.6,0.6c-2.8,0-5.3-0.4-7.6-1.3
			s-4.1-2.1-5.7-3.8c-1.6-1.7-2.8-3.8-3.6-6.3s-1.3-5.4-1.3-8.7c0-3.3,0.4-6.3,1.3-8.9c0.9-2.6,2.2-4.8,3.8-6.7
			c1.7-1.8,3.7-3.2,6.2-4.2c2.4-1,5.2-1.4,8.4-1.4c1.9,0,3.7,0.2,5.4,0.5c1.8,0.3,3.5,0.7,5.3,1.3v7.4c-1.5-0.7-3.2-1.3-5.1-1.8
			s-3.7-0.7-5.6-0.7c-1.9,0-3.6,0.3-5,1c-1.5,0.6-2.7,1.6-3.7,2.8c-1,1.2-1.7,2.7-2.2,4.4s-0.8,3.7-0.8,5.9c0,2.1,0.2,4,0.6,5.7
			c0.4,1.7,1,3.1,1.9,4.3c0.9,1.2,2,2.1,3.4,2.7c1.4,0.6,3.1,0.9,5,0.9c0.5,0,0.9,0,1.2,0c0.4,0,0.7-0.1,1-0.1s0.6-0.1,0.9-0.2
			c0.3-0.1,0.6-0.2,0.9-0.3v-10.2H331.7z"/>
		<path class="st2" d="M353.6,160.5v-6.1h25.6v6.1h-8.9V188h8.9v6.2h-25.6V188h8.9v-27.5H353.6z"/>
		<path class="st2" d="M415.4,182.1c0,2.2-0.4,4.1-1.2,5.7s-2,2.9-3.4,4c-1.5,1-3.2,1.8-5.2,2.3c-2,0.5-4.2,0.8-6.6,0.8
			c-2.1,0-4.2-0.1-6.2-0.4c-2-0.2-3.9-0.6-5.9-1.2v-7.4c0.9,0.3,1.9,0.6,3,0.9c1,0.3,2.1,0.5,3.1,0.7c1,0.2,2.1,0.4,3.1,0.5
			c1,0.1,2,0.2,3,0.2c1.4,0,2.7-0.1,3.7-0.4c1-0.2,1.8-0.6,2.5-1c0.6-0.4,1.1-0.9,1.4-1.5c0.3-0.6,0.4-1.2,0.4-1.9
			c0-1-0.3-1.8-0.9-2.5c-0.6-0.7-1.3-1.2-2.2-1.8c-0.9-0.5-2-1-3.2-1.4c-1.2-0.4-2.4-0.8-3.6-1.3c-1.2-0.5-2.4-1-3.6-1.6
			c-1.2-0.6-2.2-1.3-3.2-2.2c-0.9-0.9-1.7-1.9-2.2-3.1c-0.6-1.2-0.9-2.7-0.9-4.4c0-1.6,0.3-3,0.9-4.4s1.5-2.6,2.7-3.7
			c1.2-1,2.8-1.9,4.8-2.5c1.9-0.6,4.3-0.9,7-0.9c0.8,0,1.6,0,2.5,0.1c0.9,0.1,1.7,0.2,2.6,0.3c0.9,0.1,1.7,0.2,2.5,0.4
			s1.5,0.3,2.2,0.5v6.9c-0.7-0.2-1.4-0.5-2.2-0.7c-0.8-0.2-1.6-0.4-2.4-0.5c-0.8-0.2-1.7-0.3-2.5-0.4c-0.8-0.1-1.7-0.1-2.4-0.1
			c-1.3,0-2.5,0.1-3.4,0.3c-0.9,0.2-1.7,0.5-2.3,0.9c-0.6,0.4-1,0.8-1.3,1.4s-0.4,1.2-0.4,1.8c0,0.8,0.3,1.5,0.9,2.1
			c0.6,0.6,1.3,1.1,2.3,1.6c0.9,0.5,2,0.9,3.2,1.3c1.2,0.4,2.4,0.9,3.7,1.3c1.2,0.5,2.5,1,3.7,1.6c1.2,0.6,2.2,1.4,3.2,2.2
			c0.9,0.9,1.7,1.9,2.3,3.1C415.2,179.1,415.4,180.5,415.4,182.1z"/>
		<path class="st2" d="M440.1,160.6v33.6h-7.8v-33.6h-11.1v-6.2h30v6.2H440.1z"/>
		<path class="st2" d="M478,194.2l-5.7-12.8c-0.5-1.2-1.3-2.1-2.2-2.8c-1-0.6-2.1-0.9-3.4-0.9h-1.5v16.5h-7.6v-39.8h11.8
			c2.2,0,4.3,0.2,6.1,0.6c1.8,0.4,3.4,1,4.6,1.9c1.3,0.9,2.3,2,3,3.4c0.7,1.4,1,3.1,1,5.1c0,1.5-0.2,2.8-0.7,3.9
			c-0.4,1.1-1,2.1-1.8,2.9c-0.8,0.8-1.7,1.5-2.8,2s-2.3,0.9-3.5,1.1c1,0.2,1.9,0.8,2.7,1.7c0.8,0.9,1.7,2.2,2.5,3.9l6.5,13.3H478z
			 M476.1,166.1c0-1.9-0.6-3.4-1.9-4.2c-1.3-0.9-3.1-1.3-5.7-1.3h-3.3v11.2h3.1c1.2,0,2.2-0.1,3.2-0.4s1.8-0.6,2.5-1.1
			s1.2-1.1,1.6-1.8C475.9,167.8,476.1,167,476.1,166.1z"/>
		<path class="st2" d="M522.2,174.1c0,3.6-0.4,6.7-1.3,9.4c-0.9,2.6-2,4.8-3.5,6.5c-1.5,1.7-3.3,2.9-5.3,3.7c-2,0.8-4.2,1.2-6.5,1.2
			c-5.3,0-9.3-1.7-12-5.2c-2.7-3.5-4-8.5-4-15.2c0-3.6,0.4-6.7,1.3-9.4c0.9-2.6,2-4.8,3.5-6.5c1.5-1.7,3.3-2.9,5.3-3.7
			c2-0.8,4.2-1.2,6.5-1.2c5.3,0,9.3,1.7,12,5.2C520.8,162.4,522.2,167.4,522.2,174.1z M514.1,174.5c0-4.7-0.6-8.2-1.9-10.5
			c-1.3-2.3-3.4-3.5-6.3-3.5c-1.5,0-2.7,0.3-3.7,0.9c-1,0.6-1.9,1.5-2.6,2.6c-0.7,1.2-1.2,2.6-1.5,4.3c-0.3,1.7-0.5,3.6-0.5,5.8
			c0,4.7,0.6,8.2,1.9,10.5c1.3,2.3,3.4,3.5,6.3,3.5c1.5,0,2.7-0.3,3.8-0.9c1-0.6,1.9-1.5,2.6-2.6c0.7-1.2,1.1-2.6,1.5-4.3
			S514.1,176.7,514.1,174.5z"/>
		<path class="st2" d="M173,248.6c0,3.1-0.4,5.9-1.2,8.4c-0.8,2.5-2,4.7-3.6,6.4c-1.6,1.8-3.7,3.1-6.3,4.1c-2.6,1-5.6,1.4-9.2,1.4
			h-10.3v-39.8h12c3.1,0,5.8,0.4,8.1,1.1c2.3,0.8,4.3,1.9,5.8,3.5c1.5,1.6,2.7,3.6,3.5,6C172.6,242.3,173,245.3,173,248.6z
			 M164.8,249.1c0-2.2-0.2-4.1-0.5-5.8c-0.4-1.7-0.9-3.1-1.8-4.3c-0.8-1.2-2-2.1-3.4-2.7s-3.1-0.9-5.2-0.9H150v27.3h3.3
			c3.7,0,6.6-1.1,8.5-3.3C163.8,257.3,164.8,253.8,164.8,249.1z"/>
		<path class="st2" d="M180.3,269v-39.8h24.4v6.3h-16.6v9.9h15.9v6.2h-15.9v11.1h16.6v6.3H180.3z"/>
		<path class="st2" d="M271.1,269l-0.7-22.5l-0.3-9l-2,6.1l-4.5,13.6h-4.8l-4.1-13.6l-1.7-6.1l-0.2,8.8l-0.7,22.7h-6.5l2-39.8h8.6
			l3.6,11.3l1.7,6.4l1.7-6l3.7-11.7h8.8l2,39.8H271.1z"/>
		<path class="st2" d="M305.6,269l-2.2-7.9h-14.1l-2.3,7.9h-7.6l12-39.8H302l12,39.8H305.6z M296.4,236.5l-5.3,18.5h10.6
			L296.4,236.5z"/>
		<path class="st2" d="M414.9,267.5c-1.8,0.7-3.5,1.2-5.2,1.6c-1.7,0.3-3.4,0.5-5.2,0.5c-2.9,0-5.5-0.4-7.7-1.3
			c-2.2-0.8-4.1-2.1-5.7-3.8c-1.5-1.7-2.7-3.7-3.5-6.2c-0.8-2.5-1.2-5.3-1.2-8.6c0-3.4,0.4-6.3,1.3-8.9c0.9-2.6,2.1-4.8,3.7-6.6
			s3.6-3.2,5.9-4.1c2.3-0.9,4.9-1.4,7.8-1.4c0.9,0,1.8,0,2.6,0.1c0.8,0,1.6,0.1,2.4,0.2c0.8,0.1,1.6,0.3,2.4,0.4
			c0.8,0.2,1.6,0.4,2.5,0.7v7.4c-1.8-0.8-3.4-1.4-5-1.7c-1.6-0.3-3-0.5-4.3-0.5c-1.9,0-3.6,0.3-4.9,1c-1.4,0.7-2.5,1.6-3.4,2.9
			c-0.9,1.2-1.5,2.7-1.9,4.4c-0.4,1.7-0.6,3.6-0.6,5.6c0,2.2,0.2,4.1,0.6,5.8c0.4,1.7,1.1,3.1,2,4.3s2,2.1,3.4,2.7
			c1.4,0.6,3,0.9,4.9,0.9c0.7,0,1.4-0.1,2.2-0.2c0.8-0.1,1.6-0.3,2.4-0.5c0.8-0.2,1.6-0.5,2.4-0.8c0.8-0.3,1.5-0.6,2.2-0.9V267.5z"
			/>
		<path class="st2" d="M445,269l-2.2-7.9h-14.1l-2.3,7.9h-7.6l12-39.8h10.7l12,39.8H445z M435.8,236.5l-5.3,18.5h10.6L435.8,236.5z"
			/>
	</g>
	<g>
		<path class="st1" d="M72.4,267v-0.4c0-1.6,0.9-2.6,2.6-3h0.5c1,0,3.7,0.3,8.3,0.9v-9.8c-6.2-0.7-9.5-1.2-9.9-1.4
			c-1-0.8-1.4-1.6-1.4-2.4v-0.4c0-1.4,0.8-2.4,2.3-3l0.6-0.1l8.5,0.9v-3.5c0-1.3,0.9-2.2,2.6-2.8H87c1.3,0,2.3,0.8,2.9,2.5v4.4
			c0,0.2,0.6,0.3,1.9,0.3l14.6,1.8v-3.5c0-1.3,0.9-2.2,2.6-2.8h0.6c1.4,0,2.4,0.8,3,2.5v4.4c0,0.2,1.8,0.4,5.4,0.7
			c3.4,0.4,5.2,0.9,5.2,1.4c0.6,0.6,0.8,1.2,0.8,1.8v0.4c0,1.4-0.8,2.4-2.3,3l-0.6,0.1l-8.5-0.9v9.8c6.7,0.7,10.1,1.2,10.1,1.5
			c0.8,0.8,1.2,1.5,1.2,2.1v0.6c0,1.6-0.9,2.6-2.8,3c-1.1,0-4-0.3-8.6-0.9v3.3c0,1.5-0.8,2.5-2.5,3l-0.4,0.1c-1.8,0-2.9-0.9-3.3-2.8
			v-4.3l-16.5-2v3.5c-0.3,1.9-1.3,2.8-3,2.8h-0.6c-1.7-0.5-2.6-1.4-2.6-2.7v-4.3c-6.7-0.7-10.1-1.2-10.1-1.5
			C72.8,268.5,72.4,267.7,72.4,267z M89.9,265.2l16.5,2v-9.8l-16.5-2V265.2z"/>
		<path class="st1" d="M83.9,217.4c0-3.3,1.1-6.6,3.2-9.8c1.2-1.4,2.5-2.1,3.9-2.1c2.7,0,4.4,1.4,5.3,4.1v1.2c0,0.9-0.6,2.2-1.7,4
			c-0.3,0.9-0.5,1.8-0.5,2.7c0,2.9,1.7,5.2,5.2,7c1.7,0.7,3.2,1,4.6,1c3.8,0,6.7-1.5,8.9-4.6c0.7-1.2,1-2.4,1-3.6c0-1.3-0.7-3-2-5.1
			l-0.2-1.3v-0.6c0-2.2,1.3-3.8,3.8-4.7l1.1-0.1c3.5,0,5.9,3.1,7.1,9.3c0.1,0.4,0.2,1.1,0.2,2.2v1.3c0,4.5-2.1,8.7-6.4,12.7
			c-4.1,3.2-8.4,4.7-12.9,4.7h-1.3c-5.4,0-10.4-2.2-14.9-6.6C85.4,225.5,83.9,221.6,83.9,217.4z"/>
		<path class="st1" d="M83.9,194c0-1.4,0.7-2.7,2.2-3.9c0.9-0.6,1.9-0.9,2.9-0.9h21.7c1.1,0,2-0.7,2.7-2c0.3-0.8,0.5-1.7,0.5-2.8
			c0-2.2-0.6-3.7-1.7-4.6c-0.5-0.3-0.9-0.5-1.3-0.5H89c-2.3,0-3.9-1.2-4.8-3.7l-0.2-1.5c0-1.5,0.8-2.8,2.3-4
			c0.8-0.5,1.7-0.8,2.5-0.8h23.2c2.8,0,5.6,1.4,8.4,4.2c2.5,3,3.7,6.4,3.7,10v2.2c0,4.2-1.7,7.8-5.2,10.9c-2.8,1.9-5.2,2.8-7,2.8
			H88.9c-2.3,0-3.9-1.3-4.7-3.8L83.9,194z"/>
		<path class="st1" d="M83.9,157.6c0.1-1,0.5-2.1,1.2-3.2c-0.8-1.8-1.2-3.6-1.2-5.5c0-2.4,1.3-4,4-5l1.1-0.1c2.4,0,4,1.3,5,4
			c0,2.3,1,3.8,3,4.5l1.9,0.3H119c1.9,0,3.4,0.9,4.4,2.8c0.3,0.6,0.5,1.3,0.5,2v0.5c0,2.2-1.2,3.8-3.7,4.7l-0.7,0.1H88.9
			c-2.3,0-3.9-1.3-4.7-3.8L83.9,157.6z"/>
		<path class="st1" d="M83.9,125.3c0-4.3,1.1-7.8,3.2-10.4c1.1-0.9,2.1-1.3,3.2-1.3h0.6c2,0,3.5,1.1,4.5,3.4l0.2,1.4v0.5
			c0,0.7-0.4,1.9-1.2,3.6c-0.2,0.9-0.3,1.8-0.3,2.6v0.1c0.3,1.9,0.9,2.9,1.9,2.9h0.1c1.1,0,1.9-1.5,2.6-4.6c1.2-4.2,3.1-7.4,5.9-9.4
			c2.2-1.4,4.5-2.2,7-2.2c3.9,0,7.4,1.9,10.3,5.8c1.4,2.4,2.1,4.7,2.1,6.9v1.4c0,3.9-1.9,7.9-5.6,11.9c-1.2,0.8-2.3,1.1-3.3,1.1
			c-2.3,0-4-1.2-4.8-3.6c-0.1-0.3-0.2-0.7-0.2-1.1v-1c0-1,0.8-2.3,2.4-4c1-1.4,1.4-2.8,1.4-3.9c0-1.8-0.8-2.9-2.5-3.2h-0.1
			c-1.3,0-2.5,2.5-3.7,7.5c-2.3,5.8-6.2,8.7-11.6,8.7c-4.3,0-7.8-2.2-10.4-6.5C84.5,129.5,83.9,127.3,83.9,125.3z"/>
		<path class="st1" d="M83.9,86.8c0-6.1,2.9-11.2,8.6-15.5c3.7-2.2,7.4-3.3,11.1-3.3h0.7c6.2,0,11.4,2.6,15.9,7.7
			c2.5,3.6,3.7,7,3.7,10.2v1.8c0,3.9-1.7,7.8-5,11.7c-4.3,4.2-9.2,6.3-14.5,6.3h-1.1c-4.7,0-9.2-1.8-13.4-5.4
			C85.9,96.4,83.9,91.8,83.9,86.8z M103.9,95.6c3.5,0,6.4-1.5,8.6-4.4c0.9-1.4,1.3-2.8,1.3-4.2c0-3.6-2.1-6.3-6.3-8.1
			c-1.2-0.3-2.3-0.5-3.2-0.5h-0.2l-0.1-0.1l-0.1,0.1h-0.3c-3.4,0-6.1,1.5-8.3,4.4c-0.8,1.3-1.2,2.7-1.2,4.2c0,3.7,2.3,6.4,6.8,8.3
			L103.9,95.6z"/>
	</g>
	<path class="st16" d="M564.8,435.2v-2.8l13-61.3c0.1-0.3,0.1-0.6,0.2-1c0.5-1.9,1.1-3.7,2-5.4c0.1-0.2,0.2-0.4,0.3-0.6h33.2
		C622.3,416,581.9,428.8,564.8,435.2z"/>
	<path class="st17" d="M581.7,532.3c-14.5-1.4-22,5.4-25.9,12.4c-0.1-0.6-0.1-1.3-0.1-2c0-8.3,6.8-15.1,15.1-15.1
		C575.1,527.6,579,529.4,581.7,532.3z"/>
	<path class="st17" d="M629.8,532.2c-15.5-1.3-22.8,6.9-26.3,14.3c-0.7-1.7-1.1-3.6-1.1-5.6c0-8.3,6.8-15.1,15.1-15.1
		C622.6,525.8,627.1,528.4,629.8,532.2z"/>
	<polygon class="st18" points="40,280.6 29.2,479.4 29.2,280.6 	"/>
	<polygon class="st18" points="522.2,280.6 511,449.9 511,280.6 	"/>
	<g>
		<g>
			<path class="st4" d="M65.1,583.7c1,0,2,0.3,3,0.8c1,0.5,1.7,1.3,2.3,2.3c0.5,1,0.8,2,0.8,3c0,1.1-0.3,2.1-0.8,3
				c-0.5,1-1.3,1.7-2.3,2.3s-2,0.8-3,0.8c-1.1,0-2.1-0.3-3-0.8s-1.7-1.3-2.3-2.3c-0.5-1-0.8-2-0.8-3c0-1.1,0.3-2.1,0.8-3
				c0.5-1,1.3-1.7,2.3-2.3S64.1,583.7,65.1,583.7z M65.1,597.7c3.2,0,5.2,1.7,6.1,5.1l0.1,1.5v35.6c0,2.8-1.5,4.8-4.4,5.9
				c-0.3,0.2-0.8,0.2-1.4,0.2H65c-1.7,0-3.2-0.7-4.5-2.1c-1-1-1.5-2.8-1.5-5.4v-33.7c0-3.5,1.5-5.8,4.4-6.8L65.1,597.7z"/>
			<path class="st4" d="M85.3,597.7c1.2,0,2.5,0.5,3.9,1.6c2.5-1.1,5-1.6,7.5-1.6c4,0,7.8,1.4,11.3,4.1h0.1
				c3.4-2.7,7.3-4.1,11.5-4.1c6,0,10.9,2.7,14.9,8.1c1.7,3,2.6,6.1,2.6,9.1V640c0,2.3-1.1,4.1-3.4,5.4c-0.8,0.4-1.6,0.6-2.4,0.6
				h-0.6c-2.7,0-4.6-1.5-5.7-4.5l-0.1-0.9v-24.1c0-3.1-1-5.1-3.1-6c-0.7-0.3-1.5-0.5-2.5-0.5c-2.4,0-4.1,1.4-5.1,4.1v25.8
				c0,2.8-1.5,4.8-4.4,5.9c-0.3,0.2-0.8,0.2-1.4,0.2h-0.6c-2.7,0-4.6-1.5-5.7-4.5l-0.1-0.9v-21.4c0-4.3-0.2-6.5-0.7-6.5
				c-1-1.8-2.6-2.7-4.9-2.7c-2.1,0-3.7,1.1-4.9,3.4c-0.2,0.6-0.4,1.4-0.4,2.5V640c0,2.3-1.1,4.1-3.4,5.4c-0.8,0.4-1.6,0.6-2.4,0.6
				h-0.6c-2.9,0-4.8-1.7-5.9-5.1v-37.2c0-2.7,1.5-4.6,4.5-5.7L85.3,597.7z"/>
			<path class="st4" d="M156.8,657.7l-0.1,0.7c-1.1,3.1-3.1,4.6-6,4.6l-1.4-0.1c-3.2-1-4.7-3-4.7-6v-53.2l0.1-1.4
				c1.1-3.2,3-4.7,5.9-4.7h0.5l1.1,0.1c1.9,0.7,3.2,1.7,3.9,3c3.4-2.1,6.8-3.1,10.1-3.1h2.1c3.9,0,8,1.5,12.3,4.5
				c6.2,5.4,9.3,11.7,9.3,19.2v0.9c0,4.5-1.3,9-4,13.4c-5.1,6.9-11.3,10.3-18.7,10.3c-3.8,0-7.3-0.9-10.6-2.8V657.7z M157.3,625.4
				c2.2,5.5,5.5,8.2,10,8.2c1.8,0,3.5-0.5,5.1-1.5c3.6-2.6,5.4-5.9,5.4-10v-0.4l0.1-0.1l-0.1-0.1v-0.2c0-1.1-0.2-2.4-0.6-3.9
				c-2.2-5.1-5.5-7.6-9.8-7.6c-1.7,0-3.4,0.5-5.1,1.6c-3.6,2.6-5.4,6.1-5.4,10.3L157.3,625.4z"/>
			<path class="st4" d="M219.2,597.7c3.6,0,7.1,1,10.5,3c1.3-1.9,3-2.9,5.1-2.9c3.4,0,5.5,1.9,6.2,5.7v2.1l-0.1,13.2l0.1,2.4
				l-0.2,19.4c0,1.4-0.9,2.9-2.7,4.5c-1.2,0.6-2.2,0.9-3,0.9h-0.6c-1.9,0-3.6-0.9-5-2.7h-0.1c-3.2,1.8-6.6,2.7-10.2,2.7
				c-7,0-12.8-3.4-17.7-10.2c-2.6-4.5-3.9-8.8-3.9-12.9v-2c0-5.5,2.1-10.9,6.2-16.1C208.4,600,213.6,597.7,219.2,597.7z
				 M209.8,621.8c0,4.5,1.9,8.2,5.6,10.8c1.3,0.7,2.7,1,4,1h0.1c3.6,0,6.5-2.4,8.6-7.3c0.4-1.5,0.6-3.4,0.6-5.7c0-2-0.9-4.4-2.7-7.1
				c-2-2.3-4.3-3.5-6.7-3.5c-3.8,0-6.7,2.4-8.7,7.3C210,619.1,209.8,620.6,209.8,621.8z"/>
			<path class="st4" d="M254.9,597.7c1.2,0.1,2.5,0.6,3.9,1.5c2.1-1,4.3-1.5,6.6-1.5c2.8,0,4.8,1.6,6,4.9l0.1,1.4
				c0,2.9-1.6,4.9-4.9,6c-2.8,0-4.6,1.2-5.5,3.6l-0.4,2.2V640c0,2.3-1.1,4.1-3.4,5.4c-0.8,0.4-1.6,0.6-2.4,0.6h-0.6
				c-2.7,0-4.6-1.5-5.7-4.5l-0.1-0.9v-37c0-2.8,1.5-4.7,4.6-5.7L254.9,597.7z"/>
			<path class="st4" d="M290.1,587h0.4c2.6,0,4.5,1.4,5.6,4.1c0.2,0.7,0.4,1.7,0.4,3.1v3.9c1.9,0,3.5,1.3,4.9,4l0.2,1.6v0.6
				c0,2.9-1.7,4.9-5.1,5.9v29.6c0,3.2-1.7,5.2-5.1,6.2h-1.5c-2.6,0-4.4-1.6-5.6-4.7l-0.1-2.1v-28.9l-2-0.7c-2.1-1.5-3.1-3.1-3.1-5
				v-0.7c0-2.7,1.5-4.5,4.4-5.6l0.7-0.1v-4.9c0-3.1,1.6-5.1,4.9-6.1L290.1,587z"/>
			<path class="st4" d="M326,597.7c9.3,0,15.7,4.4,19.3,13.2c0.5,1.5,0.7,4.3,0.7,8.5c0,1.6-0.9,3.4-2.6,5.6
				c-2.3,2.1-5.1,3.1-8.3,3.1l-10.5-0.1h-6.3v0.1c2.1,3.8,5,5.7,8.8,5.7c2.7,0,5.6-1.4,8.7-4.2c1.1-0.5,2.1-0.7,3-0.7h0.4
				c2.5,0,4.4,1.4,5.6,4.2l0.2,1.9c0,2.7-1.7,5-5.2,7.1c-4.1,2.7-8.1,4-12.1,4h-1.5c-6,0-11.5-2.7-16.4-8.2c-3.3-4.5-5-9.7-5-15.6
				v-0.1c0-7.4,2.5-13.8,7.6-19C316.4,599.5,320.9,597.7,326,597.7z M318.6,615.6h0.1l14.8,0.1h0.1V615c-0.6-1.9-1.6-3.2-3-3.9
				c-1.1-0.7-2.6-1.1-4.7-1.1C322.6,610,320.2,611.9,318.6,615.6z"/>
			<path class="st4" d="M360,597.7c1.4,0,2.8,0.6,4.1,1.9c2.7-1.2,5.6-1.9,8.5-1.9c6.8,0,12.4,2.9,16.6,8.8c1.6,2.7,2.4,5.7,2.4,8.8
				v24.5c0,2.8-1.5,4.8-4.4,5.9c-0.3,0.2-0.8,0.2-1.4,0.2h-0.6c-1.7,0-3.2-0.7-4.5-2.1c-1-1-1.5-2.8-1.5-5.4V615
				c0-2.1-1.5-3.7-4.6-4.7l-2.1-0.2c-2.9,0-5.1,1.3-6.3,3.9l-0.1,0.7v24.3c0,3.6-1.5,5.9-4.5,7l-1.2,0.1h-0.9
				c-2.4,0-4.3-1.4-5.5-4.2l-0.2-2.2v-35.6c0-2.8,1.5-4.8,4.5-6L360,597.7z"/>
		</g>
	</g>
	<g>
		<g>
			<path class="st2" d="M73.8,673.9l-0.5-14.7l-0.2-5.9l-1.3,4l-2.9,8.9h-3.1l-2.6-8.9l-1.1-4l-0.1,5.8l-0.4,14.8h-4.2l1.3-26h5.5
				l2.3,7.4l1.1,4.2l1.1-3.9l2.4-7.6h5.6l1.3,26H73.8z"/>
			<path class="st2" d="M94.4,673.9l-0.1-2.6c-0.4,0.5-0.9,0.9-1.3,1.2c-0.5,0.4-1,0.7-1.5,1c-0.6,0.3-1.2,0.5-1.8,0.6
				c-0.7,0.2-1.4,0.2-2.2,0.2c-1,0-1.9-0.2-2.7-0.5s-1.4-0.7-2-1.3c-0.5-0.5-0.9-1.2-1.2-2c-0.3-0.8-0.4-1.6-0.4-2.5
				c0-1,0.2-1.8,0.6-2.6c0.4-0.8,1-1.5,1.9-2.1c0.8-0.6,1.9-1,3.1-1.4c1.2-0.3,2.7-0.5,4.4-0.5h2.6v-1.2c0-0.5-0.1-1-0.2-1.4
				s-0.4-0.8-0.7-1.1s-0.7-0.5-1.3-0.7c-0.5-0.2-1.2-0.2-1.9-0.2c-1.2,0-2.4,0.1-3.5,0.4c-1.2,0.3-2.3,0.7-3.4,1.1v-3.9
				c1-0.4,2.1-0.7,3.4-1s2.6-0.4,4-0.4c1.5,0,2.8,0.1,3.9,0.4s2,0.7,2.7,1.3c0.7,0.6,1.2,1.3,1.5,2.1s0.5,1.9,0.5,3v13.8H94.4z
				 M93.7,665h-3c-0.8,0-1.5,0.1-2.1,0.2c-0.6,0.2-1,0.4-1.4,0.7c-0.4,0.3-0.6,0.6-0.8,1s-0.2,0.8-0.2,1.2c0,0.8,0.3,1.5,0.8,1.9
				s1.3,0.6,2.2,0.6c0.7,0,1.4-0.2,2.1-0.7s1.5-1.2,2.4-2.1V665z"/>
			<path class="st2" d="M116.3,671.7c-0.7,1.8-1.4,3.3-2.2,4.6c-0.8,1.3-1.6,2.4-2.5,3.3s-1.9,1.5-3.1,2c-1.1,0.4-2.4,0.7-3.8,0.7
				c-0.3,0-0.7,0-1.1,0s-0.8-0.1-1.2-0.1V678c0.2,0,0.3,0.1,0.5,0.1s0.4,0.1,0.6,0.1c0.2,0,0.5,0,0.7,0c0.2,0,0.4,0,0.6,0
				c0.6,0,1.1-0.1,1.6-0.3c0.5-0.2,0.9-0.5,1.3-0.9c0.4-0.4,0.8-0.8,1.1-1.4s0.6-1.1,0.9-1.7l-8-20.2h5.4l4.2,11.5l1.3,3.7l1.2-3.5
				l4.2-11.6h5.2L116.3,671.7z"/>
			<path class="st2" d="M143.3,673.7c-0.9,0.2-1.8,0.4-2.6,0.5c-0.9,0.1-1.7,0.2-2.5,0.2c-1.3,0-2.5-0.1-3.4-0.4
				c-1-0.3-1.8-0.7-2.4-1.3c-0.6-0.6-1.1-1.3-1.4-2.2c-0.3-0.9-0.4-1.9-0.4-3.2v-9.9H125v-3.8h5.4v-5.2l5-1.3v6.5h7.9v3.8h-7.9v9.5
				c0,1.2,0.3,2,0.8,2.6c0.5,0.6,1.4,0.9,2.7,0.9c0.8,0,1.6-0.1,2.3-0.2s1.4-0.3,2.1-0.5V673.7z"/>
			<path class="st2" d="M166.6,662.3c0,0.3,0,0.8,0,1.3c0,0.5,0,1-0.1,1.5h-13.3c0,0.9,0.1,1.7,0.4,2.3c0.3,0.7,0.7,1.2,1.2,1.7
				c0.5,0.5,1.1,0.8,1.8,1c0.7,0.2,1.5,0.4,2.3,0.4c1,0,2-0.1,3.2-0.2c1.1-0.2,2.3-0.4,3.5-0.7v3.9c-0.5,0.1-1.1,0.3-1.7,0.4
				c-0.6,0.1-1.2,0.2-1.9,0.3c-0.6,0.1-1.3,0.2-1.9,0.2c-0.7,0-1.3,0.1-1.9,0.1c-1.5,0-2.9-0.2-4.1-0.7c-1.2-0.4-2.3-1.1-3.1-1.9
				s-1.5-1.9-2-3.2c-0.5-1.3-0.7-2.7-0.7-4.4c0-1.6,0.2-3.1,0.7-4.5s1.1-2.5,1.9-3.5c0.8-1,1.8-1.7,3-2.2s2.5-0.8,3.9-0.8
				c1.4,0,2.7,0.2,3.8,0.7c1.1,0.4,2,1.1,2.8,1.9c0.7,0.8,1.3,1.7,1.7,2.8C166.5,659.8,166.6,661,166.6,662.3z M161.7,661.6
				c0-0.8-0.1-1.5-0.3-2.1c-0.2-0.6-0.5-1.1-0.9-1.5s-0.8-0.7-1.3-0.9c-0.5-0.2-1-0.3-1.6-0.3c-1.2,0-2.2,0.4-3,1.2
				c-0.8,0.8-1.2,2-1.4,3.5H161.7z"/>
			<path class="st2" d="M208,673.9l-1.4-5.1h-9.1l-1.5,5.1h-4.9l7.7-26h6.8l7.7,26H208z M202.1,652.7l-3.4,12.1h6.8L202.1,652.7z"/>
			<path class="st2" d="M222.8,649.6h-5.7v-3.8h10.7v24.4h5.8v3.8h-17.2v-3.8h6.4V649.6z"/>
			<path class="st2" d="M245.2,649.6h-5.7v-3.8h10.7v24.4h5.8v3.8h-17.2v-3.8h6.4V649.6z"/>
			<path class="st2" d="M265.9,653.7v13.2c0,1.1,0.2,1.9,0.6,2.5c0.4,0.6,1,0.8,1.9,0.8c0.8,0,1.6-0.3,2.3-1
				c0.7-0.7,1.5-1.6,2.4-2.7v-12.8h4.9v20.2h-4.2l-0.1-3c-0.4,0.5-0.9,1-1.3,1.4c-0.4,0.4-0.9,0.8-1.4,1.1c-0.5,0.3-1.1,0.5-1.7,0.7
				c-0.6,0.2-1.3,0.2-2,0.2c-1,0-1.9-0.2-2.7-0.5s-1.4-0.8-1.9-1.4s-0.9-1.4-1.2-2.2s-0.4-1.8-0.4-2.9v-13.6H265.9z"/>
			<path class="st2" d="M295.6,673.9v-13.2c0-2.2-0.8-3.3-2.5-3.3c-0.8,0-1.6,0.3-2.4,1s-1.5,1.6-2.4,2.7v12.8h-4.9v-20.2h4.2l0.1,3
				c0.4-0.5,0.8-1,1.3-1.4c0.4-0.4,0.9-0.8,1.4-1.1c0.5-0.3,1.1-0.5,1.7-0.7c0.6-0.2,1.3-0.2,2-0.2c1,0,1.9,0.2,2.7,0.5
				c0.8,0.3,1.4,0.8,1.9,1.4c0.5,0.6,0.9,1.4,1.2,2.2c0.3,0.9,0.4,1.8,0.4,2.9v13.6H295.6z"/>
			<path class="st2" d="M322.7,673.7c-0.9,0.2-1.8,0.4-2.6,0.5c-0.9,0.1-1.7,0.2-2.5,0.2c-1.3,0-2.5-0.1-3.4-0.4
				c-1-0.3-1.8-0.7-2.4-1.3c-0.6-0.6-1.1-1.3-1.4-2.2c-0.3-0.9-0.4-1.9-0.4-3.2v-9.9h-5.4v-3.8h5.4v-5.2l5-1.3v6.5h7.9v3.8h-7.9v9.5
				c0,1.2,0.3,2,0.8,2.6c0.5,0.6,1.4,0.9,2.7,0.9c0.8,0,1.6-0.1,2.3-0.2s1.4-0.3,2.1-0.5V673.7z"/>
			<path class="st2" d="M334.9,657.5h-5.7v-3.8h10.7v16.4h5.8v3.8h-17.2v-3.8h6.4V657.5z M340.3,648.2c0,0.4-0.1,0.9-0.2,1.2
				s-0.4,0.7-0.7,1c-0.3,0.3-0.6,0.5-1,0.7c-0.4,0.2-0.8,0.2-1.3,0.2s-0.9-0.1-1.3-0.2s-0.7-0.4-1-0.7c-0.3-0.3-0.5-0.6-0.7-1
				s-0.2-0.8-0.2-1.2c0-0.4,0.1-0.8,0.2-1.2c0.2-0.4,0.4-0.7,0.7-1s0.6-0.5,1-0.7s0.8-0.2,1.3-0.2s0.9,0.1,1.3,0.2
				c0.4,0.2,0.7,0.4,1,0.7s0.5,0.6,0.7,1C340.2,647.3,340.3,647.7,340.3,648.2z"/>
			<path class="st2" d="M367.5,668c0,1.2-0.3,2.1-0.8,3c-0.5,0.8-1.2,1.5-2,2c-0.8,0.5-1.8,0.9-2.9,1.1c-1.1,0.2-2.2,0.3-3.3,0.3
				c-1.5,0-2.8-0.1-4-0.2c-1.2-0.1-2.3-0.3-3.4-0.6v-4.4c1.2,0.5,2.5,0.9,3.7,1.1s2.4,0.3,3.5,0.3c1.3,0,2.2-0.2,2.9-0.6
				c0.6-0.4,0.9-0.9,0.9-1.6c0-0.3-0.1-0.6-0.2-0.8c-0.1-0.3-0.4-0.5-0.7-0.7c-0.4-0.2-0.9-0.5-1.5-0.7c-0.7-0.2-1.5-0.5-2.6-0.8
				c-1-0.3-1.9-0.6-2.6-0.9c-0.8-0.4-1.4-0.8-1.9-1.2s-0.9-1-1.1-1.7c-0.2-0.6-0.4-1.4-0.4-2.2c0-0.8,0.2-1.6,0.6-2.3
				c0.4-0.7,0.9-1.4,1.7-1.9c0.7-0.5,1.7-1,2.8-1.3c1.1-0.3,2.4-0.5,3.9-0.5c1.3,0,2.4,0.1,3.4,0.2c1,0.1,1.9,0.3,2.6,0.4v4
				c-1.2-0.4-2.2-0.6-3.3-0.8c-1-0.2-2-0.2-3-0.2c-1,0-1.8,0.2-2.4,0.5c-0.6,0.4-0.9,0.9-0.9,1.5c0,0.3,0.1,0.6,0.2,0.8
				c0.1,0.2,0.4,0.5,0.7,0.7c0.4,0.2,0.8,0.5,1.5,0.7c0.6,0.2,1.5,0.5,2.5,0.8c1.2,0.3,2.2,0.7,2.9,1.1c0.8,0.4,1.4,0.8,1.9,1.3
				c0.5,0.5,0.8,1,1,1.6C367.4,666.5,367.5,667.2,367.5,668z"/>
			<path class="st2" d="M404.2,662.9v-4h9.3v13.9c-1.2,0.6-2.4,1-3.7,1.2c-1.3,0.3-2.7,0.4-4.2,0.4c-1.8,0-3.4-0.3-4.9-0.8
				s-2.7-1.4-3.7-2.5c-1-1.1-1.8-2.5-2.3-4.1c-0.5-1.6-0.8-3.5-0.8-5.7c0-2.2,0.3-4.1,0.8-5.8c0.6-1.7,1.4-3.2,2.5-4.4
				c1.1-1.2,2.4-2.1,4-2.7c1.6-0.6,3.4-0.9,5.4-0.9c1.2,0,2.4,0.1,3.5,0.3s2.3,0.5,3.4,0.8v4.8c-1-0.5-2.1-0.8-3.3-1.1
				c-1.2-0.3-2.4-0.4-3.6-0.4c-1.2,0-2.3,0.2-3.2,0.6c-0.9,0.4-1.7,1-2.4,1.8c-0.6,0.8-1.1,1.7-1.4,2.9c-0.3,1.1-0.5,2.4-0.5,3.9
				c0,1.4,0.1,2.6,0.4,3.7c0.3,1.1,0.7,2.1,1.2,2.8s1.3,1.4,2.2,1.8s2,0.6,3.2,0.6c0.3,0,0.6,0,0.8,0c0.2,0,0.4,0,0.6-0.1
				c0.2,0,0.4-0.1,0.6-0.1c0.2-0.1,0.4-0.1,0.6-0.2v-6.7H404.2z"/>
			<path class="st2" d="M422.9,653.7v13.2c0,1.1,0.2,1.9,0.6,2.5c0.4,0.6,1,0.8,1.9,0.8c0.8,0,1.6-0.3,2.3-1
				c0.7-0.7,1.5-1.6,2.4-2.7v-12.8h4.9v20.2h-4.2l-0.1-3c-0.4,0.5-0.9,1-1.3,1.4c-0.4,0.4-0.9,0.8-1.4,1.1c-0.5,0.3-1.1,0.5-1.7,0.7
				c-0.6,0.2-1.3,0.2-2,0.2c-1,0-1.9-0.2-2.7-0.5s-1.4-0.8-1.9-1.4s-0.9-1.4-1.2-2.2s-0.4-1.8-0.4-2.9v-13.6H422.9z"/>
			<path class="st2" d="M453.2,673.9l-0.1-2.6c-0.4,0.5-0.9,0.9-1.3,1.2c-0.5,0.4-1,0.7-1.5,1c-0.6,0.3-1.2,0.5-1.8,0.6
				c-0.7,0.2-1.4,0.2-2.2,0.2c-1,0-1.9-0.2-2.7-0.5s-1.4-0.7-2-1.3c-0.5-0.5-0.9-1.2-1.2-2c-0.3-0.8-0.4-1.6-0.4-2.5
				c0-1,0.2-1.8,0.6-2.6c0.4-0.8,1-1.5,1.9-2.1c0.8-0.6,1.9-1,3.1-1.4c1.2-0.3,2.7-0.5,4.4-0.5h2.6v-1.2c0-0.5-0.1-1-0.2-1.4
				s-0.4-0.8-0.7-1.1s-0.7-0.5-1.3-0.7c-0.5-0.2-1.2-0.2-1.9-0.2c-1.2,0-2.4,0.1-3.5,0.4c-1.2,0.3-2.3,0.7-3.4,1.1v-3.9
				c1-0.4,2.1-0.7,3.4-1s2.6-0.4,4-0.4c1.5,0,2.8,0.1,3.9,0.4s2,0.7,2.7,1.3c0.7,0.6,1.2,1.3,1.5,2.1s0.5,1.9,0.5,3v13.8H453.2z
				 M452.5,665h-3c-0.8,0-1.5,0.1-2.1,0.2c-0.6,0.2-1,0.4-1.4,0.7c-0.4,0.3-0.6,0.6-0.8,1s-0.2,0.8-0.2,1.2c0,0.8,0.3,1.5,0.8,1.9
				s1.3,0.6,2.2,0.6c0.7,0,1.4-0.2,2.1-0.7s1.5-1.2,2.4-2.1V665z"/>
			<path class="st2" d="M475.9,661.6c0-0.8,0-1.4-0.1-1.9c-0.1-0.5-0.3-1-0.5-1.3c-0.2-0.3-0.5-0.6-0.8-0.8
				c-0.3-0.2-0.7-0.2-1.1-0.2c-0.7,0-1.5,0.3-2.2,0.9c-0.8,0.6-1.6,1.6-2.5,2.9v12.8h-5v-20.2h4.4l0.2,2.9c0.3-0.5,0.7-1,1.1-1.4
				c0.4-0.4,0.9-0.8,1.4-1.1c0.5-0.3,1.1-0.5,1.7-0.7s1.3-0.2,2.1-0.2c1,0,1.9,0.2,2.7,0.5c0.8,0.4,1.5,0.9,2,1.6
				c0.5,0.7,0.9,1.6,1.2,2.6c0.3,1,0.4,2.2,0.3,3.6H475.9z"/>
			<path class="st2" d="M498.1,673.9l-0.1-3c-0.4,0.5-0.9,1-1.3,1.4s-0.9,0.8-1.5,1.1c-0.5,0.3-1.1,0.5-1.7,0.7
				c-0.6,0.2-1.2,0.2-2,0.2c-1.2,0-2.3-0.2-3.2-0.7c-0.9-0.5-1.7-1.2-2.3-2c-0.6-0.9-1.1-2-1.4-3.2c-0.3-1.3-0.5-2.7-0.5-4.2
				c0-1.9,0.3-3.5,0.8-4.8c0.5-1.4,1.3-2.5,2.2-3.4c0.9-0.9,2-1.6,3.3-2s2.7-0.6,4.2-0.6c0.5,0,1,0,1.5,0.1s1,0.2,1.4,0.3v-7.9h4.9
				v28.1H498.1z M489.2,664c0,1.1,0.1,2.1,0.2,2.9s0.4,1.4,0.7,1.9c0.3,0.5,0.7,0.9,1.1,1.1c0.4,0.2,0.9,0.3,1.5,0.3
				c0.8,0,1.6-0.3,2.4-1c0.7-0.7,1.5-1.6,2.4-2.7v-8.8c-0.4-0.1-0.9-0.3-1.4-0.4s-1.1-0.1-1.7-0.1c-0.8,0-1.5,0.2-2.1,0.5
				c-0.6,0.3-1.2,0.8-1.6,1.4c-0.4,0.6-0.8,1.3-1,2.1C489.3,662,489.2,662.9,489.2,664z"/>
			<path class="st2" d="M514.3,657.5h-5.7v-3.8h10.7v16.4h5.8v3.8h-17.2v-3.8h6.4V657.5z M519.7,648.2c0,0.4-0.1,0.9-0.2,1.2
				s-0.4,0.7-0.7,1c-0.3,0.3-0.6,0.5-1,0.7c-0.4,0.2-0.8,0.2-1.3,0.2s-0.9-0.1-1.3-0.2s-0.7-0.4-1-0.7c-0.3-0.3-0.5-0.6-0.7-1
				s-0.2-0.8-0.2-1.2c0-0.4,0.1-0.8,0.2-1.2c0.2-0.4,0.4-0.7,0.7-1s0.6-0.5,1-0.7s0.8-0.2,1.3-0.2s0.9,0.1,1.3,0.2
				c0.4,0.2,0.7,0.4,1,0.7s0.5,0.6,0.7,1C519.6,647.3,519.7,647.7,519.7,648.2z"/>
			<path class="st2" d="M542.9,673.9l-0.1-2.6c-0.4,0.5-0.9,0.9-1.3,1.2c-0.5,0.4-1,0.7-1.5,1c-0.6,0.3-1.2,0.5-1.8,0.6
				c-0.7,0.2-1.4,0.2-2.2,0.2c-1,0-1.9-0.2-2.7-0.5s-1.4-0.7-2-1.3c-0.5-0.5-0.9-1.2-1.2-2c-0.3-0.8-0.4-1.6-0.4-2.5
				c0-1,0.2-1.8,0.6-2.6c0.4-0.8,1-1.5,1.9-2.1c0.8-0.6,1.9-1,3.1-1.4c1.2-0.3,2.7-0.5,4.4-0.5h2.6v-1.2c0-0.5-0.1-1-0.2-1.4
				s-0.4-0.8-0.7-1.1s-0.7-0.5-1.3-0.7c-0.5-0.2-1.2-0.2-1.9-0.2c-1.2,0-2.4,0.1-3.5,0.4c-1.2,0.3-2.3,0.7-3.4,1.1v-3.9
				c1-0.4,2.1-0.7,3.4-1s2.6-0.4,4-0.4c1.5,0,2.8,0.1,3.9,0.4s2,0.7,2.7,1.3c0.7,0.6,1.2,1.3,1.5,2.1s0.5,1.9,0.5,3v13.8H542.9z
				 M542.2,665h-3c-0.8,0-1.5,0.1-2.1,0.2c-0.6,0.2-1,0.4-1.4,0.7c-0.4,0.3-0.6,0.6-0.8,1s-0.2,0.8-0.2,1.2c0,0.8,0.3,1.5,0.8,1.9
				s1.3,0.6,2.2,0.6c0.7,0,1.4-0.2,2.1-0.7s1.5-1.2,2.4-2.1V665z"/>
			<path class="st2" d="M564.7,673.9v-13.2c0-2.2-0.8-3.3-2.5-3.3c-0.8,0-1.6,0.3-2.4,1s-1.5,1.6-2.4,2.7v12.8h-4.9v-20.2h4.2l0.1,3
				c0.4-0.5,0.8-1,1.3-1.4c0.4-0.4,0.9-0.8,1.4-1.1c0.5-0.3,1.1-0.5,1.7-0.7c0.6-0.2,1.3-0.2,2-0.2c1,0,1.9,0.2,2.7,0.5
				c0.8,0.3,1.4,0.8,1.9,1.4c0.5,0.6,0.9,1.4,1.2,2.2c0.3,0.9,0.4,1.8,0.4,2.9v13.6H564.7z"/>
			<path class="st2" d="M74.6,715.1c0,1.2-0.2,2.3-0.6,3.3s-0.9,1.9-1.7,2.6s-1.7,1.3-2.8,1.7c-1.1,0.4-2.4,0.6-3.8,0.6
				c-1.1,0-2.1-0.1-3.1-0.4c-1-0.3-1.9-0.6-2.6-1v-4.7c0.3,0.3,0.7,0.5,1.2,0.8c0.4,0.2,0.9,0.4,1.4,0.6c0.5,0.2,1,0.3,1.6,0.4
				c0.5,0.1,1.1,0.1,1.6,0.1c0.4,0,0.9-0.1,1.4-0.2c0.5-0.2,0.9-0.4,1.3-0.8c0.4-0.4,0.7-0.9,0.9-1.5c0.2-0.6,0.4-1.4,0.4-2.2v-13.5
				h-9.4v-4h14.4V715.1z"/>
			<path class="st2" d="M100,712.6c0,1.6-0.2,3.1-0.7,4.4c-0.5,1.3-1.1,2.5-2,3.4s-1.9,1.7-3.1,2.2s-2.6,0.8-4.2,0.8
				c-1.5,0-2.8-0.2-4-0.7s-2.2-1.1-3-2c-0.8-0.9-1.5-2-1.9-3.3s-0.7-2.8-0.7-4.6c0-1.6,0.2-3.1,0.7-4.4s1.1-2.4,2-3.4
				c0.9-0.9,1.9-1.6,3.1-2.2c1.2-0.5,2.6-0.8,4.2-0.8c1.5,0,2.9,0.2,4,0.7c1.2,0.4,2.2,1.1,3,2c0.8,0.9,1.5,2,1.9,3.3
				C99.8,709.4,100,710.9,100,712.6z M94.9,712.7c0-2.1-0.4-3.7-1.2-4.7s-2-1.6-3.5-1.6c-0.8,0-1.6,0.2-2.2,0.5s-1.1,0.8-1.5,1.4
				c-0.4,0.6-0.7,1.3-0.8,2c-0.2,0.8-0.3,1.6-0.3,2.5c0,2.1,0.4,3.7,1.3,4.8c0.8,1.1,2,1.6,3.5,1.6c0.8,0,1.5-0.2,2.1-0.5
				s1.1-0.8,1.5-1.4c0.4-0.6,0.7-1.3,0.8-2C94.8,714.5,94.9,713.6,94.9,712.7z"/>
			<path class="st2" d="M121.8,711.2c0,0.3,0,0.8,0,1.3c0,0.5,0,1-0.1,1.5h-13.3c0,0.9,0.1,1.7,0.4,2.3c0.3,0.7,0.7,1.2,1.2,1.7
				c0.5,0.5,1.1,0.8,1.8,1c0.7,0.2,1.5,0.4,2.3,0.4c1,0,2-0.1,3.2-0.2c1.1-0.2,2.3-0.4,3.5-0.7v3.9c-0.5,0.1-1.1,0.3-1.7,0.4
				c-0.6,0.1-1.2,0.2-1.9,0.3c-0.6,0.1-1.3,0.2-1.9,0.2c-0.7,0-1.3,0.1-1.9,0.1c-1.5,0-2.9-0.2-4.1-0.7c-1.2-0.4-2.3-1.1-3.1-1.9
				s-1.5-1.9-2-3.2c-0.5-1.3-0.7-2.7-0.7-4.4c0-1.6,0.2-3.1,0.7-4.5s1.1-2.5,1.9-3.5c0.8-1,1.8-1.7,3-2.2s2.5-0.8,3.9-0.8
				c1.4,0,2.7,0.2,3.8,0.7c1.1,0.4,2,1.1,2.8,1.9c0.7,0.8,1.3,1.7,1.7,2.8C121.6,708.7,121.8,709.9,121.8,711.2z M116.9,710.5
				c0-0.8-0.1-1.5-0.3-2.1c-0.2-0.6-0.5-1.1-0.9-1.5s-0.8-0.7-1.3-0.9c-0.5-0.2-1-0.3-1.6-0.3c-1.2,0-2.2,0.4-3,1.2
				c-0.8,0.8-1.2,2-1.4,3.5H116.9z"/>
			<path class="st2" d="M133.1,698.5h-5.7v-3.8h10.7v24.4h5.8v3.8h-17.2v-3.8h6.4V698.5z"/>
			<path class="st2" d="M188.7,721.9c-1.2,0.5-2.3,0.8-3.4,1s-2.2,0.3-3.4,0.3c-1.9,0-3.5-0.3-5-0.8s-2.7-1.4-3.6-2.5
				c-1-1.1-1.7-2.4-2.2-4.1s-0.8-3.5-0.8-5.6c0-2.2,0.3-4.1,0.8-5.8c0.6-1.7,1.4-3.1,2.4-4.3c1-1.2,2.3-2.1,3.8-2.7
				c1.5-0.6,3.1-0.9,5-0.9c0.6,0,1.2,0,1.7,0c0.5,0,1,0.1,1.5,0.1c0.5,0.1,1,0.2,1.5,0.3c0.5,0.1,1.1,0.3,1.6,0.5v4.9
				c-1.1-0.5-2.2-0.9-3.2-1.1s-2-0.3-2.8-0.3c-1.2,0-2.3,0.2-3.2,0.7c-0.9,0.4-1.6,1.1-2.2,1.9c-0.6,0.8-1,1.8-1.2,2.9
				s-0.4,2.3-0.4,3.7c0,1.4,0.1,2.7,0.4,3.8c0.3,1.1,0.7,2,1.3,2.8c0.6,0.8,1.3,1.4,2.2,1.8s1.9,0.6,3.2,0.6c0.4,0,0.9,0,1.4-0.1
				c0.5-0.1,1-0.2,1.6-0.3c0.5-0.1,1-0.3,1.6-0.5s1-0.4,1.4-0.6V721.9z"/>
			<path class="st2" d="M206.5,722.9l-0.1-2.6c-0.4,0.5-0.9,0.9-1.3,1.2c-0.5,0.4-1,0.7-1.5,1c-0.6,0.3-1.2,0.5-1.8,0.6
				c-0.7,0.2-1.4,0.2-2.2,0.2c-1,0-1.9-0.2-2.7-0.5s-1.4-0.7-2-1.3c-0.5-0.5-0.9-1.2-1.2-2c-0.3-0.8-0.4-1.6-0.4-2.5
				c0-1,0.2-1.8,0.6-2.6c0.4-0.8,1-1.5,1.9-2.1c0.8-0.6,1.9-1,3.1-1.4c1.2-0.3,2.7-0.5,4.4-0.5h2.6v-1.2c0-0.5-0.1-1-0.2-1.4
				s-0.4-0.8-0.7-1.1s-0.7-0.5-1.3-0.7c-0.5-0.2-1.2-0.2-1.9-0.2c-1.2,0-2.4,0.1-3.5,0.4c-1.2,0.3-2.3,0.7-3.4,1.1v-3.9
				c1-0.4,2.1-0.7,3.4-1s2.6-0.4,4-0.4c1.5,0,2.8,0.1,3.9,0.4s2,0.7,2.7,1.3c0.7,0.6,1.2,1.3,1.5,2.1s0.5,1.9,0.5,3v13.8H206.5z
				 M205.8,713.9h-3c-0.8,0-1.5,0.1-2.1,0.2c-0.6,0.2-1,0.4-1.4,0.7c-0.4,0.3-0.6,0.6-0.8,1s-0.2,0.8-0.2,1.2c0,0.8,0.3,1.5,0.8,1.9
				s1.3,0.6,2.2,0.6c0.7,0,1.4-0.2,2.1-0.7s1.5-1.2,2.4-2.1V713.9z"/>
			<path class="st2" d="M234.5,712.4c0,1.9-0.3,3.5-0.8,4.8s-1.3,2.5-2.2,3.4c-0.9,0.9-2,1.6-3.3,2c-1.3,0.4-2.7,0.6-4.2,0.6
				c-1.5,0-2.8-0.1-4.1-0.3c-1.3-0.2-2.5-0.5-3.6-0.9v-27.3h4.9v6.6l-0.2,4c0.7-0.9,1.6-1.7,2.6-2.3c1-0.6,2.1-0.9,3.5-0.9
				c1.2,0,2.3,0.2,3.2,0.7c0.9,0.5,1.7,1.2,2.3,2s1.1,2,1.4,3.2C234.3,709.4,234.5,710.8,234.5,712.4z M229.4,712.6
				c0-1.1-0.1-2.1-0.2-2.8s-0.4-1.4-0.7-1.9c-0.3-0.5-0.7-0.9-1.1-1.1c-0.4-0.2-0.9-0.3-1.5-0.3c-0.8,0-1.6,0.3-2.4,1
				s-1.5,1.6-2.4,2.7v8.8c0.4,0.1,0.9,0.3,1.4,0.4c0.6,0.1,1.1,0.1,1.7,0.1c0.8,0,1.5-0.2,2.1-0.5c0.6-0.3,1.2-0.8,1.6-1.4
				c0.4-0.6,0.8-1.3,1-2.1C229.3,714.6,229.4,713.7,229.4,712.6z"/>
			<path class="st2" d="M251.7,710.5c0-0.8,0-1.4-0.1-1.9c-0.1-0.5-0.3-1-0.5-1.3c-0.2-0.3-0.5-0.6-0.8-0.8
				c-0.3-0.2-0.7-0.2-1.1-0.2c-0.7,0-1.5,0.3-2.2,0.9c-0.8,0.6-1.6,1.6-2.5,2.9v12.8h-5v-20.2h4.4l0.2,2.9c0.3-0.5,0.7-1,1.1-1.4
				c0.4-0.4,0.9-0.8,1.4-1.1c0.5-0.3,1.1-0.5,1.7-0.7s1.3-0.2,2.1-0.2c1,0,1.9,0.2,2.7,0.5c0.8,0.4,1.5,0.9,2,1.6
				c0.5,0.7,0.9,1.6,1.2,2.6c0.3,1,0.4,2.2,0.3,3.6H251.7z"/>
			<path class="st2" d="M273.8,722.9l-0.1-2.6c-0.4,0.5-0.9,0.9-1.3,1.2c-0.5,0.4-1,0.7-1.5,1c-0.6,0.3-1.2,0.5-1.8,0.6
				c-0.7,0.2-1.4,0.2-2.2,0.2c-1,0-1.9-0.2-2.7-0.5s-1.4-0.7-2-1.3c-0.5-0.5-0.9-1.2-1.2-2c-0.3-0.8-0.4-1.6-0.4-2.5
				c0-1,0.2-1.8,0.6-2.6c0.4-0.8,1-1.5,1.9-2.1c0.8-0.6,1.9-1,3.1-1.4c1.2-0.3,2.7-0.5,4.4-0.5h2.6v-1.2c0-0.5-0.1-1-0.2-1.4
				s-0.4-0.8-0.7-1.1s-0.7-0.5-1.3-0.7c-0.5-0.2-1.2-0.2-1.9-0.2c-1.2,0-2.4,0.1-3.5,0.4c-1.2,0.3-2.3,0.7-3.4,1.1v-3.9
				c1-0.4,2.1-0.7,3.4-1s2.6-0.4,4-0.4c1.5,0,2.8,0.1,3.9,0.4s2,0.7,2.7,1.3c0.7,0.6,1.2,1.3,1.5,2.1s0.5,1.9,0.5,3v13.8H273.8z
				 M273.1,713.9h-3c-0.8,0-1.5,0.1-2.1,0.2c-0.6,0.2-1,0.4-1.4,0.7c-0.4,0.3-0.6,0.6-0.8,1s-0.2,0.8-0.2,1.2c0,0.8,0.3,1.5,0.8,1.9
				s1.3,0.6,2.2,0.6c0.7,0,1.4-0.2,2.1-0.7s1.5-1.2,2.4-2.1V713.9z"/>
			<path class="st2" d="M290.1,698.5h-5.7v-3.8h10.7v24.4h5.8v3.8h-17.2v-3.8h6.4V698.5z"/>
			<path class="st2" d="M323.6,711.2c0,0.3,0,0.8,0,1.3c0,0.5,0,1-0.1,1.5h-13.3c0,0.9,0.1,1.7,0.4,2.3c0.3,0.7,0.7,1.2,1.2,1.7
				c0.5,0.5,1.1,0.8,1.8,1c0.7,0.2,1.5,0.4,2.3,0.4c1,0,2-0.1,3.2-0.2c1.1-0.2,2.3-0.4,3.5-0.7v3.9c-0.5,0.1-1.1,0.3-1.7,0.4
				c-0.6,0.1-1.2,0.2-1.9,0.3c-0.6,0.1-1.3,0.2-1.9,0.2c-0.7,0-1.3,0.1-1.9,0.1c-1.5,0-2.9-0.2-4.1-0.7c-1.2-0.4-2.3-1.1-3.1-1.9
				s-1.5-1.9-2-3.2c-0.5-1.3-0.7-2.7-0.7-4.4c0-1.6,0.2-3.1,0.7-4.5s1.1-2.5,1.9-3.5c0.8-1,1.8-1.7,3-2.2s2.5-0.8,3.9-0.8
				c1.4,0,2.7,0.2,3.8,0.7c1.1,0.4,2,1.1,2.8,1.9c0.7,0.8,1.3,1.7,1.7,2.8C323.4,708.7,323.6,709.9,323.6,711.2z M318.7,710.5
				c0-0.8-0.1-1.5-0.3-2.1c-0.2-0.6-0.5-1.1-0.9-1.5s-0.8-0.7-1.3-0.9c-0.5-0.2-1-0.3-1.6-0.3c-1.2,0-2.2,0.4-3,1.2
				c-0.8,0.8-1.2,2-1.4,3.5H318.7z"/>
			<path class="st2" d="M345.1,716.9c0,1.2-0.3,2.1-0.8,3c-0.5,0.8-1.2,1.5-2,2c-0.8,0.5-1.8,0.9-2.9,1.1c-1.1,0.2-2.2,0.3-3.3,0.3
				c-1.5,0-2.8-0.1-4-0.2c-1.2-0.1-2.3-0.3-3.4-0.6v-4.4c1.2,0.5,2.5,0.9,3.7,1.1s2.4,0.3,3.5,0.3c1.3,0,2.2-0.2,2.9-0.6
				c0.6-0.4,0.9-0.9,0.9-1.6c0-0.3-0.1-0.6-0.2-0.8c-0.1-0.3-0.4-0.5-0.7-0.7c-0.4-0.2-0.9-0.5-1.5-0.7c-0.7-0.2-1.5-0.5-2.6-0.8
				c-1-0.3-1.9-0.6-2.6-0.9c-0.8-0.4-1.4-0.8-1.9-1.2s-0.9-1-1.1-1.7c-0.2-0.6-0.4-1.4-0.4-2.2c0-0.8,0.2-1.6,0.6-2.3
				c0.4-0.7,0.9-1.4,1.7-1.9c0.7-0.5,1.7-1,2.8-1.3c1.1-0.3,2.4-0.5,3.9-0.5c1.3,0,2.4,0.1,3.4,0.2c1,0.1,1.9,0.3,2.6,0.4v4
				c-1.2-0.4-2.2-0.6-3.3-0.8c-1-0.2-2-0.2-3-0.2c-1,0-1.8,0.2-2.4,0.5c-0.6,0.4-0.9,0.9-0.9,1.5c0,0.3,0.1,0.6,0.2,0.8
				c0.1,0.2,0.4,0.5,0.7,0.7c0.4,0.2,0.8,0.5,1.5,0.7c0.6,0.2,1.5,0.5,2.5,0.8c1.2,0.3,2.2,0.7,2.9,1.1c0.8,0.4,1.4,0.8,1.9,1.3
				c0.5,0.5,0.8,1,1,1.6C345,715.5,345.1,716.1,345.1,716.9z"/>
		</g>
	</g>
	<g>
	</g>
	<g>
	</g>
	<g>
	</g>
	<g>
	</g>
	<g>
	</g>
	<g>
	</g>
	<g>
	</g>
	<g>
	</g>
	<g>
	</g>
	<g>
	</g>
	<g>
	</g>
	<g>
	</g>
	<g>
	</g>
	<g>
	</g>
	<g>
	</g>
</g>
</svg>
