<svg xmlns="http://www.w3.org/2000/svg" viewBox="0 0 640 800"><defs><style>.cls-1{fill:#fcdcd0;}.cls-14,.cls-2{fill:#ffb81a;}.cls-19,.cls-3{fill:none;}.cls-4{fill:#b26f38;}.cls-15,.cls-5{fill:#f9c55d;}.cls-6{fill:#f9f1ef;}.cls-7{fill:#ec7093;}.cls-8{fill:#6bc988;}.cls-9{fill:#fafafa;}.cls-10{fill:#fff;stroke-width:0.81px;}.cls-10,.cls-14,.cls-15{stroke:#fff;}.cls-10,.cls-14,.cls-15,.cls-19,.cls-20,.cls-21{stroke-miterlimit:10;}.cls-11{fill:#fbe4de;}.cls-12{fill:#f1f1f1;}.cls-13{fill:#d13b3b;}.cls-14{stroke-width:1.78px;}.cls-15{stroke-width:2.4px;}.cls-16{fill:#f96e58;}.cls-17{fill:#f9cabb;}.cls-18,.cls-20,.cls-21{fill:#f9b3a0;}.cls-19,.cls-20,.cls-21{stroke:#f9b3a0;}.cls-21{stroke-width:2px;}</style></defs><g id="Capa_1" data-name="Capa 1"><rect class="cls-1" width="640" height="800"/><path class="cls-2" d="M77.11,133H617a0,0,0,0,1,0,0v68.82A33.18,33.18,0,0,1,583.82,235H47a0,0,0,0,1,0,0V163.11A30.11,30.11,0,0,1,77.11,133Z"/></g><g id="Capa_2" data-name="Capa 2"><path class="cls-3" d="M-52.83-29.29H629.75c3.25,0,3.25,0,3.25,3.27M168.15,591.08c-8.31-.14-16.65-.78-24.93.18-14.59,1.69-29.16,3.56-43.74,5.42-12.82,1.63-25.32,4.42-37.25,9.61-10.32,4.49-20,9.57-27.44,18.45-12.32,14.79-12.44,35.08,2,48.78,6.72,6.4,14.73,10.81,23,14.64s17,5.5,25.83,7.32c12.85,2.68,25.72,5.27,38.85,5.95q17.19.9,34.42.54c20-.39,40.06.13,60.06-1.31,7.78-.55,15.59-.87,23.35-1.69,11-1.16,21.9-2.85,32.87-4a118.16,118.16,0,0,0,40.3-11.44c13.08-6.41,21.11-16.55,22.86-31.33,1.54-12.88-2.72-23.31-12.73-31.49-5.38-4.4-11.77-6.76-18.12-9.27a119.26,119.26,0,0,0-33-8c-7.27-.67-14.51-1.69-21.75-2.7-11.26-1.56-22.35-4.13-33.65-5.57C202.13,593,185.22,591.08,168.15,591.08ZM136.29,167.36l.57-.23c.47.66,1,1.29,1.41,2q4.08,6.3,8.11,12.62c1.46,2.3,3.72,1.24,5.56,1.16s.95-1.91,1-2.94c.09-5.28,0-10.56.06-15.84,0-.85-.43-2,.82-2.37,2.41-.7,1.29-2.62,1.22-3.93-.09-1.7-1.74-.86-2.69-1a31,31,0,0,0-4.72,0c-.89,0-2.4-.57-2.37,1,0,1.27-1.14,3.08,1,3.77.59.19,1,.39,1,1.07v11.08c-2.91-4.61-5.64-8.29-7.66-12.32-2-3.88-4.63-5.41-8.78-4.65-.83.15-2.14-.42-2.23.94s-.89,3,.76,3.71c1.3.54,1.3,1.34,1.3,2.37,0,4.07,0,8.15,0,12.22,0,.76.33,1.72-.86,2.06-2.36.67-1.24,2.6-1.2,3.93.06,1.52,1.56.88,2.46.94a28.61,28.61,0,0,0,4.44,0c1-.08,2.64.68,2.79-.8.14-1.33,1.4-3.45-1.26-4.1-.83-.21-.75-1-.76-1.6C136.28,173.43,136.29,170.39,136.29,167.36Zm158.93,5.55-.53.09c-2.42-3.84-5.15-7.52-7.17-11.55-1.95-3.88-4.64-5.39-8.78-4.64-.83.15-2.14-.41-2.22.95s-.89,3,.77,3.7c1.3.54,1.28,1.35,1.28,2.37,0,4.08,0,8.15,0,12.23,0,.76.33,1.72-.86,2.05-2.35.68-1.24,2.61-1.19,3.94.06,1.51,1.57.88,2.46.93,1.76.09,3.52.06,5.28,0,.83,0,2.14.37,2.05-1.09-.06-1.24.9-2.86-.84-3.67-.61-.29-1.25-.38-1.26-1.21v-9.8a6.61,6.61,0,0,1,2.27,2.35c2.61,4.05,5.22,8.09,7.8,12.16,1.46,2.29,3.72,1.24,5.57,1.15s.94-1.92,1-2.95c.09-5.28,0-10.56.06-15.84,0-.84-.43-2,.83-2.36,2.39-.71,1.28-2.63,1.2-3.93-.09-1.7-1.74-.86-2.69-1a23.52,23.52,0,0,0-4.44,0c-.95.09-2.6-.75-2.64,1,0,1.3-1.21,3.29,1.31,3.83.87.19.79.93.79,1.56C295.23,166.48,295.22,169.69,295.22,172.91Zm13.59,24.51v0c-1.85,0-3.71-.1-5.55,0-1,.07-2.74-.8-2.88,1.1-.1,1.42-1,3.54,1.77,3.77,1,.09.87,1.05.87,1.75q0,6.41,0,12.79c0,.79.19,1.76-1.08,1.86-2.72.2-1.5,2.29-1.58,3.6-.11,1.85,1.48,1.21,2.45,1.26a51.37,51.37,0,0,0,5.55,0c1-.07,2.63.72,2.77-.86.12-1.35,1.19-3.15-1.31-4.15-1.83-.74-.91-3-.75-4.49s1.76-.94,2.75-.83c3.16.35,3.46,2.93,3.89,5.31.93,5.23.91,5.25,6.3,5,.74,0,1.9.41,2-.81s.7-3.56-.32-3.91c-3.65-1.22-1.85-5.42-4.37-7.15-.61-.41.24-.91.64-1.22a6.57,6.57,0,0,0,2.33-8.15c-1.27-3.26-3.94-4.8-7.4-4.91C312.89,197.37,310.85,197.42,308.81,197.42Zm82.72-40.55v-.06c-1.95,0-3.89-.08-5.83,0-.94.05-2.57-.71-2.56,1.09,0,1.36-1.26,3.57,1.67,3.77,1.05.07,1,.94,1,1.67q0,6.52,0,13c0,.72.09,1.61-1,1.67-2.93.18-1.66,2.39-1.69,3.75-.05,1.84,1.59,1.08,2.52,1.13,1.94.11,3.89.09,5.83,0,1,0,2.53.58,2.47-1.24,0-1.28.89-2.89-1.34-3.67s-1-3-1-4.56,1.52-1,2.44-.95c3.63.18,3.93,3,4.42,5.7.86,4.76.87,4.82,5.43,4.7,1,0,2.82.84,2.88-1,.06-1.41,1.37-3.67-1.58-4.15-.8-.14-.84-1.12-1-1.83-.37-1.43-.6-3-1.62-4.08-.86-.95-.65-1.49.31-2.18,2.84-2,3.08-5,2.12-8s-3.46-4.55-6.53-4.83C396.16,156.71,393.84,156.87,391.53,156.87ZM503,179.33a9.24,9.24,0,0,1,.07,1.44c-.4,2.58,1.39,2.13,2.94,2.27,2,.19,2.26-.82,2.21-2.46-.09-3.05-.11-6.11,0-9.16.07-1.74-.38-2.52-2.28-2.41a62.39,62.39,0,0,1-7.49,0c-2-.12-2.52.58-2.52,2.5s.71,2.46,2.44,2.37c.67,0,1.64-.33,1.93.57s-.51,1.51-1.13,2c-1.92,1.65-5.27,1.47-7.42-.36-3-2.59-3.47-8.26-.9-11.68,2.45-3.26,6.46-3.73,9.37-.83,1.71,1.71,3.7,1.28,5.42.91s.62-2.35.87-3.59c.34-1.75-.57-2.34-2.2-2.14a4.37,4.37,0,0,1-3.09-1,8.78,8.78,0,0,0-5-1.5c-6.44-.14-11.82,4.6-12.94,11.41-.91,5.57,1.79,11.46,6.42,14S498.18,183.69,503,179.33ZM286.74,223.59h3.88c6.84,0,6.8,0,6.79-6.75,0-1.66,0-3-2.28-2.7-1.69.19-4-.72-3.58,2.49.11.89.14,2.07-1.22,2-1.7,0-3.85.89-5-.59-.72-1-.44-2.89-.15-4.3s1.85-.92,2.82-.86c2,.14,2.2-.95,2.19-2.55s0-3-2.25-2.76c-.92.09-2.27.53-2.72-.67s-.7-2.88.07-3.75c1.27-1.45,3.29-.51,5-.6,1.35-.07,1.29,1.09,1.25,2-.05,1.31.49,1.72,1.8,1.78,4,.19,4,.26,4-3.7,0-1.11-.06-2.23,0-3.33.1-1.43-.44-2-1.9-2-5.74.06-11.47,0-17.21,0-1,0-2.08,0-1.85,1.35s-1.14,3.29,1.1,3.69c1.63.29,1.62,1.13,1.61,2.29,0,3.88,0,7.77,0,11.65,0,1.26.06,2.21-1.73,2.48s-.83,2.1-1,3.24.65,1.51,1.72,1.5C281,223.57,283.87,223.59,286.74,223.59ZM168.46,183h3.89c6.6,0,6.57,0,6.54-6.75,0-1.63,0-3-2.27-2.71-1.67.22-4-.77-3.61,2.48.12,1,.09,2.23-1.44,2.08s-3.75.93-4.86-.82a3.18,3.18,0,0,1,2.82-5c2,.06,2.21-.94,2.2-2.55s0-3-2.28-2.75c-.92.09-2.25.48-2.72-.7s-.73-2.86.09-3.74c1.3-1.41,3.31-.51,5-.59,1.42-.06,1.22,1.15,1.19,2,0,1.35.57,1.69,1.83,1.76,4,.21,4,.26,4-3.72,0-1.11-.06-2.23,0-3.33.09-1.44-.5-1.95-1.94-1.94-5.74.06-11.48,0-17.22,0-1,0-2.05.07-1.77,1.4s-1.19,3.29,1.12,3.65c1.65.25,1.61,1.11,1.61,2.27q0,5.84,0,11.66c0,1.25.08,2.19-1.71,2.48-2,.33-.85,2.27-1,3.48-.21,1.46,1,1.24,1.9,1.25C162.72,183,165.59,183,168.46,183Zm302.08,0h3.33c7.51,0,7.51,0,7-7.59a1.31,1.31,0,0,1,0-.28c.12-2-1.43-1.64-2.5-1.52s-3.28-1-3,1.47c.32,3.13-1.36,3.23-3.65,3.09-1.68-.1-3.36.31-3.17-2.44.15-2.07-.13-4,2.94-3.47,1.95.35,2.32-.74,2.26-2.43s.12-3-2.21-2.81c-.92.08-2.33.55-2.73-.64s-.79-3.14.17-4c1.34-1.16,3.37-.39,5.1-.41,1.39,0,1.25,1.14,1.2,2-.08,1.37.56,1.68,1.82,1.74,3.8.18,3.8.23,3.8-3.63,0-1.2-.06-2.41,0-3.61s-.52-1.75-1.8-1.74c-5.74,0-11.49,0-17.23,0-1,0-2.07,0-1.87,1.35s-1.12,3.28,1.11,3.7c1.63.3,1.59,1.2,1.59,2.34q0,5.84,0,11.67c0,1.14.05,2.07-1.56,2.38-2,.39-1,2.24-1.15,3.47-.14,1.4,1,1.28,1.92,1.28ZM235.91,196.9c-7.13,0-12.54,6.09-12.46,13.88.09,7.5,5.78,13.42,12.8,13.31s12.77-6.46,12.6-13.92S242.91,196.84,235.91,196.9ZM273,169.81c0-7.57-5.52-13.48-12.58-13.5s-12.88,6.14-12.82,13.65,5.76,13.5,12.69,13.54C267.45,183.55,273.06,177.51,273,169.81ZM339,173.5c-3.66,0-3.62.2-3.63,3.45,0,2,1.89,1.67,2.62,2.78,2.09,3.18,5.36,4,9,3.79,4.41-.28,7.78-3.18,8.35-7.15.65-4.46-1.23-7.22-6-8.87-1.49-.5-3-1-4.48-1.47s-2.69-1.16-2.24-2.93,1.92-1.88,3.35-1.74a3.33,3.33,0,0,1,3.34,2.77c.1.54,0,1.35.61,1.43,1.82.26,3.87.74,5.4-.2,1.15-.71.42-2.59.43-3.94s-1.69-1-2.41-1.94c-2.56-3.18-6.06-4-10-3.28-4.31.79-6.84,3.28-7.09,7q-.4,6,5.9,8.32a54.59,54.59,0,0,1,5.21,1.86,2.38,2.38,0,0,1,.51,4.23c-1.76,1.2-5.32.36-5.59-1.67C341.87,173.29,340.4,173.38,339,173.5ZM323.4,156.82h-8.61c-1,0-2.06.06-1.81,1.39s-1.17,3.25,1.13,3.67c1.62.3,1.58,1.23,1.58,2.38,0,3.89,0,7.78,0,11.67,0,1.16,0,2.05-1.61,2.32-2.1.35-.89,2.24-1.11,3.44s.66,1.33,1.59,1.33q8.76,0,17.51,0c1,0,1.6-.26,1.59-1.39,0-2.22.06-4.45,0-6.67s-1.88-1.26-3-1.33-2.85-.61-2.57,1.4c.48,3.41-1.59,3.15-3.83,3.17-1.93,0-3.14-.16-3-2.63.14-2,0-3.78,2.85-3.29,1.9.33,2.51-.51,2.61-2.46.13-2.59-1.13-3-3.19-2.74-2.3.31-2.17-1.16-2.24-2.75-.08-1.77.42-2.63,2.31-2.38a9,9,0,0,0,1.94,0c1.61-.14,2.77.14,2.49,2.18-.2,1.44.7,1.6,1.87,1.65,3.73.16,3.73.2,3.74-3.44,0-1.21-.07-2.41,0-3.61.1-1.46-.5-2-1.94-1.93C329,156.87,326.18,156.82,323.4,156.82Zm79.4,59.93c-1.49-4.76-2.78-8.87-4-13-.21-.66-.24-1.39.68-1.48,2.65-.27,1.63-2.3,1.61-3.63,0-2-1.74-1.17-2.76-1.22-2.22-.12-4.44,0-6.67,0-1,0-2,0-1.83,1.37.17,1.15-.89,3,.89,3.3s2.05,1.55,2.46,2.83c1.74,5.46,3.54,10.91,5.19,16.4.5,1.67,1.21,2.57,3.06,2.31a9.44,9.44,0,0,1,2.49,0c1.79.24,2.6-.51,3.12-2.23,1.7-5.57,3.58-11.09,5.38-16.63.4-1.22.63-2.31,2.31-2.69s.82-2.17.91-3.35c.11-1.38-1-1.31-1.92-1.31-2.4,0-4.81,0-7.22,0-.95,0-2.31-.32-2.16,1.31.12,1.26-1,3.2,1.44,3.49,1.18.14,1.35.73,1.05,1.71C405.52,208,404.27,212,402.8,216.75Zm33.41,6.84c1,0,2,0,3.05,0,.76,0,1.88.32,2-.9s.73-3.19-.41-3.6c-2.2-.78-2.13-2.61-2.66-4.13-1.54-4.35-2.91-8.76-4.35-13.15s-1.47-4.41-6.21-4.44c-1.64,0-2.45.46-3,2.09-1.71,5.47-3.57,10.88-5.42,16.3-.42,1.24-.55,2.51-2.19,3.22-1.41.61-.65,2.49-.56,3.79s1.26.79,2,.81c2,.06,4.06,0,6.1,0,.85,0,1.87,0,1.7-1.2s.92-2.83-.94-3.61c-.57-.23-1.76.25-1.39-1.05.28-1,.18-2.43,1.7-2.51,2-.1,4.07-.06,6.1,0,1.42,0,1.3,1.36,1.67,2.23.24.55.18,1.11-.58,1.24-2.59.44-1.43,2.47-1.39,3.76.05,1.95,1.81.91,2.82,1.13A9.65,9.65,0,0,0,436.21,223.59ZM571.55,183c.93,0,1.86.07,2.77,0s2.15.47,2.16-1c0-1.27.89-3-.71-3.72-1.3-.56-1.51-1.53-1.84-2.53-1.82-5.52-3.7-11-5.31-16.62-.61-2.09-1.75-2.58-3.62-2.34s-4.18-.95-5.09,2.23c-1.63,5.68-3.65,11.24-5.53,16.84-.28.84-.29,1.92-1.4,2.2-2.44.63-1.28,2.56-1.28,3.88,0,1.58,1.49,1,2.39,1,1.75.09,3.51.07,5.26,0,.82,0,2.18.45,2.13-1s1.1-3.11-1-3.79c-.84-.28-1.44-.51-1.1-1.45s.24-2.16,1.69-2.17c2,0,4.07,0,6.1,0,1.26,0,1.24,1.19,1.52,2,.22.66.2,1.28-.7,1.48-2.48.55-1.34,2.53-1.3,3.84.06,1.76,1.7.86,2.65,1A11.63,11.63,0,0,0,571.55,183Zm-371.36,0c.92,0,1.85.07,2.77,0s2.14.47,2.16-1c0-1.27.88-3-.71-3.73-1.29-.56-1.51-1.52-1.84-2.52-1.81-5.53-3.69-11-5.31-16.62-.61-2.09-1.74-2.6-3.61-2.35s-4.18-1-5.1,2.22c-1.62,5.68-3.66,11.24-5.52,16.84-.26.78-.31,1.93-1.15,2.1-2.71.54-1.64,2.61-1.53,4,.15,1.84,1.89.92,2.93,1a35.25,35.25,0,0,0,4.71,0c.82,0,2.18.45,2.13-1s1.1-3.1-1-3.79c-.83-.28-1.44-.5-1.1-1.44s.23-2.17,1.69-2.18c2,0,4.06,0,6.1,0,1.25,0,1.24,1.18,1.51,2,.22.65.22,1.28-.69,1.47-2.48.55-1.33,2.53-1.3,3.84,0,1.77,1.69.87,2.64,1A11.75,11.75,0,0,0,200.19,183Zm-94.14,0a15.9,15.9,0,0,0,2.49,0c.95-.15,2.59.72,2.57-1.09,0-1.3,1.23-3.33-1.36-3.79-.89-.15-1-.77-.76-1.45.24-.86.27-2,1.51-2,2.13-.07,4.26-.08,6.39,0,1.25,0,1.11,1.31,1.43,2.11.2.5.21,1.16-.56,1.3-2.73.49-1.5,2.63-1.44,4,.09,1.68,1.75.83,2.71.92a39.71,39.71,0,0,0,5,0c.74,0,1.93.44,2-.76s.86-3.24-.52-3.8c-1.67-.69-1.81-1.92-2.22-3.17-1.54-4.66-3-9.33-4.55-14s-1.49-4.43-6.22-4.5c-1.84,0-2.56.68-3.08,2.34-1.74,5.57-3.64,11.08-5.5,16.61-.29.84-.24,2-1.28,2.3-2.63.68-1.47,2.73-1.36,4.09.14,1.59,1.78.69,2.75.88A10.56,10.56,0,0,0,106.05,183Zm306.8,0c1,0,2,.06,3,0,.82-.07,2.19.44,2.09-1-.09-1.29,1.14-3.16-1-3.77-1.12-.31-1.34-.8-1.06-1.76s.42-1.86,1.68-1.85c1.94,0,3.89,0,5.83,0,1.31,0,1.4,1,1.69,1.84.19.58.53,1.44-.4,1.6-2.75.48-1.61,2.6-1.51,3.95.13,1.86,1.88.9,2.91,1a39.7,39.7,0,0,0,5,0c.76,0,1.94.3,1.89-1s.9-3.07-.73-3.71c-1.34-.53-1.55-1.46-1.88-2.46-1.85-5.62-3.83-11.22-5.42-16.92-.71-2.55-2.36-2.15-4-2.11s-3.75-.65-4.56,2.19c-1.63,5.69-3.65,11.27-5.54,16.88-.26.76-.25,1.88-1.16,2.09-2.65.61-1.58,2.68-1.44,4,.18,1.79,1.93.73,3,1A6.65,6.65,0,0,0,412.85,183ZM330,223.59c1,0,2,.06,3.05,0,.82-.06,2.2.47,2.12-1-.08-1.29,1.13-3.15-1-3.78-1.09-.32-1.38-.77-1.09-1.75s.4-1.87,1.66-1.87c1.95,0,3.89,0,5.84,0,1.3,0,1.42,1,1.7,1.82.19.58.54,1.46-.37,1.61-2.75.48-1.69,2.61-1.53,3.94.23,1.89,2.05.91,3.17,1a35.38,35.38,0,0,0,4.72,0c.76,0,1.9.32,1.92-1s.74-3.17-.47-3.59c-2-.69-2-2.26-2.46-3.64-1.78-5.26-3.64-10.5-5.11-15.85-.7-2.53-2.33-2.18-4-2.14s-3.76-.67-4.57,2.18c-1.63,5.69-3.65,11.27-5.54,16.88-.28.82-.27,1.92-1.39,2.22-2.42.65-1.23,2.58-1.23,3.9,0,1.58,1.52.85,2.41,1A14.92,14.92,0,0,0,330,223.59Zm-72.43,0c1.12,0,2.23,0,3.34,0,.83-.05,2.13.38,2.09-1.06,0-1.25.94-3.08-.85-3.65-2.47-.79-1.27-2.58-1.27-3.89,0-1.54,1.51-.88,2.41-1s1.84-.12,2.75-.25c5.23-.77,7.87-4,7.54-9.16-.25-3.84-4-7-8.58-7.13-3.33-.09-6.67.13-10-.08-2.34-.15-2.92.81-2.69,2.87.11.94-.05,1.91,1.29,2s1.29,1.1,1.29,2.05c0,4.17,0,8.33,0,12.5,0,.72.13,1.66-.85,1.81-2.75.42-1.69,2.53-1.59,3.91.15,1.87,1.88.84,2.91,1A11.63,11.63,0,0,0,257.56,223.59ZM57.87,169.88c0,2,0,4.07,0,6.11,0,1.18,0,2-1.63,2.26-2.05.36-.9,2.26-1.06,3.46-.19,1.42,1,1.29,1.89,1.29,2.31,0,4.63,0,6.94,0,.75,0,1.93.37,2-.84s.87-3.27-.59-3.76c-2.55-.85-1.72-2.65-1.49-4,.28-1.68,2-.77,3-1,.81-.16,1.65-.16,2.47-.31,4.65-.82,7.42-4.21,7.17-8.74-.2-3.79-3.78-7.24-8-7.44-3.87-.17-7.76-.06-11.65-.07-.84,0-1.84,0-1.75,1.17s-.81,3.09.77,3.39c2.27.43,1.9,1.81,1.91,3.23C57.88,166.37,57.87,168.13,57.87,169.88Zm148.9-.19a13.89,13.89,0,0,0,4.46,10.65c5.68,5.1,14.92,3.8,18.47-2.63.36-.67,1.16-1.37.46-2.23-1-1.19-5-1.09-6.08.11-3,3.3-7.11,3.17-9.73-.31a9.68,9.68,0,0,1,.11-10.92c2.45-3.13,6.36-3.6,9.18-.8,1.8,1.8,3.87,1.35,5.66.93s.57-2.39.8-3.66c.29-1.62-.64-2.15-2.1-2a4.79,4.79,0,0,1-3.34-1.08,7.85,7.85,0,0,0-4.42-1.42C212.7,156,206.8,161.82,206.77,169.69Zm318.61,0a14.39,14.39,0,0,0,3.18,9.25c5.29,6.53,15.86,5.9,19.83-1.2.37-.65,1.18-1.35.45-2.22-1-1.21-5-1.13-6.08.08-2.34,2.54-5,3.08-7.69,1.52-3.81-2.23-4.93-8.32-2.27-12.31,2.45-3.69,5.89-3.93,10.11-.7,1.53,1.17,5.61.84,5.75-.51a9.81,9.81,0,0,0-.13-4.12c-.43-1.25-1.94-.53-3-.67a5.33,5.33,0,0,1-2.2-1.11,8.71,8.71,0,0,0-4.44-1.39C531.39,156,525.41,161.91,525.38,169.68Zm72-2.32a29.67,29.67,0,0,1-1.72-2.79c-.52-1.11-2.17-2.13.08-3.5.82-.49.52-2.51.07-3.68s-1.64-.53-2.51-.56c-2-.06-4.08.08-6.1-.05-1.76-.1-2.58.4-2.4,2.3.13,1.29-.23,2.65,1.82,2.64.93,0,1.27,1,1.74,1.66a68.36,68.36,0,0,0,4.33,6.1c2,2.22,1.72,4.75,1.67,7.32,0,.72-.23,1.27-1.07,1.31-2.94.15-1.65,2.4-1.68,3.75,0,1.82,1.61,1.06,2.55,1.11a47.75,47.75,0,0,0,6.1,0c1.07-.08,2.92.92,2.91-1.33,0-1.44,1-3.61-2-3.55a1,1,0,0,1-1-1.11c0-2.36-.56-4.79,1.3-6.87,1.35-1.51,2.38-3.3,3.67-4.87,1-1.2,1.47-3.08,3.08-3.43,2.58-.58,1.44-2.43,1.49-3.75.07-1.83-1.53-1.16-2.49-1.21-2-.09-4.07-.08-6.1,0-.84,0-2.13-.52-2.37.73s-.87,3.1.47,3.83c1.5.82,1,1.4.43,2.3Zm-234.29,30h-6.67c-6,0-6,0-5.54,6.1.09,1.26.49,2.1,1.77,1.75s3.62,1.36,4-1.38c.2-1.31.4-2.12,1.93-1.92s1.1,1.48,1.12,2.36c.05,4.07,0,8.14,0,12.21,0,1.15.05,2-1.58,2.31-2.09.35-.93,2.24-1.1,3.45-.19,1.39.95,1.31,1.88,1.31,2.13,0,4.27.11,6.38,0,1.09-.08,2.94.92,3-1.23.06-1.4,1.06-3.55-1.83-3.69-1,0-.85-1.07-.85-1.78,0-4.34,0-8.69,0-13,0-1.2.25-1.91,1.68-1.9,1.25,0,2,.32,1.82,1.7s.6,1.65,1.83,1.71c4,.19,4,.24,4-3.76a13.12,13.12,0,0,1,0-1.66c.24-1.89-.44-2.64-2.44-2.54C369.39,197.52,366.24,197.4,363.1,197.4Zm5.55-40.59h-6.38c-6,0-6,0-5.68,5.94.06,1.35.42,2.29,1.87,1.91s3.63,1.38,3.92-1.48c.12-1.18.27-1.93,1.71-1.84,1.64.1,1.32,1.27,1.32,2.21,0,4.16,0,8.33,0,12.49,0,1,0,1.92-1.45,2.18-2.11.37-1.09,2.2-1.21,3.41-.17,1.6,1.11,1.37,2.1,1.37,2.13,0,4.26.1,6.38,0,1-.07,2.75.81,2.77-1.18,0-1.37,1.17-3.57-1.76-3.71-1.06-.05-.91-1-.92-1.7,0-4.44,0-8.88,0-13.32,0-1.07.22-1.76,1.52-1.73,1.12,0,2,.08,2,1.58-.05.83,0,1.56,1.17,1.8,3.63.75,4.68,0,4.68-3.6a17.92,17.92,0,0,1,0-1.94c.19-1.76-.43-2.48-2.32-2.4C375.13,156.92,371.89,156.81,368.65,156.81Zm76.94,0h-6.38c-5.94,0-5.89,0-5.58,6,.08,1.48.64,2.14,2,1.82s3.48,1.27,3.63-1.48c.08-1.48.6-1.93,2-1.86,1.69.09,1.26,1.3,1.27,2.22,0,4.16,0,8.33,0,12.49,0,1,.18,2-1.39,2.16-2.42.29-1.1,2.3-1.29,3.54-.23,1.43,1,1.25,1.89,1.26,2.13,0,4.26.1,6.38,0,1-.07,2.75.82,2.78-1.18,0-1.39,1.11-3.55-1.78-3.73-1-.06-.9-1-.9-1.74,0-4.35,0-8.69,0-13,0-1.14.11-2,1.6-1.95,1.18,0,2.32,0,2.14,1.66-.14,1.36.55,1.68,1.8,1.74,3.82.2,3.82.25,3.82-3.6a9.2,9.2,0,0,1,0-1.39c.34-2.22-.4-3.15-2.82-3C451.71,157,448.64,156.81,445.59,156.81ZM89.8,183h3.6c7.63,0,7.55,0,7.21-7.75-.09-2.21-1.38-2-2.76-2s-3.31-.63-3,1.89-1,3.26-3.3,3a8.37,8.37,0,0,0-1.66,0c-1.44.11-2-.54-1.93-2,.06-4.16,0-8.32,0-12.48,0-1.08,0-1.94,1.49-2.13,2.27-.3,1-2.17,1.23-3.34.23-1.56-1-1.43-2-1.43H81.4c-.94,0-2.08-.08-1.84,1.32.2,1.19-1,3.08,1.1,3.41,1.63.25,1.61,1.15,1.61,2.31q0,6,0,11.93c0,1.24.06,2.17-1.72,2.48-2,.35-.82,2.28-1,3.5-.19,1.46,1,1.22,1.92,1.23C84.25,183,87,183,89.8,183Zm428,0a20.68,20.68,0,0,1,3.05,0c2.49.37,3-.86,2.78-3-.11-1-.11-1.88-1.43-1.86s-1.36-.94-1.36-1.9c0-4.25,0-8.51,0-12.76,0-.7-.16-1.71.86-1.76,2.89-.14,1.9-2.29,1.81-3.68-.14-2.06-2-1.11-3.06-1.2a34.21,34.21,0,0,0-5.26,0c-1,.08-2.74-.79-2.9,1.08-.13,1.41-1,3.51,1.74,3.8,1,.1.87,1.06.87,1.77q0,6.38,0,12.76c0,.7.17,1.72-.83,1.78-2.89.17-1.86,2.32-1.8,3.71.1,2.14,2,1,3,1.22A12.93,12.93,0,0,0,517.81,183ZM383,223.59a25.84,25.84,0,0,0,3.05,0c.94-.12,2.57.69,2.52-1.15,0-1.37,1.23-3.58-1.72-3.74-1.26-.08-.95-1.17-1-1.93,0-4.16,0-8.33,0-12.49,0-1.08,0-1.94,1.48-2.12,2.27-.28,1.08-2.16,1.25-3.33.23-1.6-1.06-1.4-2.05-1.4-2.13,0-4.26-.08-6.38,0-1,0-2.58-.68-2.61,1.07,0,1.37-1.22,3.53,1.67,3.8,1.16.11.95,1.21.95,2q0,6.24,0,12.49c0,.81.16,1.8-1.06,1.9-2.73.23-1.51,2.3-1.6,3.6-.13,1.86,1.46,1.2,2.43,1.28S381.94,223.59,383,223.59ZM240.14,183H244c.86,0,1.82,0,1.66-1.22s.82-3.18-.73-3.4c-2.53-.37-2-1.92-2-3.38,0-3.7,0-7.4,0-11.1,0-1.12-.16-2.15,1.52-2.37,2.24-.29,1-2.19,1.21-3.37.23-1.38-.88-1.35-1.83-1.35-2.13,0-4.27-.09-6.38,0-1,.07-2.75-.81-2.84,1.12-.07,1.38-1.14,3.53,1.73,3.76,1,.07.9,1,.9,1.76q0,6.39,0,12.77c0,.71.14,1.7-.85,1.79-3,.26-1.89,2.57-1.75,4,.18,1.78,1.93.76,3,.95A13.78,13.78,0,0,0,240.14,183Zm11.91-28.8c12.83,3.18,8.83-4.67,9.14-4.92C255.8,148.2,255,148.64,252.05,154.2Zm209.58-.07c12.45,3.56,9.24-4.87,9.2-4.83C465.57,148.15,464.9,148.51,461.63,154.13Z"/><path class="cls-4" d="M413.17,773.6c-3.28-1-6.65-.55-9.95-.44-11.65.37-23.24-.75-34.86-1-8.89-.17-13.72-5.6-14.52-15.2a9.57,9.57,0,0,1,2.34.09c13.73,4,27.92,3.14,41.93,3.78,9.93.44,19.89.17,29.85-.34,16.52-.85,33.07-1.18,49.61-1.41,15.54-.22,31.07-.61,46.6-1.35,14.85-.69,29.72-1,44.58-1.38,11.74-.32,23.48-.56,35.22-.83,1.07,4.32-.08,7.17-4.17,9.42a31.42,31.42,0,0,1-13.49,3.43c-11.35.68-22.71,1.14-34,2.32-4.61-.81-9.15.41-13.72.52-4.82-.51-9.55.75-14.37.57-13.89-.52-27.75.64-41.64.66a15.3,15.3,0,0,0-2.32.28c-2.18.33-3.25,1.47-3.37,3.82-.37,7.82-.92,15.63-1.4,23.45H460.68c-.33-7.93.61-15.83.76-23.75,0-2.14-.35-3.29-2.89-3.25-10,.15-20.09.14-30.14.19A92.36,92.36,0,0,1,413.17,773.6Z"/><path class="cls-1" d="M475.47,800c.48-7.82,1-15.63,1.4-23.45.12-2.35,1.19-3.49,3.37-3.82a15.3,15.3,0,0,1,2.32-.28c13.89,0,27.75-1.18,41.64-.66,4.82.18,9.55-1.08,14.37-.57.16,2,.28,4,.48,6,.76,7.6,1.55,15.21,2.32,22.81Z"/><path class="cls-1" d="M428.41,773.19c10-.05,20.1,0,30.14-.19,2.54,0,2.93,1.11,2.89,3.25-.15,7.92-1.09,15.82-.76,23.75H423Q425.72,786.59,428.41,773.19Z"/><path class="cls-5" d="M541.37,800c-.77-7.6-1.56-15.21-2.32-22.81-.2-2-.32-4-.48-6,4.57-.11,9.11-1.33,13.72-.52,1.24,8.44,2.5,16.87,3.7,25.3a38.11,38.11,0,0,1,.18,4Z"/><path class="cls-5" d="M428.41,773.19Q425.73,786.6,423,800H408.23q2.11-11.24,4.24-22.48c.24-1.3.46-2.61.7-3.92A92.36,92.36,0,0,0,428.41,773.19Z"/><path class="cls-6" d="M348.55,416.2c5.69-.06,11.34-.83,17-1a246.79,246.79,0,0,0,25.59-2.37,119.69,119.69,0,0,1,12.67-.79c6.6-.13,13.14-1.2,19.75-.85a26.55,26.55,0,0,0,5-.69l2.44,0c7,.51,14-1,21-.59,8.47.53,16.92-.53,25.37-.79,2.71-.09,5.57-.07,8.19-1.2l28-1.59c6.21-.36,12.41-.76,18.61-1.09,9.89-.53,19.82-.21,29.68-.86,8.37-.56,16.71-.2,25-.37,2.11-.05,3.71.63,4.45,3.45,1,3.95,0,7.73.27,11.6.91,11.09,1,22.24,1.55,33.36.84,15.95.26,31.92.8,47.86.21,6.14.47,12.28.5,18.42.06,15.64-.5,31.3.18,46.91.57,13-.23,26,.64,38.92.84,12.43-.17,24.86.65,37.24.76,11.46.38,22.92.89,34.37a293.6,293.6,0,0,1-.14,34.08c-.76,10.6-.18,21.28-.19,31.93-1.28.86-2.42,2-4.13,2-.38-2.58-2-3.77-4.46-4.28a42.81,42.81,0,0,0-11.63-.74c-10,.66-19.79,2.73-29.66,4.26a10.17,10.17,0,0,0-9.64-2.35,19.13,19.13,0,0,0-6.38,2.81,3.22,3.22,0,0,1-4,0c-.72-.49-1.34-2-2.43-1-.77.72-.29,1.9,0,2.86s.64,1.66,1,2.49c-11.62.37-23.23-.16-34.86.53-14.93.88-29.9,1-44.85,1.49-7.25.23-14.54.13-21.75.83-4.92.48-9.82.24-14.71.61-12.56,1-25.1,2.48-37.74,1.93a20.16,20.16,0,0,0,.63-6.29c-.56-14.32-2.42-28.54-3.67-42.8-1.46-16.71-3.33-33.39-4.35-50.14-.92-15.08-2-30.15-2.92-45.22q-1.95-30.82-3.82-61.65c-.81-13.74-1.39-27.49-2.26-41.23-1.19-19-2.54-38-3.87-56.93C350.22,438.29,349.36,427.25,348.55,416.2Zm125.25,55c-1.19.23-3-.86-3.44.92-.41,1.61,1.52,1.9,2.48,2.72-.53,2.15-1,4.3-1.58,6.45-1.23.16-3-.81-3.53.8s1.52,1.8,2.52,2.52q-.79,3.38-1.57,6.77l-1.32-.06c-.91,0-1.93-.08-2.25,1s.73,1.44,1.45,1.91c.36.24.69.55,1,.83-.52,2.14-1,4.27-1.57,6.41-1.23-.1-2.83-1-3.44.68-.73,2.06,1.55,1.88,2.5,2.7-.46,2.22-.91,4.45-1.37,6.68-1.17.27-2.89-1.31-3.48.58s1.21,2.29,2.56,2.78c-.49,2.27-1,4.53-1.48,6.8-.33,0-.66,0-1-.08-1-.18-2.28-.9-2.8.6s.8,1.82,1.73,2.36a9,9,0,0,1,1.05.79c-.53,2.13-1.07,4.25-1.6,6.38a4.36,4.36,0,0,1-1-.14c-1.08-.4-2.27-.74-2.82.59s.64,1.89,1.65,2.35c.49.23,1,.37,1.53.55-.39,7.45.59,8.92,7.35,10.35,19.59,4.14,38.95,9.21,58.3,14.32,7.2,1.9,14.26,4.33,21.68,5.45,4.93.74,7.44-.42,8.68-5.34,1.15-4.55,1.91-9.2,3.22-13.71,7.34-25.35,11.9-51.43,20.26-76.52,2.94-8.81.51-11.76-8.81-15.38a17.82,17.82,0,0,0-1.93-.56c-17.51-4.47-35-9-52.56-13.37-8.1-2-16-4.91-24.45-5.53-5.94-.43-6.95.37-8.53,6.23-1.23.05-2.92-.66-3.38,1s1.5,1.83,2.37,2.67c-.51,2.16-1,4.31-1.54,6.46-1.18,0-2.71-.67-3.35.71-.78,1.69,1.26,1.74,2,2.6a3.62,3.62,0,0,0,.51.43c-.51,2.08-1,4.16-1.53,6.24-1.17.31-3-.81-3.39,1.08s1.65,1.75,2.52,2.62Z"/><path class="cls-2" d="M168.15,591.08c17.07,0,34,1.93,50.89,4.08,11.3,1.44,22.39,4,33.65,5.57,7.24,1,14.48,2,21.75,2.7a119.26,119.26,0,0,1,33,8c6.35,2.51,12.74,4.87,18.12,9.27,10,8.18,14.27,18.61,12.73,31.49-1.75,14.78-9.78,24.92-22.86,31.33A118.16,118.16,0,0,1,275.17,695c-11,1.14-21.89,2.83-32.87,4-7.76.82-15.57,1.14-23.35,1.69-20,1.44-40,.92-60.06,1.31q-17.23.35-34.42-.54c-13.13-.68-26-3.27-38.85-5.95C76.83,693.66,68,692,59.79,688.16s-16.32-8.24-23-14.64c-14.4-13.7-14.28-34-2-48.78,7.39-8.88,17.12-14,27.44-18.45,11.93-5.19,24.43-8,37.25-9.61,14.58-1.86,29.15-3.73,43.74-5.42C151.5,590.3,159.84,590.94,168.15,591.08Zm69.66,25.67c-1.16,0-2.33-.13-3.49-.06a1.61,1.61,0,0,0-1.32,2.62c1.64,2.41,1.58,7.78-.15,10.17a2.11,2.11,0,0,0-.33,1.88c.24.88,1,.66,1.67.71s1.16,0,1.74,0c3.35.06,3.47-.16,2.12-3.21-.4-.89-.72-2.09.44-2.59a1.83,1.83,0,0,1,2.59,1.25,20,20,0,0,1,.61,2.91c.15.92.22,1.92,1.53,1.78,1-.1,2.32.63,2.94-.56.45-.85,0-1.7-.55-2.66-1-1.67-2.58-3.42-.32-5.71,1.69-1.71.33-4.88-2.08-5.92C241.48,616.65,239.63,616.79,237.81,616.75ZM91.35,639.94l.52-.1c1.21,3.16,2.38,6.34,3.65,9.48.4,1,.25,2.57,1.79,2.66,1.77.11,1.6-1.67,2.07-2.67,1.42-3,2.66-6.16,4-9.24a29.62,29.62,0,0,1,.26,6.81c-.1,1.35.66,3-1.38,3.82-.43.16-.49,1.28.54,1.41a14,14,0,0,0,2.24.09c.63,0,1.42.32,1.81-.42s-.13-1.17-.8-1.52-.43-1.18-.43-1.81c0-2,0-4,.14-6,.1-1.37-.51-2.9,1.25-4,.73-.44.35-1.55-.85-1.64-2-.15-3.8-.39-4.58,2.41-.94,3.36-2.54,6.54-4.11,10.45-1.54-4.45-2.79-8.14-4.1-11.81-.42-1.18-3.52-2.14-4.71-1.33-1.59,1.07-.14,1.66.53,2.41.23.25.19.79.18,1.19,0,2.75-.1,5.49-.18,8.24,0,.56.09,1.22-.6,1.5s-1,.61-.8,1.31.91.57,1.45.61c.75.06,1.5.06,2.25,0,.48,0,1.05.12,1.21-.55s0-1.05-.58-1.2c-1.17-.3-.93-1.2-.92-2C91.22,645.41,91.29,642.68,91.35,639.94Zm158.76-7.51c3.52.08,3.59,0,2-3.08-.32-.62-.3-1.26.28-1.52a5.66,5.66,0,0,1,4.11,0,1.15,1.15,0,0,1,.37,1.7c-1.65,2.74-1.49,2.83,1.6,3.15,1.94.2,3.94-1.41,5.87.35.49.46,1.36-.36,1.71-1.07a1.64,1.64,0,0,0-.45-2,1.3,1.3,0,0,0-1.8-.28c-2.47,2-3.07-.09-3.65-1.77-.94-2.75-1.76-5.54-2.56-8.34-.4-1.43-.8-2.47-2.72-2.51s-2.38.92-2.87,2.36c-1.07,3.14-2.13,6.3-3.44,9.34-.43,1-1.77,1.67-1.17,3S249.31,632.16,250.11,632.43Zm-44.88-1c.58,0,1.16,0,1.75,0,4,0,7-2.56,7.67-6.74a7.54,7.54,0,0,0-5.1-8.16,17.62,17.62,0,0,0-6.92-.54c-1.7.09-1.7,1.51-1,2.57,2.05,3.1,1.23,6.55.4,9.45-1,3.45-1.61,3.27,1.95,3.35Zm18.16-15.1c-4.19-.07-7.31,3.15-7.42,7.66-.1,4.27,3.15,8.07,7,8.23s7.81-3.73,7.83-7.83A7.74,7.74,0,0,0,223.39,616.34ZM122.63,629.61c.79-.22,2,.61,2.59-.58s-.22-2-1.06-2.75a3.6,3.6,0,0,1-.64-1.6c-.81-2.7-1.63-5.4-2.39-8.12-.4-1.45-.83-2.5-2.75-2.54s-2.47.8-3,2.3c-.87,2.68-1.85,5.33-2.82,8-.26.69-.47,1.63-1,1.93a1.84,1.84,0,0,0-.95,2.3c.3,1.29,1.47.73,2.3.86a9.18,9.18,0,0,0,1.74,0c.62,0,1.46.26,1.68-.62s.43-1.59-.47-2.24c-1.43-1-.49-1.76.54-2a9.21,9.21,0,0,1,3.22.1c.79.12,1,.81.76,1.55C119.36,629.55,119.35,629.55,122.63,629.61Zm65.67,1.46c3.53.07,3.62-.05,2.36-3.13-.46-1.15-.1-1.76,1.16-1.77.66,0,1.32,0,2,0,1.64,0,2.19.7,1.09,2.12a2.2,2.2,0,0,0-.25,2.53c.26.53,4.92.68,5.27.17.88-1.29.36-2.22-.79-3.11-.44-.34-.49-1.2-.68-1.83-.86-2.78-1.77-5.53-2.52-8.33a2.34,2.34,0,0,0-2.59-2,2.39,2.39,0,0,0-2.74,1.85c-1.13,3.37-2.31,6.75-3.74,10-.43,1-1.87,1.58-1.18,2.89C186.25,631.55,187.5,630.84,188.3,631.07Zm51,20.21-.55.14c-1.87-3.51-3.78-7-5.57-10.53-1-2-2.88-1.63-4.1-1.14-1.89.76-.07,1.5.48,2.19a.64.64,0,0,1,.1.47c-.67,3.7,1.27,7.73-1.41,11.19a1.17,1.17,0,0,0,0,.94c.15.44,4.12.76,4.52.31,1.05-1.14-.08-1.46-.79-2a1.29,1.29,0,0,1-.25-.92c0-2.7.1-5.39.17-8.3a4.28,4.28,0,0,1,1.8,2.33c1.48,2.7,2.94,5.4,4.32,8.15a2,2,0,0,0,2.52,1c1.08-.19.71-1.18.74-1.84.11-3.16.13-6.32.24-9.48,0-.83-.22-1.66.93-2.29.88-.47.63-1.49-.59-1.65a22.93,22.93,0,0,0-2.49-.08c-.56,0-1.24-.16-1.47.59s.19,1.19,1,1.33.61.87.61,1.4C239.48,645.84,239.41,648.56,239.35,651.28ZM178.2,615.42l-4-.09c-3-.06-3.22.2-3,3.24.05.66,0,1.47.87,1.53s1.87.55,2.45-.53c.28-.54.2-1.51,1.2-1.08.77.32.47,1.14.5,1.77a9.18,9.18,0,0,1,0,1.74c-.32,2.26.68,4.71-1.47,6.72-.75.71-.33,2.1,1.32,2.08,1.16,0,2.32.07,3.48.06.63,0,1.45.23,1.67-.65s.45-1.71-.52-2.2-.82-1.16-.8-1.9c0-2,.07-4,.14-6,0-.62-.16-1.44.75-1.61s.76.61,1.05,1.09c.69,1.13,2.77,1.14,3.25.09,1.08-2.32-.06-4.12-2.65-4.18Zm-52,6.6a7.91,7.91,0,0,0,4.9,7.69,6.92,6.92,0,0,0,7.72-1.85c.54-.63,1.61-1.42.71-2.26a2.26,2.26,0,0,0-3-.29c-.34.24-.6.58-.95.81a3.19,3.19,0,0,1-4.65-.58,5.12,5.12,0,0,1-.08-6.63c1.45-1.68,3.07-1.71,5.64,0a2.58,2.58,0,0,0,2.81.27c.87-.54.64-1.71.39-2.54-.35-1.16-1.7-.7-2.54-1.21C131.19,611.87,126.07,617.33,126.16,622Zm-21.41-8.22c-1.32,0-2.65-.09-4-.08-1.7,0-2.88,1.7-1.76,2.65,1.89,1.61,1.21,3.46,1.14,5.21s.75,3.73-1.35,5.17c-.66.46-.75,2.32,1.2,2.36,1.08,0,2.16.08,3.24.06.62,0,1.46.27,1.69-.62a2,2,0,0,0-.47-2.24c-1.51-1.52-1.14-2.79.85-3.06,1.09-.15,1.37-.61,1.41-1.59s-.55-1.45-1.53-1.44-1.5-.2-1.44-1.24c0-.71-.16-1.69.9-1.74s2.29-.62,2.61,1c.27,1.36,1.35,1,2.18,1a1.09,1.09,0,0,0,1.24-.94c.93-3.09,0-4.42-3.18-4.49Zm124.24,53c1,.59,1.19,1.45,1.56,2.14,1.55,2.84,3.1,5.68,4.55,8.58a2,2,0,0,0,2.49,1.07c1.09-.19.72-1.16.74-1.83.11-3.15.14-6.31.25-9.46,0-.83-.19-1.62.92-2.3s.58-1.57-.71-1.68c-.83-.07-1.66-.06-2.5-.06-.5,0-1,0-1.19.64s0,1,.59,1.17.89.4.88,1c-.07,2.89-.13,5.79-.2,8.68a72.79,72.79,0,0,1-5.83-10.12c-1-2.08-2.67-1.6-4.25-1.53-.8,0-.93,1.09-.59,1.29,2.34,1.4,1.26,3.61,1.1,5.33-.22,2.45,1.28,5.29-1.35,7.37a.75.75,0,0,0,.57,1.26,11.89,11.89,0,0,0,2.23.08c.67,0,1.58.45,1.94-.55s-.4-1.12-1-1.44c-.44-.23-.39-.7-.38-1.1C228.86,672.51,228.93,669.73,229,666.76Zm-93.68,4.07a3.67,3.67,0,0,1-2.26,3.24,5.38,5.38,0,0,1-6.45-1.75,6.82,6.82,0,0,1,1-8.46c2-1.75,4.56-1.63,6.73.3a4.71,4.71,0,0,0,.92.82c.6.28,1.36.49,1.8-.19s.22-1.23-.59-1.57a4.57,4.57,0,0,1-1-.77c-3-2.46-6.82-2.41-9.53.12a8.62,8.62,0,0,0-1,11c2,2.85,5.69,3.62,9.1,1.84.76-.4,1.45-1.1,1.75.38.13.65.66.67,1.17.63s.8-.53.81-1c0-1.75.09-3.49.11-5.24a.89.89,0,0,0-.85-1c-1.58-.07-3.16-.1-4.74-.11a.89.89,0,0,0-.94.94c0,.66.39.85.94.87Zm21.07-40.47,2.5.06c3.85.08,3.88,0,3.68-3.8-.05-.92-.12-1.69-1.29-1.68-.88,0-2-.31-2.09,1.08-.17,1.84-1.49,1.45-2.6,1.37-1.41-.1-1.07-1.23-1.08-2.08a36,36,0,0,1,.08-3.75c.14-1.45-.47-3,1.33-4.17a1.39,1.39,0,0,0-1-2.44c-1.24-.09-2.49-.08-3.74-.09a1.35,1.35,0,0,0-1.26,2.19c2.19,1.84,1.08,4.11,1.15,6.17.06,1.6.54,3.35-1.32,4.68-.7.5-.74,2.31,1.19,2.36Zm18.17,46.88c.8-.14,1.84.43,2.35-.34.65-1-.72-1.28-1-1.93a4.89,4.89,0,0,1,.13-4.31c.57-.9,2-.52,3,.07a3.4,3.4,0,0,1,1.29,2.34c.3,1.12.4,2.3.75,3.4.48,1.49,1.79,1,2.75.81.72-.1.71-1.22.34-1.39-2.06-1-1.32-3.25-2.3-4.67-.66-1-.74-1.46.25-2.41,2.42-2.33,1.43-5.61-1.81-6.56-1.95-.58-4-.3-5.95-.4-.63,0-1.42-.31-1.82.41-.54,1,.22,1.22.9,1.64.52.32.29,1.07.28,1.64,0,2.24-.08,4.49-.15,6.73a7,7,0,0,1-.31,2.69c-.3.61-1.69.81-1,1.84C172.69,677.56,173.75,677.1,174.55,677.24Zm-12.12-5.4c4.13.09,4.22.2,3.25,3.89-.11.42-.19.95.25,1.1a11.74,11.74,0,0,0,4.18.21.59.59,0,0,0,.49-.74c-.06-.3-.21-.78-.4-.82-1.72-.38-1.63-2-2-3.12-1.08-3.05-2-6.14-3-9.22-.3-1-.73-1.56-1.89-1.58a1.92,1.92,0,0,0-2.18,1.53,24.12,24.12,0,0,1-1.52,3.94c-1.44,2.79-1.29,6.36-4.19,8.47a.75.75,0,0,0,.56,1.27,12.91,12.91,0,0,0,2.24.08c.69-.05,1.58.4,2-.49s-.25-1.14-.88-1.48c-.43-.24-.18-.71-.11-1.12C159.58,671.56,161.17,671.68,162.43,671.84ZM152,667.39a16.61,16.61,0,0,1-.53,5.18,3,3,0,0,1-2.72,2.21c-1.37.12-2.67,0-3.61-1.18-1.43-1.82-1.14-8.82.45-10.65.44-.51.63-1.25,0-1.48a6.52,6.52,0,0,0-4.36-.09.76.76,0,0,0-.14,1.26c1.79.88,1,2.43,1,3.71.12,1.9-.25,3.81.2,5.71.7,2.9,2.61,4.65,5.32,4.79s5-1.53,5.86-4.44c.65-2.12.33-4.3.51-6.45.09-1.06-.45-2.35,1.11-3a.78.78,0,0,0,0-1.28,7.06,7.06,0,0,0-4.36-.21c-.44.07-.47.62-.37,1.06,0,.08,0,.21.08.22C153.29,663.74,151.6,666,152,667.39Zm-36.43-20.06c4.21.09,4.26.16,3.29,4-.11.41-.12,1,.32,1.06a39,39,0,0,0,4.19.07c.16,0,.42-.51.41-.77s-.23-.74-.43-.77c-1.51-.29-1.51-1.6-1.86-2.65-1-3-2-6-2.94-9-.35-1.06-.47-2.2-2.12-2.28s-1.91,1.13-2.45,2.23c-1.86,3.86-2.09,8.48-5.37,11.7-.17.16-.16.82,0,.91a4.9,4.9,0,0,0,4.25.33c1.32-.46.5-1.32-.43-1.84-.45-.25-.07-.72,0-1.11C112.78,647,114.43,647.22,115.61,647.33ZM215.44,673c4.25.09,4.38.27,3.29,4-.25.82.06,1.26,1,1.26s1.83,0,2.74,0c.48,0,1,.06,1.2-.59s0-1-.6-1.16c-1.3-.24-1.3-1.37-1.6-2.26-1-3-1.93-6-2.93-9-.4-1.19-.46-2.59-2.41-2.58s-1.79,1.38-2.31,2.41c-1.9,3.76-2,8.34-5.3,11.47a1.36,1.36,0,0,0,0,1.11,5.7,5.7,0,0,0,4.34.12c1.17-.62,0-1.4-.69-1.93-.12-.1,0-.59.08-.9C212.55,672.77,214.14,672.84,215.44,673ZM177,648.68c2.83.06,4.66,1.37,3.76,2.8-2.2,3.51.83,2.2,2.05,2.41.64.11,1.59.45,2-.45s-.44-1.19-1.12-1.52-.75-1.26-1-1.94c-1.06-3.14-2.06-6.31-3.07-9.47-.36-1.12-.61-2.13-2.24-2.14s-1.83,1.07-2.24,2.15c-1.16,3.11-2.35,6.21-3.53,9.31-.26.69-.32,1.54-1.09,1.86s-1.21.62-.93,1.44,1,.48,1.51.53c.74.06,1.49,0,2.24.05,1.08,0,1.32-.55,1-1.43C173.05,649.15,173.45,648.61,177,648.68Zm13.52,28.89c.58,0,1.16,0,1.74,0a7.67,7.67,0,0,0,1.1-15.27,29.67,29.67,0,0,0-4.22-.16c-.62,0-1.41-.31-1.8.42-.5.93.17,1.27.91,1.63.23.12.31.73.3,1.12,0,3-.11,6-.19,8.95,0,.49,0,1.05-.55,1.26-.74.28-1.15.75-.82,1.51s1,.4,1.54.45S189.83,677.56,190.49,677.57ZM158.85,653.4a21.11,21.11,0,0,1,3,.09c2.15.35,2.88-.57,2.6-2.59-.09-.68.28-1.59-.84-1.77s-1.27.47-1.4,1.31c-.25,1.7-1.61,1.12-2.56,1.09s-2.09.48-2.61-.76c-1-2.28.31-4.21,2.78-4.31.66,0,1.67.38,1.71-.83s-1-.82-1.64-1c-.87-.16-2.05.38-2.53-.55a4,4,0,0,1,0-3.61c.76-1.36,2.39-.4,3.63-.56,1-.14,1.45.41,1.49,1.45.06,1.44,1.24,1.49,1.85.79.76-.87.47-2.24.27-3.36s-1.19-.7-1.87-.72q-3.49-.14-7-.16c-.69,0-1.6-.36-1.94.63-.28.84.4,1.06,1,1.41s.33,1.06.32,1.62c0,2.24,0,4.49-.16,6.73-.07,1.22.39,2.53-1.2,3.46-.86.51-.3,1.46.87,1.49Zm64.59-7.9a33.17,33.17,0,0,1-.12,4.15c-.33,2.18-1.58,3.4-3.93,3.28s-3.42-1.49-3.5-3.7c-.06-1.74,0-3.5.06-5.24.06-1.14-.42-2.42,1.24-3.12.71-.3.49-1.4-.57-1.53a17.58,17.58,0,0,0-3-.07c-1.06,0-1.43,1-.79,1.49,1.45,1,.84,2.39.88,3.62.07,2-.23,4,.24,6a5.65,5.65,0,0,0,5.22,4.61A5.74,5.74,0,0,0,225,651a19.16,19.16,0,0,0,.57-3.68c.41-2.18-1.1-4.77,1.39-6.56.34-.25.11-1.1-.48-1.17a18.51,18.51,0,0,0-3.72-.08c-.73.08-.86,1.16-.47,1.35C224.81,642.09,223,644.28,223.44,645.5Zm47.62,10.76c3.21.11,5.44-1.45,5.86-3.77s-.65-3.83-3.52-4.94c-.69-.27-1.42-.46-2.11-.74-1.07-.43-2.25-.78-2.31-2.26a1.92,1.92,0,0,1,1.54-2,3.38,3.38,0,0,1,3.68.81,5.56,5.56,0,0,1,.44.88,1.49,1.49,0,0,0,2.34.41c.76-.61.21-1.28-.46-1.8-.51-.41-.87-1-1.39-1.41A5.65,5.65,0,0,0,269,641a3.82,3.82,0,0,0-2.11,4.15c.19,2.35,1.89,3.1,3.79,3.72a20.84,20.84,0,0,1,3,1.2,1.91,1.91,0,0,1,1.08,2.07A2,2,0,0,1,273,654c-1.78.26-3.54.36-4.21-1.91-.39-1.3-1.46-.91-2.27-.72-.55.12-.57.84-.25,1.26C267.59,654.42,268.83,656.4,271.06,656.26Zm-20.45-16.21c-1.74,0-3.49,0-5.23-.13-1.09,0-1.85.23-1.7,1.48.11.91-.66,2.16.66,2.63s1.45-.52,1.64-1.51,1.18-.65,1.86-.69,1.35.1,1.24.86c-.53,3.72,1.19,7.69-1.27,11.22-.55.78-.27,1.43.82,1.47a16.84,16.84,0,0,0,1.74,0c.71,0,1.62.39,2.08-.38s-.31-1.23-.93-1.68-.38-1.22-.37-1.86c0-2.49.07-5,.17-7.48,0-.83-.3-2.07,1.12-2,1.06,0,2.6-.74,2.78,1.41.11,1.33,1.33,1.36,1.93.54a3.77,3.77,0,0,0,.16-3.13c-.22-.84-1.08-.61-1.71-.63C253.94,640.1,252.28,640.08,250.61,640.05ZM145.5,630.12c.58,0,1.17,0,1.75,0s1.25.15,1.49-.56a2.14,2.14,0,0,0-.19-2.12c-1.67-2.28-1.48-7.62.29-10.05a1.92,1.92,0,0,0,0-2.31c-.38-.56-5.53-.64-6-.12a1.75,1.75,0,0,0-.2,2.28c1.61,2.52,1.6,7.92-.1,10.16a2.17,2.17,0,0,0-.39,1.87c.2.89,1,.74,1.61.78S144.92,630.11,145.5,630.12Zm-.24,7.6c-1.74,0-3.49-.06-5.23-.12-1,0-1.9.07-1.75,1.39.1.91-.64,2.17.57,2.66s1.31-.64,1.55-1.53,1.23-.59,1.91-.62,1.45,0,1.34.7c-.57,3.76,1.4,7.83-1.33,11.35a1.38,1.38,0,0,0,0,1.15c.17.43,4.25.65,4.55.23.87-1.23-.29-1.45-1-2-.25-.18-.28-.75-.27-1.14,0-2.9.13-5.8.17-8.71,0-1,.24-1.73,1.38-1.5.91.18,2.35-.74,2.58,1,.1.85.24,1.49,1.27,1.37s.89-1,1-1.7c.26-1.74-.25-2.68-2.23-2.52C148.25,637.9,146.75,637.75,145.26,637.72Zm22.24-22.53-1.74,0c-1.91-.06-2,1.82-1.36,2.29,2.12,1.59,1.16,3.61,1.14,5.41s.72,3.86-1.36,5.4c-.69.5-.67,2.31,1.26,2.31,1.07,0,2.15.07,3.22.06.63,0,1.43.24,1.67-.64.19-.71.43-1.68-.33-2.05-1.24-.59-1.12-1.6-1-2.52.49-2.67-1.08-5.67,1.54-8.06.65-.59.34-2.15-1.34-2.12C168.66,615.23,168.08,615.2,167.5,615.19Zm-36.67,29c-.5-2.31-3.28-3.47-1.19-5.82.24-.27-.1-.89-.55-.92a17.07,17.07,0,0,0-3.71-.05.85.85,0,0,0-.35,1.53c2,1,2.42,3.1,3.44,4.74,1.52,2.45,2.26,5-.09,7.57-.49.53-.35,1.32.59,1.45a14,14,0,0,0,2.24.08c.63,0,1.46.33,1.84-.34.51-.88-.27-1.28-.9-1.72s-.36-1-.41-1.61c-.35-4.26,2.22-7.06,5-9.64.59-.54,1.1-1.09.57-1.49a4.65,4.65,0,0,0-4.26-.34c-1.22.4-.67,1.32.36,1.88.46.25,0,.74-.22,1C132.57,641.61,131.87,642.63,130.83,644.2Zm74.28,10.21,3,.07c2.93.06,3.06-.08,2.85-3,0-.65.1-1.39-.92-1.41-.78,0-1,.46-1,1.11,0,1.44-.93,1.54-2,1.49a14.69,14.69,0,0,0-2,0c-1.58.14-2.24-.43-2.11-2.12.18-2.39.1-4.81.21-7.22,0-.95-.4-2,1.13-2.62.89-.36.58-1.45-.62-1.6a15.2,15.2,0,0,0-2.24-.06c-.55,0-1.23-.22-1.54.47s.1,1.15.83,1.46.42,1.17.42,1.77c0,2.57-.09,5.15-.16,7.72,0,.87.23,1.88-1,2.22-.46.12-.5.61-.43,1,.13.68.69.61,1.17.63C202.12,654.35,203.62,654.37,205.11,654.41Zm-12.94-.29c1.5,0,3,0,4.49.1.8,0,1.33-.24,1.24-1.11-.11-1.09.62-2.34-.43-3.25-.34-.3-1.21-.21-1.25.32-.32,3.63-3,1.75-4.73,2.09-1.16.22-1.61-.43-1.56-1.6.11-2.58.1-5.15.2-7.73,0-1-.37-2.07,1.17-2.59.68-.23.65-1.36-.46-1.54a17.71,17.71,0,0,0-2.73-.12c-.48,0-1.05-.08-1.27.52a.91.91,0,0,0,.66,1.33c1.05.33.6,1.24.6,1.91,0,2.49-.06,5-.15,7.47,0,.92.21,1.85-1,2.5-.92.48-.73,1.48.53,1.57C189,654.11,190.6,654.08,192.17,654.12Zm69,1.55c1.85,0,4.11.34,1.51-2.39-.31-.32-.19-1.11-.18-1.68,0-2.33.07-4.66.16-7,0-.94-.17-1.87.95-2.6.87-.56.61-1.5-.58-1.66a20.85,20.85,0,0,0-2.74-.08c-.42,0-.85.05-1,.53s-.16,1.05.43,1.23c1.17.37.82,1.3.81,2.06q0,3.87-.17,7.72a2.87,2.87,0,0,1-.32,1.65c-.45.52-1.52.68-1,1.64S260.51,655.48,261.21,655.67ZM204.32,677.9c.78-.14,1.82.42,2.32-.37.65-1-.6-1.25-1-1.84-.29-.38-.17-1.11-.16-1.68,0-2,0-4,.15-6,.12-1.4-.74-3.14,1.33-4,.46-.21.31-1.29-.62-1.42a13.88,13.88,0,0,0-2.23-.1c-.62,0-1.41-.29-1.76.51s.1,1.19.85,1.44.42.83.42,1.29q-.07,4.35-.19,8.7c0,.41,0,.95-.21,1.19-.52.54-1.75.7-1.14,1.78C202.49,678.24,203.54,677.72,204.32,677.9Zm62.08-54.27a1.9,1.9,0,0,0-1.88-1.79,1.48,1.48,0,0,0-1.58,1.56,1.53,1.53,0,0,0,1.51,1.86A1.65,1.65,0,0,0,266.4,623.63Zm-52.46,37.86c2.54-.14,3.41-1.61,4.62-2.89C215.86,657.61,215.35,659.68,213.94,661.49Z"/><path class="cls-4" d="M348.55,416.2c.81,11.05,1.67,22.09,2.44,33.14,1.33,19,2.68,38,3.87,56.93.87,13.74,1.45,27.49,2.26,41.23q1.83,30.82,3.82,61.65c.95,15.07,2,30.14,2.92,45.22,1,16.75,2.89,33.43,4.35,50.14,1.25,14.26,3.11,28.48,3.67,42.8a20.16,20.16,0,0,1-.63,6.29c-1.66.95-3.46.67-5.24.59-1.46-12.88-3-25.75-4.37-38.64-1.32-12-2.63-24-3.77-36q-2.08-22-3.88-44.1c-.78-9.37-1.5-18.74-2-28.11-1.25-21.9-2.47-43.79-3.53-65.69-1.05-21.69-1.8-43.39-2.84-65.07-.9-18.56-1.58-37.12-1.89-55.7C343.62,416.64,344.51,415.88,348.55,416.2Z"/><path class="cls-5" d="M366,754.19c1.78.08,3.58.36,5.24-.59,12.64.55,25.18-1,37.74-1.93,4.89-.37,9.79-.13,14.71-.61,7.21-.7,14.5-.6,21.75-.83,14.95-.47,29.92-.61,44.85-1.49,11.63-.69,23.24-.16,34.86-.53,3,4.46,7.32,6.06,12.49,5.25,3.31-.51,5.64-3.05,8.44-4.64l.68-.58.06,0c2.22.18,4.44.1,6.67.39,9.41,1.22,18.86,2.23,28.35.87,4.06-.58,8.33-1,10.53-5.36,1.71,0,2.85-1.17,4.13-2,4.65,3.25,6.66,8,7.46,13.39-11.74.27-23.48.51-35.22.83-14.86.41-29.73.69-44.58,1.38-15.53.74-31.06,1.13-46.6,1.35-16.54.23-33.09.56-49.61,1.41-10,.51-19.92.78-29.85.34-14-.64-28.2.18-41.93-3.78a9.57,9.57,0,0,0-2.34-.09c2.23-3.25,5.93-1.65,8.85-2.65A11.79,11.79,0,0,1,366,754.19Z"/><path class="cls-5" d="M449.91,356.77c10.86-2.5,15.14,1,16.71,11.69,1.47,10,2.27,20.09,3.37,30.14a5.53,5.53,0,0,1-1.57.54,130.07,130.07,0,0,0-19.59,2c-2.08.36-2.36-.9-2.35-2.6,0-6.47.1-12.92-.45-19.4C445.38,371.44,445.63,363.7,449.91,356.77Zm1.32,27.88c0,3.05,2.12,5.63,4.62,5.58a5.86,5.86,0,0,0,5.33-5.54c-.05-2.48-2.77-5.35-5.12-5.4C453.36,379.24,451.25,381.58,451.23,384.65Z"/><path class="cls-5" d="M485.56,407.91c-2.62,1.13-5.48,1.11-8.19,1.2-8.45.26-16.9,1.32-25.37.79-7-.44-14,1.1-21,.59,1.64-3.86,5.33-4,8.65-4.56,2-.34,4.07-.35,5.72-1.56,1.91-1.41,4-1.64,6.26-1.89,6.16-.71,12.41-.86,18.41-2.69,1.34,2.08,3.21,1.36,5.06,1C480.93,399.65,484.51,402.1,485.56,407.91Z"/><path class="cls-4" d="M470,399.79c-6,1.83-12.25,2-18.41,2.69-2.24.25-4.35.48-6.26,1.89-1.65,1.21-3.74,1.22-5.72,1.56-3.32.58-7,.7-8.65,4.56l-2.44,0c.83-5.12,4.9-6.45,9-7.16,2.74-.48,3.63-1.36,3.87-4.19.88-10.6.06-21.29,1.76-31.83a19.54,19.54,0,0,1,2.62-7.56c1-1.51,1.94-3.08,4.09-3-4.28,6.93-4.53,14.67-3.88,22.36.55,6.48.48,12.93.45,19.4,0,1.7.27,3,2.35,2.6a130.07,130.07,0,0,1,19.59-2,5.53,5.53,0,0,0,1.57-.54C470,399,470,399.39,470,399.79Z"/><path class="cls-7" d="M471.26,481.31c.53-2.15,1.05-4.3,1.58-6.45l5.82.92a2.1,2.1,0,0,0,3.42.54,2.08,2.08,0,0,0,.41-3c-.87-1.3-2-2.18-3.56-.83-1.71-.42-3.54-.38-5.13-1.27l1.68-6.43,5.74.95c.93,1.25,2,1.7,3.36.61a2.2,2.2,0,0,0,.52-3.22c-.92-1.25-2.07-2-3.58-.73a12.29,12.29,0,0,1-5.18-1.31c.51-2.08,1-4.16,1.54-6.24a21.32,21.32,0,0,1,6,.81,2,2,0,0,0,3.29.66,2.16,2.16,0,0,0,.56-3.21c-.9-1.27-2-2.09-3.56-.79a12.25,12.25,0,0,1-5.4-1.21c.51-2.15,1-4.3,1.54-6.45l5.91.89c1,1.5,2.24,1.76,3.65.62a2,2,0,0,0,.46-3c-.87-1.27-1.94-2.24-3.55-1a12,12,0,0,1-5.46-1.23c1.58-5.87,2.59-6.67,8.53-6.24,8.42.62,16.35,3.5,24.45,5.53,17.54,4.39,35.05,8.9,52.56,13.37a17.82,17.82,0,0,1,1.93.56c9.32,3.62,11.75,6.57,8.81,15.38-8.36,25.09-12.92,51.17-20.26,76.52-1.31,4.51-2.07,9.16-3.22,13.71-1.24,4.92-3.75,6.08-8.68,5.34-7.42-1.12-14.48-3.55-21.68-5.45-19.35-5.11-38.71-10.18-58.3-14.32-6.76-1.43-7.74-2.9-7.35-10.35l5,.67a2.12,2.12,0,0,0,3.27,1,2.09,2.09,0,0,0,.88-2.85c-.76-1.79-2.22-1.87-3.85-1.32-1.57-.23-3.23.05-4.68-.85.53-2.13,1.07-4.25,1.6-6.38l5.12.33a2.43,2.43,0,0,0,3.68.93,1.92,1.92,0,0,0,.76-2.62c-.79-1.71-2.14-2.13-3.87-1.5-1.58-.17-3.22,0-4.69-.81.49-2.27,1-4.53,1.48-6.8l5.29.73c.86,1.57,2.11,2,3.61,1a2,2,0,0,0,.81-2.64,2.79,2.79,0,0,0-3.86-1.58c-1.65-.23-3.42.19-4.93-.88q.69-3.35,1.36-6.69l5.62.72a2.17,2.17,0,0,0,3.27,1.2,2,2,0,0,0,1.13-2.78,2.76,2.76,0,0,0-3.81-1.66c-1.77-.15-3.62.12-5.26-.85.52-2.14,1.05-4.27,1.57-6.41,1.91.16,3.83.31,5.74.45.76,1.42,1.83,2,3.29,1.07a2.07,2.07,0,0,0,.85-2.66,2.54,2.54,0,0,0-3.49-1.67c-1.79-.12-3.63.1-5.3-.82l1.56-6.77,5.8,1.22c1,1.22,2.15,1.56,3.43.47a2.1,2.1,0,0,0,.39-3c-.9-1.23-2.06-2.14-3.6-.77C474.6,482.13,472.8,482.22,471.26,481.31Zm99-24.28-.21-.12.24.08.45.88c1.42,3.72.47,7.34-.81,10.78-3.7,10-5.87,20.41-8.43,30.72-5.32,21.44-10.86,42.84-16.34,64.36,2.36.59,4.12-.57,5.07-2.86a45.41,45.41,0,0,0,1.89-6.07c7.27-28.26,13.28-56.85,22.06-84.71a28,28,0,0,0,.87-4.26c.64-4.07-.32-6-4.06-8.22Z"/><path class="cls-4" d="M546.63,743.41c.07,1.62.14,3.24.2,4.86l-.06,0-.68.58c-2.8,1.59-5.13,4.13-8.44,4.64-5.17.81-9.47-.79-12.49-5.25-.32-.83-.67-1.65-1-2.49s-.8-2.14,0-2.86c1.09-1,1.71.48,2.43,1a3.22,3.22,0,0,0,4,0,19.13,19.13,0,0,1,6.38-2.81A10.17,10.17,0,0,1,546.63,743.41Z"/><path class="cls-8" d="M436.64,679.91l.18.11,0-.18Z"/><path class="cls-8" d="M478.66,475.78l-5.82-.92c-1-.82-2.89-1.11-2.48-2.72.44-1.78,2.25-.69,3.44-.92,1.59.89,3.42.85,5.13,1.27,1.05.35,2.38.71,2.19,2C481,475.59,479.62,475.59,478.66,475.78Z"/><path class="cls-8" d="M463.09,535.73l-5-.67c-.51-.18-1-.32-1.53-.55-1-.46-2.23-1-1.65-2.35s1.74-1,2.82-.59a4.36,4.36,0,0,0,1,.14c1.45.9,3.11.62,4.68.85.81.76,2.74.64,2.33,2.32C465.43,536.08,464,535.51,463.09,535.73Z"/><path class="cls-8" d="M481.22,465.74l-5.74-.95c-.87-.87-2.92-.86-2.52-2.62s2.22-.77,3.38-1.08a12.29,12.29,0,0,0,5.18,1.31c.78.67,2.45.65,2.2,2.08C483.52,465.59,482.16,465.5,481.22,465.74Z"/><path class="cls-8" d="M483.87,455.66a21.32,21.32,0,0,0-6-.81,3.62,3.62,0,0,1-.51-.43c-.7-.86-2.74-.91-2-2.6.64-1.38,2.17-.67,3.35-.71a12.25,12.25,0,0,0,5.4,1.21c.74.53,2,.65,1.92,1.89S484.77,455.42,483.87,455.66Z"/><path class="cls-8" d="M486.21,445.55l-5.91-.89c-.87-.85-2.81-1.07-2.37-2.68s2.15-.93,3.38-1a12,12,0,0,0,5.46,1.23c.55.79,2.1.8,1.88,2.09S487.16,445.39,486.21,445.55Z"/><path class="cls-8" d="M473.33,495.48c-1.91-.14-3.83-.29-5.74-.45-.34-.28-.67-.59-1-.83-.72-.47-1.8-.78-1.45-1.91s1.34-1,2.25-1l1.32.06c1.67.92,3.51.7,5.3.82.56.89,2.3,1,1.93,2.39S474.22,495.23,473.33,495.48Z"/><path class="cls-8" d="M470.69,505.53l-5.62-.72c-.94-.81-3.22-.63-2.49-2.69.61-1.71,2.21-.78,3.44-.68,1.64,1,3.49.7,5.27.85.55.89,2.28,1,1.95,2.35S471.57,505.27,470.69,505.53Z"/><path class="cls-8" d="M465.43,525.66l-5.12-.33a9,9,0,0,0-1.05-.79c-.93-.54-2.21-.95-1.73-2.36s1.77-.78,2.8-.6c.32.06.65,0,1,.08,1.47.82,3.11.64,4.69.81.72.72,2.29.87,1.95,2.28S466.32,525.46,465.43,525.66Z"/><path class="cls-8" d="M476,485.85l-5.8-1.22c-1-.72-3-.82-2.51-2.52s2.3-.64,3.53-.8c1.54.91,3.34.82,5,1.24,1.05.36,2.37.71,2.22,2C478.34,485.69,477,485.6,476,485.85Z"/><path class="cls-8" d="M468.08,515.59l-5.29-.73c-1.35-.49-3.13-.93-2.56-2.78s2.31-.31,3.48-.58c1.51,1.07,3.28.65,4.93.88.7.75,2.31.88,2,2.29S469,515.38,468.08,515.59Z"/><path class="cls-9" d="M439.87,691.27l.66-.25-.65.86C439.88,691.68,439.87,691.47,439.87,691.27Z"/><path class="cls-10" d="M239.35,651.28c.06-2.72.13-5.44.17-8.16,0-.53.23-1.27-.61-1.4s-1.25-.49-1-1.33.91-.59,1.47-.59a22.93,22.93,0,0,1,2.49.08c1.22.16,1.47,1.18.59,1.65-1.15.63-.9,1.46-.93,2.29-.11,3.16-.13,6.32-.24,9.48,0,.66.34,1.65-.74,1.84a2,2,0,0,1-2.52-1c-1.38-2.75-2.84-5.45-4.32-8.15a4.28,4.28,0,0,0-1.8-2.33c-.07,2.91-.14,5.6-.17,8.3a1.29,1.29,0,0,0,.25.92c.71.53,1.84.85.79,2-.4.45-4.37.13-4.52-.31a1.17,1.17,0,0,1,0-.94c2.68-3.46.74-7.49,1.41-11.19a.64.64,0,0,0-.1-.47c-.55-.69-2.37-1.43-.48-2.19,1.22-.49,3.11-.83,4.1,1.14,1.79,3.54,3.7,7,5.57,10.53Z"/><path class="cls-10" d="M229,666.76c-.06,3-.13,5.75-.18,8.54,0,.4-.06.87.38,1.1.6.32,1.31.57,1,1.44s-1.27.5-1.94.55a11.89,11.89,0,0,1-2.23-.08.75.75,0,0,1-.57-1.26c2.63-2.08,1.13-4.92,1.35-7.37.16-1.72,1.24-3.93-1.1-5.33-.34-.2-.21-1.26.59-1.29,1.58-.07,3.26-.55,4.25,1.53a72.79,72.79,0,0,0,5.83,10.12c.07-2.89.13-5.79.2-8.68,0-.6-.31-.88-.88-1s-.7-.67-.59-1.17.69-.64,1.19-.64c.84,0,1.67,0,2.5.06,1.29.11,1.8,1,.71,1.68s-.89,1.47-.92,2.3c-.11,3.15-.14,6.31-.25,9.46,0,.67.35,1.64-.74,1.83a2,2,0,0,1-2.49-1.07c-1.45-2.9-3-5.74-4.55-8.58C230.18,668.21,230,667.35,229,666.76Z"/><path class="cls-10" d="M135.31,670.83l-3-.07c-.55,0-1-.21-.94-.87a.89.89,0,0,1,.94-.94c1.58,0,3.16,0,4.74.11a.89.89,0,0,1,.85,1c0,1.75-.06,3.49-.11,5.24,0,.52-.16,1-.81,1s-1,0-1.17-.63c-.3-1.48-1-.78-1.75-.38-3.41,1.78-7.11,1-9.1-1.84a8.62,8.62,0,0,1,1-11c2.71-2.53,6.48-2.58,9.53-.12a4.57,4.57,0,0,0,1,.77c.81.34,1,.94.59,1.57s-1.2.47-1.8.19a4.71,4.71,0,0,1-.92-.82c-2.17-1.93-4.76-2-6.73-.3a6.82,6.82,0,0,0-1,8.46,5.38,5.38,0,0,0,6.45,1.75A3.67,3.67,0,0,0,135.31,670.83Z"/><path class="cls-10" d="M174.55,677.24c-.8-.14-1.86.32-2.35-.44-.66-1,.73-1.23,1-1.84a7,7,0,0,0,.31-2.69c.07-2.24.11-4.49.15-6.73,0-.57.24-1.32-.28-1.64-.68-.42-1.44-.69-.9-1.64.4-.72,1.19-.44,1.82-.41,2,.1,4-.18,5.95.4,3.24,1,4.23,4.23,1.81,6.56-1,1-.91,1.46-.25,2.41,1,1.42.24,3.69,2.3,4.67.37.17.38,1.29-.34,1.39-1,.15-2.27.68-2.75-.81-.35-1.1-.45-2.28-.75-3.4a3.4,3.4,0,0,0-1.29-2.34c-1-.59-2.39-1-3-.07a4.89,4.89,0,0,0-.13,4.31c.26.65,1.63.94,1,1.93C176.39,677.67,175.35,677.1,174.55,677.24Zm1.2-11c-.38,1.49,0,2.49,1.94,2.34,1.59-.13,3.35,0,3.45-2.28s-1.65-2.39-3.39-2.58C175.74,663.54,175.54,664.62,175.75,666.27Z"/><path class="cls-10" d="M162.43,671.84c-1.26-.16-2.85-.28-3.24,1.92-.07.41-.32.88.11,1.12.63.34,1.26.68.88,1.48s-1.31.44-2,.49a12.91,12.91,0,0,1-2.24-.08.75.75,0,0,1-.56-1.27c2.9-2.11,2.75-5.68,4.19-8.47a24.12,24.12,0,0,0,1.52-3.94,1.92,1.92,0,0,1,2.18-1.53c1.16,0,1.59.62,1.89,1.58,1,3.08,1.92,6.17,3,9.22.41,1.16.32,2.74,2,3.12.19,0,.34.52.4.82a.59.59,0,0,1-.49.74,11.74,11.74,0,0,1-4.18-.21c-.44-.15-.36-.68-.25-1.1C166.65,672,166.56,671.93,162.43,671.84Zm.55-8.43-2.25,6.25c4.54.89,4.62.81,3.29-3.31C163.77,665.57,163.48,664.81,163,663.41Z"/><path class="cls-10" d="M152,667.39c-.44-1.38,1.25-3.65-1.46-4.59-.05,0-.06-.14-.08-.22-.1-.44-.07-1,.37-1.06a7.06,7.06,0,0,1,4.36.21.78.78,0,0,1,0,1.28c-1.56.6-1,1.89-1.11,3-.18,2.15.14,4.33-.51,6.45-.89,2.91-3.08,4.59-5.86,4.44s-4.62-1.89-5.32-4.79c-.45-1.9-.08-3.81-.2-5.71-.08-1.28.76-2.83-1-3.71a.76.76,0,0,1,.14-1.26,6.52,6.52,0,0,1,4.36.09c.59.23.4,1,0,1.48-1.59,1.83-1.88,8.83-.45,10.65.94,1.2,2.24,1.3,3.61,1.18a3,3,0,0,0,2.72-2.21A16.61,16.61,0,0,0,152,667.39Z"/><path class="cls-10" d="M115.61,647.33c-1.18-.11-2.83-.35-3.16,1.92-.06.39-.44.86,0,1.11.93.52,1.75,1.38.43,1.84a4.9,4.9,0,0,1-4.25-.33c-.15-.09-.16-.75,0-.91,3.28-3.22,3.51-7.84,5.37-11.7.54-1.1.67-2.32,2.45-2.23s1.77,1.22,2.12,2.28c1,3,1.94,6,2.94,9,.35,1.05.35,2.36,1.86,2.65.2,0,.43.5.43.77s-.25.76-.41.77a39,39,0,0,1-4.19-.07c-.44,0-.43-.65-.32-1.06C119.87,647.49,119.82,647.42,115.61,647.33Zm.64-8.39c-.82,2.16-1.38,3.61-1.9,5.08-.16.43-.46,1.14.17,1.26a6.11,6.11,0,0,0,3.17.06c1.09-.42.12-1.44,0-2.14C117.36,642,116.89,640.86,116.25,638.94Z"/><path class="cls-10" d="M215.44,673c-1.3-.17-2.89-.24-3.19,2,0,.31-.2.8-.08.9.73.53,1.86,1.31.69,1.93a5.7,5.7,0,0,1-4.34-.12,1.36,1.36,0,0,1,0-1.11c3.29-3.13,3.4-7.71,5.3-11.47.52-1,.47-2.41,2.31-2.41s2,1.39,2.41,2.58c1,3,1.92,6,2.93,9,.3.89.3,2,1.6,2.26.6.11.73.62.6,1.16s-.72.59-1.2.59c-.91,0-1.82,0-2.74,0s-1.21-.44-1-1.26C219.82,673.28,219.69,673.1,215.44,673Zm.61-8.3-1.42,3.65c-.15.39-.27.79-.42,1.17-.37.93-.37,1.5.91,1.65,2.77.33,3.12,0,2.28-2.62C217.05,667.48,216.65,666.42,216.05,664.71Z"/><path class="cls-10" d="M177,648.68c-3.52-.07-3.92.47-2.69,3.6.35.88.11,1.47-1,1.43-.75,0-1.5,0-2.24-.05-.54,0-1.25.21-1.51-.53s.23-1.14.93-1.44.83-1.17,1.09-1.86c1.18-3.1,2.37-6.2,3.53-9.31.41-1.08.6-2.15,2.24-2.15s1.88,1,2.24,2.14c1,3.16,2,6.33,3.07,9.47.23.68.21,1.57,1,1.94s1.55.52,1.12,1.52-1.34.56-2,.45c-1.22-.21-4.25,1.1-2.05-2.41C181.63,650.05,179.8,648.74,177,648.68Zm.31-8.5c-.83,2.22-1.44,3.82-2,5.43-.17.48-.3,1.06.43,1.14,1.05.11,2.27.49,3.13-.15s0-1.51-.21-2.26C178.28,643.16,177.87,642,177.28,640.18Z"/><path class="cls-10" d="M190.49,677.57c-.66,0-1.33,0-2-.05s-1.25.21-1.54-.45.08-1.23.82-1.51c.56-.21.54-.77.55-1.26.08-3,.15-6,.19-8.95,0-.39-.07-1-.3-1.12-.74-.36-1.41-.7-.91-1.63.39-.73,1.18-.43,1.8-.42a29.67,29.67,0,0,1,4.22.16,7.67,7.67,0,0,1-1.1,15.27C191.65,677.61,191.07,677.59,190.49,677.57Zm0-7.83c0,1.49,0,3-.11,4.47-.05,1,.34,1.45,1.4,1.56,3.13.32,5.69-1.82,6.08-5.2a5.73,5.73,0,0,0-4.57-6.42c-1.93-.32-3,.1-2.76,2.37A23.09,23.09,0,0,1,190.47,669.74Z"/><path class="cls-10" d="M158.85,653.4l-4.24-.1c-1.17,0-1.73-1-.87-1.49,1.59-.93,1.13-2.24,1.2-3.46.12-2.24.13-4.49.16-6.73,0-.56.24-1.29-.32-1.62s-1.28-.57-1-1.41c.34-1,1.25-.63,1.94-.63q3.48,0,7,.16c.68,0,1.69-.29,1.87.72s.49,2.49-.27,3.36c-.61.7-1.79.65-1.85-.79,0-1-.44-1.59-1.49-1.45-1.24.16-2.87-.8-3.63.56a4,4,0,0,0,0,3.61c.48.93,1.66.39,2.53.55.66.13,1.68-.24,1.64,1s-1,.8-1.71.83c-2.47.1-3.75,2-2.78,4.31.52,1.24,1.71.74,2.61.76s2.31.61,2.56-1.09c.13-.84.39-1.47,1.4-1.31s.75,1.09.84,1.77c.28,2-.45,2.94-2.6,2.59A21.11,21.11,0,0,0,158.85,653.4Z"/><path class="cls-10" d="M223.44,645.5c-.46-1.22,1.37-3.41-1.2-4.6-.39-.19-.26-1.27.47-1.35a18.51,18.51,0,0,1,3.72.08c.59.07.82.92.48,1.17-2.49,1.79-1,4.38-1.39,6.56A19.16,19.16,0,0,1,225,651a5.74,5.74,0,0,1-5.77,3.92,5.65,5.65,0,0,1-5.22-4.61c-.47-2-.17-4-.24-6,0-1.23.57-2.57-.88-3.62-.64-.47-.27-1.45.79-1.49a17.58,17.58,0,0,1,3,.07c1.06.13,1.28,1.23.57,1.53-1.66.7-1.18,2-1.24,3.12-.09,1.74-.12,3.5-.06,5.24.08,2.21,1.13,3.58,3.5,3.7s3.6-1.1,3.93-3.28A33.17,33.17,0,0,0,223.44,645.5Z"/><path class="cls-10" d="M271.06,656.26c-2.23.14-3.47-1.84-4.81-3.63-.32-.42-.3-1.14.25-1.26.81-.19,1.88-.58,2.27.72.67,2.27,2.43,2.17,4.21,1.91a2,2,0,0,0,1.77-1.83,1.91,1.91,0,0,0-1.08-2.07,20.84,20.84,0,0,0-3-1.2c-1.9-.62-3.6-1.37-3.79-3.72A3.82,3.82,0,0,1,269,641a5.65,5.65,0,0,1,6.12.4c.52.39.88,1,1.39,1.41.67.52,1.22,1.19.46,1.8a1.49,1.49,0,0,1-2.34-.41,5.56,5.56,0,0,0-.44-.88,3.38,3.38,0,0,0-3.68-.81,1.92,1.92,0,0,0-1.54,2c.06,1.48,1.24,1.83,2.31,2.26.69.28,1.42.47,2.11.74,2.87,1.11,3.94,2.62,3.52,4.94S274.27,656.37,271.06,656.26Z"/><path class="cls-10" d="M250.61,640.05c1.67,0,3.33.05,5,.12.63,0,1.49-.21,1.71.63a3.77,3.77,0,0,1-.16,3.13c-.6.82-1.82.79-1.93-.54-.18-2.15-1.72-1.38-2.78-1.41-1.42,0-1.09,1.2-1.12,2-.1,2.49-.14,5-.17,7.48,0,.64-.25,1.42.37,1.86s1.47.77.93,1.68-1.37.34-2.08.38a16.84,16.84,0,0,1-1.74,0c-1.09,0-1.37-.69-.82-1.47,2.46-3.53.74-7.5,1.27-11.22.11-.76-.65-.88-1.24-.86s-1.66-.38-1.86.69-.38,2-1.64,1.51-.55-1.72-.66-2.63c-.15-1.25.61-1.53,1.7-1.48C247.12,640,248.87,640,250.61,640.05Z"/><path class="cls-10" d="M145.26,637.72c1.49,0,3,.18,4.48.07,2-.16,2.49.78,2.23,2.52-.1.71.11,1.58-1,1.7s-1.17-.52-1.27-1.37c-.23-1.76-1.67-.84-2.58-1-1.14-.23-1.37.54-1.38,1.5,0,2.91-.13,5.81-.17,8.71,0,.39,0,1,.27,1.14.69.51,1.85.73,1,2-.3.42-4.38.2-4.55-.23a1.38,1.38,0,0,1,0-1.15c2.73-3.52.76-7.59,1.33-11.35.11-.75-.8-.72-1.34-.7s-1.63-.4-1.91.62-.21,2.08-1.55,1.53-.47-1.75-.57-2.66c-.15-1.32.73-1.43,1.75-1.39C141.77,637.66,143.52,637.68,145.26,637.72Z"/><path class="cls-10" d="M130.83,644.2c1-1.57,1.74-2.59,2.39-3.64.19-.3.68-.79.22-1-1-.56-1.58-1.48-.36-1.88a4.65,4.65,0,0,1,4.26.34c.53.4,0,.95-.57,1.49-2.81,2.58-5.38,5.38-5,9.64,0,.57-.15,1.23.41,1.61s1.41.84.9,1.72c-.38.67-1.21.32-1.84.34a14,14,0,0,1-2.24-.08c-.94-.13-1.08-.92-.59-1.45,2.35-2.53,1.61-5.12.09-7.57-1-1.64-1.49-3.69-3.44-4.74a.85.85,0,0,1,.35-1.53,17.07,17.07,0,0,1,3.71.05c.45,0,.79.65.55.92C127.55,640.73,130.33,641.89,130.83,644.2Z"/><path class="cls-10" d="M205.11,654.41c-1.49,0-3-.06-4.48-.11-.48,0-1,.05-1.17-.63-.07-.43,0-.92.43-1,1.27-.34,1-1.35,1-2.22.07-2.57.14-5.15.16-7.72,0-.6.37-1.43-.42-1.77s-1.18-.66-.83-1.46,1-.46,1.54-.47a15.2,15.2,0,0,1,2.24.06c1.2.15,1.51,1.24.62,1.6-1.53.61-1.08,1.67-1.13,2.62-.11,2.41,0,4.83-.21,7.22-.13,1.69.53,2.26,2.11,2.12a14.69,14.69,0,0,1,2,0c1.09.05,2,0,2-1.49,0-.65.23-1.12,1-1.11,1,0,.88.76.92,1.41.21,2.95.08,3.09-2.85,3Z"/><path class="cls-10" d="M192.17,654.12c-1.57,0-3.15,0-4.73-.13-1.26-.09-1.45-1.09-.53-1.57,1.25-.65,1-1.58,1-2.5.09-2.49.15-5,.15-7.47,0-.67.45-1.58-.6-1.91a.91.91,0,0,1-.66-1.33c.22-.6.79-.52,1.27-.52a17.71,17.71,0,0,1,2.73.12c1.11.18,1.14,1.31.46,1.54-1.54.52-1.13,1.62-1.17,2.59-.1,2.58-.09,5.15-.2,7.73-.05,1.17.4,1.82,1.56,1.6,1.7-.34,4.41,1.54,4.73-2.09,0-.53.91-.62,1.25-.32,1.05.91.32,2.16.43,3.25.09.87-.44,1.14-1.24,1.11C195.16,654.17,193.67,654.15,192.17,654.12Z"/><path class="cls-10" d="M261.21,655.67c-.7-.19-1.73.38-2.19-.56s.59-1.12,1-1.64a2.87,2.87,0,0,0,.32-1.65q.14-3.86.17-7.72c0-.76.36-1.69-.81-2.06-.59-.18-.61-.72-.43-1.23s.6-.54,1-.53a20.85,20.85,0,0,1,2.74.08c1.19.16,1.45,1.1.58,1.66-1.12.73-.92,1.66-.95,2.6-.09,2.32-.13,4.65-.16,7,0,.57-.13,1.36.18,1.68C265.32,656,263.06,655.67,261.21,655.67Z"/><path class="cls-10" d="M204.32,677.9c-.78-.18-1.83.34-2.29-.49-.61-1.08.62-1.24,1.14-1.78.23-.24.2-.78.21-1.19q.12-4.35.19-8.7c0-.46.19-1.08-.42-1.29s-1.2-.64-.85-1.44,1.14-.49,1.76-.51a13.88,13.88,0,0,1,2.23.1c.93.13,1.08,1.21.62,1.42-2.07.89-1.21,2.63-1.33,4-.17,2-.13,4-.15,6,0,.57-.13,1.3.16,1.68.45.59,1.7.79,1,1.84C206.14,678.32,205.1,677.76,204.32,677.9Z"/><path class="cls-11" d="M213.94,661.49c1.41-1.81,1.92-3.88,4.62-2.89C217.35,659.88,216.48,661.35,213.94,661.49Z"/><path class="cls-4" d="M451.23,384.65c0-3.07,2.13-5.41,4.83-5.36,2.35,0,5.07,2.92,5.12,5.4a5.86,5.86,0,0,1-5.33,5.54C453.35,390.28,451.22,387.7,451.23,384.65Zm4.79-2.31c-1.51,0-2.78.45-2.64,2.22s.86,3.05,2.81,3.15,2.55-1,2.53-2.73A2.35,2.35,0,0,0,456,382.34Z"/><path class="cls-2" d="M308.79,205.08c-.41-2.15.23-3.25,2.73-3.08,3.25.22,5,1.17,5,3.23s-1.71,3.09-5.13,3.34C308.38,208.8,308.61,207,308.79,205.08Z"/><path class="cls-2" d="M391.52,164.55c-.36-2.05,0-3.33,2.62-3.14,3.46.24,5.12,1.2,5,3.45-.08,2.1-1.67,2.87-5,3.12C391.18,168.21,391.27,166.54,391.52,164.55Z"/><path class="cls-2" d="M236,218.58c-3.68,0-6.74-3.64-6.78-8-.05-4.56,3-8.17,6.89-8.15s6.84,3.69,6.74,8.27S239.81,218.6,236,218.58Z"/><path class="cls-2" d="M260.47,161.81c3.85.06,6.87,3.78,6.73,8.3s-3.15,7.94-6.9,7.88-6.85-3.79-6.72-8.33S256.67,161.75,260.47,161.81Z"/><path class="cls-2" d="M429,203.26c.47,1.47,1,2.93,1.39,4.42.26.93,1.26,2.17.38,2.73s-2.31.3-3.48.23-.92-1-.71-1.66c.56-1.92,1.18-3.82,1.77-5.72Z"/><path class="cls-2" d="M564,161.64c.76,2.36,1.39,4,1.78,5.65.19.86,1.35,2.08.1,2.62a7.59,7.59,0,0,1-3.77.07c-.75-.1-.43-.84-.27-1.35C562.5,166.54,563.14,164.46,564,161.64Z"/><path class="cls-2" d="M420.47,161.7c.72,2.22,1.28,3.78,1.71,5.37.25.92,1.26,2.11.41,2.76s-2.51.35-3.78.2c-1-.12-.69-.93-.51-1.53C418.92,166.48,419.58,164.48,420.47,161.7Z"/><path class="cls-2" d="M337.64,202.29c.84,2.63,1.51,4.62,2.1,6.62.16.53.81,1.43-.12,1.62a10.22,10.22,0,0,1-3.82,0c-.87-.16-.45-1-.26-1.63C336.16,206.89,336.81,204.9,337.64,202.29Z"/><path class="cls-2" d="M262.78,209.16c-3.47-.13-1.65-2.84-2-4.43s-.18-2.91,2.13-2.72c2.79.23,4.52,1.58,4.44,3.84S265.72,209.16,262.78,209.16Z"/><path class="cls-9" d="M571,457.61c3.74,2.26,4.7,4.15,4.06,8.22a28,28,0,0,1-.87,4.26c-8.78,27.86-14.79,56.45-22.06,84.71a45.41,45.41,0,0,1-1.89,6.07c-1,2.29-2.71,3.45-5.07,2.86,5.48-21.52,11-42.92,16.34-64.36,2.56-10.31,4.73-20.71,8.43-30.72,1.28-3.44,2.23-7.06.81-10.78Z"/><path class="cls-12" d="M470.69,505.53c.88-.26,2.25.36,2.55-.89s-1.4-1.46-1.95-2.35a2.75,2.75,0,0,1,3.8,1.66,2,2,0,0,1-1.13,2.78A2.17,2.17,0,0,1,470.69,505.53Z"/><path class="cls-11" d="M486.21,445.55c1-.16,2.22.1,2.44-1.22s-1.33-1.3-1.88-2.09c1.61-1.28,2.68-.31,3.55,1a2,2,0,0,1-.46,3C488.45,447.31,487.21,447.05,486.21,445.55Z"/><path class="cls-11" d="M483.87,455.66c.9-.24,2.11-.18,2.21-1.45s-1.18-1.36-1.92-1.89c1.53-1.3,2.66-.48,3.56.79a2.16,2.16,0,0,1-.56,3.21A2,2,0,0,1,483.87,455.66Z"/><path class="cls-12" d="M468.08,515.59c.89-.21,2.22.35,2.53-.92s-1.27-1.54-2-2.29A2.79,2.79,0,0,1,472.5,514a2,2,0,0,1-.81,2.64C470.19,517.56,468.94,517.16,468.08,515.59Z"/><path class="cls-12" d="M465.43,525.66c.89-.2,2.21.35,2.52-.91s-1.23-1.56-1.95-2.28c1.73-.63,3.08-.21,3.87,1.5a1.92,1.92,0,0,1-.76,2.62A2.43,2.43,0,0,1,465.43,525.66Z"/><path class="cls-11" d="M481.22,465.74c.94-.24,2.3-.15,2.5-1.26.25-1.43-1.42-1.41-2.2-2.08,1.51-1.31,2.66-.52,3.58.73a2.2,2.2,0,0,1-.52,3.22C483.27,467.44,482.15,467,481.22,465.74Z"/><path class="cls-12" d="M478.66,475.78c1-.19,2.3-.19,2.46-1.27.19-1.31-1.14-1.67-2.19-2,1.56-1.35,2.69-.47,3.56.83a2.08,2.08,0,0,1-.41,3A2.1,2.1,0,0,1,478.66,475.78Z"/><path class="cls-12" d="M463.09,535.73c.92-.22,2.34.35,2.63-.85.41-1.68-1.52-1.56-2.33-2.32,1.63-.55,3.09-.47,3.85,1.32a2.09,2.09,0,0,1-.88,2.85A2.12,2.12,0,0,1,463.09,535.73Z"/><path class="cls-12" d="M476,485.85c.93-.25,2.3-.16,2.44-1.28.15-1.31-1.17-1.66-2.22-2,1.54-1.37,2.7-.46,3.6.77a2.1,2.1,0,0,1-.39,3C478.19,487.41,477,487.07,476,485.85Z"/><path class="cls-9" d="M473.33,495.48c.89-.25,2.26.38,2.58-.87s-1.37-1.5-1.93-2.39a2.54,2.54,0,0,1,3.49,1.67,2.07,2.07,0,0,1-.85,2.66C475.16,497.46,474.09,496.9,473.33,495.48Z"/><path class="cls-9" d="M570.77,457.87l-.45-.88,0,0,.73.59Z"/><path class="cls-9" d="M570.32,457l-.24-.08.21.11Z"/><path class="cls-13" d="M129.82,178.11c-2.36.67-1.24,2.6-1.2,3.93.06,1.52,1.56.88,2.46.94a28.61,28.61,0,0,0,4.44,0c1-.08,2.64.68,2.79-.8.14-1.33,1.4-3.45-1.26-4.1-.83-.21-.75-1-.76-1.6,0-3,0-6.08,0-9.11l.57-.23c.47.66,1,1.29,1.41,2q4.08,6.3,8.11,12.62c1.46,2.3,3.72,1.24,5.56,1.16s.95-1.91,1-2.94c.09-5.28,0-10.56.06-15.84,0-.85-.43-2,.82-2.37,2.41-.7,1.29-2.62,1.22-3.93-.09-1.7-1.74-.86-2.69-1a31,31,0,0,0-4.72,0c-.89,0-2.4-.57-2.37,1,0,1.27-1.14,3.08,1,3.77.59.19,1,.39,1,1.07v11.08c-2.91-4.61-5.64-8.29-7.66-12.32-2-3.88-4.63-5.41-8.78-4.65-.83.15-2.14-.42-2.23.94s-.89,3,.76,3.71c1.3.54,1.3,1.34,1.3,2.37,0,4.07,0,8.15,0,12.22C130.67,176.81,131,177.77,129.82,178.11Z"/><path class="cls-13" d="M277.69,178.11c-2.35.68-1.24,2.61-1.19,3.94.06,1.51,1.57.88,2.46.93,1.76.09,3.52.06,5.28,0,.83,0,2.14.37,2.05-1.09-.06-1.24.9-2.86-.84-3.67-.61-.29-1.25-.38-1.25-1.21,0-3.27,0-6.53,0-9.8a6.61,6.61,0,0,1,2.27,2.35c2.61,4.05,5.22,8.09,7.8,12.16,1.46,2.29,3.72,1.24,5.57,1.15s.94-1.92,1-2.95c.09-5.28,0-10.56.06-15.84,0-.84-.43-2,.83-2.36,2.39-.71,1.28-2.63,1.2-3.93-.09-1.7-1.74-.86-2.69-1a23.52,23.52,0,0,0-4.44,0c-.95.09-2.6-.75-2.64,1,0,1.3-1.21,3.29,1.31,3.83.87.19.79.93.79,1.56,0,3.21,0,6.42,0,9.64l-.53.09c-2.42-3.84-5.15-7.52-7.17-11.55-1.95-3.88-4.64-5.39-8.78-4.64-.83.15-2.14-.41-2.22.95s-.89,3,.77,3.7c1.3.54,1.28,1.35,1.28,2.37,0,4.08,0,8.15,0,12.23C278.55,176.82,278.88,177.78,277.69,178.11Z"/><path class="cls-13" d="M300.38,198.54c-.1,1.42-1,3.54,1.77,3.77,1,.09.87,1.05.87,1.75q0,6.41,0,12.79c0,.79.19,1.76-1.08,1.86-2.72.2-1.5,2.29-1.58,3.6-.11,1.85,1.48,1.21,2.45,1.26a51.37,51.37,0,0,0,5.55,0c1-.07,2.63.72,2.77-.86.12-1.35,1.19-3.15-1.31-4.15-1.83-.74-.91-3-.74-4.49s1.75-.94,2.74-.83c3.16.35,3.46,2.93,3.89,5.31.93,5.23.91,5.25,6.3,5,.74,0,1.9.41,2-.81s.7-3.56-.32-3.91c-3.65-1.22-1.85-5.42-4.37-7.15-.61-.41.24-.91.64-1.22a6.57,6.57,0,0,0,2.33-8.15c-1.27-3.26-3.94-4.8-7.4-4.91-2-.06-4.07,0-6.11,0v0c-1.85,0-3.71-.1-5.55,0C302.23,197.51,300.52,196.64,300.38,198.54ZM311.52,202c3.25.22,5,1.17,5,3.23s-1.71,3.09-5.13,3.34c-3,.23-2.78-1.53-2.6-3.49C308.38,202.93,309,201.83,311.52,202Z"/><path class="cls-13" d="M384.81,161.71c1.05.07,1,.94,1,1.67q0,6.52,0,13c0,.72.09,1.61-1,1.67-2.93.18-1.66,2.39-1.69,3.75-.05,1.84,1.59,1.08,2.52,1.13,1.94.11,3.89.09,5.83,0,1,0,2.53.58,2.47-1.24,0-1.28.89-2.89-1.34-3.67s-1-3-1-4.56,1.52-1,2.44-.95c3.63.18,3.93,3,4.42,5.7.86,4.76.87,4.82,5.43,4.7,1,0,2.82.84,2.88-1,.06-1.41,1.37-3.67-1.58-4.15-.8-.14-.84-1.12-1-1.83-.37-1.43-.6-3-1.62-4.08-.86-.95-.65-1.49.31-2.18,2.84-2,3.08-5,2.12-8s-3.46-4.54-6.53-4.82c-2.3-.2-4.62,0-6.93,0v-.06c-1.95,0-3.89-.08-5.83,0-.94.05-2.57-.71-2.56,1.09C383.15,159.3,381.88,161.51,384.81,161.71Zm9.33-.3c3.46.24,5.12,1.2,5,3.45-.08,2.1-1.67,2.87-5,3.12-3,.23-2.88-1.44-2.63-3.43C391.16,162.5,391.51,161.22,394.14,161.41Z"/><path class="cls-13" d="M508.17,180.58c-.09-3.05-.11-6.11,0-9.16.07-1.74-.38-2.52-2.28-2.41a62.39,62.39,0,0,1-7.49,0c-2-.12-2.52.58-2.52,2.5s.71,2.46,2.44,2.37c.67,0,1.64-.33,1.93.57s-.51,1.51-1.13,2c-1.92,1.65-5.27,1.47-7.42-.36-3-2.59-3.47-8.26-.9-11.68,2.45-3.26,6.46-3.73,9.37-.83,1.71,1.71,3.7,1.28,5.42.91s.62-2.35.87-3.59c.34-1.74-.57-2.34-2.2-2.14a4.37,4.37,0,0,1-3.09-1,8.78,8.78,0,0,0-5-1.5c-6.44-.14-11.82,4.6-12.94,11.41-.91,5.57,1.79,11.46,6.42,14s8.5,1.95,13.27-2.41a9.24,9.24,0,0,1,.07,1.44c-.4,2.58,1.39,2.13,2.94,2.27C508,183.23,508.22,182.22,508.17,180.58Z"/><path class="cls-13" d="M278.13,223.6c2.87,0,5.74,0,8.61,0h3.88c6.84,0,6.8,0,6.79-6.75,0-1.66,0-3-2.28-2.7-1.69.19-4-.72-3.58,2.49.11.89.14,2.07-1.22,2-1.7,0-3.85.89-5-.59-.72-1-.44-2.89-.15-4.3s1.85-.92,2.82-.86c2,.14,2.2-.95,2.19-2.55s0-3-2.25-2.76c-.92.09-2.27.53-2.72-.67s-.7-2.88.07-3.75c1.27-1.45,3.29-.51,5-.6,1.35-.07,1.29,1.09,1.25,2-.05,1.31.49,1.72,1.8,1.78,4,.19,4,.26,4-3.7,0-1.11-.06-2.23,0-3.33.1-1.43-.44-2-1.9-2-5.74.06-11.47,0-17.21,0-1,0-2.08,0-1.85,1.35s-1.14,3.29,1.1,3.69c1.63.29,1.62,1.13,1.61,2.29,0,3.88,0,7.77,0,11.65,0,1.26.06,2.21-1.73,2.48s-.83,2.1-1,3.24S277.06,223.61,278.13,223.6Z"/><path class="cls-13" d="M159.07,161.86c1.65.25,1.61,1.11,1.61,2.27q0,5.84,0,11.66c0,1.25.08,2.19-1.71,2.48-2,.33-.85,2.27-1,3.48-.21,1.46,1,1.24,1.9,1.25,2.87,0,5.74,0,8.61,0h3.89c6.6,0,6.57,0,6.54-6.75,0-1.63,0-3-2.27-2.71-1.67.22-4-.77-3.61,2.48.12,1,.09,2.23-1.44,2.08s-3.75.93-4.86-.82a3.18,3.18,0,0,1,2.82-5c2,.06,2.21-.94,2.2-2.55s0-3-2.28-2.75c-.92.09-2.25.48-2.72-.7s-.73-2.86.09-3.74c1.3-1.41,3.31-.51,5-.59,1.42-.06,1.22,1.15,1.19,2,0,1.35.57,1.69,1.83,1.76,4,.21,4,.26,4-3.72,0-1.11-.06-2.23,0-3.33.09-1.44-.5-1.95-1.94-1.94-5.74.06-11.48,0-17.22,0-1,0-2.05.07-1.77,1.4S156.76,161.5,159.07,161.86Z"/><path class="cls-13" d="M480.9,175.14c.12-2-1.43-1.64-2.5-1.52s-3.28-1-3,1.47c.32,3.13-1.36,3.23-3.65,3.09-1.68-.1-3.36.31-3.17-2.44.15-2.07-.13-4,2.94-3.47,1.95.35,2.32-.74,2.26-2.43s.12-3-2.21-2.81c-.92.08-2.33.55-2.73-.64s-.79-3.14.17-4c1.34-1.16,3.37-.39,5.1-.41,1.39,0,1.25,1.14,1.2,2-.08,1.37.56,1.68,1.82,1.74,3.8.18,3.8.23,3.8-3.63,0-1.2-.06-2.41,0-3.61s-.52-1.75-1.8-1.74c-5.74,0-11.49,0-17.23,0-1,0-2.07,0-1.87,1.35s-1.12,3.28,1.11,3.7c1.63.3,1.59,1.2,1.58,2.34q0,5.84,0,11.67c0,1.14.05,2.07-1.56,2.38-2,.39-1,2.24-1.15,3.47-.14,1.4,1,1.28,1.92,1.28h11.95c7.51,0,7.51,0,7-7.59A1.31,1.31,0,0,1,480.9,175.14Z"/><path class="cls-13" d="M235.91,196.9c-7.13,0-12.54,6.09-12.46,13.88.09,7.5,5.78,13.42,12.8,13.31s12.77-6.46,12.6-13.92S242.91,196.84,235.91,196.9Zm.12,21.68c-3.68,0-6.74-3.64-6.78-8-.05-4.56,3-8.17,6.89-8.15s6.84,3.69,6.74,8.27S239.81,218.6,236,218.58Z"/><path class="cls-13" d="M260.33,183.5c7.12.05,12.73-6,12.7-13.69s-5.51-13.48-12.57-13.5-12.88,6.14-12.82,13.65S253.4,183.46,260.33,183.5Zm.14-21.69c3.85.06,6.87,3.78,6.73,8.3s-3.15,7.94-6.9,7.88-6.85-3.79-6.72-8.33S256.67,161.75,260.47,161.81Z"/><path class="cls-13" d="M338,179.73c2.09,3.18,5.36,4,9,3.79,4.41-.28,7.78-3.18,8.35-7.15.65-4.46-1.23-7.22-6-8.87-1.49-.5-3-1-4.48-1.47s-2.69-1.16-2.24-2.93,1.92-1.88,3.35-1.74a3.33,3.33,0,0,1,3.34,2.77c.1.54,0,1.35.61,1.43,1.82.26,3.87.74,5.4-.2,1.15-.71.42-2.59.43-3.94s-1.69-1-2.41-1.94c-2.56-3.18-6.06-4-10-3.28-4.31.79-6.84,3.28-7.09,7q-.4,6,5.9,8.32a54.59,54.59,0,0,1,5.21,1.86,2.38,2.38,0,0,1,.51,4.23c-1.76,1.2-5.32.36-5.59-1.67-.36-2.62-1.83-2.53-3.25-2.41-3.66,0-3.62.2-3.63,3.45C335.35,179,337.24,178.62,338,179.73Z"/><path class="cls-13" d="M314.11,161.87c1.62.3,1.58,1.23,1.58,2.38,0,3.89,0,7.78,0,11.67,0,1.16,0,2.05-1.61,2.32-2.1.35-.89,2.24-1.11,3.44s.66,1.33,1.59,1.33q8.76,0,17.51,0c1,0,1.6-.26,1.59-1.39,0-2.22.06-4.45,0-6.67s-1.88-1.26-3-1.33-2.85-.61-2.57,1.4c.48,3.41-1.59,3.15-3.83,3.17-1.93,0-3.14-.16-3-2.63.14-2,0-3.78,2.85-3.29,1.9.33,2.51-.51,2.61-2.46.13-2.59-1.13-3-3.19-2.74-2.3.31-2.17-1.16-2.24-2.75-.08-1.77.42-2.63,2.31-2.38a9,9,0,0,0,1.94,0c1.61-.14,2.77.14,2.49,2.18-.2,1.44.7,1.6,1.87,1.65,3.73.16,3.73.2,3.74-3.44,0-1.21-.07-2.41,0-3.61.1-1.46-.5-2-1.94-1.93-2.78.08-5.56,0-8.34,0h-8.61c-1,0-2.06.06-1.81,1.39S311.81,161.45,314.11,161.87Z"/><path class="cls-13" d="M390.68,202.07c1.91.31,2.05,1.55,2.46,2.83,1.74,5.46,3.54,10.91,5.19,16.4.5,1.67,1.21,2.57,3.06,2.31a9.44,9.44,0,0,1,2.49,0c1.79.24,2.6-.51,3.12-2.23,1.7-5.57,3.58-11.09,5.38-16.63.4-1.22.63-2.31,2.31-2.69s.82-2.17.91-3.35c.11-1.38-1-1.31-1.92-1.31-2.4,0-4.81,0-7.22,0-.95,0-2.31-.32-2.16,1.31.12,1.26-1,3.2,1.44,3.49,1.18.14,1.35.73,1.05,1.71-1.27,4.05-2.52,8.11-4,12.83-1.49-4.76-2.78-8.87-4-13-.21-.66-.24-1.39.68-1.48,2.65-.27,1.63-2.3,1.61-3.63,0-2-1.74-1.17-2.76-1.22-2.22-.12-4.44,0-6.67,0-1,0-2,0-1.83,1.37C390,199.92,388.9,201.78,390.68,202.07Z"/><path class="cls-13" d="M440.82,219.08c-2.2-.78-2.13-2.61-2.66-4.13-1.54-4.35-2.91-8.76-4.35-13.15s-1.47-4.41-6.21-4.44c-1.64,0-2.45.46-3,2.09-1.71,5.47-3.57,10.88-5.42,16.3-.42,1.24-.55,2.5-2.19,3.22-1.41.61-.65,2.49-.56,3.79s1.26.79,2,.81c2,.06,4.06,0,6.1,0,.85,0,1.87,0,1.7-1.2s.92-2.83-.94-3.61c-.57-.23-1.76.25-1.39-1.05.28-1,.18-2.43,1.7-2.51,2-.1,4.07-.06,6.1,0,1.42,0,1.3,1.36,1.67,2.23.24.55.18,1.11-.58,1.24-2.59.44-1.43,2.47-1.39,3.76.05,1.95,1.81.91,2.82,1.13a9.65,9.65,0,0,0,1.94,0c1,0,2,0,3.05,0,.76,0,1.88.32,2-.9S442,219.49,440.82,219.08Zm-10.07-8.67c-.87.55-2.31.3-3.48.23s-.92-1-.71-1.66c.56-1.92,1.18-3.82,1.77-5.72H429c.47,1.47,1,2.93,1.39,4.42C430.63,208.61,431.63,209.85,430.75,210.41Z"/><path class="cls-13" d="M561.48,182c0-1.29,1.1-3.11-1-3.79-.84-.28-1.44-.51-1.1-1.45s.24-2.16,1.69-2.17c2,0,4.07,0,6.1,0,1.26,0,1.24,1.19,1.51,2,.23.66.21,1.28-.69,1.48-2.48.55-1.34,2.53-1.3,3.84.06,1.76,1.7.86,2.65,1a12.51,12.51,0,0,0,2.21,0c.93,0,1.86.06,2.77,0s2.15.47,2.16-1c0-1.27.89-3-.71-3.72-1.3-.56-1.51-1.53-1.84-2.53-1.82-5.52-3.7-11-5.31-16.62-.61-2.09-1.75-2.58-3.62-2.34s-4.18-.95-5.09,2.23c-1.63,5.68-3.65,11.24-5.53,16.84-.28.84-.29,1.92-1.4,2.2-2.44.63-1.28,2.56-1.28,3.88,0,1.58,1.49,1,2.39,1,1.75.09,3.51.07,5.26,0C560.17,183,561.53,183.43,561.48,182Zm.38-13.37c.64-2.09,1.28-4.17,2.16-7,.76,2.36,1.39,4,1.78,5.65.19.86,1.35,2.08.1,2.62a7.59,7.59,0,0,1-3.77.07C561.38,169.88,561.7,169.14,561.86,168.63Z"/><path class="cls-13" d="M184.42,183a35.25,35.25,0,0,0,4.71,0c.82,0,2.18.45,2.14-1s1.1-3.1-1-3.79c-.83-.28-1.44-.5-1.11-1.44s.24-2.17,1.69-2.18c2,0,4.07,0,6.1,0,1.26,0,1.24,1.18,1.52,2,.22.65.22,1.28-.69,1.47-2.49.55-1.34,2.53-1.3,3.84.05,1.77,1.69.87,2.64,1a12.51,12.51,0,0,0,2.21,0c.93,0,1.86.06,2.77,0s2.15.47,2.17-1c0-1.27.88-3-.71-3.73-1.3-.56-1.51-1.52-1.84-2.52-1.82-5.53-3.7-11-5.32-16.62-.6-2.09-1.73-2.6-3.6-2.35s-4.19-1-5.1,2.22c-1.63,5.68-3.66,11.24-5.53,16.84-.26.78-.3,1.93-1.14,2.1-2.71.54-1.64,2.61-1.53,4C181.65,183.79,183.38,182.87,184.42,183Zm7.19-14.3c.7-2.07,1.31-4.17,2.07-6.64A18.54,18.54,0,0,1,196,169.1c.17,1.87-1.92.78-3,1S191.1,170.2,191.61,168.67Z"/><path class="cls-13" d="M121.74,183c-1.15,0-2.29,0-3.44,0-.85,0-1.28-.3-1.34-1.16,0-.54-.19-1.08-.27-1.62a1.81,1.81,0,0,1,1.23-2c.47-.22,1.15-.85,1.09-1.17-.18-1-.14-2.35-1.55-2.43a55.69,55.69,0,0,0-6.46,0c-1.31.08-1.32,1.37-1.53,2.32s.5,1.14,1.21,1.33a1.44,1.44,0,0,1,1.2,1.72c0,.18,0,.37,0,.55-.26,2.37-.26,2.38-2.63,2.42-2,0-4,.09-6,0a1.59,1.59,0,0,1-1.09-.87,6.81,6.81,0,0,1-.36-1.88,1.89,1.89,0,0,1,1.22-2.06,3.33,3.33,0,0,0,1.46-1.6q3-8.76,5.79-17.59a2.76,2.76,0,0,1,3-2.14c1,0,2.11.07,3.16.15a2.48,2.48,0,0,1,2.21,2q1.68,5,3.33,10c.77,2.34,1.44,4.73,2.33,7a6.77,6.77,0,0,0,1.87,2.4c.85.75,1.12,1.95.62,3.76-.32,1.13-1.17.82-1.89.84-1,0-2,0-3,0Zm-7.36-20.87H114q-.8,2.4-1.58,4.78c-1,3.13-.78,3.44,2.54,3.28a2.73,2.73,0,0,0,.81-.11,1,1,0,0,0,.79-1.48Z"/><path class="cls-13" d="M411.18,183a7.15,7.15,0,0,0,1.67,0c1,0,2,.05,3,0,.82-.07,2.19.44,2.09-1-.09-1.29,1.14-3.16-1-3.77-1.12-.31-1.34-.8-1.06-1.76s.42-1.86,1.68-1.85c1.94,0,3.89,0,5.83,0,1.31,0,1.4,1,1.69,1.84.19.58.53,1.44-.4,1.6-2.75.48-1.61,2.6-1.51,3.95.13,1.86,1.88.9,2.91,1a39.7,39.7,0,0,0,5,0c.76,0,1.94.3,1.89-1s.9-3.07-.73-3.71c-1.34-.53-1.55-1.46-1.88-2.46-1.85-5.62-3.83-11.22-5.42-16.92-.71-2.55-2.36-2.15-4-2.11s-3.75-.65-4.56,2.19c-1.63,5.69-3.65,11.27-5.54,16.88-.26.76-.25,1.88-1.16,2.09-2.65.61-1.58,2.68-1.44,4C408.39,183.81,410.14,182.75,411.18,183Zm7.12-14.48c.62-2,1.28-4,2.17-6.8.72,2.22,1.28,3.78,1.71,5.37.25.92,1.26,2.11.41,2.76s-2.51.35-3.77.2C417.85,169.91,418.12,169.1,418.3,168.5Z"/><path class="cls-13" d="M328,216.47c-.28.82-.27,1.92-1.39,2.22-2.42.65-1.24,2.58-1.23,3.9,0,1.58,1.52.85,2.41,1a14.92,14.92,0,0,0,2.22,0c1,0,2,.06,3.05,0,.82-.06,2.2.47,2.12-1-.08-1.29,1.13-3.15-1-3.78-1.09-.32-1.38-.77-1.09-1.75s.4-1.87,1.66-1.87c1.95,0,3.89,0,5.84,0,1.3,0,1.42,1,1.7,1.82.19.58.54,1.46-.37,1.61-2.75.48-1.69,2.61-1.53,3.94.23,1.89,2.05.91,3.17,1a35.38,35.38,0,0,0,4.72,0c.76,0,1.9.32,1.92-1s.74-3.17-.47-3.59c-2-.69-2-2.26-2.46-3.64-1.78-5.26-3.64-10.5-5.11-15.85-.7-2.53-2.33-2.18-4-2.14s-3.76-.67-4.57,2.18C331.89,205.28,329.87,210.86,328,216.47Zm7.56-7.57c.62-2,1.27-4,2.1-6.61.84,2.63,1.51,4.61,2.1,6.62.16.53.81,1.43-.12,1.62a10.22,10.22,0,0,1-3.82,0C334.93,210.37,335.35,209.49,335.54,208.9Z"/><path class="cls-13" d="M265,197.43c-3.33-.09-6.67.13-10-.08-2.34-.15-2.92.81-2.69,2.87.11.94-.05,1.91,1.29,2s1.29,1.1,1.29,2.05c0,4.17,0,8.33,0,12.5,0,.72.13,1.66-.85,1.81-2.75.42-1.69,2.53-1.59,3.91.15,1.87,1.88.84,2.91,1a11.63,11.63,0,0,0,2.21,0c1.12,0,2.23,0,3.34,0,.83-.05,2.13.38,2.09-1.06,0-1.25.94-3.08-.85-3.65-2.47-.79-1.27-2.58-1.27-3.89,0-1.54,1.51-.88,2.41-1s1.84-.12,2.75-.25c5.23-.77,7.87-4,7.54-9.16C273.32,200.72,269.58,197.55,265,197.43Zm-2.21,11.73c-3.47-.13-1.65-2.84-2-4.43s-.18-2.91,2.13-2.72c2.79.23,4.52,1.58,4.44,3.84S265.72,209.16,262.78,209.16Z"/><path class="cls-13" d="M58.53,178.25c-2.05.36-.9,2.26-1.06,3.46-.19,1.42,1,1.29,1.9,1.29,2.31,0,4.62,0,6.93,0,.75,0,1.93.37,2-.84s.87-3.27-.59-3.76c-2.54-.85-1.71-2.65-1.48-4,.27-1.68,2-.77,3-1,.81-.16,1.66-.16,2.47-.31,4.65-.82,7.42-4.21,7.18-8.74-.21-3.79-3.79-7.24-8-7.44-3.87-.17-7.76-.06-11.64-.07-.84,0-1.85,0-1.76,1.17s-.81,3.09.77,3.39c2.27.43,1.91,1.81,1.92,3.23,0,1.76,0,3.52,0,5.27,0,2,0,4.07,0,6.11C60.18,177.17,60.13,178,58.53,178.25Zm9.58-16.81c2.88.18,4.52,1.48,4.46,3.8s-1.57,3.17-4.49,3.34c-3.18.19-1.93-2.09-2.24-3.53C66.11,163.52,65,161.25,68.11,161.44Z"/><path class="cls-13" d="M229.7,177.71c.36-.67,1.16-1.37.46-2.23-1-1.19-5-1.09-6.08.11-3,3.3-7.11,3.17-9.73-.31a9.68,9.68,0,0,1,.11-10.92c2.45-3.13,6.36-3.6,9.18-.8,1.8,1.8,3.87,1.35,5.66.93s.57-2.39.8-3.66c.29-1.62-.64-2.15-2.1-2a4.79,4.79,0,0,1-3.34-1.08,7.85,7.85,0,0,0-4.42-1.42c-7.54-.33-13.44,5.51-13.47,13.38a13.89,13.89,0,0,0,4.46,10.65C216.91,185.44,226.15,184.14,229.7,177.71Z"/><path class="cls-13" d="M548.39,177.73c.37-.65,1.18-1.35.45-2.22-1-1.21-5-1.13-6.08.08-2.34,2.54-5,3.08-7.69,1.52-3.81-2.23-4.93-8.32-2.27-12.31,2.45-3.69,5.89-3.93,10.11-.7,1.53,1.17,5.61.84,5.75-.51a9.81,9.81,0,0,0-.13-4.12c-.43-1.25-1.94-.53-3-.67a5.33,5.33,0,0,1-2.2-1.11,8.71,8.71,0,0,0-4.44-1.39c-7.53-.28-13.51,5.61-13.54,13.38a14.39,14.39,0,0,0,3.18,9.25C533.85,185.46,544.42,184.83,548.39,177.73Z"/><path class="cls-13" d="M607.28,156.84c-2-.09-4.07-.08-6.1,0-.84,0-2.13-.52-2.37.73s-.87,3.1.47,3.83c1.5.82,1,1.4.43,2.3l-2.32,3.66a29.67,29.67,0,0,1-1.72-2.79c-.52-1.11-2.17-2.13.08-3.5.82-.49.52-2.51.07-3.68s-1.64-.53-2.51-.56c-2-.06-4.08.08-6.1-.05-1.76-.1-2.58.4-2.4,2.3.13,1.29-.23,2.65,1.82,2.64.93,0,1.27,1,1.74,1.66a68.36,68.36,0,0,0,4.33,6.1c2,2.22,1.72,4.75,1.67,7.32,0,.72-.23,1.27-1.07,1.31-2.94.15-1.65,2.4-1.68,3.75,0,1.82,1.61,1.06,2.55,1.11a47.75,47.75,0,0,0,6.1,0c1.07-.08,2.92.92,2.91-1.33,0-1.44,1-3.61-2-3.55a1,1,0,0,1-1-1.11c0-2.36-.56-4.79,1.3-6.87,1.35-1.51,2.38-3.3,3.67-4.87,1-1.2,1.47-3.08,3.08-3.43,2.58-.58,1.44-2.43,1.49-3.75C609.84,156.22,608.24,156.89,607.28,156.84Z"/><path class="cls-13" d="M350.89,203.5c.09,1.26.49,2.1,1.77,1.75s3.62,1.36,4-1.38c.2-1.31.4-2.12,1.93-1.92s1.1,1.48,1.12,2.36c.05,4.07,0,8.14,0,12.21,0,1.15.05,2-1.58,2.31-2.09.35-.93,2.24-1.1,3.45-.19,1.39.95,1.31,1.88,1.31,2.13,0,4.27.11,6.38,0,1.09-.08,2.94.92,3-1.23.06-1.4,1.06-3.55-1.83-3.69-1,0-.85-1.07-.85-1.78,0-4.34,0-8.69,0-13,0-1.2.25-1.91,1.68-1.9,1.25,0,2,.32,1.82,1.7s.6,1.65,1.83,1.71c4,.19,4,.24,4-3.76a13.12,13.12,0,0,1,0-1.66c.24-1.89-.44-2.64-2.44-2.54-3.14.16-6.29,0-9.43,0h-6.67C350.43,197.4,350.46,197.4,350.89,203.5Z"/><path class="cls-13" d="M358.46,164.66c1.35-.35,3.63,1.38,3.92-1.48.12-1.18.27-1.93,1.71-1.84,1.64.1,1.32,1.27,1.32,2.21,0,4.16,0,8.33,0,12.49,0,1,0,1.92-1.45,2.18-2.11.37-1.09,2.2-1.21,3.41-.17,1.6,1.11,1.37,2.1,1.37,2.13,0,4.26.1,6.38,0,1-.07,2.75.81,2.77-1.18,0-1.37,1.17-3.57-1.76-3.71-1.06-.05-.91-1-.92-1.7,0-4.44,0-8.88,0-13.32,0-1.07.22-1.76,1.52-1.73,1.12,0,2,.08,2,1.58-.05.83,0,1.56,1.17,1.8,3.63.75,4.68,0,4.68-3.6a17.92,17.92,0,0,1,0-1.94c.19-1.76-.43-2.48-2.32-2.4-3.23.15-6.47,0-9.71,0h-6.38c-6,0-6,0-5.68,5.94C356.65,164.1,357,165,358.46,164.66Z"/><path class="cls-13" d="M454.74,156.76c-3,.21-6.1.05-9.15.05h-6.38c-5.94,0-5.89,0-5.58,6,.08,1.48.64,2.14,2,1.82s3.48,1.27,3.63-1.48c.08-1.48.6-1.93,2-1.86,1.69.09,1.26,1.3,1.27,2.22,0,4.16,0,8.33,0,12.49,0,1,.18,2-1.39,2.16-2.42.29-1.1,2.3-1.29,3.54-.23,1.43,1,1.25,1.89,1.26,2.13,0,4.26.1,6.38,0,1-.07,2.75.82,2.78-1.18,0-1.39,1.11-3.55-1.78-3.73-1-.06-.9-1-.9-1.74,0-4.35,0-8.69,0-13,0-1.14.11-2,1.6-1.95,1.18,0,2.32,0,2.14,1.66-.14,1.36.55,1.68,1.8,1.74,3.82.2,3.82.25,3.82-3.6a9.2,9.2,0,0,1,0-1.39C457.9,157.52,457.16,156.59,454.74,156.76Z"/><path class="cls-13" d="M80.55,178.27c-2,.35-.82,2.28-1,3.5-.19,1.46,1,1.22,1.92,1.23,2.77,0,5.54,0,8.32,0h3.6c7.63,0,7.55,0,7.21-7.75-.09-2.21-1.38-2-2.76-2s-3.31-.63-3,1.89-1,3.26-3.3,3a8.37,8.37,0,0,0-1.66,0c-1.44.11-2-.54-1.93-2,.06-4.16,0-8.32,0-12.48,0-1.08,0-1.94,1.49-2.13,2.27-.3,1-2.17,1.23-3.34.23-1.56-1-1.43-2-1.43H81.4c-.94,0-2.08-.08-1.84,1.32.2,1.19-1,3.08,1.1,3.41,1.63.25,1.61,1.15,1.61,2.31q0,6,0,11.93C82.27,177,82.33,178,80.55,178.27Z"/><path class="cls-13" d="M514.09,178c-2.89.17-1.86,2.32-1.8,3.71.1,2.14,2,1,3,1.22a12.93,12.93,0,0,0,2.49,0,20.68,20.68,0,0,1,3.05,0c2.49.37,3-.86,2.78-3-.11-1-.11-1.88-1.43-1.86s-1.36-.94-1.36-1.9c0-4.25,0-8.51,0-12.76,0-.7-.16-1.71.86-1.76,2.89-.14,1.9-2.29,1.81-3.68-.14-2.06-2-1.11-3.06-1.2a34.21,34.21,0,0,0-5.26,0c-1,.08-2.74-.79-2.9,1.08-.13,1.41-1,3.51,1.74,3.8,1,.1.87,1.06.87,1.77q0,6.38,0,12.76C514.92,177,515.09,178,514.09,178Z"/><path class="cls-13" d="M379.91,223.57c1,.09,2,0,3,0a25.84,25.84,0,0,0,3.05,0c.94-.12,2.57.69,2.52-1.15,0-1.37,1.23-3.58-1.72-3.74-1.26-.08-.95-1.17-1-1.93,0-4.16,0-8.33,0-12.49,0-1.08,0-1.94,1.48-2.12,2.27-.28,1.08-2.16,1.25-3.33.23-1.6-1.06-1.4-2.05-1.4-2.13,0-4.26-.08-6.38,0-1,0-2.58-.68-2.61,1.07,0,1.37-1.22,3.53,1.67,3.8,1.16.11.95,1.21.95,2q0,6.24,0,12.49c0,.81.16,1.8-1.06,1.9-2.73.23-1.51,2.3-1.6,3.6C377.35,224.15,378.94,223.49,379.91,223.57Z"/><path class="cls-13" d="M236.42,178.05c-3,.26-1.89,2.57-1.75,4,.18,1.78,1.93.76,3,.95a13.78,13.78,0,0,0,2.49,0H244c.86,0,1.82,0,1.66-1.22s.82-3.18-.73-3.4c-2.53-.37-2-1.92-2-3.38,0-3.7,0-7.4,0-11.1,0-1.12-.16-2.15,1.52-2.37,2.24-.29,1-2.19,1.21-3.37.23-1.38-.88-1.35-1.83-1.35-2.13,0-4.27-.09-6.38,0-1,.07-2.75-.81-2.84,1.12-.07,1.38-1.14,3.53,1.73,3.76,1,.07.9,1,.9,1.76q0,6.39,0,12.77C237.27,177,237.41,178,236.42,178.05Z"/><path class="cls-13" d="M261.19,149.28c-5.39-1.08-6.19-.64-9.14,4.92C264.88,157.38,260.88,149.53,261.19,149.28Z"/><path class="cls-13" d="M470.83,149.3c-5.26-1.15-5.93-.79-9.2,4.83C474.08,157.69,470.87,149.26,470.83,149.3Z"/><path class="cls-13" d="M587.92,739.89a42.81,42.81,0,0,0-11.63-.74c-10,.66-19.79,2.73-29.66,4.26.07,1.62.14,3.24.2,4.86,2.22.18,4.44.1,6.67.39,9.41,1.22,18.86,2.23,28.35.87,4.06-.58,8.33-1,10.53-5.36C592,741.59,590.36,740.4,587.92,739.89Z"/><path class="cls-2" d="M241.69,630.48c.15.92.22,1.92,1.53,1.78,1-.1,2.32.63,2.94-.56.45-.85,0-1.7-.55-2.66-1-1.67-2.58-3.42-.32-5.71,1.69-1.71.33-4.88-2.08-5.92-1.73-.76-3.58-.62-5.4-.66-1.16,0-2.33-.13-3.49-.06a1.61,1.61,0,0,0-1.32,2.62c1.64,2.41,1.58,7.78-.15,10.17a2.11,2.11,0,0,0-.33,1.88c.24.88,1,.66,1.67.71s1.16,0,1.74,0c3.35.06,3.47-.16,2.12-3.21-.4-.89-.72-2.09.44-2.59a1.83,1.83,0,0,1,2.59,1.25A20,20,0,0,1,241.69,630.48Zm-2.07-7.22c-1.18,0-2.11-.09-2-1.67.06-1.23.2-2.2,1.3-1.94,1.74.16,3.1.18,3.14,1.9S240.84,623.25,239.62,623.26Z"/><path class="cls-2" d="M264.33,633c.49.46,1.36-.36,1.71-1.07a1.64,1.64,0,0,0-.45-2,1.29,1.29,0,0,0-1.8-.28c-2.47,2-3.07-.09-3.65-1.77-.94-2.75-1.76-5.54-2.56-8.34-.4-1.43-.8-2.47-2.72-2.51s-2.38.92-2.87,2.36c-1.07,3.14-2.13,6.3-3.44,9.34-.43,1-1.77,1.67-1.17,3s1.93.47,2.73.74c3.52.08,3.59,0,2-3.08-.32-.62-.3-1.26.28-1.52a5.66,5.66,0,0,1,4.11,0,1.15,1.15,0,0,1,.37,1.7c-1.65,2.74-1.49,2.83,1.6,3.15C260.4,632.88,262.4,631.27,264.33,633Zm-8.95-8.17a2,2,0,0,1-1.79,0c-.72-1.5.47-2.62,1.06-3.9C255,622.27,256.39,623.42,255.38,624.86Z"/><path class="cls-2" d="M209.55,616.58a17.62,17.62,0,0,0-6.92-.54c-1.7.09-1.7,1.51-1,2.57,2.05,3.1,1.23,6.55.4,9.45-1,3.45-1.61,3.27,1.95,3.35l1.25,0c.58,0,1.16,0,1.75,0,4,0,7-2.56,7.67-6.74A7.54,7.54,0,0,0,209.55,616.58Zm-.5,11.48a2.64,2.64,0,0,1-2.59.3c-.86-.4-.49-1.3-.52-2,0-.91,0-1.81.05-2.72s0-1.66.07-2.48-.29-1.6.55-2a2.56,2.56,0,0,1,2.56.47C211.74,621.37,211.65,626.38,209.05,628.06Z"/><path class="cls-2" d="M230.82,624.4a7.74,7.74,0,0,0-7.43-8.06c-4.19-.07-7.31,3.15-7.42,7.66-.1,4.27,3.15,8.07,7,8.23S230.8,628.5,230.82,624.4Zm-11.37-.16c.05-2.81,1.79-4.89,4-4.79s3.66,2,3.6,4.81-1.58,4.64-3.8,4.58S219.41,626.94,219.45,624.24Z"/><path class="cls-2" d="M110.65,628.53c.3,1.29,1.47.73,2.3.86a9.18,9.18,0,0,0,1.74,0c.62,0,1.46.26,1.68-.62s.43-1.59-.47-2.24c-1.43-1-.49-1.76.54-2a9.21,9.21,0,0,1,3.22.1c.79.12,1,.81.76,1.55-1.06,3.31-1.07,3.31,2.21,3.37.79-.22,2,.61,2.59-.58s-.22-2-1.06-2.75a3.6,3.6,0,0,1-.64-1.6c-.81-2.7-1.63-5.4-2.39-8.12-.4-1.45-.83-2.5-2.75-2.54s-2.47.8-3,2.3c-.87,2.68-1.85,5.33-2.82,8-.26.69-.47,1.63-1,1.93A1.84,1.84,0,0,0,110.65,628.53Zm7.4-10.65c.52,1.29,1.61,2.48.76,3.86-.3.5-1.53.49-1.77,0C116.41,620.28,117.69,619.19,118.05,617.88Z"/><path class="cls-2" d="M199.13,627.92c-.44-.34-.49-1.2-.68-1.83-.86-2.78-1.77-5.53-2.52-8.33a2.34,2.34,0,0,0-2.59-2,2.39,2.39,0,0,0-2.74,1.85c-1.13,3.37-2.31,6.75-3.74,10-.43,1-1.87,1.58-1.18,2.89.57,1.1,1.82.39,2.62.62,3.53.07,3.62-.05,2.36-3.13-.46-1.15-.1-1.76,1.16-1.77.66,0,1.32,0,2,0,1.64,0,2.19.7,1.09,2.12a2.2,2.2,0,0,0-.25,2.53c.26.53,4.92.68,5.27.17C200.8,629.74,200.28,628.81,199.13,627.92Zm-5.1-4.45a3.15,3.15,0,0,1-1.92,0c-.67-.21-.26-.82-.14-1.27a6,6,0,0,1,1.3-3c.34,1.18.62,2,.82,2.92C194.2,622.6,194.65,623.24,194,623.47Z"/><path class="cls-2" d="M185.08,619.7c1.08-2.32-.06-4.12-2.65-4.18l-4.23-.1-4-.09c-3-.06-3.22.2-3,3.24.05.66,0,1.47.87,1.53s1.87.55,2.45-.53c.29-.54.2-1.51,1.2-1.08.77.32.47,1.14.5,1.77a9.18,9.18,0,0,1,0,1.74c-.32,2.26.68,4.71-1.47,6.72-.75.71-.33,2.1,1.32,2.08,1.16,0,2.32.07,3.48.06.63,0,1.45.23,1.67-.65s.45-1.71-.52-2.2-.82-1.16-.8-1.9c0-2,.07-4,.14-6,0-.62-.16-1.44.75-1.61s.76.61,1.05,1.09C182.52,620.74,184.6,620.75,185.08,619.7Z"/><path class="cls-2" d="M139.49,625.6a2.26,2.26,0,0,0-3-.29c-.34.24-.6.58-.95.81a3.19,3.19,0,0,1-4.65-.58,5.12,5.12,0,0,1-.08-6.63c1.45-1.68,3.07-1.71,5.64,0a2.58,2.58,0,0,0,2.81.27c.87-.54.64-1.71.39-2.54-.35-1.16-1.7-.7-2.54-1.21-5.94-3.57-11.06,1.89-11,6.58a7.91,7.91,0,0,0,4.9,7.69,6.92,6.92,0,0,0,7.72-1.85C139.32,627.23,140.39,626.44,139.49,625.6Z"/><path class="cls-2" d="M105.19,620.22c-.84,0-1.5-.2-1.44-1.24,0-.71-.16-1.69.9-1.74s2.29-.62,2.61,1c.27,1.36,1.35,1,2.18,1a1.09,1.09,0,0,0,1.24-.94c.93-3.09,0-4.42-3.18-4.49l-2.75-.06c-1.32,0-2.65-.09-4-.08-1.7,0-2.88,1.7-1.76,2.65,1.89,1.61,1.21,3.46,1.14,5.21s.75,3.73-1.35,5.17c-.66.46-.75,2.32,1.2,2.36,1.08,0,2.16.08,3.24.06.62,0,1.46.27,1.69-.62a2,2,0,0,0-.47-2.24c-1.51-1.52-1.14-2.79.85-3.06,1.09-.15,1.37-.61,1.41-1.59S106.17,620.21,105.19,620.22Z"/><path class="cls-2" d="M150.7,627.9c-.7.5-.74,2.31,1.19,2.36l4.49.1,2.5.06c3.85.08,3.88,0,3.68-3.8-.05-.92-.12-1.69-1.29-1.68-.88,0-2-.31-2.09,1.08-.17,1.84-1.49,1.45-2.6,1.37-1.41-.1-1.07-1.23-1.08-2.08a36,36,0,0,1,.08-3.75c.14-1.45-.47-3,1.33-4.17a1.39,1.39,0,0,0-1-2.44c-1.24-.09-2.49-.08-3.74-.09a1.35,1.35,0,0,0-1.26,2.19c2.19,1.84,1.08,4.11,1.15,6.17C152.08,624.82,152.56,626.57,150.7,627.9Z"/><path class="cls-2" d="M148.87,615.11c-.38-.56-5.53-.64-6-.12a1.75,1.75,0,0,0-.2,2.28c1.61,2.52,1.6,7.92-.1,10.16a2.17,2.17,0,0,0-.39,1.87c.2.89,1,.74,1.61.78s1.16,0,1.74,0,1.17,0,1.75,0,1.25.15,1.49-.56a2.14,2.14,0,0,0-.19-2.12c-1.67-2.28-1.48-7.62.29-10.05A1.92,1.92,0,0,0,148.87,615.11Z"/><path class="cls-2" d="M170.33,630c.19-.71.43-1.68-.33-2.05-1.24-.59-1.12-1.6-1-2.52.49-2.67-1.08-5.67,1.54-8.06.65-.59.34-2.15-1.34-2.12-.58,0-1.16,0-1.74,0l-1.74,0c-1.91-.06-2,1.82-1.36,2.29,2.12,1.59,1.16,3.61,1.14,5.41s.72,3.86-1.36,5.4c-.69.5-.67,2.31,1.26,2.31,1.07,0,2.15.07,3.22.06C169.29,630.61,170.09,630.86,170.33,630Z"/><path class="cls-2" d="M266.4,623.63a1.9,1.9,0,0,0-1.88-1.79,1.47,1.47,0,0,0-1.58,1.56,1.53,1.53,0,0,0,1.51,1.86A1.65,1.65,0,0,0,266.4,623.63Z"/><path class="cls-11" d="M433.15,683c-.22.49-.49.56-.82.09l.25-.3a.82.82,0,0,1,.46.1Z"/><path class="cls-11" d="M433,682.9l.39-.26c-.1.12-.19.25-.28.37Z"/><polygon class="cls-11" points="436.64 679.91 436.84 679.84 436.82 680.02 436.64 679.91"/><path class="cls-2" d="M238.89,619.65c1.74.16,3.1.18,3.14,1.9s-1.19,1.7-2.41,1.71-2.11-.09-2-1.67C237.65,620.36,237.79,619.39,238.89,619.65Z"/><path class="cls-2" d="M254.65,620.93c.36,1.34,1.74,2.49.73,3.93a2,2,0,0,1-1.79,0C252.87,623.33,254.06,622.21,254.65,620.93Z"/><path class="cls-2" d="M206,623.64c0-.83,0-1.66.07-2.48s-.29-1.6.55-2a2.56,2.56,0,0,1,2.56.47c2.57,1.74,2.48,6.75-.12,8.43a2.64,2.64,0,0,1-2.59.3c-.86-.4-.49-1.3-.52-2C205.91,625.45,206,624.55,206,623.64Z"/><path class="cls-2" d="M227.06,624.26c-.06,2.82-1.58,4.64-3.8,4.58s-3.85-1.9-3.81-4.6,1.79-4.89,4-4.79S227.12,621.47,227.06,624.26Z"/><path class="cls-2" d="M118.05,617.88c.52,1.29,1.61,2.48.76,3.86-.3.5-1.53.49-1.77,0C116.41,620.28,117.69,619.19,118.05,617.88Z"/><path class="cls-2" d="M193.27,619.24c.34,1.18.62,2,.82,2.92.11.44.56,1.08-.06,1.31a3.15,3.15,0,0,1-1.92,0c-.67-.21-.26-.82-.14-1.27A6,6,0,0,1,193.27,619.24Z"/><path class="cls-14" d="M175.75,666.27c-.21-1.65,0-2.73,2-2.52,1.74.19,3.5.17,3.39,2.58s-1.86,2.15-3.45,2.28C175.78,668.76,175.37,667.76,175.75,666.27Z"/><path class="cls-14" d="M163,663.41c.5,1.4.79,2.16,1,2.94,1.33,4.12,1.25,4.2-3.29,3.31Z"/><path class="cls-14" d="M116.25,638.94c.64,1.92,1.11,3.07,1.39,4.26.17.7,1.14,1.72,0,2.14a6.11,6.11,0,0,1-3.17-.06c-.63-.12-.33-.83-.17-1.26C114.87,642.55,115.43,641.1,116.25,638.94Z"/><path class="cls-14" d="M216.05,664.71c.6,1.71,1,2.77,1.35,3.85.84,2.62.49,3-2.28,2.62-1.28-.15-1.28-.72-.91-1.65.15-.38.27-.78.42-1.17Z"/><path class="cls-14" d="M177.28,640.18c.59,1.81,1,3,1.33,4.16.22.75,1,1.71.21,2.26s-2.08.26-3.13.15c-.73-.08-.6-.66-.43-1.14C175.84,644,176.45,642.4,177.28,640.18Z"/><path class="cls-14" d="M190.47,669.74a23.09,23.09,0,0,0,0-3.22c-.27-2.27.83-2.69,2.76-2.37a5.73,5.73,0,0,1,4.57,6.42c-.39,3.38-3,5.52-6.08,5.2-1.06-.11-1.45-.53-1.4-1.56C190.43,672.73,190.44,671.23,190.47,669.74Z"/><path class="cls-15" d="M456,382.34a2.35,2.35,0,0,1,2.7,2.64c0,1.74-.65,2.83-2.53,2.73s-2.69-1.51-2.81-3.15S454.51,382.33,456,382.34Z"/><path class="cls-13" d="M122.49,623.94l.22-10-2.37-.05.06-2.67,5.38.11L125.5,624l2.37.06-.06,2.67-7.75-.17.06-2.68Zm0-17.87a1.79,1.79,0,0,1,.54-1.26,1.74,1.74,0,0,1,1.32-.51,1.82,1.82,0,0,1,1.27.56,1.7,1.7,0,0,1,.51,1.29,1.74,1.74,0,0,1-.57,1.28,1.78,1.78,0,0,1-1.29.5,1.83,1.83,0,0,1-1.78-1.86Z"/><path class="cls-13" d="M132.12,624.15l.22-10-2.55-.06.06-2.68,5.55.13,0,1.93a8.59,8.59,0,0,1,5.37-2,3.62,3.62,0,0,1,3.57,2.47,9.19,9.19,0,0,1,5.63-2.27,4.24,4.24,0,0,1,2.43.71,3.23,3.23,0,0,1,1.25,1.69,9.91,9.91,0,0,1,.27,3l-.17,7.6,2.67.06,0,2.67-5.69-.12.22-9.74a10.11,10.11,0,0,0-.08-1.88,1.46,1.46,0,0,0-.58-.91,1.88,1.88,0,0,0-1.16-.39,7.36,7.36,0,0,0-4.43,1.89l-.18,8.21,2.63.06-.06,2.68-5.63-.13.22-10a4.2,4.2,0,0,0-.39-2.19,1.62,1.62,0,0,0-1.46-.7q-1.71,0-4.43,1.88l-.19,8.22,2.7.06-.06,2.67-8.44-.19.06-2.67Z"/><path class="cls-13" d="M159.45,631.63l.37-16.85-2.58,0,.06-2.68,5.59.12-.06,2.41a6.91,6.91,0,0,1,5.51-2.52,7.06,7.06,0,0,1,5.29,2.33,8,8,0,0,1,2,5.81,7.69,7.69,0,0,1-2.43,5.82,7.38,7.38,0,0,1-10.6-.42l-.13,6.1,3,.06-.06,2.68-8.78-.2,0-2.67Zm3.22-11.57a5.81,5.81,0,0,0,.46,2.43,4.66,4.66,0,0,0,1.62,2,4.6,4.6,0,0,0,2.66.84A4.76,4.76,0,0,0,171,624a5.48,5.48,0,0,0,1.49-3.93,5.05,5.05,0,0,0-1.38-3.86,4.72,4.72,0,0,0-3.31-1.45,4.82,4.82,0,0,0-3.54,1.42A5.28,5.28,0,0,0,162.67,620.06Z"/><path class="cls-13" d="M193.64,625.51l-.06,2.68-5.26-.12,0-1.87a6.85,6.85,0,0,1-4.92,2,5.31,5.31,0,0,1-3.6-1.44,4.67,4.67,0,0,1,.25-7,5.85,5.85,0,0,1,4-1.33,7.68,7.68,0,0,1,4.13,1.39l0-1.52a5.76,5.76,0,0,0-.19-1.8,2.24,2.24,0,0,0-1-1.17,4,4,0,0,0-2.12-.55,3.47,3.47,0,0,0-3.31,1.73l-2.87-.82c1.33-2.36,3.57-3.5,6.7-3.43a8.43,8.43,0,0,1,3,.53,4.32,4.32,0,0,1,1.85,1.24,4,4,0,0,1,.8,1.61,12.35,12.35,0,0,1,.15,2.73l-.15,7.09Zm-5.49-3.15a6.4,6.4,0,0,0-3.91-1.6,3.08,3.08,0,0,0-2.11.68,2.37,2.37,0,0,0-.88,1.86,2.45,2.45,0,0,0,.7,1.82,2.71,2.71,0,0,0,2,.78,6,6,0,0,0,4.18-1.75Z"/><path class="cls-13" d="M197.85,625.6l.22-10-3.09-.07.06-2.67,5.49.12-.07,3.45a6,6,0,0,1,1.46-2.2,4.35,4.35,0,0,1,1.93-1.13,10.44,10.44,0,0,1,2.75-.23l.79,0-.06,3h-.6a9.52,9.52,0,0,0-3.44.38,3.15,3.15,0,0,0-1.72,1.63,12,12,0,0,0-.64,4.34l-.07,3.37,3.34.07-.06,2.68-9.44-.21.06-2.67Z"/><path class="cls-13" d="M209.26,615.88l.06-2.68,2,0,.05-2.36,3.07-2.69-.12,5.11,2.84.06-.06,2.68-2.84-.06-.16,7.44a6.76,6.76,0,0,0,.15,2.21c.12.28.45.43,1,.44a4.48,4.48,0,0,0,1.65-.28l-.06,2.74a6.73,6.73,0,0,1-2.32.36,3.75,3.75,0,0,1-2.22-.66,2.56,2.56,0,0,1-1-1.55,15.2,15.2,0,0,1-.15-3.17l.17-7.6Z"/><path class="cls-13" d="M235.32,622.2l-12.89-.28a5.54,5.54,0,0,0,1.61,3.47,4.93,4.93,0,0,0,3.53,1.39,5.83,5.83,0,0,0,5-2.42l2.63,1.23a8,8,0,0,1-3.43,2.91,10.13,10.13,0,0,1-4.36.88,8.76,8.76,0,0,1-6-2.33,7.5,7.5,0,0,1-2.37-6,7.65,7.65,0,0,1,2.56-5.75,7.94,7.94,0,0,1,5.63-2.16,8.26,8.26,0,0,1,5.55,2.35Q235.32,617.8,235.32,622.2ZM232.26,620a5.42,5.42,0,0,0-1.61-3,4.65,4.65,0,0,0-3.31-1.38,4.41,4.41,0,0,0-3.11,1.11,5,5,0,0,0-1.64,3Z"/><path class="cls-16" d="M123.33,103.5a1.64,1.64,0,0,1-.34.86.94.94,0,0,1-.76.52c-3.69,0-6.89.06-9.58.18a45.7,45.7,0,0,0-7.16.83,22.21,22.21,0,0,1-1.36,3.54c-.33.73-.61,1.38-.85,1.95s-.43,1.08-.58,1.51a1.55,1.55,0,0,0,1.54.73c.23,0,.76-.06,1.59-.17s2-.28,3.43-.51c2.89-.47,4.61-.7,5.17-.7a15.86,15.86,0,0,1,3.62.36c.4.07.74.39,1,1a3.25,3.25,0,0,1,.37,1.4c0,.43-.31.79-.94,1.07a4.84,4.84,0,0,1-1.92.41,4.93,4.93,0,0,1-1.66-.36,5.52,5.52,0,0,0-2-.39,27.62,27.62,0,0,0-5.39.49,27.77,27.77,0,0,1-4.91.39H101.3a10.44,10.44,0,0,1-.79,1.43c-.45.83-.82,1.57-1.09,2.21a4.11,4.11,0,0,0-.42,1.53,4.94,4.94,0,0,0,.08.7,4.82,4.82,0,0,1,.07.73,2.76,2.76,0,0,1-.75,1.74,2.48,2.48,0,0,1-2,.86,2,2,0,0,1-1.48-.93,2.9,2.9,0,0,1-.67-1.51,7.64,7.64,0,0,1,.22-1.93,19.08,19.08,0,0,1,.72-1.93,13.8,13.8,0,0,0,.68-1.94q-2,.08-6.15.54l-3.41.34-2,.18q-3.36,7.89-5.47,7.88a1.81,1.81,0,0,1-1.17-.35,1,1,0,0,1-.45-.82,11.18,11.18,0,0,1,2.64-6.71l-2.12,0H74.41l-1.25,0-1.24,0-.91,0a21.75,21.75,0,0,1-4.22-.32,1,1,0,0,1-.87-1.11c0-.56.62-1.07,1.85-1.54A9.25,9.25,0,0,1,71,115c.66,0,1.41,0,2.27,0s1.81.07,2.86.14,2,.12,2.79.14,1.49,0,2,0a9.68,9.68,0,0,0,1.28-2.52l1.06-3a4.94,4.94,0,0,1,1.24-2,4.58,4.58,0,0,0-.49,0h-.67c-.89,0-1.83.05-2.85.15l-3.09.33-3.1.32a26.87,26.87,0,0,1-2.88.16c-3.07,0-4.6-.44-4.6-1.33,0-.65.56-1.08,1.69-1.27L70,106l1.42-.21,1.49-.19,1.72-.2c.77-.08,1.57-.18,2.39-.28s1.67-.21,2.55-.31,1.69-.19,2.43-.25,1.43-.1,2-.12a7.39,7.39,0,0,0,2.61-2.14,25.21,25.21,0,0,0,2-3.27c.35-.64.68-1.2,1-1.67a5.14,5.14,0,0,1,1-1.17,3.74,3.74,0,0,1,1.19-.68,4.45,4.45,0,0,1,1.47-.22q1,0,1,1.17t-1.77,3.9a16.78,16.78,0,0,0-2.11,3.77c1-.09,2.08-.18,3.16-.29l3.44-.31,5.54-.47a5.92,5.92,0,0,0,1-2c.38-1.06.72-2.13,1-3.23s.6-2.11.9-3.07A15.33,15.33,0,0,1,107,91.25a3.21,3.21,0,0,1,1-.66,3.3,3.3,0,0,1,1.38-.3,2,2,0,0,1,1.4.48,1.48,1.48,0,0,1,.52,1.13A6.53,6.53,0,0,1,110.24,95a26,26,0,0,0-1.36,2.42q-.18.45-.45,1c-.18.41-.38.89-.6,1.45s-.4,1-.59,1.51-.37.86-.54,1.24l1.64-.13,2.43-.2,2.6-.25c.78-.08,1.48-.14,2.11-.17s1.28-.07,2-.09,1.36,0,2.09,0,1.18,0,1.66,0a4.09,4.09,0,0,1,1.19.24,1.44,1.44,0,0,1,.71.53A1.52,1.52,0,0,1,123.33,103.5Zm-22.25,2.68c-1.36.07-2.88.17-4.57.31s-3,.27-4.15.39l-1.79.24c-.62.08-1.26.2-1.94.33A29.28,29.28,0,0,0,85.46,115l4.15-.21c1.1-.05,1.93-.08,2.49-.08a17.29,17.29,0,0,0,2.94-.31,15.21,15.21,0,0,0,2.87-.75q.15-.28.39-.81c.17-.35.37-.79.62-1.33s.39-.84.57-1.19.33-.64.45-.89a16.56,16.56,0,0,0,.7-1.59A8.46,8.46,0,0,0,101.08,106.18Z"/><path class="cls-16" d="M176.28,105.89a1.63,1.63,0,0,1-.76,1.47,9.06,9.06,0,0,1-1.73.9c-.83.26-1.75.49-2.77.7s-2.06.4-3.13.56-2.15.31-3.23.42-2.11.2-3.09.27l-3.36.21-3.43.22c-1.11.08-2.13.17-3.07.27a17.5,17.5,0,0,0-2.29.39q-.78,2.37-1.67,4.51a37.58,37.58,0,0,0-1.49,4.28c-.1.33-.24.83-.4,1.48s-.32,1.35-.47,2.07-.28,1.4-.4,2a9.26,9.26,0,0,0-.17,1.37,2.29,2.29,0,0,0,.49,1.59,4.13,4.13,0,0,0,1.08.86l1.07.61a.93.93,0,0,1,.49.86c0,.24-.17.48-.51.7a5.33,5.33,0,0,1-1.22.6,9,9,0,0,1-1.53.41,8.8,8.8,0,0,1-1.41.14,4.41,4.41,0,0,1-2-.42,4.75,4.75,0,0,1-1.48-1.08,5,5,0,0,1-.94-1.52,4.68,4.68,0,0,1-.34-1.77,12,12,0,0,1,.3-2.56c.2-.91.46-1.84.76-2.79s.62-1.93,1-2.93.66-2,1-3l.4-1.28c.14-.45.26-.86.37-1.25s.21-.72.29-1a3.41,3.41,0,0,0,.11-.46.69.69,0,0,0-.43-.64,2.25,2.25,0,0,0-1-.22c-.3,0-.75,0-1.36,0s-1.24.08-1.9.13l-1.91.13c-.6,0-1,.05-1.32.05a18.7,18.7,0,0,1-2.3-.12,4.44,4.44,0,0,1-1.53-.42,2,2,0,0,1-.86-.88,3.15,3.15,0,0,1-.29-1.44c0-.24.17-.43.49-.57a4.59,4.59,0,0,1,1.19-.3,11.64,11.64,0,0,1,1.49-.1l1.4,0c.32,0,.86,0,1.6-.06l2.34-.15,2.34-.14c.74,0,1.27-.06,1.6-.06l.53,0a2.4,2.4,0,0,0,.62-.14,1.68,1.68,0,0,0,.59-.39,2.41,2.41,0,0,0,.45-.77c.17-.54.39-1.17.64-1.89s.51-1.45.77-2.21.52-1.48.78-2.18l.64-1.81a11,11,0,0,0,.58-1.56c.16-.55.32-1.11.45-1.66s.3-1.09.48-1.61a6.48,6.48,0,0,1,.67-1.43A2.9,2.9,0,0,1,152.1,91c1.86,0,2.79.72,2.79,2.14a7.08,7.08,0,0,1-.83,3c-1.2,2.63-2.1,4.81-2.67,6.51a13.71,13.71,0,0,0-.87,3.45c0,.64.46,1,1.39,1,1.13,0,2.2,0,3.19,0s2-.07,3-.13,2.09-.13,3.22-.22l3.81-.29c1-.08,2-.19,2.89-.31l2.54-.35c.78-.11,1.47-.22,2.08-.32a14.47,14.47,0,0,1,1.51-.21c.27,0,.54,0,.81-.08a2.61,2.61,0,0,1,.68,0,.75.75,0,0,1,.45.2A.8.8,0,0,1,176.28,105.89Z"/><path class="cls-16" d="M221.23,107.14a4.82,4.82,0,0,1-.54,1.3A26.33,26.33,0,0,1,219.1,111c-.69,1-1.53,2.13-2.53,3.34a36.49,36.49,0,0,1-3.33,3.54,43.91,43.91,0,0,1-4.49,3.72,38.78,38.78,0,0,1-4.25,2.64,22.57,22.57,0,0,1-3.71,1.58,9.91,9.91,0,0,1-2.94.54,11.42,11.42,0,0,1-3.36-.41,5.11,5.11,0,0,1-2.11-1.22,6.17,6.17,0,0,1-1.34-2.08,30.34,30.34,0,0,1-1-3h-.53a47.44,47.44,0,0,1-3.45,3.29,31.16,31.16,0,0,1-3.88,2.91A22.79,22.79,0,0,1,178,128a11.75,11.75,0,0,1-4.21.8,10.57,10.57,0,0,1-2.3-.27,7.67,7.67,0,0,1-2.22-.87,5.65,5.65,0,0,1-1.7-1.52,3.68,3.68,0,0,1-.68-2.22,10,10,0,0,1,.41-2.62,22.89,22.89,0,0,1,1.14-3.07,38,38,0,0,1,3.6-6.3,31.6,31.6,0,0,1,2.09-2.64,12.82,12.82,0,0,1,2-1.89,25.93,25.93,0,0,1,6-3.25,28.21,28.21,0,0,1,4-1.16,21.32,21.32,0,0,1,4.45-.45,4.14,4.14,0,0,1,2.83.84,4.69,4.69,0,0,1,1.32,2.57.83.83,0,0,0,.29.36l.52.47a5,5,0,0,1,.51.53.88.88,0,0,1,.23.56,2.81,2.81,0,0,1-.26,1c-.18.41-.38.86-.59,1.38a15.28,15.28,0,0,0-.58,1.66,6.54,6.54,0,0,0-.27,1.89c0,.9,0,1.86,0,2.88a10.76,10.76,0,0,0,.43,2.82,4.89,4.89,0,0,0,1.32,2.15,3.86,3.86,0,0,0,2.7.86,6,6,0,0,0,2.17-.52,21.15,21.15,0,0,0,2.79-1.46,34.52,34.52,0,0,0,3.21-2.24c1.12-.86,2.27-1.82,3.45-2.86a34.78,34.78,0,0,0,3.54-3.55q1.52-1.75,2.64-3.12c.76-.91,1.4-1.64,1.93-2.21a2.12,2.12,0,0,1,1.35-.84h0c.43,0,.71.1.83.26a.88.88,0,0,1,.19.6v.26A1,1,0,0,1,221.23,107.14Zm-30.66,1.2a1,1,0,0,0-.28-.59,4.13,4.13,0,0,0-.72-.62,4.87,4.87,0,0,0-1-.51,2.71,2.71,0,0,0-1-.21,8.72,8.72,0,0,0-2.17.26,11.45,11.45,0,0,0-1.87.67,10,10,0,0,0-1.6.92,12.32,12.32,0,0,0-1.3,1,24,24,0,0,0-2.77,2.93,31.26,31.26,0,0,0-2.57,3.62,25.36,25.36,0,0,0-1.89,3.75,9,9,0,0,0-.73,3.28,1.47,1.47,0,0,0,.94,1.24,5.21,5.21,0,0,0,2.53.52,5.47,5.47,0,0,0,2.17-.56A17.06,17.06,0,0,0,181,122.6a26.61,26.61,0,0,0,2.71-2.09,19.82,19.82,0,0,0,2.36-2.42,29.87,29.87,0,0,0,3.21-4.72A10.51,10.51,0,0,0,190.57,108.34Z"/><path class="cls-16" d="M256.68,111.41a3,3,0,0,1-.73,1.35,23.85,23.85,0,0,1-2,2.27q-1.31,1.32-3.09,2.88T247,121q-2.07,1.58-4.37,3a44.85,44.85,0,0,1-4.64,2.6,30,30,0,0,1-4.62,1.81,15.46,15.46,0,0,1-4.36.68,12.45,12.45,0,0,1-4.53-.7,6.8,6.8,0,0,1-2.71-1.88,6.33,6.33,0,0,1-1.34-2.66,13.24,13.24,0,0,1-.36-3.11,27,27,0,0,1,.21-2.81c.14-1.23.34-2.63.62-4.21s.62-3.27,1-5.08.9-3.61,1.45-5.4,1.17-3.5,1.85-5.15a26.72,26.72,0,0,1,2.24-4.35,12.46,12.46,0,0,1,2.66-3,4.84,4.84,0,0,1,3.06-1.13,1,1,0,0,1,.94.52,3.45,3.45,0,0,1,.3,1.66s-.1.25-.3.69l-.77,1.67c-.32.66-.66,1.4-1,2.19l-1,2.27-.85,1.84c-.24.52-.38.84-.43,1a59.72,59.72,0,0,0-3.26,9.69,38,38,0,0,0-1.15,8.91,4.74,4.74,0,0,0,.41,2.1,3.84,3.84,0,0,0,1.11,1.39,4.53,4.53,0,0,0,1.64.78,7.67,7.67,0,0,0,2,.25,11.58,11.58,0,0,0,3.25-.52,25.73,25.73,0,0,0,3.67-1.42,43,43,0,0,0,3.91-2.09q2-1.2,3.92-2.52t3.72-2.71c1.19-.91,2.3-1.8,3.33-2.65a10.43,10.43,0,0,1,.85-.62c.32-.21.64-.41,1-.59a7.91,7.91,0,0,1,1-.44,2.45,2.45,0,0,1,.8-.17A.49.49,0,0,1,256.68,111.41Z"/><path class="cls-16" d="M288.21,117.83c0,.16-.17.39-.51.7a13,13,0,0,1-1.34,1q-.83.57-1.89,1.2c-.7.41-1.4.8-2.11,1.17a76.64,76.64,0,0,1-10.09,4.54,24,24,0,0,1-7.78,1.52,10.86,10.86,0,0,1-3.12-.48,7.79,7.79,0,0,1-2.92-1.64,8.78,8.78,0,0,1-2.17-3.07,11.93,11.93,0,0,1-.85-4.8,25.74,25.74,0,0,1,.15-2.62c.1-1,.24-2,.4-3s.35-2.13.55-3.23.41-2.18.64-3.24.45-2.06.68-3,.44-1.79.64-2.56.37-1.31.58-2l.66-2.07.66-2c.22-.61.42-1.16.62-1.65a11.48,11.48,0,0,1,.83-1.47,10.71,10.71,0,0,1,1.21-1.48,7,7,0,0,1,1.45-1.14,3,3,0,0,1,1.57-.46,4.77,4.77,0,0,1,1.39.16,1.83,1.83,0,0,1,.83.45,1.36,1.36,0,0,1,.4.69,3.83,3.83,0,0,1,.1.86,9.32,9.32,0,0,1-.61,2.82c-.4,1.17-.89,2.42-1.45,3.73s-1.14,2.65-1.72,4-1.05,2.52-1.43,3.56c-.13.4-.26.91-.41,1.51s-.29,1.28-.42,2-.25,1.51-.36,2.34-.21,1.64-.3,2.46-.16,1.61-.21,2.39-.07,1.5-.07,2.16a9.79,9.79,0,0,0,.47,3.36,5.29,5.29,0,0,0,1.22,2,3.85,3.85,0,0,0,1.7,1,7.22,7.22,0,0,0,1.89.25,15.63,15.63,0,0,0,3.2-.34,23.59,23.59,0,0,0,3.57-1c1.27-.47,2.64-1.05,4.13-1.75s3.12-1.53,4.9-2.49c.48-.26.91-.51,1.3-.75l1-.66a5.63,5.63,0,0,1,.83-.47,1.8,1.8,0,0,1,.72-.17,1.54,1.54,0,0,1,1,.36A1.65,1.65,0,0,1,288.21,117.83Z"/><path class="cls-16" d="M335.05,109.2a3,3,0,0,1-.83,1.38,44.35,44.35,0,0,1-3.75,3.58c-1.5,1.29-3.16,2.57-5,3.86s-3.76,2.54-5.81,3.74a58.94,58.94,0,0,1-6.24,3.16,45.39,45.39,0,0,1-6.26,2.19,22.56,22.56,0,0,1-5.89.84H301q-6.45,0-9.66-2.55a8.58,8.58,0,0,1-3.2-7.1,18.91,18.91,0,0,1,.41-3.85,17.08,17.08,0,0,1,1.45-4.12,21,21,0,0,1,2.83-4.19,25.1,25.1,0,0,1,4.55-4,17.08,17.08,0,0,1,4.37-2.2,13.82,13.82,0,0,1,4.34-.77,4.07,4.07,0,0,1,.79.11,9.94,9.94,0,0,1,1,.27,5.67,5.67,0,0,1,1,.42,3.92,3.92,0,0,1,.81.53,7.33,7.33,0,0,1,1.55,1.79,4,4,0,0,1,.49,2,6.19,6.19,0,0,1-.6,2.74,9.59,9.59,0,0,1-1.74,2.4,19.13,19.13,0,0,1-2.79,2.36q-1.67,1.18-3.81,2.56c-.48.31-1,.66-1.7,1s-1.35.78-2.11,1.2l-2.34,1.3-2.37,1.32q.3,4.66,7.5,4.66a27.94,27.94,0,0,0,8.53-1.46,30.46,30.46,0,0,0,4.15-1.68c1.28-.63,2.54-1.27,3.77-1.93.6-.33,1.27-.72,2-1.17s1.47-.93,2.24-1.43l2.3-1.51,2.17-1.43,1.38-.94,1.56-1.06,2-1.41a6.35,6.35,0,0,1,2.68-1.12C334.9,108.7,335.05,108.87,335.05,109.2Zm-29-3.9a1.83,1.83,0,0,0-.61-1.37,2,2,0,0,0-1.47-.58,5.09,5.09,0,0,0-1.64.36,7.62,7.62,0,0,0-2.13,1.3,18.06,18.06,0,0,0-3.92,4.64,18.39,18.39,0,0,0-2.26,6q2.37-1.33,4-2.37c1.1-.69,2.08-1.34,3-2,.61-.42,1.2-.86,1.8-1.33a15.3,15.3,0,0,0,1.62-1.48,7.53,7.53,0,0,0,1.18-1.61A3.36,3.36,0,0,0,306,105.3Z"/><path class="cls-16" d="M369.93,107a1.56,1.56,0,0,1-.6,1.26,2.19,2.19,0,0,1-1.47.51,5.57,5.57,0,0,1-2.1-.31,8.3,8.3,0,0,1-1.3-.68,13.24,13.24,0,0,0-1.15-.67,3.48,3.48,0,0,0-1.64-.32,5.67,5.67,0,0,0-2,.42,15.64,15.64,0,0,0-2.23,1.08,24.85,24.85,0,0,0-2.24,1.49c-.75.56-1.46,1.12-2.13,1.69-.48.4-1,.88-1.57,1.42s-1.13,1.12-1.68,1.72-1.07,1.19-1.54,1.79a13.67,13.67,0,0,0-1.17,1.68c-.23.4-.48.83-.76,1.29s-.54.93-.81,1.43-.5,1-.72,1.52a10.9,10.9,0,0,0-.5,1.53c-.16.73-.3,1.41-.44,2a10.4,10.4,0,0,1-.49,1.64,2.78,2.78,0,0,1-.73,1.09,1.76,1.76,0,0,1-1.17.39,6.93,6.93,0,0,1-2.17-.28A3.45,3.45,0,0,1,338,128a2.72,2.72,0,0,1-.7-1.11,6.13,6.13,0,0,1-.28-1.3c-.08-.72-.16-1.42-.25-2.08s-.17-1.32-.26-2-.16-1.39-.21-2.16-.07-1.63-.07-2.6.05-1.93.15-3,.22-2.18.36-3.2.28-1.93.45-2.72a8.23,8.23,0,0,1,.43-1.57,7.11,7.11,0,0,1,.87-1.26,7.4,7.4,0,0,1,1.15-1.09,5.78,5.78,0,0,1,1.3-.77,3.26,3.26,0,0,1,1.25-.29,5.69,5.69,0,0,1,1,.09,2.81,2.81,0,0,1,.91.33,1.9,1.9,0,0,1,.64.62,1.84,1.84,0,0,1,.25,1,3.79,3.79,0,0,1-.36,1q-.36.83-.81,1.89c-.3.71-.6,1.45-.89,2.23a11.8,11.8,0,0,0-.58,2.06c0,.12,0,.35,0,.7s-.05.75-.08,1.21-.05,1-.07,1.47,0,1,0,1.48,0,.63,0,.89a5.17,5.17,0,0,0,.06.65c.22-.3.49-.7.81-1.21s.67-1.08,1.09-1.69.85-1.24,1.32-1.88a19.77,19.77,0,0,1,1.49-1.78c.55-.59,1.18-1.23,1.87-1.92s1.44-1.39,2.24-2.08,1.67-1.37,2.58-2a21.72,21.72,0,0,1,2.87-1.74,17,17,0,0,1,3.11-1.21,12.37,12.37,0,0,1,3.32-.46,10.89,10.89,0,0,1,3.15.41,7.23,7.23,0,0,1,2.23,1.06,4.25,4.25,0,0,1,1.3,1.5A3.76,3.76,0,0,1,369.93,107Z"/><path class="cls-17" d="M47,289H259.87A24.13,24.13,0,0,1,284,313.13V526a0,0,0,0,1,0,0H47a0,0,0,0,1,0,0V289A0,0,0,0,1,47,289Z"/><path class="cls-1" d="M73,404h67a0,0,0,0,1,0,0v96a0,0,0,0,1,0,0H91a18,18,0,0,1-18-18V404A0,0,0,0,1,73,404Z"/><path class="cls-1" d="M152,309h53a0,0,0,0,1,0,0v59.93a16,16,0,0,1-16,16H152a0,0,0,0,1,0,0V309A0,0,0,0,1,152,309Z"/><path class="cls-1" d="M170,411h95a0,0,0,0,1,0,0v78.84A16.16,16.16,0,0,1,248.84,506H170a0,0,0,0,1,0,0V411A0,0,0,0,1,170,411Z"/><circle class="cls-18" cx="220" cy="416" r="6"/><circle class="cls-18" cx="178" cy="315" r="6"/><circle class="cls-18" cx="107" cy="416" r="6"/><path class="cls-19" d="M160.24,372.89l33,.16"/><path class="cls-19" d="M158.83,365.65l33,.16"/><path class="cls-19" d="M160.83,357.65l33,.16"/><path class="cls-18" d="M161.66,340.45c-.29-3.1.44-6.45,2.64-8.65,3.28-3.29,8.62-3.12,13.17-2.2s9.34,2.34,13.72.82v20.24C179.62,350.59,163.1,355.68,161.66,340.45Z"/><line class="cls-20" x1="183.74" y1="445.04" x2="251.21" y2="445.04"/><line class="cls-20" x1="185.25" y1="453.17" x2="249.74" y2="453.17"/><line class="cls-20" x1="186.01" y1="459.78" x2="249.28" y2="459.78"/><line class="cls-20" x1="187.53" y1="466.69" x2="251.95" y2="466.69"/><line class="cls-20" x1="188.28" y1="496.58" x2="251.3" y2="496.58"/><path class="cls-21" d="M213.29,491.82l0-6.57-2,9.65-4.14-4.57,11.85,4.33-14.51-2.48a17.88,17.88,0,0,0,14-12.81,18.89,18.89,0,0,0-.54,19.66,22.86,22.86,0,0,0-9.72-20.14l12,11.42"/><path class="cls-20" d="M124.72,425l3.8,63.79L85.91,485.9c-.09,0-.71-48-.74-52.3-.09-9.65,4.59-7.88,13.13-8.07Z"/></g></svg>