<svg xmlns="http://www.w3.org/2000/svg" viewBox="0 0 640 800"><defs><style>.cls-1{isolation:isolate;}.cls-16,.cls-2{fill:#f59b1a;}.cls-3{fill:none;stroke-width:4.59px;}.cls-16,.cls-3{stroke:#ad6e12;stroke-miterlimit:10;}.cls-4{fill:#fff;}.cls-5{fill:#ce7d46;}.cls-6{fill:#c67842;}.cls-7{fill:#92f7ff;}.cls-20,.cls-8{fill:#660101;}.cls-9{fill:#36aa00;}.cls-10{fill:#f9f5f2;}.cls-11{fill:#032c87;}.cls-12{fill:#7c0303;}.cls-13{fill:gray;}.cls-14,.cls-18{fill:#006837;}.cls-15{fill:#af4f00;}.cls-16{stroke-width:10.03px;}.cls-17{fill:#ad6e12;}.cls-18,.cls-19,.cls-20{mix-blend-mode:multiply;}.cls-18,.cls-19,.cls-20,.cls-21{opacity:0.5;}.cls-19{fill:#0071bc;}.cls-21{fill:#70470c;}.cls-22{fill:#9b9b9b;}.cls-23{fill:#f5b860;}.cls-24{fill:#9c0202;}</style></defs><g class="cls-1"><g id="Capa_1" data-name="Capa 1"><rect class="cls-2" width="640" height="800"/><line class="cls-3" x1="7.97" y1="724.62" x2="7.97" y2="395.44"/><line class="cls-3" x1="62.48" y1="724.62" x2="62.48" y2="395.44"/><line class="cls-3" x1="116.98" y1="724.62" x2="116.98" y2="395.44"/><line class="cls-3" x1="171.49" y1="724.62" x2="171.49" y2="395.44"/><line class="cls-3" x1="225.99" y1="724.62" x2="225.99" y2="395.44"/><line class="cls-3" x1="280.5" y1="724.62" x2="280.5" y2="395.44"/><line class="cls-3" x1="335" y1="724.62" x2="335" y2="395.44"/><line class="cls-3" x1="389.5" y1="724.62" x2="389.5" y2="395.44"/><line class="cls-3" x1="444.01" y1="724.62" x2="444.01" y2="395.44"/><path class="cls-3" d="M498.49,402.21c-.09-2.26-.09-4.52,0-6.77"/><path class="cls-3" d="M498.51,419.86v-4.32"/><path class="cls-3" d="M498.51,724.62c-.12-100.72-.12-202.6,0-303.68"/><line class="cls-3" x1="553.02" y1="724.62" x2="553.02" y2="395.44"/><line class="cls-3" x1="607.52" y1="724.62" x2="607.52" y2="395.44"/><path class="cls-4" d="M51.18,148.25h.47q2.73,0,3.47,3v.6c0,1.15-.35,4.34-1.07,9.57H65.41q1.23-10.71,1.68-11.49a3.69,3.69,0,0,1,2.75-1.67h.48a3.51,3.51,0,0,1,3.47,2.63l.12.72-1.08,9.81H76.9q2.2,0,3.23,3v.84q0,2.26-2.87,3.35H72.11c-.24,0-.36.71-.36,2.15l-2,17h4.07q2.2,0,3.23,3v.72q0,2.44-2.87,3.47H69q-.33,0-.84,6.22-.64,6-1.67,6a2.94,2.94,0,0,1-2,1H64a3.5,3.5,0,0,1-3.47-2.64l-.12-.71,1.07-9.81H50.1q-1.17,11.72-1.8,11.72a3.7,3.7,0,0,1-2.39,1.44h-.72q-2.8,0-3.47-3.23,0-1.92,1.08-9.93H39q-2.62,0-3.47-2.87l-.12-.48a3.63,3.63,0,0,1,3.23-3.83h5l2.27-19.14H41.84q-3.23-.6-3.23-3.47v-.72q.9-3,3.11-3h5q1.2-11.73,1.79-11.73A3.78,3.78,0,0,1,51.18,148.25Zm2,20.34-2.27,19.14H62.3l2.28-19.14Z"/><path class="cls-4" d="M98,151.36h.36c2.49,0,4.29,1.31,5.38,3.95a9.4,9.4,0,0,1,.36,3V162c1.86,0,3.41,1.27,4.67,3.82l.24,1.56v.6q0,4.24-4.91,5.62v28.48q0,4.54-4.9,6H97.8c-2.47,0-4.27-1.52-5.38-4.55l-.12-2V173.73L90.38,173c-2-1.39-3-3-3-4.78v-.72c0-2.55,1.4-4.35,4.19-5.38l.72-.12v-4.67q0-4.49,4.66-5.86Z"/><path class="cls-4" d="M133,161.65a19.39,19.39,0,0,1,10.05,2.87,5.75,5.75,0,0,1,4.91-2.75q4.9,0,6,5.5v2L153.85,182l.12,2.27-.24,18.66c0,1.36-.88,2.79-2.63,4.31a6.85,6.85,0,0,1-2.87.84h-.6a5.88,5.88,0,0,1-4.79-2.64h-.12a19.41,19.41,0,0,1-9.81,2.64q-10,0-17-9.81a25.06,25.06,0,0,1-3.71-12.45V183.9q0-8,6-15.43Q124.83,161.64,133,161.65Zm-9.09,23.21a12.18,12.18,0,0,0,5.38,10.41,8.6,8.6,0,0,0,3.83.95h.12q5.21,0,8.26-7.06a21.64,21.64,0,0,0,.59-5.5c0-1.93-.87-4.21-2.63-6.82-2-2.23-4.11-3.35-6.46-3.35q-5.44,0-8.37,7.06A16.58,16.58,0,0,0,123.94,184.86Z"/><path class="cls-4" d="M161.23,151.12c0-2.83,1.52-4.75,4.55-5.74l1.31-.12c2.8,0,4.71,1.47,5.75,4.42l.12.72v52c0,2.6-1.48,4.43-4.43,5.51l-1.08.12H167c-2.74,0-4.61-1.52-5.63-4.55l-.12-1.32Z"/><path class="cls-4" d="M180.22,151.12c0-2.83,1.52-4.75,4.55-5.74l1.31-.12c2.8,0,4.71,1.47,5.75,4.42l.12.72v52c0,2.6-1.48,4.43-4.43,5.51l-1.08.12H186q-4.1,0-5.62-4.55l-.12-1.32Z"/><path class="cls-4" d="M219.55,161.65q13.33,0,18.54,12.68.72,2.19.72,8.13c0,1.52-.84,3.31-2.51,5.39a11.72,11.72,0,0,1-8,3l-10.05-.12h-6.1v.12q3,5.5,8.5,5.5,3.83,0,8.37-4.07a6.87,6.87,0,0,1,2.87-.71h.36c2.41,0,4.21,1.35,5.38,4.06l.24,1.8c0,2.55-1.67,4.83-5,6.82a21.28,21.28,0,0,1-11.61,3.83h-1.43q-8.67,0-15.79-7.9a24.54,24.54,0,0,1-4.79-14.95v-.12a25.41,25.41,0,0,1,7.3-18.31A18.86,18.86,0,0,1,219.55,161.65Zm-7.18,17.23h.12l14.24.11h.12v-.71a6,6,0,0,0-2.87-3.71,7.9,7.9,0,0,0-4.55-1.08Q214.71,173.49,212.37,178.88Z"/><path class="cls-4" d="M252.18,161.65a8,8,0,0,1,3.71,1.43,14.78,14.78,0,0,1,6.34-1.43q4.09,0,5.74,4.66l.12,1.32c0,2.75-1.56,4.67-4.67,5.74a5.09,5.09,0,0,0-5.26,3.47L257.8,179v23.33a5.63,5.63,0,0,1-3.23,5.15,4.73,4.73,0,0,1-2.27.6h-.6q-3.85,0-5.51-4.31l-.11-.84V167.39c0-2.71,1.47-4.55,4.42-5.5Z"/><path d="M156.36,135.84a13.87,13.87,0,0,1-1.09,5,16.68,16.68,0,0,1-3.41,5.26,18.78,18.78,0,0,1-6,4.18,21.68,21.68,0,0,1-9,1.69,18.69,18.69,0,0,1-7.52-1.62,18.27,18.27,0,0,1-6.68-5.12,26.24,26.24,0,0,1-4.74-9,42.76,42.76,0,0,1-1.8-13.24,38.81,38.81,0,0,1,1.73-11.75,32.45,32.45,0,0,1,4.67-9.51,23,23,0,0,1,6.89-6.36,16.24,16.24,0,0,1,8.36-2.31,13.33,13.33,0,0,1,5.13.93,14.16,14.16,0,0,1,3.87,2.32,12.47,12.47,0,0,1,2.63,3,19.54,19.54,0,0,1,1.59,3.11c-.1-1.43-.17-2.53-.21-3.32s-.09-1.37-.11-1.76,0-.68,0-.87a2.92,2.92,0,0,1,.53-1.62,2,2,0,0,1,1.79-.8,3,3,0,0,1,1.38.28,2.27,2.27,0,0,1,.77.62,1.8,1.8,0,0,1,.31.76,3.8,3.8,0,0,1,.07.63c0,1.61,0,3.39-.14,5.35s-.14,3.77-.14,5.43c0,1.48,0,3,.07,4.56s.07,3.09.07,4.57a3.5,3.5,0,0,1-.42,1.48c-.28.58-.94.87-2,.87a2.3,2.3,0,0,1-1.89-.76c-.43-.51-.64-1.62-.64-3.32a31.65,31.65,0,0,0-.66-6.53,17,17,0,0,0-2.18-5.54,11.61,11.61,0,0,0-3.9-3.8,12,12,0,0,0-12.51.73,19,19,0,0,0-5.21,5.74,30.48,30.48,0,0,0-3.37,8.26,38.52,38.52,0,0,0-1.19,9.64,44.19,44.19,0,0,0,1,9.54,26,26,0,0,0,3,7.85,15.66,15.66,0,0,0,5,5.29,12.77,12.77,0,0,0,7,1.94,18,18,0,0,0,5.62-.83,14.77,14.77,0,0,0,4.4-2.28,12.74,12.74,0,0,0,3-3.39,12.1,12.1,0,0,0,1.62-4.22,15,15,0,0,1,.63-2.28,1.55,1.55,0,0,1,1.62-.9A1.82,1.82,0,0,1,156.36,135.84Z"/><path d="M194,134.88a16.71,16.71,0,0,1-1.54,7.39,16.46,16.46,0,0,1-4,5.29,16.15,16.15,0,0,1-5.44,3.15,18.41,18.41,0,0,1-6,1,17.14,17.14,0,0,1-6.53-1.21,14.85,14.85,0,0,1-5.1-3.43,15.54,15.54,0,0,1-3.34-5.29,19.48,19.48,0,0,1,0-13.41,15.16,15.16,0,0,1,3.41-5.29,16.16,16.16,0,0,1,5.34-3.49,18.6,18.6,0,0,1,7.07-1.28,16.66,16.66,0,0,1,6.92,1.35,14.88,14.88,0,0,1,5,3.63,15.74,15.74,0,0,1,3.09,5.25A18.8,18.8,0,0,1,194,134.88ZM177.87,122.5a12,12,0,0,0-4.43.83,11,11,0,0,0-3.73,2.42,11.35,11.35,0,0,0-2.56,3.94,15.46,15.46,0,0,0,.07,10.86,12,12,0,0,0,2.63,3.9,10.79,10.79,0,0,0,3.59,2.32,10.4,10.4,0,0,0,3.79.76,11,11,0,0,0,3.87-.76,12.2,12.2,0,0,0,3.8-2.32,12,12,0,0,0,2.88-4,13.54,13.54,0,0,0,1.12-5.74,14.52,14.52,0,0,0-.81-5,11.94,11.94,0,0,0-2.25-3.87,10,10,0,0,0-3.48-2.52A11,11,0,0,0,177.87,122.5Z"/><path d="M231.21,134.88a16.71,16.71,0,0,1-1.54,7.39,16.13,16.13,0,0,1-9.42,8.44,18.41,18.41,0,0,1-6,1,17.18,17.18,0,0,1-6.53-1.21,14.85,14.85,0,0,1-5.1-3.43,15.54,15.54,0,0,1-3.34-5.29,19.48,19.48,0,0,1,0-13.41,15.3,15.3,0,0,1,3.41-5.29,16.16,16.16,0,0,1,5.34-3.49,18.6,18.6,0,0,1,7.07-1.28A16.66,16.66,0,0,1,222,119.7a14.88,14.88,0,0,1,5,3.63,15.57,15.57,0,0,1,3.09,5.25A18.8,18.8,0,0,1,231.21,134.88ZM215.05,122.5a12.06,12.06,0,0,0-4.43.83,11,11,0,0,0-3.73,2.42,11.49,11.49,0,0,0-2.56,3.94,14.17,14.17,0,0,0-1,5.32,13.87,13.87,0,0,0,1,5.54,12,12,0,0,0,2.64,3.9,10.65,10.65,0,0,0,3.58,2.32,10.45,10.45,0,0,0,3.8.76,11,11,0,0,0,3.86-.76,12.2,12.2,0,0,0,3.8-2.32,12,12,0,0,0,2.88-4,13.54,13.54,0,0,0,1.12-5.74,14.52,14.52,0,0,0-.81-5,11.74,11.74,0,0,0-2.24-3.87,10.18,10.18,0,0,0-3.48-2.52A11,11,0,0,0,215.05,122.5Z"/><path d="M245.69,127.06a14.41,14.41,0,0,1,5.13-6.43,12.76,12.76,0,0,1,13.36-.62,11.59,11.59,0,0,1,3.93,4,15.84,15.84,0,0,1,1.94,5.22,29.24,29.24,0,0,1,.52,5.32,18.92,18.92,0,0,1-1.58,8.26,16.6,16.6,0,0,1-3.83,5.29,13.67,13.67,0,0,1-4.74,2.84,14.19,14.19,0,0,1-4.32.83,14.33,14.33,0,0,1-4.05-.52,12.23,12.23,0,0,1-3-1.32,8.52,8.52,0,0,1-2.08-1.76,11.56,11.56,0,0,1-1.3-1.87v14.66h4.57a6.54,6.54,0,0,1,3,.62,2,2,0,0,1,1.2,1.8,1.24,1.24,0,0,1-.77,1.28,3.68,3.68,0,0,1-1.34.31H236.56a4.93,4.93,0,0,1-1.2-.21c-.52-.13-.77-.57-.77-1.31a1.79,1.79,0,0,1,1-1.62,7.63,7.63,0,0,1,2.88-.8,6.87,6.87,0,0,0,1.3-.21,1.1,1.1,0,0,0,.67-.48,2.6,2.6,0,0,0,.25-1.14q0-.8,0-2.25c0-.92,0-1.82,0-2.7s0-1.84.07-2.9,0-2.3.07-3.73,0-3.16,0-5.19q0-3.53,0-6.12c0-1.73-.06-3.27-.11-4.63s-.08-2.56-.1-3.59,0-2,0-3q0-1.11-.45-1.32a6,6,0,0,0-1.94-.2h-2.95c-.28,0-.62,0-1,0a4.56,4.56,0,0,1-1.16-.21,3.34,3.34,0,0,1-1-.44.91.91,0,0,1-.38-.76,1.17,1.17,0,0,1,.56-1,4.78,4.78,0,0,1,2-.66,34.92,34.92,0,0,1,3.72-.38c1.55-.09,3.49-.14,5.84-.14a1.75,1.75,0,0,1,1.37.45,3.57,3.57,0,0,1,.38,2Zm-.07,8.78a20.62,20.62,0,0,0,.46,4.46A9.86,9.86,0,0,0,247.7,144a8.23,8.23,0,0,0,3.12,2.59,11.41,11.41,0,0,0,5.06,1,9.07,9.07,0,0,0,3-.59,8.09,8.09,0,0,0,3.09-2.07,12,12,0,0,0,2.43-4.05,18.42,18.42,0,0,0,1-6.5,27.61,27.61,0,0,0-.28-3.73,13,13,0,0,0-1.12-3.84,8.1,8.1,0,0,0-2.43-3,6.67,6.67,0,0,0-4.18-1.21,10.55,10.55,0,0,0-4,.83,12.06,12.06,0,0,0-3.8,2.45,12.89,12.89,0,0,0-2.84,4.12A14,14,0,0,0,245.62,135.84Z"/><path d="M280.27,134.46c0,.23-.08.47-.1.73a6,6,0,0,0,0,.72,12.79,12.79,0,0,0,.71,4.15,11.56,11.56,0,0,0,2.07,3.73,10.29,10.29,0,0,0,3.37,2.67,10.15,10.15,0,0,0,4.61,1,11.67,11.67,0,0,0,4.64-.83,8.8,8.8,0,0,0,3.05-2.11,8,8,0,0,0,1.69-2.76,8.36,8.36,0,0,0,.53-2.74,3.09,3.09,0,0,1,.45-1.38,2,2,0,0,1,1.94-.83,2.1,2.1,0,0,1,1.47.59,2.07,2.07,0,0,1,.64,1.62,15.55,15.55,0,0,1-.74,4.74,10.25,10.25,0,0,1-2.5,4.11,12.61,12.61,0,0,1-4.78,2.91,22.24,22.24,0,0,1-7.52,1.1,15.93,15.93,0,0,1-6.43-1.21,12.62,12.62,0,0,1-4.67-3.42,14.52,14.52,0,0,1-2.85-5.22A23.89,23.89,0,0,1,276,128.1a14.67,14.67,0,0,1,3.23-5.46,14.34,14.34,0,0,1,5.06-3.42,17,17,0,0,1,6.54-1.21,14.5,14.5,0,0,1,6.53,1.34,13.71,13.71,0,0,1,4.29,3.25,12.39,12.39,0,0,1,2.32,3.94,10.9,10.9,0,0,1,.7,3.43,5.93,5.93,0,0,1-.77,3,2.4,2.4,0,0,1-2.18,1.38c-1.45,0-3.17,0-5.16,0s-4.12,0-6.37,0h-2c-.89,0-1.83,0-2.82,0l-2.84,0ZM298.34,130c.79,0,1.19-.19,1.19-.56a5.88,5.88,0,0,0-.56-2.31,7.61,7.61,0,0,0-1.65-2.35,8.79,8.79,0,0,0-2.78-1.8,9.74,9.74,0,0,0-3.93-.73,10.24,10.24,0,0,0-7,2.6,9.47,9.47,0,0,0-2,2.55,9.6,9.6,0,0,0-1.05,2.87Z"/><path d="M336.36,127.75a10.78,10.78,0,0,1-.24,2.29,6.29,6.29,0,0,1-.81,2,4.54,4.54,0,0,1-1.48,1.41,4.4,4.4,0,0,1-2.32.56,4,4,0,0,1-2.21-.66,2.26,2.26,0,0,1-1-2,2,2,0,0,1,.46-1.49,3.09,3.09,0,0,1,1.05-.69,7,7,0,0,0,1.06-.52,1.11,1.11,0,0,0,.45-1,1.93,1.93,0,0,0-.91-1.84,4.72,4.72,0,0,0-2.32-.51,7.8,7.8,0,0,0-2.74.55,7.34,7.34,0,0,0-2.74,1.87,10.22,10.22,0,0,0-2.11,3.42,14.15,14.15,0,0,0-.85,5.22v10.51h3.8a15.21,15.21,0,0,1,5.13.59c1,.39,1.48,1,1.48,1.76,0,1.24-.71,1.87-2.11,1.87-.7,0-1.48,0-2.32,0l-2.57-.07-2.56-.07-2.25,0q-1.05,0-1.83,0l-1.51.07-1.48.07c-.49,0-1.06,0-1.72,0a2.21,2.21,0,0,1-1.68-.59,1.88,1.88,0,0,1-.57-1.35,2.3,2.3,0,0,1,2.25-2.28,3.69,3.69,0,0,0,2.22-.8,2.49,2.49,0,0,0,.59-1.55c.05-.6.09-1.37.11-2.32s.06-2.19.1-3.73.09-3.45.11-5.71,0-5,0-8.36c0-.65-.36-1-1.06-1h-3.44a5.28,5.28,0,0,1-2.64-.52c-.58-.34-.88-.7-.88-1.07s.37-.75,1.09-1a13.32,13.32,0,0,1,2.64-.59c1-.14,2.13-.23,3.3-.28s2.18-.07,3-.07a4.89,4.89,0,0,1,2.46.42c.43.27.64,1,.64,2.21v3.39a11.7,11.7,0,0,1,3.86-3.63,9.37,9.37,0,0,1,4.64-1.21,8.44,8.44,0,0,1,3.2.59,8.61,8.61,0,0,1,2.49,1.52,6.39,6.39,0,0,1,1.62,2.14A5.86,5.86,0,0,1,336.36,127.75Z"/><path d="M360.75,135.5c0-.51,0-1,0-1.49s0-.84,0-1.07a11.75,11.75,0,0,0-1.93-7.16c-1.29-1.72-3.34-2.59-6.15-2.59a14.29,14.29,0,0,0-2.53.24,13.38,13.38,0,0,0-2.43.69,6.59,6.59,0,0,0-1.82,1.11,1.93,1.93,0,0,0-.74,1.49c0,.37.11.61.35.72a4.18,4.18,0,0,0,1.05.31,2.63,2.63,0,0,1,1.13.56,1.87,1.87,0,0,1,.63,1.59,2.2,2.2,0,0,1-.84,1.83,3.54,3.54,0,0,1-2.25.66,3.31,3.31,0,0,1-3.09-1.52,6.34,6.34,0,0,1-.92-3.32,7.29,7.29,0,0,1,3.24-6.12q3.23-2.39,8.78-2.39,12.43,0,12.44,13.49c0,.5,0,1.17,0,2s0,1.72-.07,2.66-.05,1.89-.07,2.84,0,1.76,0,2.45a18.68,18.68,0,0,0,.28,4.15,1.21,1.21,0,0,0,1.27,1,1,1,0,0,0,1-.49,4.76,4.76,0,0,0,.38-1.38,2.3,2.3,0,0,1,.5-1,1.63,1.63,0,0,1,1.4-.55,1.16,1.16,0,0,1,1.2.69,4.34,4.34,0,0,1,.28,1.59,6,6,0,0,1-.46,2.46,4.39,4.39,0,0,1-1.23,1.62,5,5,0,0,1-1.72.9,7.28,7.28,0,0,1-2,.28,6.34,6.34,0,0,1-3.4-.94,5.15,5.15,0,0,1-2.15-3.14,16.14,16.14,0,0,1-4.95,3,16.74,16.74,0,0,1-6,1,12.63,12.63,0,0,1-7.84-2.22,7.08,7.08,0,0,1-2.92-5.94,8.34,8.34,0,0,1,.85-3.74,8.65,8.65,0,0,1,2.39-3,11.81,11.81,0,0,1,3.69-2,15,15,0,0,1,4.81-.73,16.54,16.54,0,0,1,9.84,3.18Zm-16.59,8a3.27,3.27,0,0,0,2.18,3.08,12.5,12.5,0,0,0,5.2,1,16,16,0,0,0,3.55-.38,13.49,13.49,0,0,0,2.92-1,6.17,6.17,0,0,0,2-1.48,2.83,2.83,0,0,0,.74-1.9,2.9,2.9,0,0,0-.63-1.8,5.19,5.19,0,0,0-1.76-1.42,11.16,11.16,0,0,0-2.56-.93,13.45,13.45,0,0,0-3.13-.35,14.39,14.39,0,0,0-3.38.38,9.55,9.55,0,0,0-2.67,1.07,6.1,6.1,0,0,0-1.79,1.66A3.65,3.65,0,0,0,344.16,143.52Z"/><path d="M377.13,123.05c-.89,0-1.9,0-3,.07s-2.11.07-3,.07a3.14,3.14,0,0,1-1.23-.41,1.69,1.69,0,0,1-.81-1.66,1.56,1.56,0,0,1,.71-1.42,4.29,4.29,0,0,1,1.68-.59l3.59-.34c.94-.1,1.5-.31,1.69-.66a3.88,3.88,0,0,0,.28-1.69q0-1.45,0-3.15a13.78,13.78,0,0,1,.39-3.08c.23-.92.61-1.47,1.12-1.66a3.94,3.94,0,0,1,1.13-.27,3,3,0,0,1,1.62.45c.46.3.7,1.14.7,2.52v7.4c.33,0,1,0,1.9,0s1.93,0,3-.1,2-.08,2.92-.1l1.76,0a3.53,3.53,0,0,1,1.68.45,1.86,1.86,0,0,1,.21,3,3.42,3.42,0,0,1-1.26.59c-1.69.19-3.41.3-5.17.35s-3.43.11-5,.2v17.57a19.67,19.67,0,0,0,.14,2.35,9.75,9.75,0,0,0,.53,2.31,4.34,4.34,0,0,0,1.12,1.77,2.81,2.81,0,0,0,2,.69,3.89,3.89,0,0,0,1.83-.38,4.51,4.51,0,0,0,1.2-.94,4.83,4.83,0,0,0,.77-1.17c.19-.42.35-.81.49-1.18s.27-.73.39-1.1a4.42,4.42,0,0,1,.45-1,2.17,2.17,0,0,1,.78-.72,2.63,2.63,0,0,1,1.33-.28,1.42,1.42,0,0,1,.92.28,1.78,1.78,0,0,1,.52.62,2.74,2.74,0,0,1,.25.69,2.52,2.52,0,0,1,.07.49,7.63,7.63,0,0,1-.56,2.48,9.72,9.72,0,0,1-1.79,2.94,10.55,10.55,0,0,1-3.13,2.42,9.52,9.52,0,0,1-4.5,1,6.59,6.59,0,0,1-5.9-2.84,8.37,8.37,0,0,1-1.09-2.25,16.93,16.93,0,0,1-.6-2.48,19.92,19.92,0,0,1-.25-2.46c0-.78,0-1.5,0-2.14Z"/><path d="M409.39,147h4a7.16,7.16,0,0,1,2.46.34c.6.23.91.81.91,1.73a1.75,1.75,0,0,1-.63,1.42,2.3,2.3,0,0,1-1.48.52H402.08c-.56,0-1.14,0-1.72,0a6.92,6.92,0,0,1-1.55-.21,2.8,2.8,0,0,1-1.12-.55,1.3,1.3,0,0,1-.46-1.07,1.48,1.48,0,0,1,.28-1,1.75,1.75,0,0,1,.84-.52,8.23,8.23,0,0,1,1.3-.27l1.73-.25a8.49,8.49,0,0,0,2.11-.45,1.25,1.25,0,0,0,.7-1c.14-1.47.22-3.08.24-4.8s0-3.26,0-4.6c0-1.75,0-3.43-.07-5s-.12-3.29-.21-5.05a4.74,4.74,0,0,0-.28-1.34.77.77,0,0,0-.78-.52c-.18,0-.55,0-1.09.07s-1.1.08-1.68.1-1.14.06-1.65.1-.87.07-1.06.07a2.88,2.88,0,0,1-1.26-.34c-.47-.23-.71-.49-.71-.76a1.92,1.92,0,0,1,.35-1.25,2.24,2.24,0,0,1,1-.62,7.53,7.53,0,0,1,1.62-.28c.63,0,1.35-.11,2.14-.2l2-.14,2.08-.14c.67,0,1.3-.07,1.86-.07h1.4a1,1,0,0,1,1.06.66,6,6,0,0,1,.21,1.76Zm-7.1-36.1a3.82,3.82,0,0,1,.25-1.21,4.64,4.64,0,0,1,.7-1.34,3.83,3.83,0,0,1,1.23-1.08,3.65,3.65,0,0,1,1.83-.44,3.47,3.47,0,0,1,2.46,1,3.69,3.69,0,0,1,1.05,2.8,3.94,3.94,0,0,1-1.37,3.45,4.56,4.56,0,0,1-2.64,1,3.18,3.18,0,0,1-2.49-1.17A4.4,4.4,0,0,1,402.29,110.88Z"/><path d="M444.18,126.86c-.33.69-.75,1.7-1.26,3s-1.08,2.82-1.69,4.46-1.23,3.33-1.86,5.08-1.22,3.38-1.76,4.87-1,2.78-1.41,3.84-.64,1.73-.73,2a2.64,2.64,0,0,1-2.68,1.79,4.15,4.15,0,0,1-1.4-.31,2,2,0,0,1-1.2-1.28c-1-3.22-1.88-5.9-2.56-8s-1.31-4-1.9-5.74-1.19-3.39-1.83-5.08-1.39-3.72-2.28-6.12a5.3,5.3,0,0,0-.77-1.48,3.39,3.39,0,0,0-.92-.8,3.57,3.57,0,0,0-1.05-.38c-.38-.07-.78-.12-1.2-.17a12.33,12.33,0,0,1-2.07-.45q-1-.32-1-1.14a1,1,0,0,1,.77-1.07,6,6,0,0,1,1.76-.24h2c1.12,0,2.32,0,3.58,0l3.52,0h1.9a6.44,6.44,0,0,1,1.89.24,1.11,1.11,0,0,1,.78,1.21,1.45,1.45,0,0,1-.71,1.24,3,3,0,0,1-1.75.49h-.5a2.07,2.07,0,0,0-.66.1,2.16,2.16,0,0,0-.57.28.59.59,0,0,0-.24.52,4.83,4.83,0,0,0,.21.93c.14.48.43,1.43.88,2.83s1.1,3.4,2,6,2.05,6,3.55,10.31c.79-2.49,1.54-4.78,2.24-6.85s1.33-3.87,1.87-5.39,1-2.76,1.3-3.7a8.1,8.1,0,0,0,.49-1.83.93.93,0,0,0-.39-.9,3.84,3.84,0,0,0-1.58-.21,1,1,0,0,1-.88-.45,1.82,1.82,0,0,1-.31-1.07,1.35,1.35,0,0,1,.24-.86,1.78,1.78,0,0,1,1-.49,12.2,12.2,0,0,1,2.14-.21c.94,0,2.18,0,3.73,0q3.3,0,5.16,0a20.62,20.62,0,0,1,2.81.21,2.37,2.37,0,0,1,1.2.45,1.14,1.14,0,0,1,.24.76c0,.83-.49,1.32-1.47,1.45s-2.11.28-3.38.42a6.05,6.05,0,0,0-2.07.48A2.51,2.51,0,0,0,444.18,126.86Z"/><path d="M465.62,147h4a7.16,7.16,0,0,1,2.46.34c.61.23.92.81.92,1.73a1.73,1.73,0,0,1-.64,1.42,2.28,2.28,0,0,1-1.47.52H458.31c-.56,0-1.14,0-1.72,0a6.83,6.83,0,0,1-1.55-.21,2.84,2.84,0,0,1-1.13-.55,1.32,1.32,0,0,1-.45-1.07,1.48,1.48,0,0,1,.28-1,1.75,1.75,0,0,1,.84-.52,8.23,8.23,0,0,1,1.3-.27l1.72-.25a8.38,8.38,0,0,0,2.11-.45,1.24,1.24,0,0,0,.71-1c.14-1.47.22-3.08.24-4.8s0-3.26,0-4.6c0-1.75,0-3.43-.07-5s-.12-3.29-.21-5.05a4.74,4.74,0,0,0-.28-1.34.78.78,0,0,0-.78-.52c-.19,0-.55,0-1.09.07s-1.1.08-1.68.1-1.14.06-1.66.1-.86.07-1.05.07a2.91,2.91,0,0,1-1.27-.34c-.46-.23-.7-.49-.7-.76a1.92,1.92,0,0,1,.35-1.25,2.24,2.24,0,0,1,1-.62,7.53,7.53,0,0,1,1.62-.28c.63,0,1.34-.11,2.14-.2l2-.14,2.07-.14c.68,0,1.3-.07,1.87-.07h1.4a1,1,0,0,1,1.06.66,6,6,0,0,1,.21,1.76Zm-7.1-36.1a4.06,4.06,0,0,1,.24-1.21,4.93,4.93,0,0,1,.71-1.34,3.83,3.83,0,0,1,1.23-1.08,3.63,3.63,0,0,1,1.82-.44,3.44,3.44,0,0,1,2.46,1,3.66,3.66,0,0,1,1.06,2.8,3.94,3.94,0,0,1-1.37,3.45,4.58,4.58,0,0,1-2.64,1,3.18,3.18,0,0,1-2.49-1.17A4.4,4.4,0,0,1,458.52,110.88Z"/><path d="M479.39,148.7a7.78,7.78,0,0,1,.07,1v.9a2.78,2.78,0,0,1-.52,1.73,1.88,1.88,0,0,1-1.59.69,3.45,3.45,0,0,1-.66-.07,2.72,2.72,0,0,1-.78-.28,1.85,1.85,0,0,1-.63-.55,1.54,1.54,0,0,1-.24-.9c0-.23,0-.79.07-1.69s.07-1.67.07-2.32c0-.92-.05-2-.14-3.11s-.14-2.23-.14-3.25a4.5,4.5,0,0,1,.28-1.76c.18-.44.72-.66,1.61-.66a2,2,0,0,1,1.87.76,5,5,0,0,1,.59,2c.1.64.15,1.16.18,1.55a3.29,3.29,0,0,0,.38,1.28,7.2,7.2,0,0,0,1.06,1.59,7.12,7.12,0,0,0,1.83,1.49,11.75,11.75,0,0,0,2.56,1.1,11,11,0,0,0,3.27.45,15.14,15.14,0,0,0,2.36-.2,8.78,8.78,0,0,0,2.28-.7,4.64,4.64,0,0,0,1.72-1.31,3.16,3.16,0,0,0,.67-2.07,3.58,3.58,0,0,0-2.43-3.43,42.07,42.07,0,0,0-6.57-2.1c-1.22-.28-2.46-.63-3.72-1a14.5,14.5,0,0,1-3.52-1.7,8.23,8.23,0,0,1-2.63-2.83,8.81,8.81,0,0,1-1-4.46,9.11,9.11,0,0,1,.95-4.35,8.5,8.5,0,0,1,2.49-2.94,10.18,10.18,0,0,1,3.55-1.66,16.19,16.19,0,0,1,4.11-.52,13.75,13.75,0,0,1,3.55.41,9.09,9.09,0,0,1,2.57,1.11,7.08,7.08,0,0,1,1.68,1.49,13.57,13.57,0,0,1,1.06,1.48c-.05-.6-.08-1.22-.11-1.86s0-1.09,0-1.32q0-1.59.81-2.07a2.94,2.94,0,0,1,1.44-.49,2.43,2.43,0,0,1,1.51.59,3,3,0,0,1,.74,2.39c0,1,0,2,0,3.07s-.06,2.1-.1,3-.1,1.78-.14,2.52-.07,1.24-.07,1.52a1.57,1.57,0,0,1-.85,1.38,3,3,0,0,1-1.4.42,1.51,1.51,0,0,1-1.34-.62,4.11,4.11,0,0,1-.56-1.11s0-.22-.07-.52-.11-.64-.18-1-.15-.77-.24-1.14a3.67,3.67,0,0,0-.35-.9,8.6,8.6,0,0,0-2.6-2.86,8.49,8.49,0,0,0-5.07-1.28,7.63,7.63,0,0,0-5,1.41,4.62,4.62,0,0,0-1.68,3.7,4.21,4.21,0,0,0,.63,2.35,5.58,5.58,0,0,0,1.69,1.66,10,10,0,0,0,2.46,1.14c.93.3,1.94.59,3,.87q2.59.69,4.85,1.38a16.93,16.93,0,0,1,3.87,1.69,7.84,7.84,0,0,1,2.56,2.53,7.07,7.07,0,0,1,.95,3.8,7.28,7.28,0,0,1-1.2,4.36,8.67,8.67,0,0,1-2.91,2.59,11.41,11.41,0,0,1-3.76,1.24,24.52,24.52,0,0,1-3.73.31,21,21,0,0,1-2.67-.17,12.09,12.09,0,0,1-2.67-.62,9.14,9.14,0,0,1-2.32-1.21A5.66,5.66,0,0,1,479.39,148.7Z"/><path d="M554.39,148.5h4c1.54,0,2.53.23,3,.69a2,2,0,0,1,.63,1.24,1.53,1.53,0,0,1-.7,1.28,3.87,3.87,0,0,1-2.11.59l-2,0-3.16.07c-1.13,0-2.22,0-3.27,0h-2.42a10,10,0,0,1-3.91-.49,1.7,1.7,0,0,1-.94-1.66c0-1.19.65-1.84,2-1.93l2.11-.14a2,2,0,0,0,1.09-.38,2.9,2.9,0,0,0,.53-1.76c0-.33.09-.84.14-1.56s.09-1.54.14-2.49.09-2,.14-3,.07-2.15.07-3.22q0-6.15-1.23-8.74a4.27,4.27,0,0,0-4.18-2.59,7.71,7.71,0,0,0-3.13.62,10.59,10.59,0,0,0-2.63,1.62,12,12,0,0,0-2.11,2.28,16,16,0,0,0-1.55,2.67v14.86h3.8c1.07,0,1.78.23,2.1.69a2.3,2.3,0,0,1,.5,1.32,1.8,1.8,0,0,1-.46,1.34,1.51,1.51,0,0,1-1.09.45h-1.9c-1.08,0-2.26,0-3.55,0l-3.65,0h-2.22a6,6,0,0,1-2.53-.38,1.56,1.56,0,0,1-.77-1.55,2.08,2.08,0,0,1,.46-1.39,1.75,1.75,0,0,1,1.23-.62l.7-.07a2.58,2.58,0,0,0,2.11-.93,3.67,3.67,0,0,0,.49-2q0-1.17,0-2.49c0-.87,0-2.19,0-3.94v-1.45c0-.88,0-1.85-.07-2.91a12.57,12.57,0,0,0-1.23-5.63,3.77,3.77,0,0,0-3.55-1.9,9.84,9.84,0,0,0-3.69.69,8.13,8.13,0,0,0-3,2.07,10.16,10.16,0,0,0-2,3.46,14.22,14.22,0,0,0-.74,4.77v10.79h3a4.59,4.59,0,0,1,3.1.79,2.27,2.27,0,0,1,.84,1.63,1.59,1.59,0,0,1-.46,1.07,2.26,2.26,0,0,1-1.72.52h-.7c-.28,0-.86,0-1.72,0s-2.17,0-3.9,0h-7.31a1.65,1.65,0,0,1-1.45-.66,2.37,2.37,0,0,1-.45-1.35,2,2,0,0,1,.42-1.14,1.61,1.61,0,0,1,1.4-.59c.61,0,1.12,0,1.52,0a2.1,2.1,0,0,0,.95-.24,1.46,1.46,0,0,0,.56-.69,6.45,6.45,0,0,0,.35-1.39c.09-.78.24-2.25.46-4.42s.31-4.7.31-7.61c0-1.75-.05-3.13-.14-4.15a11.3,11.3,0,0,0-.39-2.31,1.69,1.69,0,0,0-.59-1,1.38,1.38,0,0,0-.71-.21h-.91q-5.13,0-5.13-1.52c0-.42.28-.76.84-1a8.82,8.82,0,0,1,2.32-.66,33.14,33.14,0,0,1,3.52-.34c1.36-.07,2.81-.11,4.36-.11a1.11,1.11,0,0,1,.84.31,2.17,2.17,0,0,1,.35,1.21l.21,4.5a10,10,0,0,1,3.94-4.74A11.16,11.16,0,0,1,525.5,121q6.46,0,8.65,6a14.26,14.26,0,0,1,4.81-5,11.6,11.6,0,0,1,6.08-1.66,9.1,9.1,0,0,1,6.68,2.66q2.67,2.65,2.67,8.54Z"/><path d="M596,134.88a16.71,16.71,0,0,1-1.55,7.39,16.29,16.29,0,0,1-4,5.29,16.1,16.1,0,0,1-5.45,3.15,18.31,18.31,0,0,1-6,1,17.23,17.23,0,0,1-6.54-1.21,14.9,14.9,0,0,1-5.09-3.43,15.39,15.39,0,0,1-3.34-5.29,19.33,19.33,0,0,1,0-13.41,15,15,0,0,1,3.41-5.29,16,16,0,0,1,5.34-3.49,18.55,18.55,0,0,1,7.06-1.28,16.67,16.67,0,0,1,6.93,1.35,14.84,14.84,0,0,1,5,3.63,15.76,15.76,0,0,1,3.1,5.25A18.8,18.8,0,0,1,596,134.88ZM579.83,122.5a12,12,0,0,0-4.42.83,11,11,0,0,0-3.73,2.42,11.51,11.51,0,0,0-2.57,3.94,14.17,14.17,0,0,0-.94,5.32,13.7,13.7,0,0,0,1,5.54,11.8,11.8,0,0,0,2.63,3.9,10.69,10.69,0,0,0,3.59,2.32,10.4,10.4,0,0,0,3.79.76,11,11,0,0,0,3.87-.76,11.94,11.94,0,0,0,6.67-6.29,13.54,13.54,0,0,0,1.13-5.74,14.52,14.52,0,0,0-.81-5,11.94,11.94,0,0,0-2.25-3.87,10,10,0,0,0-3.48-2.52A11,11,0,0,0,579.83,122.5Z"/><path d="M258.52,230.63l1.58,0a8.45,8.45,0,0,0,1.65-.21,4.47,4.47,0,0,0,1.3-.48,1,1,0,0,0,.53-.94q0-4.69,0-9.26t0-7.4c0-2.35,0-5-.07-7.85s-.11-5.69-.18-8.43-.13-5.25-.17-7.54-.1-4-.14-5.22-.44-2-1.16-2.17a13.33,13.33,0,0,0-3.41-.32c-1.22,0-1.83-.57-1.83-1.72a1.51,1.51,0,0,1,.53-1.21,1.92,1.92,0,0,1,1.3-.45c1.73,0,3.67,0,5.8,0l6.08-.07,5.06-.07,2.81,0a27,27,0,0,1,7.13.93,19.19,19.19,0,0,1,6,2.73,13.82,13.82,0,0,1,4.11,4.5,12.43,12.43,0,0,1,1.55,6.29,13.17,13.17,0,0,1-10.26,13.2,17.43,17.43,0,0,1,9.62,4.78,12.52,12.52,0,0,1,3.59,9.12,11.7,11.7,0,0,1-2.14,7.12,15.61,15.61,0,0,1-5.73,4.7,29.34,29.34,0,0,1-8.26,2.6,58,58,0,0,1-9.74.79H260.07a7.15,7.15,0,0,1-2.68-.38,1.57,1.57,0,0,1-.35-2.63A3.16,3.16,0,0,1,258.52,230.63Zm15.74-49c-.79,0-1.54,0-2.25,0s-1.31.06-1.82.1l-1.62.14v21.16c0,.09.43.15,1.3.17s2.07,0,3.62,0,3.3-.08,5.41-.24A22.59,22.59,0,0,0,285,201.7a12.38,12.38,0,0,0,5-3.29,8.93,8.93,0,0,0,2-6.29,8.37,8.37,0,0,0-1.59-5.25,10.46,10.46,0,0,0-4.11-3.22,20.9,20.9,0,0,0-5.69-1.59A44.91,44.91,0,0,0,274.26,181.61Zm-.14,26.07c-.89,0-1.59,0-2.11,0l-1.3.07-1,.07c-.3,0-.69,0-1.16,0v21.78q2.88,0,5.94-.11t6-.45a39.47,39.47,0,0,0,5.52-1,16.35,16.35,0,0,0,4.57-1.94,9.57,9.57,0,0,0,3.09-3.08,8.35,8.35,0,0,0,1.13-4.46,8.64,8.64,0,0,0-1.83-5.8,11.72,11.72,0,0,0-4.74-3.29,24.78,24.78,0,0,0-6.61-1.49C279.15,207.8,276.65,207.68,274.12,207.68Z"/><path d="M325.57,218.47c0-.51,0-1,0-1.49s0-.84,0-1.07a11.73,11.73,0,0,0-1.93-7.16q-1.93-2.59-6.15-2.59a14.29,14.29,0,0,0-2.53.24,11.66,11.66,0,0,0-2.42.69,6.29,6.29,0,0,0-1.83,1.11,2,2,0,0,0-.74,1.48.73.73,0,0,0,.35.73,4.28,4.28,0,0,0,1.06.31,2.61,2.61,0,0,1,1.12.55,1.9,1.9,0,0,1,.63,1.59,2.2,2.2,0,0,1-.84,1.84,3.54,3.54,0,0,1-2.25.65,3.3,3.3,0,0,1-3.09-1.52,6.31,6.31,0,0,1-.92-3.32,7.28,7.28,0,0,1,3.24-6.11q3.23-2.39,8.78-2.39,12.45,0,12.44,13.48,0,.76,0,2c0,.83,0,1.71-.07,2.66s0,1.89-.07,2.83,0,1.77,0,2.46a19.34,19.34,0,0,0,.28,4.15,1.21,1.21,0,0,0,1.27,1,1,1,0,0,0,1-.48,5.06,5.06,0,0,0,.39-1.38,2.26,2.26,0,0,1,.49-1,1.65,1.65,0,0,1,1.4-.55,1.16,1.16,0,0,1,1.2.69,4.34,4.34,0,0,1,.28,1.59,5.76,5.76,0,0,1-.46,2.45,4.32,4.32,0,0,1-1.23,1.63,5.06,5.06,0,0,1-1.72.9,7.26,7.26,0,0,1-2,.27,6.35,6.35,0,0,1-3.41-.93,5.18,5.18,0,0,1-2.15-3.15,16.18,16.18,0,0,1-4.95,3.05,16.74,16.74,0,0,1-6,1,12.71,12.71,0,0,1-7.84-2.21,7.09,7.09,0,0,1-2.91-5.95,8.43,8.43,0,0,1,.84-3.73,8.65,8.65,0,0,1,2.39-3,11.81,11.81,0,0,1,3.69-2,14.77,14.77,0,0,1,4.81-.73,16.47,16.47,0,0,1,9.84,3.18Zm-16.58,8a3.25,3.25,0,0,0,2.17,3.07,12.39,12.39,0,0,0,5.21,1,15.52,15.52,0,0,0,3.55-.38,12.89,12.89,0,0,0,2.91-1,6.22,6.22,0,0,0,2-1.48,2.86,2.86,0,0,0,.1-3.7,5.07,5.07,0,0,0-1.76-1.42,11.16,11.16,0,0,0-2.56-.93,13.45,13.45,0,0,0-3.13-.35,14.25,14.25,0,0,0-3.37.38,9.14,9.14,0,0,0-2.67,1.07,6,6,0,0,0-1.8,1.66A3.64,3.64,0,0,0,309,226.49Zm15.74-35.61a4.41,4.41,0,0,1-1.19,2.25,26.94,26.94,0,0,1-2.78,2.93,30.6,30.6,0,0,1-3.16,2.56,5,5,0,0,1-2.36,1.11,2.7,2.7,0,0,1-1.16-.28,1,1,0,0,1-.6-1,4.54,4.54,0,0,1,.39-1c.26-.56.6-1.21,1-2s.91-1.57,1.48-2.42a25.06,25.06,0,0,1,1.72-2.35,15.85,15.85,0,0,1,1.68-1.8,2.35,2.35,0,0,1,1.52-.73,4,4,0,0,1,2.53.73A2.33,2.33,0,0,1,324.73,190.88Z"/><path d="M342.23,231.67a7.78,7.78,0,0,1,.07,1v.9a2.74,2.74,0,0,1-.53,1.73,1.86,1.86,0,0,1-1.58.69,4.63,4.63,0,0,1-.67-.07,2.77,2.77,0,0,1-.77-.28,1.77,1.77,0,0,1-.63-.55,1.48,1.48,0,0,1-.25-.9c0-.23,0-.8.07-1.7s.07-1.67.07-2.31c0-.92,0-2-.14-3.11s-.14-2.24-.14-3.25a4.65,4.65,0,0,1,.28-1.76q.28-.66,1.62-.66a2,2,0,0,1,1.86.76,4.82,4.82,0,0,1,.6,2q.14,1,.18,1.56a3.29,3.29,0,0,0,.38,1.28,7.2,7.2,0,0,0,1.06,1.59,6.68,6.68,0,0,0,1.82,1.48,12.36,12.36,0,0,0,2.57,1.11,11,11,0,0,0,3.27.45,13.94,13.94,0,0,0,2.35-.21,9,9,0,0,0,2.29-.69,4.72,4.72,0,0,0,1.72-1.31,3.24,3.24,0,0,0,.67-2.08A3.58,3.58,0,0,0,356,224a42.29,42.29,0,0,0-6.57-2.11c-1.22-.27-2.46-.62-3.73-1a14.61,14.61,0,0,1-3.51-1.7,8.35,8.35,0,0,1-2.64-2.83,8.81,8.81,0,0,1-1-4.46,9.27,9.27,0,0,1,.94-4.36,8.64,8.64,0,0,1,2.5-2.94,10.27,10.27,0,0,1,3.55-1.66,16.53,16.53,0,0,1,4.11-.51,13.38,13.38,0,0,1,3.55.41,9.22,9.22,0,0,1,2.57,1.11,7.06,7.06,0,0,1,1.68,1.48,15.13,15.13,0,0,1,1.06,1.49c-.05-.6-.09-1.22-.11-1.87s0-1.08,0-1.31c0-1.06.27-1.75.8-2.07a2.84,2.84,0,0,1,1.45-.49,2.45,2.45,0,0,1,1.51.59,3,3,0,0,1,.73,2.38c0,1,0,2,0,3.08s-.06,2.1-.11,3-.09,1.79-.14,2.53-.07,1.24-.07,1.52a1.57,1.57,0,0,1-.84,1.38,3,3,0,0,1-1.41.42,1.48,1.48,0,0,1-1.33-.63,3.94,3.94,0,0,1-.56-1.1s0-.22-.07-.52-.11-.65-.18-1-.15-.77-.25-1.14a3.19,3.19,0,0,0-.35-.9,7.87,7.87,0,0,0-7.66-4.15,7.63,7.63,0,0,0-5,1.42,4.63,4.63,0,0,0-1.69,3.7,4.21,4.21,0,0,0,.64,2.35,5.66,5.66,0,0,0,1.68,1.66,10.34,10.34,0,0,0,2.46,1.14c.94.3,1.95.59,3,.86q2.6.7,4.85,1.39a16.42,16.42,0,0,1,3.86,1.69,7.94,7.94,0,0,1,2.57,2.52,7.13,7.13,0,0,1,.95,3.81,7.23,7.23,0,0,1-1.2,4.35,8.73,8.73,0,0,1-2.92,2.6,11.48,11.48,0,0,1-3.76,1.24,24.5,24.5,0,0,1-3.72.31,22.93,22.93,0,0,1-2.67-.17,12.69,12.69,0,0,1-2.67-.62,9.3,9.3,0,0,1-2.32-1.21A5.65,5.65,0,0,1,342.23,231.67Z"/><path d="M379.55,229.94h4a7.13,7.13,0,0,1,2.46.35c.61.23.91.8.91,1.73a1.71,1.71,0,0,1-.63,1.41,2.23,2.23,0,0,1-1.48.52H372.24l-1.72,0a6.92,6.92,0,0,1-1.55-.21,2.8,2.8,0,0,1-1.12-.55,1.31,1.31,0,0,1-.46-1.07,1.53,1.53,0,0,1,.28-1,1.67,1.67,0,0,1,.85-.52,7.94,7.94,0,0,1,1.3-.28l1.72-.24a9.55,9.55,0,0,0,2.11-.45,1.23,1.23,0,0,0,.7-1c.14-1.48.22-3.08.25-4.81s0-3.26,0-4.59c0-1.76,0-3.44-.07-5s-.11-3.3-.21-5.05a4.9,4.9,0,0,0-.28-1.35.78.78,0,0,0-.77-.52c-.19,0-.55,0-1.09.07s-1.1.08-1.69.11-1.14.06-1.65.1-.87.07-1.06.07a2.8,2.8,0,0,1-1.26-.35c-.47-.23-.7-.48-.7-.76a1.85,1.85,0,0,1,.35-1.24,2.06,2.06,0,0,1,1-.62,7.32,7.32,0,0,1,1.61-.28c.64,0,1.35-.11,2.15-.21l2-.13,2.07-.14c.68,0,1.3-.07,1.86-.07h1.41a1,1,0,0,1,1,.65,6,6,0,0,1,.21,1.77Zm-7.1-36.09a4.12,4.12,0,0,1,.25-1.21,5.1,5.1,0,0,1,.7-1.35,4.17,4.17,0,0,1,1.23-1.07,3.6,3.6,0,0,1,1.83-.45,3.45,3.45,0,0,1,2.46,1,3.67,3.67,0,0,1,1.05,2.8A3.92,3.92,0,0,1,378.6,197a4.56,4.56,0,0,1-2.63,1,3.17,3.17,0,0,1-2.5-1.18A4.36,4.36,0,0,1,372.45,193.85Z"/><path d="M413.08,204.36c-.05-.51-.08-1.11-.11-1.8s0-1.36,0-2a2,2,0,0,1,.49-1.35,2.11,2.11,0,0,1,1.69-.59,2.3,2.3,0,0,1,1.76.62,2.42,2.42,0,0,1,.56,1.66v2.56c0,1.06,0,2.16,0,3.29s0,2.22,0,3.28v2.49c0,.37-.25.71-.74,1a3.21,3.21,0,0,1-1.79.48,2.57,2.57,0,0,1-1.23-.35,1.14,1.14,0,0,1-.67-1.1,8.21,8.21,0,0,0-1.9-5.71c-1.26-1.4-3.47-2.1-6.61-2.1a9.52,9.52,0,0,0-4.32,1,10,10,0,0,0-3.41,2.8,13.8,13.8,0,0,0-2.21,4.25,17.28,17.28,0,0,0-.81,5.43q0,5.46,2.64,8.64a9.07,9.07,0,0,0,7.41,3.18,14.43,14.43,0,0,0,6.82-1.45,10,10,0,0,0,4-3.53,4.32,4.32,0,0,1,1.3-1.45,2.2,2.2,0,0,1,1.09-.35,2.68,2.68,0,0,1,1.44.42,1.51,1.51,0,0,1,.66,1.38,2.39,2.39,0,0,1-.17.94,8.41,8.41,0,0,1-.53.93q-4.92,7.4-14.34,7.4a16.76,16.76,0,0,1-6.64-1.25,14.21,14.21,0,0,1-4.92-3.42,15.27,15.27,0,0,1-3.09-5.08,17.5,17.5,0,0,1-1.09-6.22,19.61,19.61,0,0,1,1.23-7,17.29,17.29,0,0,1,3.41-5.63,15.84,15.84,0,0,1,5.2-3.77,15.52,15.52,0,0,1,6.54-1.38,14.67,14.67,0,0,1,4.77.72A7.39,7.39,0,0,1,413.08,204.36Z"/><path d="M455.67,217.84a16.76,16.76,0,0,1-1.54,7.4,16.13,16.13,0,0,1-9.42,8.44,18.4,18.4,0,0,1-6,1,17,17,0,0,1-6.53-1.21,14.68,14.68,0,0,1-5.1-3.42,15.64,15.64,0,0,1-3.34-5.29,18.61,18.61,0,0,1-1.19-6.74,18.38,18.38,0,0,1,1.19-6.67,15.21,15.21,0,0,1,3.41-5.29,16,16,0,0,1,5.34-3.49,18.6,18.6,0,0,1,7.07-1.28,16.66,16.66,0,0,1,6.92,1.35,14.88,14.88,0,0,1,5,3.63,15.57,15.57,0,0,1,3.09,5.25A18.75,18.75,0,0,1,455.67,217.84Zm-16.16-12.37a11.86,11.86,0,0,0-4.43.83,11,11,0,0,0-3.73,2.42,11.49,11.49,0,0,0-2.56,3.94,14.17,14.17,0,0,0-1,5.32,13.78,13.78,0,0,0,1,5.53,12.05,12.05,0,0,0,2.63,3.91,10.6,10.6,0,0,0,3.59,2.31,10.46,10.46,0,0,0,3.79.77,11,11,0,0,0,3.87-.77,11.83,11.83,0,0,0,6.68-6.29,13.48,13.48,0,0,0,1.12-5.74,14.5,14.5,0,0,0-.81-4.94,11.89,11.89,0,0,0-2.24-3.87,10.18,10.18,0,0,0-3.48-2.52A11,11,0,0,0,439.51,205.47Z"/><path class="cls-5" d="M189.84,542.47l-1.6,1.47c-.4-10.33.68-23.69-2.1-23.69-.5,0-1.58,1.93-2.87,4.67-3.14,6.67-7.49,18.14-7.49,18.14C138.26,565,83.44,557.72,45.19,548.22A359.64,359.64,0,0,1,.81,534.28v43a287.6,287.6,0,0,0,44,5.18c34.7,1.61,69-1.82,93.62-5.4,22-3.21,36.33-6.55,36.33-6.55l9.67,3.57,5.79,2.14V542.09Z"/><polygon class="cls-6" points="193.33 539.26 193.12 577.32 190.25 576.26 190.25 542.1 193.33 539.26"/><rect class="cls-7" x="373.56" y="409.31" width="155.65" height="302.01"/><path class="cls-8" d="M362.92,401.65V723.78H193.63a3.4,3.4,0,0,1-1-.16l-2.36-322Z"/><path class="cls-9" d="M528,632.93v83.79l-158.14,2.1V671.1s5.24-6.66,31.36-10.91c5.38-.88,10.89-.86,16.47-1.33h.14c7.1-.59,14.31-2,21.53-6.89A49.94,49.94,0,0,0,451.1,640.3C464,623,494.46,624.67,528,632.93Z"/><path class="cls-8" d="M362.92,401.72V723.85H535.6V401.72ZM524.37,710.55H375.07V414h149.3Z"/><path class="cls-10" d="M398.13,476s-1.2-7.32,7.15-8c0,0,5.46-9.88,12.28-.7a17.88,17.88,0,0,1,19.08,5.8s21.79,3.86,12.26,15.06c0,0-42.25,1.07-50.43,0C398.47,488.1,383,485,398.13,476Z"/><path class="cls-10" d="M458.26,493.53s9.71-15.21,23-11.12c0,0,8.37-6.43,14.86-.68,0,0,9.43-5.45,16.11,9.39,0,0,16.62,3.13,3.3,14.33,0,0-49.57.53-61-.54C454.57,504.91,445,498.45,458.26,493.53Z"/><path class="cls-11" d="M45.63,572c-.15,4.09-.42,7.81-.79,10.51-.33,2.41-.75,4-1.25,4.43-3,2.49-43.77-3.46-43.77-3.46V524.14s40,14.1,43.77,17c.7.55,1.24,3.23,1.6,7.06.2,2.14.35,4.63.45,7.31C45.83,560.77,45.82,566.7,45.63,572Z"/><path class="cls-12" d="M297.08,422.2H269.52c-12.93,11.08-33.9,51.48-57.58,51.48v81.86a7.19,7.19,0,0,0,7.19,7.18H354.66v-89C331,473.68,310,433.28,297.08,422.2Z"/><path class="cls-12" d="M220.25,582.91H346.89a7.77,7.77,0,0,1,7.77,7.77V697.61a.46.46,0,0,1-.46.46H212.4a.46.46,0,0,1-.46-.46V591.22A8.31,8.31,0,0,1,220.25,582.91Z"/><path class="cls-13" d="M219.77,576.56l0-.11L201,573.24a9.68,9.68,0,0,1,19.23-1.56,10,10,0,0,1,.12,1.56A9.86,9.86,0,0,1,219.77,576.56Z"/><path class="cls-14" d="M463.7,627H421.39s.3-2.12.84-5.69c1-6.6,2.78-18.2,5-30.64,1.68-9.4,3.62-19.29,5.65-27.88,3.21-13.62,6.64-24,9.65-24s6.72,11.57,10.09,26.33c1.69,7.39,3.31,15.59,4.77,23.53C461.08,608.65,463.7,627,463.7,627Z"/><path class="cls-14" d="M433.78,642.92H391.47s4.13-28.48,9.23-53.07c3.88-18.67,8.31-35.11,11.92-35.11,5.08,0,9.89,18,13.64,37.79.12.6.23,1.2.34,1.8-1.94,11-3.49,21-4.37,27L423,627h8.75C433.05,636.44,433.78,642.92,433.78,642.92Z"/><path class="cls-15" d="M416.84,642.92V651s-.17,4.11-.19,8a68.22,68.22,0,0,0-7.71.66V642.92Z"/><path class="cls-15" d="M446,649.78c-.7,0-1.35-.08-2-.07l-.69,0-.35,0a2.27,2.27,0,0,0-.35.05,4.11,4.11,0,0,0-.47.07l-.61.13-.48.11H441l-.1,0-.93.27c-.19,0-.37.1-.56.17,0-.47,0-.92.07-1.35,0-.81.06-1.53.07-2.08.05-5-.95-20.17-.95-20.17h7.9s-.68,10.73-.71,14.32C445.77,643.2,445.87,646.43,446,649.78Z"/><path class="cls-15" d="M477.28,657l-1.56-.44-6.79-1.72a25.45,25.45,0,0,0-3.84-7.68l11.11.07Z"/><path class="cls-14" d="M493.62,647.15H451.31s1-8.47,2.67-20.14c1.29-8.89,3-19.63,4.94-29.93v0c3.79-19.86,8.6-38.08,13.55-38.08,4.5,0,8.84,14.63,12.41,32C490.07,616.18,493.62,647.15,493.62,647.15Z"/><path class="cls-14" d="M431.76,627H423l-.78-5.69c.88-6,2.43-16,4.37-27C428.74,605.87,430.51,617.84,431.76,627Z"/><path class="cls-15" d="M420.05,677.6H408.94v-18a68.22,68.22,0,0,1,7.71-.66c0,1,0,1.91,0,2.77h0c0,1.11.07,2.07.16,2.76C417.24,667.84,420.05,677.6,420.05,677.6Z"/><path class="cls-15" d="M446.5,661.68h-7.9l.81-11.07c.19-.07.37-.12.56-.17l.93-.27.1,0h.06l.48-.11.61-.13a4.11,4.11,0,0,1,.47-.07,2.27,2.27,0,0,1,.35-.05l.35,0,.69,0c.63,0,1.28,0,2,.07,0,.33,0,.66,0,1C446.23,656.24,446.5,661.68,446.5,661.68Z"/><path class="cls-15" d="M480,681.86l-14.92,0s4-3.41,5.23-11.35a31.84,31.84,0,0,0,.33-4.57,35.76,35.76,0,0,0-1.72-11.09l6.79,1.72,1.56.44,1,9.5v0Z"/><path class="cls-13" d="M219.8,576.45l0,.11a.59.59,0,0,0-.05.13,9.68,9.68,0,0,1-9.05,6.22c-5.34,0-9.67-5.1-9.67-10.45Z"/><rect class="cls-16" x="31.86" y="409.31" width="73.03" height="60.97"/><path class="cls-17" d="M58.81,430.68a2.6,2.6,0,0,0,.4-.23,14.89,14.89,0,0,1,10.2-3.25c3.68.07,6.72,1.68,9.53,3.87a18.56,18.56,0,0,1,4.52,5.15,28.09,28.09,0,0,0,10.8,10.09,23.16,23.16,0,0,0,3.93,1.79c0,.16-.06.21-.15.25a18.48,18.48,0,0,1-4.12,1.18c-1.62.2-3.22.51-4.85.58a25.9,25.9,0,0,1-7.24-.66l-2.74-.66a6.14,6.14,0,0,0-.88-.46.8.8,0,0,1-.58-1,25.34,25.34,0,0,0,0-6A8.52,8.52,0,0,0,75.08,436a8.39,8.39,0,0,0-8.06-2,9.56,9.56,0,0,0-5.19,3.44A6.86,6.86,0,0,0,60,442.68a7,7,0,0,0,1.11,3.49,5.15,5.15,0,0,0,5.34,2.06,8.11,8.11,0,0,0,3.95-1.57c1.69-1.37,1.88-4.49.53-6.47a3.44,3.44,0,0,0-6.22,1.17,1.76,1.76,0,0,0,0,1.09,2.16,2.16,0,0,0,2.63,1.29,1.7,1.7,0,0,0,.76-2.57c-.09-.18-.2-.44-.46-.36s-.25.33-.23.55a8.55,8.55,0,0,1,.09.87.73.73,0,0,1-1.08.72,1.16,1.16,0,0,1-.8-1.12,2.19,2.19,0,0,1,1.6-2.09,2.27,2.27,0,0,1,2.63.77,4.57,4.57,0,0,1,.5,3.52,2.78,2.78,0,0,1-1.95,2.29,9,9,0,0,1-2.69.56,4,4,0,0,1-3.42-1.23,4.83,4.83,0,0,1-1.17-3.86,7,7,0,0,1,2.11-4.3,8.47,8.47,0,0,1,5.1-2.45,7,7,0,0,1,6.59,2.87,10.22,10.22,0,0,1,1.66,4.78,7.15,7.15,0,0,1-.06,3.38,8.61,8.61,0,0,1-5,5.05,14.85,14.85,0,0,1-6.85,1.06,7.26,7.26,0,0,1-3.11-.78,14.3,14.3,0,0,1-3.17-2.21,10.83,10.83,0,0,1-3.25-4.4A14,14,0,0,1,57,432.89C57.54,432.1,58.25,431.46,58.81,430.68Z"/><path class="cls-17" d="M58.81,430.68c-.56.78-1.28,1.42-1.83,2.21a12.84,12.84,0,0,0-2.29,5.8,13,13,0,0,0,.4,6.1,11,11,0,0,0,3.26,4.4,14.34,14.34,0,0,0,3.17,2.22,7.4,7.4,0,0,0,3.11.77,15,15,0,0,0,6.85-1.05,8.65,8.65,0,0,0,5-5.06,7.28,7.28,0,0,0,.06-3.38,10.22,10.22,0,0,0-1.66-4.78A7,7,0,0,0,68.33,435a8.52,8.52,0,0,0-5.11,2.45,7.07,7.07,0,0,0-2.1,4.3,4.83,4.83,0,0,0,1.17,3.86,3.94,3.94,0,0,0,3.41,1.23,8.67,8.67,0,0,0,2.7-.56A2.77,2.77,0,0,0,70.34,444a4.54,4.54,0,0,0-.49-3.51,2.28,2.28,0,0,0-2.63-.78,2.19,2.19,0,0,0-1.6,2.09,1.16,1.16,0,0,0,.8,1.12.73.73,0,0,0,1.08-.72,8.55,8.55,0,0,0-.09-.87c0-.22,0-.48.23-.55s.36.18.46.37a1.69,1.69,0,0,1-.76,2.56,2.16,2.16,0,0,1-2.63-1.29,1.76,1.76,0,0,1,0-1.09,3.44,3.44,0,0,1,6.22-1.17c1.35,2,1.16,5.1-.53,6.48a8.1,8.1,0,0,1-3.95,1.56,5.15,5.15,0,0,1-5.34-2.06A7,7,0,0,1,60,442.68a6.82,6.82,0,0,1,1.88-5.32A9.58,9.58,0,0,1,67,433.91a8.34,8.34,0,0,1,8,2.06,8.44,8.44,0,0,1,2.58,5.34,25.42,25.42,0,0,1,0,6,.79.79,0,0,0,.58,1,6.14,6.14,0,0,1,.88.46,9,9,0,0,1-2,2.81c-2.47,2.3-5.23,4.2-8.59,4.76-4.13.68-8.25.54-11.91-1.91a16,16,0,0,1-6-7.7,56.13,56.13,0,0,1-2.25-8.34,35,35,0,0,0-3-8.94,17,17,0,0,0-4.2-5,9.32,9.32,0,0,0-2.71-1.55,34.62,34.62,0,0,1,11,1.85A25.44,25.44,0,0,1,58.81,430.68Z"/><path class="cls-18" d="M439.21,627h-7.45c-1.25-9.17-3-21.14-5.16-32.68.21-1.21,1.31-7.28,1.54-8.51Z"/><path class="cls-18" d="M458.92,597.08c-2,10.3-3.65,21-4.94,29.93h-8.62l11.53-41.12C457.42,588.74,458.44,594.35,458.92,597.08Z"/><path class="cls-18" d="M484.44,693c-8.4,4-20.5.26-27.5-5.59-3.73-3.12-10.44-12.13-12.93-14.53-7.37-7.09-11.31,9.1-14.6,12.63-7.28,7.83-23.59,1.27-28.56-3.63-4.06-4-18.09-18.36,8.09-22.25v18h11.11s-2.81-9.76-3.21-13.11a54.88,54.88,0,0,1-.19-5.54h0c.33,0,.66,0,1-.09h.14c7.1-.59,14.31-2,21.53-6.89-.29,4.43-.73,9.72-.73,9.72h7.9s-.3-6.12-.51-11.9c5.11.37,11.92,2.19,22.94,5a35.76,35.76,0,0,1,1.72,11.09c0,11.2-5.56,15.92-5.56,15.92l14.92,0L477.28,657C488.78,660.42,516.8,677.38,484.44,693Z"/><path class="cls-19" d="M22.37,582.91a72.29,72.29,0,0,1,9.49,4.3c-13-1-32-3.74-32-3.74V571.92S16.88,581,22.37,582.91Z"/><path class="cls-20" d="M219.72,576.69c-.49,1.47-3.95,9.75-7.78,9.75-13.09,0-10.94-13.2-10.94-13.2a9.68,9.68,0,0,0,18.72,3.45Z"/><path class="cls-8" d="M192.74,723.62a3.39,3.39,0,0,1-2.49-3.22V401.65Z"/><path class="cls-21" d="M183.27,524.92c.5-16.44-.5-115.61-.5-115.61l7.48-7.66V542.09l-.41.38-1.6,1.47c-.4-10.33.68-23.69-2.1-23.69C185.64,520.25,184.56,522.18,183.27,524.92Z"/><path class="cls-21" d="M192.61,723.62v.16l-8.54-2.9s.36-124.59.08-133.34a117.14,117.14,0,0,1,.31-13.42l5.79,2.14V720.4A3.37,3.37,0,0,0,192.61,723.62Z"/><path class="cls-22" d="M220.23,571.68c-8.29,0-10.75-2.88-19.12,0a9.69,9.69,0,0,1,19.12,0Z"/><polygon class="cls-23" points="362.92 723.78 535.6 723.85 600.82 801 305.45 801 362.92 723.78"/><polygon class="cls-24" points="524.37 710.55 375.07 710.55 362.92 723.78 535.6 723.85 524.37 710.55"/></g><g id="Capa_2" data-name="Capa 2"><path class="cls-4" d="M290.07,278a3.85,3.85,0,0,1,1.83.48,3.47,3.47,0,0,1,1.4,1.39,3.71,3.71,0,0,1,.51,1.87,3.82,3.82,0,0,1-.5,1.86,3.52,3.52,0,0,1-1.38,1.38,3.78,3.78,0,0,1-3.72,0,3.52,3.52,0,0,1-1.38-1.38,3.82,3.82,0,0,1-.5-1.86,3.71,3.71,0,0,1,.51-1.87,3.51,3.51,0,0,1,1.39-1.39A3.8,3.8,0,0,1,290.07,278Zm0,8.54c2,0,3.2,1,3.74,3.13l.07.92V312.4a3.57,3.57,0,0,1-2.67,3.58,1.89,1.89,0,0,1-.83.15H290a3.54,3.54,0,0,1-2.74-1.29,4.61,4.61,0,0,1-.92-3.28V290.88q0-3.25,2.67-4.2Z"/><path class="cls-4" d="M302.41,286.53a4,4,0,0,1,2.36,1,11.57,11.57,0,0,1,4.58-1,11.05,11.05,0,0,1,6.94,2.52h.08a11,11,0,0,1,7-2.52q5.48,0,9.15,5a11.08,11.08,0,0,1,1.61,5.57v15.41a3.56,3.56,0,0,1-2.06,3.28,3,3,0,0,1-1.45.38h-.39q-2.44,0-3.5-2.74l-.08-.54v-14.8c0-1.92-.64-3.14-1.91-3.66a3.58,3.58,0,0,0-1.52-.31c-1.48,0-2.52.84-3.13,2.52v15.8a3.59,3.59,0,0,1-2.67,3.58,1.94,1.94,0,0,1-.84.15h-.38q-2.49,0-3.51-2.74l-.08-.54V299.73c0-2.64-.15-4-.46-4a3.15,3.15,0,0,0-3-1.68,3.23,3.23,0,0,0-3,2.07,4.08,4.08,0,0,0-.23,1.52v14.8a3.54,3.54,0,0,1-2.06,3.28,2.94,2.94,0,0,1-1.45.38h-.38c-1.76,0-3-1-3.58-3.12V290.19q0-2.49,2.74-3.51Z"/><path class="cls-4" d="M346.26,323.31l-.08.45a3.68,3.68,0,0,1-3.66,2.83l-.84-.08a3.67,3.67,0,0,1-2.9-3.66V290.27l.08-.84c.64-1.93,1.84-2.9,3.58-2.9h.31l.68.08a4.3,4.3,0,0,1,2.41,1.81,11.86,11.86,0,0,1,6.21-1.89h1.3a13.45,13.45,0,0,1,7.55,2.75q5.73,4.92,5.73,11.75v.53a16,16,0,0,1-2.45,8.24q-4.68,6.33-11.44,6.33a13,13,0,0,1-6.48-1.69Zm.3-19.76q2,5,6.1,5a5.74,5.74,0,0,0,3.13-.91,7.26,7.26,0,0,0,3.28-6.11v-.23l.08-.07-.08-.08V301a8.42,8.42,0,0,0-.38-2.37q-2.06-4.65-6-4.65a5.84,5.84,0,0,0-3.12,1,7.52,7.52,0,0,0-3.28,6.33Z"/><path class="cls-4" d="M384.53,286.53a12.39,12.39,0,0,1,6.41,1.83,3.67,3.67,0,0,1,3.13-1.75c2.08,0,3.36,1.17,3.81,3.51v1.3l-.07,8.08.07,1.45-.15,11.9a3.92,3.92,0,0,1-1.68,2.75,4.24,4.24,0,0,1-1.83.53h-.38a3.76,3.76,0,0,1-3-1.67h-.08a12.48,12.48,0,0,1-6.25,1.67q-6.39,0-10.84-6.25a16,16,0,0,1-2.36-7.94v-1.22a15.58,15.58,0,0,1,3.81-9.84A13,13,0,0,1,384.53,286.53Zm-5.8,14.8a7.76,7.76,0,0,0,3.44,6.64,5.34,5.34,0,0,0,2.44.61h.08q3.31,0,5.26-4.5a13.77,13.77,0,0,0,.38-3.51,8.21,8.21,0,0,0-1.68-4.35,5.44,5.44,0,0,0-4.12-2.14c-2.31,0-4.09,1.51-5.34,4.51A10.81,10.81,0,0,0,378.73,301.33Z"/><path class="cls-4" d="M406.41,286.53a5,5,0,0,1,2.36.92,9.43,9.43,0,0,1,4.05-.92q2.61,0,3.66,3l.07.84q0,2.63-3,3.66a3.25,3.25,0,0,0-3.36,2.21l-.23,1.37v14.88a3.56,3.56,0,0,1-2.06,3.28,2.94,2.94,0,0,1-1.45.38h-.38q-2.46,0-3.51-2.74l-.07-.54V290.19q0-2.6,2.82-3.51Z"/><path class="cls-4" d="M428,280h.23a3.56,3.56,0,0,1,3.43,2.52,6.13,6.13,0,0,1,.23,1.91v2.36c1.18,0,2.17.81,3,2.44l.16,1v.39c0,1.8-1.05,3-3.13,3.58v18.16q0,2.9-3.13,3.81h-.91c-1.58,0-2.73-1-3.44-2.9l-.07-1.29v-17.7l-1.23-.46a3.75,3.75,0,0,1-1.9-3v-.46a3.52,3.52,0,0,1,2.67-3.43l.46-.08v-3a3.64,3.64,0,0,1,3-3.74Z"/><path class="cls-4" d="M450,286.53q8.5,0,11.82,8.09a19.18,19.18,0,0,1,.46,5.19,5.93,5.93,0,0,1-1.6,3.43,7.48,7.48,0,0,1-5.12,1.91l-6.4-.08h-3.9v.08a6,6,0,0,0,5.42,3.51q2.44,0,5.34-2.6a4.38,4.38,0,0,1,1.83-.45h.23c1.54,0,2.68.86,3.44,2.59l.15,1.14q0,2.45-3.21,4.35a13.51,13.51,0,0,1-7.4,2.44h-.91q-5.53,0-10.07-5a15.62,15.62,0,0,1-3.05-9.54v-.07a16.22,16.22,0,0,1,4.65-11.68A12.06,12.06,0,0,1,450,286.53Zm-4.58,11h.07l9.08.07h.08v-.45a3.79,3.79,0,0,0-1.83-2.37,5,5,0,0,0-2.9-.69Q446.9,294.08,445.41,297.52Z"/><path d="M197.22,335c0,.51,0,1,0,1.37l.08,1.37a1.5,1.5,0,0,1-.29.85,1.08,1.08,0,0,1-.94.41,1,1,0,0,1-.93-.47,1.44,1.44,0,0,1-.33-.72c0-.14,0-.36,0-.65s0-.61,0-1,0-.72.06-1.08,0-.67,0-.94,0-.71,0-1,0-.52,0-.78,0-.51,0-.77,0-.59,0-1a2.71,2.71,0,0,1,.22-1,1,1,0,0,1,1-.54,1,1,0,0,1,.72.24,1.46,1.46,0,0,1,.39.61,3,3,0,0,1,.19.81c0,.29,0,.56,0,.83a3.87,3.87,0,0,0,.45,1.8,5,5,0,0,0,1.32,1.57,6.36,6.36,0,0,0,2.12,1.11,9.16,9.16,0,0,0,2.89.42,11.06,11.06,0,0,0,2.47-.27,8.49,8.49,0,0,0,2.05-.74,4.41,4.41,0,0,0,1.42-1.14,2.3,2.3,0,0,0,.54-1.49,2.67,2.67,0,0,0-.88-1.95,10,10,0,0,0-2.22-1.58,27.68,27.68,0,0,0-2.84-1.34c-1-.4-1.94-.81-2.78-1.22s-1.55-.76-2.36-1.21a9.36,9.36,0,0,1-2.2-1.69,8.11,8.11,0,0,1-1.62-2.58,10.38,10.38,0,0,1-.63-3.89,8.32,8.32,0,0,1,.85-3.75,10.47,10.47,0,0,1,2.18-3,10.11,10.11,0,0,1,3-2,8.17,8.17,0,0,1,3.28-.72,7.09,7.09,0,0,1,4.47,1.42,9.55,9.55,0,0,1,2.92,4.56c-.1-1.51-.17-2.63-.22-3.37s-.07-1.11-.07-1.13a1.78,1.78,0,0,1,.23-.85,1,1,0,0,1,1-.41,1.36,1.36,0,0,1,.69.14,1.39,1.39,0,0,1,.38.32,1.05,1.05,0,0,1,.16.4,2.63,2.63,0,0,1,0,.33c0,.84,0,1.71-.07,2.61s-.07,1.78-.07,2.65,0,1.49,0,2.16,0,1.39,0,2.16a1.17,1.17,0,0,1-1.29,1.23,1,1,0,0,1-1-.67,4,4,0,0,1-.25-1.46,9.78,9.78,0,0,0-2.38-5.68,7.14,7.14,0,0,0-2.07-1.65,4.8,4.8,0,0,0-2.25-.6,6,6,0,0,0-2.76.65,7.32,7.32,0,0,0-2.22,1.73,8.83,8.83,0,0,0-1.49,2.45,7.41,7.41,0,0,0-.56,2.81,7.93,7.93,0,0,0,.4,2.72,5.24,5.24,0,0,0,1.06,1.84,5.83,5.83,0,0,0,1.51,1.21c.57.31,1.14.6,1.72.86s1.16.51,1.9.8,1.52.62,2.33,1,1.6.78,2.4,1.22a13,13,0,0,1,2.12,1.48,7.05,7.05,0,0,1,1.52,1.82,4.4,4.4,0,0,1,.57,2.2,4.29,4.29,0,0,1-.88,2.74,6.48,6.48,0,0,1-2.22,1.78,11.26,11.26,0,0,1-2.9,1,15.6,15.6,0,0,1-2.94.3,12.22,12.22,0,0,1-2-.18,9.38,9.38,0,0,1-2-.59,6.76,6.76,0,0,1-1.78-1.12A4.93,4.93,0,0,1,197.22,335Z"/><path d="M233,329.7a8.8,8.8,0,0,1-.8,3.85,8.46,8.46,0,0,1-2,2.76,8.33,8.33,0,0,1-2.8,1.64,9.23,9.23,0,0,1-3.06.54,8.62,8.62,0,0,1-3.35-.63,7.53,7.53,0,0,1-2.61-1.78,8.11,8.11,0,0,1-1.72-2.76,10.32,10.32,0,0,1,0-7,7.89,7.89,0,0,1,1.75-2.76,8.31,8.31,0,0,1,2.74-1.82,9.45,9.45,0,0,1,3.62-.67,8.39,8.39,0,0,1,3.55.71,7.71,7.71,0,0,1,2.58,1.89,8.12,8.12,0,0,1,1.58,2.74A9.61,9.61,0,0,1,233,329.7Zm-8.29-6.45a6,6,0,0,0-2.27.43,5.68,5.68,0,0,0-1.91,1.26,5.85,5.85,0,0,0-1.32,2.05,7.61,7.61,0,0,0-.49,2.78,7.22,7.22,0,0,0,.53,2.88,6.11,6.11,0,0,0,1.35,2,5.5,5.5,0,0,0,1.84,1.21,5.36,5.36,0,0,0,1.94.39,5.71,5.71,0,0,0,2-.39,6.2,6.2,0,0,0,3.42-3.28,7.21,7.21,0,0,0,.58-3,7.59,7.59,0,0,0-.42-2.58,6.34,6.34,0,0,0-1.15-2,5.19,5.19,0,0,0-1.79-1.31A5.41,5.41,0,0,0,224.72,323.25Z"/><path d="M247.82,322.67c0-.26,0-.58-.06-.94s0-.71,0-1a1,1,0,0,1,1.11-1,1.16,1.16,0,0,1,.9.32,1.24,1.24,0,0,1,.29.87v1.33c0,.55,0,1.12,0,1.71s0,1.16,0,1.71v1.3a.67.67,0,0,1-.38.54,1.61,1.61,0,0,1-.92.26,1.38,1.38,0,0,1-.63-.18.61.61,0,0,1-.34-.58,3.7,3.7,0,0,0-4.37-4.07,4.76,4.76,0,0,0-2.21.52,5,5,0,0,0-1.75,1.46,7.09,7.09,0,0,0-1.13,2.21,9.08,9.08,0,0,0-.42,2.83,7,7,0,0,0,1.35,4.51,4.65,4.65,0,0,0,3.8,1.66,7.37,7.37,0,0,0,3.5-.76,5.16,5.16,0,0,0,2-1.84,2.32,2.32,0,0,1,.67-.75,1.07,1.07,0,0,1,.56-.19,1.42,1.42,0,0,1,.74.22.79.79,0,0,1,.34.72,1.19,1.19,0,0,1-.09.49,4.37,4.37,0,0,1-.27.48,8.22,8.22,0,0,1-7.35,3.86,8.53,8.53,0,0,1-3.41-.65,7.16,7.16,0,0,1-2.52-1.78,8.32,8.32,0,0,1-1.59-2.65,9.34,9.34,0,0,1-.55-3.24,10.35,10.35,0,0,1,.63-3.64,9.16,9.16,0,0,1,1.74-2.94,8.43,8.43,0,0,1,2.67-2,7.84,7.84,0,0,1,3.35-.72,7.41,7.41,0,0,1,2.45.38A3.82,3.82,0,0,1,247.82,322.67Z"/><path d="M253.3,336.87a2.27,2.27,0,0,1,.1-.67,2,2,0,0,1,.36-.63,2,2,0,0,1,.67-.48,2.19,2.19,0,0,1,1-.2,2,2,0,0,1,1.59.61,2,2,0,0,1,.5,1.3,2,2,0,0,1-.56,1.37,2,2,0,0,1-1.6.61,1.86,1.86,0,0,1-1.59-.63A2.14,2.14,0,0,1,253.3,336.87Z"/><path d="M274.74,326a.12.12,0,0,1-.11,0v10.35h2.88a3.81,3.81,0,0,1,1.19.16.72.72,0,0,1,.51.77.74.74,0,0,1-.45.65,5.06,5.06,0,0,1-2,.25H270c-.7,0-1.13-.09-1.3-.28a1,1,0,0,1-.25-.69.62.62,0,0,1,.34-.56,3.71,3.71,0,0,1,1.53-.2,2.84,2.84,0,0,0,.56-.05,1.29,1.29,0,0,0,.56-.25,1.45,1.45,0,0,0,.42-.54,2.34,2.34,0,0,0,.16-.92c0-1.87,0-3.76,0-5.66s0-3.79,0-5.69,0-3.91-.11-5.82-.11-3.85-.11-5.82a1,1,0,0,0-.63-1.05,4.85,4.85,0,0,0-1.53-.22c-.77,0-1.15-.34-1.15-1a.54.54,0,0,1,.34-.54,1.73,1.73,0,0,1,.7-.15H272l1.87,0,2,0h2.68a15.59,15.59,0,0,1,3.53.43,11.68,11.68,0,0,1,3.46,1.39,8.27,8.27,0,0,1,2.65,2.52,6.65,6.65,0,0,1,1.07,3.84,8.08,8.08,0,0,1-.94,4,8.44,8.44,0,0,1-2.47,2.77,11.68,11.68,0,0,1-3.53,1.7,20.35,20.35,0,0,1-4.17.77c1,1.57,2,3.08,3,4.54q1.26,1.92,2.78,3.93c1,1.35,1.94,2.51,2.81,3.5h4.43a4.21,4.21,0,0,1,1.24.14.67.67,0,0,1,.42.72.54.54,0,0,1-.24.44,2.3,2.3,0,0,1-1,.28,21,21,0,0,1-2.2.17c-1,0-2.24.05-3.85.05-.22,0-.54-.23-1-.7s-.93-1.08-1.51-1.84-1.21-1.62-1.89-2.6-1.38-2-2.07-3-1.39-2-2.08-3-1.32-1.84-1.92-2.61Zm11.78-9.05a4.85,4.85,0,0,0-.5-2.25,5.78,5.78,0,0,0-1.3-1.64,7.12,7.12,0,0,0-1.82-1.12,12.51,12.51,0,0,0-2-.66,15,15,0,0,0-2-.33c-.63-.06-1.18-.09-1.64-.09s-.66,0-1,0a6,6,0,0,0-.83.11l-.79.11V323.5l.25,0,.49,0h.5l.27,0a24.77,24.77,0,0,0,3.44-.25,11.62,11.62,0,0,0,3.38-1,6.91,6.91,0,0,0,2.55-2A5.3,5.3,0,0,0,286.52,316.9Z"/><path d="M309.16,329.7a8.8,8.8,0,0,1-.8,3.85,8.46,8.46,0,0,1-2,2.76,8.33,8.33,0,0,1-2.8,1.64,9.23,9.23,0,0,1-3.06.54,8.62,8.62,0,0,1-3.35-.63,7.53,7.53,0,0,1-2.61-1.78,8.11,8.11,0,0,1-1.72-2.76,10.32,10.32,0,0,1,0-7,7.89,7.89,0,0,1,1.75-2.76,8.31,8.31,0,0,1,2.74-1.82,9.45,9.45,0,0,1,3.62-.67,8.39,8.39,0,0,1,3.55.71,7.71,7.71,0,0,1,2.58,1.89,8.12,8.12,0,0,1,1.58,2.74A9.86,9.86,0,0,1,309.16,329.7Zm-8.29-6.45a6,6,0,0,0-2.27.43,5.68,5.68,0,0,0-1.91,1.26,5.85,5.85,0,0,0-1.32,2.05,7.61,7.61,0,0,0-.49,2.78,7.22,7.22,0,0,0,.53,2.88,6.11,6.11,0,0,0,1.35,2,5.5,5.5,0,0,0,1.84,1.21,5.36,5.36,0,0,0,1.94.39,5.61,5.61,0,0,0,2-.39,6.17,6.17,0,0,0,3.43-3.28,7.22,7.22,0,0,0,.57-3,7.59,7.59,0,0,0-.41-2.58,6.34,6.34,0,0,0-1.15-2,5.19,5.19,0,0,0-1.79-1.31A5.41,5.41,0,0,0,300.87,323.25Z"/><path d="M315.1,326.06a8.23,8.23,0,0,1,2.63-3.32,6.19,6.19,0,0,1,3.68-1.15,5.25,5.25,0,0,1,3,.83,6.18,6.18,0,0,1,2,2.09,9.68,9.68,0,0,1,1,2.77,13.53,13.53,0,0,1,.32,2.89,8.81,8.81,0,0,1-.77,3.92,7.51,7.51,0,0,1-1.95,2.55,7.33,7.33,0,0,1-2.57,1.36,9.36,9.36,0,0,1-2.67.42,6.41,6.41,0,0,1-1.87-.25,5.28,5.28,0,0,1-1.37-.65,5,5,0,0,1-1-.88,6.34,6.34,0,0,1-.71-1c-.05.58-.08,1.06-.1,1.43a2.69,2.69,0,0,1-.19.88.8.8,0,0,1-.39.45,1.63,1.63,0,0,1-.69.13,1.17,1.17,0,0,1-.84-.33,1.26,1.26,0,0,1-.35-1c0-.79,0-1.51,0-2.16s0-1.31.07-2,.05-1.37.07-2.12.05-1.64.08-2.63,0-2.17.05-3.5,0-2.9,0-4.7v-2.67c0-.89,0-1.73,0-2.52s0-1.5,0-2.11v-1.42c0-.65-.54-1-1.62-1h-1.37a3.39,3.39,0,0,1-1.13-.18c-.35-.12-.53-.32-.53-.61s.27-.59.81-.77a7.27,7.27,0,0,1,2.22-.28h3.24a1.31,1.31,0,0,1,.63.18c.21.13.31.5.31,1.12Zm.11,4.65a6.42,6.42,0,0,0,1.13,4.1,4,4,0,0,0,3.34,1.41,6.4,6.4,0,0,0,1.71-.27,4.55,4.55,0,0,0,1.77-1,5.76,5.76,0,0,0,1.37-1.91,7.42,7.42,0,0,0,.55-3.08,8.42,8.42,0,0,0-.45-3,5.9,5.9,0,0,0-1.11-1.91,4.24,4.24,0,0,0-1.41-1,3.54,3.54,0,0,0-1.31-.3,4,4,0,0,0-2.55.84,7.25,7.25,0,0,0-1.72,2,9.66,9.66,0,0,0-1,2.28A7.41,7.41,0,0,0,315.21,330.71Z"/><path d="M332.69,329.48c0,.12,0,.25-.06.38s0,.26,0,.38a6.8,6.8,0,0,0,.36,2.16,6.16,6.16,0,0,0,1.06,2,5.21,5.21,0,0,0,1.73,1.38,5.1,5.1,0,0,0,2.36.53,5.81,5.81,0,0,0,2.38-.44,4.49,4.49,0,0,0,1.57-1.09,4.42,4.42,0,0,0,.86-1.45,4.32,4.32,0,0,0,.27-1.42,1.59,1.59,0,0,1,.24-.72c.15-.29.48-.43,1-.43a1.05,1.05,0,0,1,.75.3,1.11,1.11,0,0,1,.33.85,8.32,8.32,0,0,1-.38,2.47,5.35,5.35,0,0,1-1.28,2.14,6.49,6.49,0,0,1-2.45,1.52,11.27,11.27,0,0,1-3.86.57,8,8,0,0,1-3.29-.63,6.56,6.56,0,0,1-2.4-1.78,7.67,7.67,0,0,1-1.46-2.72,12.61,12.61,0,0,1,.09-7.26,7.72,7.72,0,0,1,1.66-2.85,7.51,7.51,0,0,1,2.59-1.79,8.65,8.65,0,0,1,3.35-.63,7.29,7.29,0,0,1,3.36.71,6.94,6.94,0,0,1,2.19,1.69,6.36,6.36,0,0,1,1.19,2.05,5.81,5.81,0,0,1,.36,1.79,3.21,3.21,0,0,1-.39,1.55,1.24,1.24,0,0,1-1.12.72l-2.65,0-3.26,0h-2.49c-.5,0-1,0-1.46,0Zm9.26-2.31c.41,0,.61-.09.61-.28a3,3,0,0,0-.29-1.21,4,4,0,0,0-.84-1.23,4.66,4.66,0,0,0-1.43-.93,4.84,4.84,0,0,0-2-.38,5,5,0,0,0-2,.38,5.17,5.17,0,0,0-1.55,1,5.31,5.31,0,0,0-1.05,1.33,5.53,5.53,0,0,0-.54,1.5Z"/><path d="M361.45,326a5.14,5.14,0,0,1-.13,1.18,3,3,0,0,1-.41,1,2.44,2.44,0,0,1-.76.74,2.25,2.25,0,0,1-1.19.29,2,2,0,0,1-1.13-.34,1.2,1.2,0,0,1-.53-1.07,1,1,0,0,1,.24-.77,1.42,1.42,0,0,1,.54-.36l.54-.27a.6.6,0,0,0,.23-.54,1,1,0,0,0-.47-1,2.34,2.34,0,0,0-1.18-.27,4,4,0,0,0-2.82,1.26,5.54,5.54,0,0,0-1.08,1.79,7.43,7.43,0,0,0-.43,2.72v5.48h1.95a8,8,0,0,1,2.63.3c.5.21.75.51.75.92,0,.65-.36,1-1.08,1h-1.19l-1.31,0-1.32,0h-2.09l-.77,0-.76,0h-.88a1.15,1.15,0,0,1-.87-.3,1,1,0,0,1-.29-.7,1.19,1.19,0,0,1,.28-.76,1.17,1.17,0,0,1,.88-.43,1.86,1.86,0,0,0,1.13-.42,1.35,1.35,0,0,0,.31-.81c0-.31,0-.71.05-1.21s0-1.14.06-1.94,0-1.8,0-3,0-2.63,0-4.36c0-.33-.18-.5-.54-.5h-1.77a2.68,2.68,0,0,1-1.35-.27c-.3-.18-.45-.37-.45-.56s.19-.39.56-.52a6.76,6.76,0,0,1,1.35-.31c.53-.07,1.09-.12,1.7-.14s1.11,0,1.54,0a2.46,2.46,0,0,1,1.27.22c.21.14.32.53.32,1.15V325a6.13,6.13,0,0,1,2-1.9,4.79,4.79,0,0,1,2.38-.63,4.32,4.32,0,0,1,1.64.31,4.46,4.46,0,0,1,1.28.79,3.44,3.44,0,0,1,.83,1.12A3.17,3.17,0,0,1,361.45,326Z"/><path d="M365.48,323.54l-1.55,0c-.57,0-1.08,0-1.51,0a1.51,1.51,0,0,1-.63-.22.86.86,0,0,1-.41-.86.81.81,0,0,1,.36-.74,2,2,0,0,1,.86-.31l1.84-.18c.48-.05.77-.16.86-.34a1.93,1.93,0,0,0,.15-.88c0-.51,0-1.06,0-1.64a7.78,7.78,0,0,1,.2-1.61c.12-.48.32-.77.58-.86a1.87,1.87,0,0,1,.58-.15,1.47,1.47,0,0,1,.83.24c.24.15.36.59.36,1.31v3.86l1,0,1.53,0,1.5-.06.9,0a1.75,1.75,0,0,1,.86.24,1,1,0,0,1,.11,1.55,1.73,1.73,0,0,1-.65.3c-.86.1-1.75.16-2.65.18l-2.57.11v9.16a10.58,10.58,0,0,0,.07,1.22,5.63,5.63,0,0,0,.27,1.21,2.32,2.32,0,0,0,.57.92,1.45,1.45,0,0,0,1,.36,2,2,0,0,0,.94-.2,2.09,2.09,0,0,0,.61-.49,2.38,2.38,0,0,0,.4-.61c.09-.22.18-.42.25-.61s.14-.39.2-.58a2.73,2.73,0,0,1,.23-.52,1.12,1.12,0,0,1,.4-.38,1.46,1.46,0,0,1,.68-.14.75.75,0,0,1,.47.14,1,1,0,0,1,.27.33,1.74,1.74,0,0,1,.13.36,1.75,1.75,0,0,1,0,.25,4.06,4.06,0,0,1-.28,1.3,5.37,5.37,0,0,1-.92,1.53,5.57,5.57,0,0,1-1.61,1.26,4.74,4.74,0,0,1-2.3.52,3.36,3.36,0,0,1-3-1.48,4.51,4.51,0,0,1-.56-1.17,10.72,10.72,0,0,1-.31-1.3,9.69,9.69,0,0,1-.12-1.27c0-.41,0-.79,0-1.12Z"/><path d="M392.94,329.7a8.8,8.8,0,0,1-.79,3.85,8.61,8.61,0,0,1-2,2.76,8.43,8.43,0,0,1-2.8,1.64,9.23,9.23,0,0,1-3.06.54,8.62,8.62,0,0,1-3.35-.63,7.66,7.66,0,0,1-2.62-1.78,8.25,8.25,0,0,1-1.71-2.76,10.32,10.32,0,0,1,0-7,7.89,7.89,0,0,1,1.75-2.76,8.31,8.31,0,0,1,2.74-1.82,9.45,9.45,0,0,1,3.62-.67,8.39,8.39,0,0,1,3.55.71,7.71,7.71,0,0,1,2.58,1.89,8.29,8.29,0,0,1,1.58,2.74A9.86,9.86,0,0,1,392.94,329.7Zm-8.28-6.45a6.08,6.08,0,0,0-2.28.43,5.78,5.78,0,0,0-1.91,1.26,6,6,0,0,0-1.31,2.05,7.41,7.41,0,0,0-.49,2.78,7.22,7.22,0,0,0,.53,2.88,6,6,0,0,0,1.35,2,5.56,5.56,0,0,0,1.83,1.21,5.46,5.46,0,0,0,1.95.39,5.61,5.61,0,0,0,2-.39,6.17,6.17,0,0,0,3.43-3.28,7.22,7.22,0,0,0,.57-3,7.84,7.84,0,0,0-.41-2.58,6.34,6.34,0,0,0-1.15-2,5.19,5.19,0,0,0-1.79-1.31A5.44,5.44,0,0,0,384.66,323.25Z"/><path d="M437.81,311.68c-.74.07-1.4.12-2,.14s-1.24.07-2,.15c-.53,0-.85.24-1,.59a4,4,0,0,0-.16,1.1c0,1,0,2.41-.07,4.14s-.07,3.93-.07,6.6c0,1,0,2.21,0,3.53s.05,2.63.06,3.91,0,2.47.05,3.53,0,1.86,0,2.36h4a1.56,1.56,0,0,1,.74.18.75.75,0,0,1,.34.73q0,.93-.72.93h-8.11a3.11,3.11,0,0,1-1-.16.72.72,0,0,1-.48-.77c0-.37.12-.59.36-.67a1.94,1.94,0,0,1,.68-.13,3.39,3.39,0,0,0,.43,0,.83.83,0,0,0,.47-.18,1,1,0,0,0,.36-.5,2.47,2.47,0,0,0,.15-1V315.32c-.87,2.43-1.73,4.82-2.6,7.19s-1.67,4.57-2.41,6.61-1.4,3.83-2,5.35-1,2.65-1.2,3.37-.77,1.26-1.44,1.26a1.17,1.17,0,0,1-.67-.18,2.48,2.48,0,0,1-.49-.43,2.32,2.32,0,0,1-.34-.52l-.2-.45q-.49-1.36-1.26-3.3c-.5-1.28-1.06-2.65-1.66-4.09l-1.85-4.43c-.64-1.52-1.25-3-1.82-4.35s-1.1-2.65-1.57-3.82-.84-2.12-1.1-2.86v21.59h3.6a1.37,1.37,0,0,1,.74.2.85.85,0,0,1,.34.81,1,1,0,0,1-.17.57.64.64,0,0,1-.55.25h-8.14a3.29,3.29,0,0,1-1-.14.64.64,0,0,1-.49-.68c0-.41.12-.66.36-.76a1.79,1.79,0,0,1,.69-.15h.5a1.47,1.47,0,0,0,.56-.18,1.38,1.38,0,0,0,.47-.51,1.92,1.92,0,0,0,.2-1c.12-1.64.2-3.33.25-5.08s.07-3.54.07-5.34q0-3.09-.05-6c0-1.94-.06-3.89-.06-5.83a1,1,0,0,0-.59-1.05,4.26,4.26,0,0,0-1.32-.32c-.48-.05-.92-.12-1.31-.2a.67.67,0,0,1-.6-.71.73.73,0,0,1,.53-.77,5.53,5.53,0,0,1,1.56-.16h4.51a1.18,1.18,0,0,1,.77.23,2.86,2.86,0,0,1,.56,1.21c.22.72.56,1.71,1,3s1,2.66,1.64,4.2,1.28,3.15,2,4.83,1.35,3.32,2,4.92,1.24,3.08,1.77,4.45.94,2.5,1.22,3.39c.34-.89.74-2,1.21-3.26l1.51-4.17c.55-1.49,1.09-3,1.65-4.61s1.09-3.12,1.62-4.59,1-2.86,1.47-4.13.84-2.34,1.16-3.21l.39-.79a1.14,1.14,0,0,1,.42-.45,2,2,0,0,1,.77-.22c.34,0,.84-.05,1.52-.05h5.33a5,5,0,0,1,1.1.11.63.63,0,0,1,.52.72c0,.41-.14.63-.41.68S438.17,311.58,437.81,311.68Z"/><path d="M450.21,330c0-.26,0-.52,0-.77s0-.44,0-.56a6.12,6.12,0,0,0-1-3.73,3.64,3.64,0,0,0-3.15-1.35,7.57,7.57,0,0,0-1.3.12,7,7,0,0,0-1.24.36,3.48,3.48,0,0,0-.94.58,1,1,0,0,0-.37.77c0,.2.05.32.18.38a2.3,2.3,0,0,0,.54.17,1.3,1.3,0,0,1,.57.28,1,1,0,0,1,.33.83,1.16,1.16,0,0,1-.44,1,1.77,1.77,0,0,1-1.15.34,1.68,1.68,0,0,1-1.58-.79,3.29,3.29,0,0,1-.47-1.73,3.83,3.83,0,0,1,1.65-3.19,7.36,7.36,0,0,1,4.51-1.25q6.38,0,6.38,7c0,.27,0,.61,0,1s0,.89,0,1.38l0,1.48c0,.5,0,.92,0,1.28a10.37,10.37,0,0,0,.14,2.16.63.63,0,0,0,.65.51.53.53,0,0,0,.53-.25,2.46,2.46,0,0,0,.19-.72,1.23,1.23,0,0,1,.26-.51.84.84,0,0,1,.72-.29.59.59,0,0,1,.61.36,2.16,2.16,0,0,1,.14.83,3.05,3.05,0,0,1-.23,1.28,2.39,2.39,0,0,1-.63.85,2.77,2.77,0,0,1-.88.47,3.88,3.88,0,0,1-1,.14,3.19,3.19,0,0,1-1.75-.49,2.68,2.68,0,0,1-1.1-1.64,8.09,8.09,0,0,1-2.54,1.59,8.4,8.4,0,0,1-3.08.54,6.42,6.42,0,0,1-4-1.15,3.7,3.7,0,0,1-1.49-3.1,4.42,4.42,0,0,1,.43-1.95,4.69,4.69,0,0,1,1.22-1.55,6.05,6.05,0,0,1,1.9-1,7.32,7.32,0,0,1,2.47-.38,8.33,8.33,0,0,1,5,1.66Zm-8.5,4.18a1.71,1.71,0,0,0,1.11,1.61,6.42,6.42,0,0,0,2.67.52,8.12,8.12,0,0,0,1.82-.2,7,7,0,0,0,1.49-.52,3.14,3.14,0,0,0,1-.78,1.52,1.52,0,0,0,.38-1,1.54,1.54,0,0,0-.32-.93,2.62,2.62,0,0,0-.91-.74,5.32,5.32,0,0,0-1.31-.49,6.76,6.76,0,0,0-1.6-.18,7.15,7.15,0,0,0-1.73.2,4.62,4.62,0,0,0-1.37.56,3.05,3.05,0,0,0-.92.86A1.89,1.89,0,0,0,441.71,334.2Z"/><path d="M470,326a5.14,5.14,0,0,1-.13,1.18,3,3,0,0,1-.41,1,2.34,2.34,0,0,1-.76.74,2.25,2.25,0,0,1-1.19.29,2,2,0,0,1-1.13-.34,1.19,1.19,0,0,1-.52-1.07,1,1,0,0,1,.23-.77,1.6,1.6,0,0,1,.54-.36l.54-.27a.59.59,0,0,0,.24-.54,1,1,0,0,0-.47-1,2.38,2.38,0,0,0-1.19-.27,4.08,4.08,0,0,0-1.41.29,3.85,3.85,0,0,0-1.4,1,5.21,5.21,0,0,0-1.08,1.79,7.41,7.41,0,0,0-.44,2.72v5.48h1.95a8,8,0,0,1,2.63.3c.51.21.76.51.76.92,0,.65-.36,1-1.08,1h-1.19l-1.32,0-1.31,0H459.8l-.78,0-.76,0h-.88a1.14,1.14,0,0,1-.86-.3,1,1,0,0,1-.29-.7,1.24,1.24,0,0,1,.27-.76,1.18,1.18,0,0,1,.88-.43,1.86,1.86,0,0,0,1.14-.42,1.28,1.28,0,0,0,.3-.81c0-.31,0-.71.06-1.21s0-1.14.05-1.94,0-1.8.05-3,0-2.63,0-4.36c0-.33-.18-.5-.54-.5H456.7a2.72,2.72,0,0,1-1.36-.27c-.3-.18-.45-.37-.45-.56s.19-.39.56-.52a7.11,7.11,0,0,1,1.35-.31c.53-.07,1.1-.12,1.7-.14s1.12,0,1.55,0a2.45,2.45,0,0,1,1.26.22c.22.14.32.53.32,1.15V325a6.06,6.06,0,0,1,2-1.9,4.73,4.73,0,0,1,2.37-.63,4.36,4.36,0,0,1,2.92,1.1,3.44,3.44,0,0,1,.83,1.12A3.17,3.17,0,0,1,470,326Z"/><path d="M474.07,323.54l-1.55,0c-.58,0-1.08,0-1.52,0a1.51,1.51,0,0,1-.63-.22.88.88,0,0,1-.41-.86.81.81,0,0,1,.36-.74,2.1,2.1,0,0,1,.86-.31l1.84-.18c.48-.05.77-.16.87-.34a2.11,2.11,0,0,0,.14-.88c0-.51,0-1.06,0-1.64a7.16,7.16,0,0,1,.2-1.61c.12-.48.31-.77.57-.86a1.94,1.94,0,0,1,.58-.15,1.47,1.47,0,0,1,.83.24c.24.15.36.59.36,1.31v3.86l1,0,1.53,0,1.5-.06.9,0a1.79,1.79,0,0,1,.87.24.86.86,0,0,1,.43.81.85.85,0,0,1-.33.74,1.66,1.66,0,0,1-.65.3q-1.29.15-2.64.18l-2.58.11v9.16a10.58,10.58,0,0,0,.07,1.22,5.63,5.63,0,0,0,.27,1.21,2.34,2.34,0,0,0,.58.92,1.42,1.42,0,0,0,1,.36,1.94,1.94,0,0,0,.93-.2,2,2,0,0,0,.61-.49,2.38,2.38,0,0,0,.4-.61c.1-.22.18-.42.25-.61s.14-.39.2-.58a2.25,2.25,0,0,1,.24-.52,1,1,0,0,1,.39-.38,1.48,1.48,0,0,1,.69-.14.79.79,0,0,1,.47.14,1.19,1.19,0,0,1,.27.33,1.27,1.27,0,0,1,.12.36,1.1,1.1,0,0,1,0,.25,4.12,4.12,0,0,1-.29,1.3,5.15,5.15,0,0,1-.92,1.53,5.52,5.52,0,0,1-1.6,1.26,4.8,4.8,0,0,1-2.31.52,3.36,3.36,0,0,1-3-1.48,4.85,4.85,0,0,1-.56-1.17,9.11,9.11,0,0,1-.3-1.3,9.77,9.77,0,0,1-.13-1.27c0-.41,0-.79,0-1.12Z"/><path d="M490.61,336h2.05a3.58,3.58,0,0,1,1.26.18c.32.13.47.43.47.91a.91.91,0,0,1-.32.73,1.16,1.16,0,0,1-.76.27H486a4.42,4.42,0,0,1-.8-.11,1.46,1.46,0,0,1-.57-.29.68.68,0,0,1-.24-.56.76.76,0,0,1,.15-.5.84.84,0,0,1,.43-.27,4.81,4.81,0,0,1,.67-.15l.88-.12a4.66,4.66,0,0,0,1.08-.24.65.65,0,0,0,.36-.52c.07-.77.12-1.6.13-2.51s0-1.69,0-2.39c0-.91,0-1.79,0-2.63s-.06-1.72-.11-2.63a2.47,2.47,0,0,0-.14-.71.4.4,0,0,0-.4-.27l-.56,0-.86,0c-.3,0-.59,0-.85.06l-.54,0a1.49,1.49,0,0,1-.65-.18q-.36-.18-.36-.39a1,1,0,0,1,.18-.65,1.09,1.09,0,0,1,.52-.33,3.67,3.67,0,0,1,.83-.14c.33,0,.69-.06,1.1-.11l1-.07,1.06-.07c.35,0,.67,0,1,0H490a.5.5,0,0,1,.54.34,3.25,3.25,0,0,1,.11.92Zm1.4-20.72a2.23,2.23,0,0,1-.61,1.17A13.35,13.35,0,0,1,490,318a15.94,15.94,0,0,1-1.62,1.34,2.61,2.61,0,0,1-1.21.58,1.4,1.4,0,0,1-.6-.15.5.5,0,0,1-.3-.5,2,2,0,0,1,.2-.51c.13-.29.3-.63.52-1s.47-.81.76-1.26a13.2,13.2,0,0,1,.88-1.22,9.16,9.16,0,0,1,.86-.94,1.23,1.23,0,0,1,.78-.38,2.05,2.05,0,0,1,1.3.38A1.2,1.2,0,0,1,492,315.28Z"/><path d="M512.45,337.05h1.94a4.62,4.62,0,0,1,.6,0,2.13,2.13,0,0,1,.66.16,1.39,1.39,0,0,1,.55.36.89.89,0,0,1,.21.63.7.7,0,0,1-.4.72,2.2,2.2,0,0,1-.93.18l-1.17,0-2.17,0h-2.16l-1.13,0a1.6,1.6,0,0,1-.83-.2,1,1,0,0,1,0-1.55,2.07,2.07,0,0,1,.67-.3,2.67,2.67,0,0,0,1.19-.33q.29-.21.36-1.08c0-1,.07-1.78.09-2.45s0-1,0-1.08c0-1.1,0-2.17-.12-3.19a11.41,11.41,0,0,0-.51-2.67,4.48,4.48,0,0,0-1.08-1.82,2.62,2.62,0,0,0-1.89-.68,3.92,3.92,0,0,0-2.68,1,6.81,6.81,0,0,0-1.79,2.39,7.82,7.82,0,0,0-.59,1.93,11.56,11.56,0,0,0-.2,2.18v4h2.41a2.13,2.13,0,0,1,1,.21,1,1,0,0,1,.4.94.82.82,0,0,1-.34.79,2.43,2.43,0,0,1-1.07.18h-1.1l-2.1,0-2.15,0H497a3.94,3.94,0,0,1-1.06-.14c-.33-.1-.49-.38-.49-.83a.87.87,0,0,1,.45-.87,2.1,2.1,0,0,1,.88-.21h.73a.73.73,0,0,0,.52-.2,1.28,1.28,0,0,0,.3-.51,2.63,2.63,0,0,0,.15-.63c0-.21,0-.42,0-.61,0-.41,0-1.06,0-2s.05-1.84.07-2.8,0-1.82.06-2.59,0-1.23,0-1.37c0-.79-.2-1.19-.61-1.19h-1.87l-.78,0c-.27,0-.53,0-.75-.07a2.09,2.09,0,0,1-.58-.18.38.38,0,0,1-.23-.34.79.79,0,0,1,.26-.6,2.4,2.4,0,0,1,1-.38,12.13,12.13,0,0,1,1.82-.19c.76,0,1.71-.06,2.87-.06a1.84,1.84,0,0,1,1.15.22,1.48,1.48,0,0,1,.25.93l.11,2.24a5.74,5.74,0,0,1,2.38-2.61,6.53,6.53,0,0,1,3.38-.92,6.44,6.44,0,0,1,1.75.27,4.44,4.44,0,0,1,1.79,1,5.82,5.82,0,0,1,1.37,2.15,9.84,9.84,0,0,1,.54,3.56Z"/><path d="M519.62,329.48c0,.12,0,.25-.06.38s0,.26,0,.38a6.8,6.8,0,0,0,.36,2.16,6.16,6.16,0,0,0,1.06,2,5.31,5.31,0,0,0,1.73,1.38,5.1,5.1,0,0,0,2.36.53,5.81,5.81,0,0,0,2.38-.44,4.49,4.49,0,0,0,1.57-1.09,4.42,4.42,0,0,0,.86-1.45,4.32,4.32,0,0,0,.27-1.42,1.59,1.59,0,0,1,.24-.72c.15-.29.48-.43,1-.43a1.05,1.05,0,0,1,.75.3,1.11,1.11,0,0,1,.33.85,8.32,8.32,0,0,1-.38,2.47,5.35,5.35,0,0,1-1.28,2.14,6.49,6.49,0,0,1-2.45,1.52,11.27,11.27,0,0,1-3.86.57,8,8,0,0,1-3.29-.63,6.56,6.56,0,0,1-2.4-1.78,7.67,7.67,0,0,1-1.46-2.72,12.61,12.61,0,0,1,.09-7.26,7.72,7.72,0,0,1,1.66-2.85,7.51,7.51,0,0,1,2.59-1.79,8.65,8.65,0,0,1,3.35-.63,7.29,7.29,0,0,1,3.36.71,7.1,7.1,0,0,1,2.2,1.69,6.51,6.51,0,0,1,1.18,2.05,5.81,5.81,0,0,1,.36,1.79,3.21,3.21,0,0,1-.39,1.55,1.24,1.24,0,0,1-1.12.72l-2.65,0-3.26,0h-2.49c-.5,0-1,0-1.46,0Zm9.26-2.31c.41,0,.61-.09.61-.28a3.09,3.09,0,0,0-.28-1.21,4.18,4.18,0,0,0-.85-1.23,4.54,4.54,0,0,0-1.43-.93,4.81,4.81,0,0,0-2-.38,5,5,0,0,0-2,.38,5.17,5.17,0,0,0-1.55,1,5.31,5.31,0,0,0-1.05,1.33,5.53,5.53,0,0,0-.54,1.5Z"/><path d="M537.6,324.54l-.11,1.95a6.85,6.85,0,0,1-.27,1.69.83.83,0,0,1-.88.65,1,1,0,0,1-.9-.39,2,2,0,0,1-.25-1.09v-3.49a1.41,1.41,0,0,1,.45-1.05,2.09,2.09,0,0,1,1.46-.43l1.46,0,1.15,0c.37,0,.76,0,1.15,0h1.46l2.6,0c1,0,1.82,0,2.59,0a1.57,1.57,0,0,1,.87.18.52.52,0,0,1,.25.43,3.31,3.31,0,0,1-.74,1.37c-.49.68-1.11,1.46-1.85,2.35s-1.55,1.82-2.4,2.81l-2.4,2.77c-.74.87-1.36,1.61-1.85,2.24a3.13,3.13,0,0,0-.74,1.19c0,.16.2.25.61.25h6.81q.25,0,.33-.69l.25-2.63a4.86,4.86,0,0,1,.29-1.46,1,1,0,0,1,1-.52c.4,0,.66.1.75.31a1.32,1.32,0,0,1,.15.59l-.22,3.46c0,.27,0,.66,0,1.17s0,.93,0,1.25-.17.68-.51.68l-2.12,0-1.53,0h-1.28c-.41,0-.88,0-1.41,0s-1.09,0-1.67,0l-1.68,0-1.42,0-.92,0a4.21,4.21,0,0,1-1.34-.15.61.61,0,0,1-.39-.65A3.46,3.46,0,0,1,535,336c.49-.68,1.1-1.48,1.83-2.38s1.54-1.85,2.4-2.84l2.4-2.78,1.84-2.16a3.84,3.84,0,0,0,.73-1c0-.19-.1-.29-.32-.29Z"/><path d="M389.51,378.28c0,.5,0,1,0,1.37l.07,1.37a1.45,1.45,0,0,1-.29.84,1,1,0,0,1-.94.42,1.07,1.07,0,0,1-.93-.47,1.44,1.44,0,0,1-.33-.72c0-.15,0-.36,0-.65s0-.61.06-1,0-.72.05-1.08,0-.68,0-.94,0-.71,0-1,0-.53,0-.78,0-.51,0-.77,0-.59,0-1a2.88,2.88,0,0,1,.21-1,1,1,0,0,1,1-.54,1.05,1.05,0,0,1,.72.23,1.66,1.66,0,0,1,.4.61,3.62,3.62,0,0,1,.18.82c0,.28,0,.56,0,.82a3.88,3.88,0,0,0,.45,1.81,4.93,4.93,0,0,0,1.32,1.56,6.52,6.52,0,0,0,2.13,1.12,9.09,9.09,0,0,0,2.88.42,11,11,0,0,0,2.47-.27,8.49,8.49,0,0,0,2.05-.74,4.59,4.59,0,0,0,1.43-1.14,2.3,2.3,0,0,0,.54-1.49,2.68,2.68,0,0,0-.89-1.95,9.66,9.66,0,0,0-2.21-1.59,28.89,28.89,0,0,0-2.85-1.33c-1-.41-1.93-.82-2.77-1.23s-1.56-.76-2.37-1.2a9.35,9.35,0,0,1-2.19-1.7,7.81,7.81,0,0,1-1.63-2.57,10.44,10.44,0,0,1-.63-3.9,8.45,8.45,0,0,1,.85-3.74,10.52,10.52,0,0,1,2.18-3,10.05,10.05,0,0,1,3-2,8.21,8.21,0,0,1,3.28-.72,7.05,7.05,0,0,1,4.47,1.42,9.47,9.47,0,0,1,2.92,4.56c-.1-1.51-.17-2.64-.22-3.37s-.07-1.11-.07-1.14a1.65,1.65,0,0,1,.24-.84q.22-.42,1-.42a1.32,1.32,0,0,1,.68.15,1,1,0,0,1,.38.32.94.94,0,0,1,.16.4,1.6,1.6,0,0,1,0,.32c0,.84,0,1.71-.07,2.61s-.08,1.79-.08,2.65,0,1.49,0,2.17,0,1.39,0,2.16a1.22,1.22,0,0,1-.33.86,1.23,1.23,0,0,1-1,.36,1,1,0,0,1-1-.66,4.07,4.07,0,0,1-.26-1.46,9.47,9.47,0,0,0-.79-3.17,10,10,0,0,0-1.58-2.51,7.36,7.36,0,0,0-2.08-1.66,4.85,4.85,0,0,0-2.25-.59,6.06,6.06,0,0,0-2.76.65,7.16,7.16,0,0,0-2.21,1.73,8.63,8.63,0,0,0-1.5,2.45,7.41,7.41,0,0,0-.56,2.81,7.93,7.93,0,0,0,.4,2.72,5.49,5.49,0,0,0,1.06,1.84,6.1,6.1,0,0,0,1.52,1.21c.56.31,1.13.6,1.71.86s1.16.51,1.91.79,1.52.62,2.32,1,1.61.79,2.4,1.23a13,13,0,0,1,2.13,1.48,7.22,7.22,0,0,1,1.51,1.82,4.38,4.38,0,0,1,.58,2.2,4.24,4.24,0,0,1-.89,2.73,6.47,6.47,0,0,1-2.21,1.79,11.32,11.32,0,0,1-2.91,1,14.84,14.84,0,0,1-2.93.31,12.25,12.25,0,0,1-2-.18,8.65,8.65,0,0,1-2-.6,6.78,6.78,0,0,1-1.79-1.11A4.93,4.93,0,0,1,389.51,378.28Z"/><path d="M419.42,373.27c0-.27,0-.52,0-.78s0-.43,0-.55a6.19,6.19,0,0,0-1-3.73,3.62,3.62,0,0,0-3.15-1.36,7.63,7.63,0,0,0-1.3.13,5.46,5.46,0,0,0-1.24.36,3.2,3.2,0,0,0-.94.58,1,1,0,0,0-.38.77.39.39,0,0,0,.18.38,2.38,2.38,0,0,0,.54.16,1.36,1.36,0,0,1,.58.29,1,1,0,0,1,.32.83,1.12,1.12,0,0,1-.43.95,1.79,1.79,0,0,1-1.15.35,1.69,1.69,0,0,1-1.59-.8,3.33,3.33,0,0,1-.47-1.73,3.82,3.82,0,0,1,1.66-3.19,7.42,7.42,0,0,1,4.5-1.24q6.39,0,6.38,7c0,.26,0,.61,0,1s0,.9,0,1.39,0,1,0,1.48,0,.92,0,1.28a9.81,9.81,0,0,0,.14,2.16.63.63,0,0,0,.65.51.52.52,0,0,0,.52-.26,2.55,2.55,0,0,0,.2-.72,1.22,1.22,0,0,1,.25-.5.86.86,0,0,1,.72-.29.58.58,0,0,1,.61.36,2.16,2.16,0,0,1,.15.83,3.08,3.08,0,0,1-.24,1.28,2.07,2.07,0,0,1-.63.84,2.27,2.27,0,0,1-.88.47,3.47,3.47,0,0,1-1,.15,3.15,3.15,0,0,1-1.74-.49,2.64,2.64,0,0,1-1.1-1.64A8.21,8.21,0,0,1,417,381.2a8.48,8.48,0,0,1-3.08.54,6.38,6.38,0,0,1-4-1.16,3.69,3.69,0,0,1-1.5-3.09,4.42,4.42,0,0,1,.43-1.95A4.5,4.5,0,0,1,410,374a6.13,6.13,0,0,1,1.89-1,7.62,7.62,0,0,1,2.47-.38,8.37,8.37,0,0,1,5,1.66Zm-8.5,4.18a1.69,1.69,0,0,0,1.12,1.6,6.19,6.19,0,0,0,2.66.53,8.05,8.05,0,0,0,1.82-.2,6.43,6.43,0,0,0,1.5-.53,3.2,3.2,0,0,0,1-.77,1.52,1.52,0,0,0,.05-1.93,2.79,2.79,0,0,0-.9-.74,5.67,5.67,0,0,0-1.32-.48,6.7,6.7,0,0,0-1.6-.18,7.28,7.28,0,0,0-1.73.19,5,5,0,0,0-1.37.56,3.07,3.07,0,0,0-.92.87A1.84,1.84,0,0,0,410.92,377.45ZM419,358.89a2.3,2.3,0,0,1-.61,1.17,13.35,13.35,0,0,1-1.42,1.53,15,15,0,0,1-1.63,1.34,2.54,2.54,0,0,1-1.2.57,1.5,1.5,0,0,1-.6-.14.52.52,0,0,1-.3-.51,2.47,2.47,0,0,1,.19-.5c.14-.29.31-.63.53-1s.47-.81.75-1.26.59-.85.89-1.23a8,8,0,0,1,.86-.93,1.23,1.23,0,0,1,.78-.38,2,2,0,0,1,1.29.38A1.19,1.19,0,0,1,419,358.89Z"/><path d="M442.74,380.3h1.95l.59,0a3.11,3.11,0,0,1,.67.16,1.5,1.5,0,0,1,.54.36.94.94,0,0,1,.22.64.72.72,0,0,1-.4.72,2.28,2.28,0,0,1-.94.18H444.2c-.66,0-1.38,0-2.16,0l-2.16,0-1.14,0a1.73,1.73,0,0,1-.83-.2.84.84,0,0,1-.36-.81.85.85,0,0,1,.34-.74,2,2,0,0,1,.67-.31,2.79,2.79,0,0,0,1.19-.32q.28-.21.36-1.08c.05-1,.08-1.78.09-2.45s0-1,0-1.08c0-1.11,0-2.17-.13-3.19a11.44,11.44,0,0,0-.5-2.67,4.41,4.41,0,0,0-1.08-1.82,2.58,2.58,0,0,0-1.89-.68,4,4,0,0,0-2.69,1,6.9,6.9,0,0,0-1.78,2.4,7.29,7.29,0,0,0-.6,1.93,12.45,12.45,0,0,0-.2,2.18v4h2.42a2.16,2.16,0,0,1,1,.22c.26.14.39.46.39.94s-.11.67-.34.79a2.38,2.38,0,0,1-1.06.18h-1.1l-2.11,0-2.14,0h-1.17a3.64,3.64,0,0,1-1.07-.15c-.32-.09-.48-.37-.48-.83a.85.85,0,0,1,.45-.86,1.94,1.94,0,0,1,.88-.22h.72a.66.66,0,0,0,.52-.2,1.33,1.33,0,0,0,.31-.5,2.62,2.62,0,0,0,.14-.63,4.45,4.45,0,0,0,0-.61c0-.41,0-1.07,0-2s0-1.83.08-2.79,0-1.83.05-2.6,0-1.22,0-1.36c0-.8-.21-1.19-.61-1.19h-1.88l-.77,0c-.28,0-.53,0-.76-.07a2.09,2.09,0,0,1-.58-.18.4.4,0,0,1-.23-.35.75.75,0,0,1,.27-.59,2.21,2.21,0,0,1,.95-.38,12.09,12.09,0,0,1,1.83-.2c.75,0,1.71-.05,2.86-.05a1.92,1.92,0,0,1,1.15.21,1.52,1.52,0,0,1,.26.94l.1,2.24a5.87,5.87,0,0,1,2.38-2.62,6.69,6.69,0,0,1,3.39-.92,6.5,6.5,0,0,1,1.75.27,4.33,4.33,0,0,1,1.78,1.05,5.86,5.86,0,0,1,1.37,2.14,9.94,9.94,0,0,1,.54,3.57Z"/><path d="M459.82,365.92c0-.27,0-.58-.05-.94s0-.71,0-1.05a1.13,1.13,0,0,1,.25-.7,1.09,1.09,0,0,1,.87-.3,1.12,1.12,0,0,1,.9.32,1.26,1.26,0,0,1,.29.86v1.34c0,.55,0,1.12,0,1.71s0,1.16,0,1.71v1.3a.68.68,0,0,1-.38.54,1.57,1.57,0,0,1-.91.25,1.39,1.39,0,0,1-.64-.18.61.61,0,0,1-.34-.57,3.69,3.69,0,0,0-4.36-4.08,4.77,4.77,0,0,0-2.21.53,4.91,4.91,0,0,0-1.75,1.46,7.32,7.32,0,0,0-1.14,2.21,9.34,9.34,0,0,0-.41,2.83,7,7,0,0,0,1.35,4.51,4.64,4.64,0,0,0,3.8,1.65,7.4,7.4,0,0,0,3.5-.75,5.23,5.23,0,0,0,2.05-1.84,2.16,2.16,0,0,1,.67-.76,1.11,1.11,0,0,1,.56-.18,1.33,1.33,0,0,1,.74.22.79.79,0,0,1,.34.72,1.14,1.14,0,0,1-.09.48,3.64,3.64,0,0,1-.27.49,8.25,8.25,0,0,1-7.35,3.86,8.53,8.53,0,0,1-3.41-.65,7.09,7.09,0,0,1-2.52-1.79,7.83,7.83,0,0,1-1.59-2.64,9.36,9.36,0,0,1-.56-3.25,10.39,10.39,0,0,1,.63-3.64,9,9,0,0,1,1.75-2.93,8.28,8.28,0,0,1,2.67-2,7.84,7.84,0,0,1,3.35-.72,7.46,7.46,0,0,1,2.45.38A3.7,3.7,0,0,1,459.82,365.92Z"/><path d="M480.19,381.34h1.94a4.62,4.62,0,0,1,.6,0,2.45,2.45,0,0,1,.66.16,1.29,1.29,0,0,1,.54.36.88.88,0,0,1,.22.63.7.7,0,0,1-.4.72,2.2,2.2,0,0,1-.93.18l-1.17,0-2.17,0c-.78,0-1.5,0-2.16,0h-1.13a1.7,1.7,0,0,1-.83-.19.86.86,0,0,1-.36-.82.81.81,0,0,1,.34-.73,1.91,1.91,0,0,1,.67-.31,2.67,2.67,0,0,0,1.19-.33q.29-.21.36-1.08c0-.48,0-1,.05-1.51s0-1,0-1.46,0-.82,0-1.12v-.48c0-1.11,0-2.12-.05-3a8.54,8.54,0,0,0-.38-2.34,3.19,3.19,0,0,0-1-1.5,2.86,2.86,0,0,0-1.84-.52,4.18,4.18,0,0,0-2.67.92,7.47,7.47,0,0,0-2.77,5.64v4.54h2.88a2,2,0,0,1,1,.22,1,1,0,0,1,.4.93c0,.41-.12.68-.35.79a2.2,2.2,0,0,1-1.06.19h-3.35c-.55,0-1.07,0-1.55,0h-1.91a4.15,4.15,0,0,1-1.08-.14.75.75,0,0,1-.51-.83.87.87,0,0,1,.46-.87,2,2,0,0,1,.88-.21h.57a.74.74,0,0,0,.53-.2,1.28,1.28,0,0,0,.3-.51,2.63,2.63,0,0,0,.15-.63c0-.21,0-.42,0-.61s0-.66,0-1.4,0-1.66,0-2.73,0-2.25,0-3.56,0-2.64,0-4,0-2.65,0-3.92,0-2.42,0-3.43,0-1.83,0-2.47v-1.06c0-.79-.2-1.19-.61-1.19h-1.69c-.24,0-.5,0-.78,0a5.47,5.47,0,0,1-.75-.07,1.58,1.58,0,0,1-.58-.18.37.37,0,0,1-.23-.34.66.66,0,0,1,.25-.51,2.17,2.17,0,0,1,.88-.37,10.48,10.48,0,0,1,1.75-.26c.74-.06,1.69-.09,2.84-.09a2.08,2.08,0,0,1,1.19.22,1.45,1.45,0,0,1,.33.94v16.54a5.62,5.62,0,0,1,2.47-2.61,7,7,0,0,1,3.47-.92,6.76,6.76,0,0,1,1.9.27,3.56,3.56,0,0,1,1.62,1,5.58,5.58,0,0,1,1.13,2.15,12,12,0,0,1,.44,3.56Z"/><path d="M487.14,372.73c0,.12,0,.24-.05.38s0,.25,0,.37a6.81,6.81,0,0,0,.36,2.17,6.2,6.2,0,0,0,1.06,1.94,5.34,5.34,0,0,0,1.73,1.39,5.15,5.15,0,0,0,2.36.52,5.82,5.82,0,0,0,2.38-.43,4.51,4.51,0,0,0,1.57-1.1,4.31,4.31,0,0,0,.87-1.44,4.36,4.36,0,0,0,.27-1.42,1.49,1.49,0,0,1,.23-.72,1,1,0,0,1,1-.44,1.1,1.1,0,0,1,.76.31,1.13,1.13,0,0,1,.32.85,8,8,0,0,1-.38,2.47,5.24,5.24,0,0,1-1.28,2.14,6.4,6.4,0,0,1-2.45,1.51,11,11,0,0,1-3.85.58,8.09,8.09,0,0,1-3.3-.63,6.67,6.67,0,0,1-2.4-1.78,8,8,0,0,1-1.46-2.73,12.84,12.84,0,0,1,.09-7.26,7.73,7.73,0,0,1,1.66-2.84,7.42,7.42,0,0,1,2.6-1.79,8.62,8.62,0,0,1,3.35-.63,7.25,7.25,0,0,1,3.35.7,7.13,7.13,0,0,1,2.2,1.7,6.43,6.43,0,0,1,1.19,2.05,5.81,5.81,0,0,1,.36,1.79,3.14,3.14,0,0,1-.4,1.55,1.23,1.23,0,0,1-1.12.72h-2.64c-1,0-2.11,0-3.27,0h-1l-1.44,0-1.46,0Zm9.26-2.31c.41,0,.62-.09.62-.29a3.08,3.08,0,0,0-.29-1.2,3.88,3.88,0,0,0-.85-1.23,4.68,4.68,0,0,0-1.42-.94,5.06,5.06,0,0,0-2-.37,5.23,5.23,0,0,0-2,.37,5.39,5.39,0,0,0-1.55,1,4.9,4.9,0,0,0-1,1.33,4.84,4.84,0,0,0-.54,1.5Z"/><path d="M505.13,367.79l-.11,1.95a8.06,8.06,0,0,1-.27,1.69.85.85,0,0,1-.89.65,1,1,0,0,1-.9-.4,2,2,0,0,1-.25-1.08v-3.49a1.41,1.41,0,0,1,.45-1.05,2.06,2.06,0,0,1,1.46-.43c.58,0,1.06,0,1.46,0h1.15l1.16,0,1.46,0c.77,0,1.63,0,2.59,0l2.6,0a1.53,1.53,0,0,1,.86.18.51.51,0,0,1,.25.43,3.24,3.24,0,0,1-.73,1.37q-.75,1-1.86,2.34c-.75.89-1.55,1.83-2.4,2.81l-2.39,2.78c-.75.86-1.37,1.61-1.86,2.23a3.36,3.36,0,0,0-.74,1.19c0,.17.21.25.61.25h6.81c.17,0,.28-.22.33-.68l.25-2.63a5.11,5.11,0,0,1,.29-1.46c.14-.35.48-.52,1-.52s.66.1.76.3a1.53,1.53,0,0,1,.14.6l-.22,3.46c0,.26,0,.65,0,1.17s0,.93,0,1.24-.17.69-.5.69l-2.13,0-1.53,0c-.45,0-.87,0-1.28,0h-3.08l-1.68,0-1.42,0h-.92a4.53,4.53,0,0,1-1.33-.14.61.61,0,0,1-.4-.65,3.47,3.47,0,0,1,.74-1.35c.49-.69,1.1-1.48,1.84-2.38s1.53-1.85,2.39-2.85,1.67-1.92,2.4-2.77,1.35-1.57,1.84-2.16a4,4,0,0,0,.74-1c0-.19-.11-.29-.33-.29Z"/></g></g></svg>