<svg width="231" height="454" viewBox="0 0 231 454" fill="none" xmlns="http://www.w3.org/2000/svg">
<g clip-path="url(#clip0_0_1)">
<path d="M77.5 453.53C120.302 453.53 155 442.561 155 429.03C155 415.499 120.302 404.53 77.5 404.53C34.6979 404.53 0 415.499 0 429.03C0 442.561 34.6979 453.53 77.5 453.53Z" fill="#E6E6E6"/>
<path d="M121.53 272.2V365.34C121.53 380.34 118.48 412.53 118.48 412.53H104.24C104.24 412.53 97.87 372 90.62 332.36V332.21C89.62 326.85 88.62 321.51 87.62 316.29C80.03 276.67 79.95 260.09 76.42 260.09C72.01 260.09 71.42 280.2 64.82 316.29C64.4667 318.19 64.1333 320.1 63.82 322.02C56.22 364.61 49.35 412.53 49.35 412.53H35.07C33.0687 395.633 32.0504 378.635 32.02 361.62C32.02 346.54 31.02 330.14 31.02 315.67V273.45C31.02 255.97 34.88 233.24 36.92 222.45C37.65 218.61 38.14 216.29 38.14 216.29H115.45C115.45 216.29 121.53 252.34 121.53 272.2Z" fill="#F7931E"/>
<path d="M39 249.53C40.42 258.7 44.46 273.89 33.23 289.71L31 291.66V273.45C31 255.97 34.86 233.24 36.9 222.45L39 220.5C39 220.5 37.76 241.49 39 249.53Z" fill="#E3871C"/>
<path d="M230.5 138.08C230.5 139.08 229.5 139.08 227.5 140.08C225.84 140.91 223.63 142.18 221.5 143.08C213.59 146.43 206.91 149.22 202.5 152.08C190.67 159.75 167.98 179.91 157.5 186.08C149 191.08 139.33 193.33 133.5 191.08C132.581 190.696 131.747 190.132 131.05 189.42C130.884 189.272 130.731 189.112 130.59 188.94C127.52 185.56 125.25 179.33 123.5 174.08C121.5 168.08 121.5 167.08 120.06 159.18C118.62 151.28 115.5 127.08 115.5 127.08L119.09 126.74L132.41 125.49C132.41 125.49 140.06 163.74 140.48 174.25C140.48 174.55 140.48 174.83 140.48 175.08C140.48 175.08 140.48 175.15 140.48 175.27C140.475 175.323 140.475 175.377 140.48 175.43V175.43C140.79 176.74 142.94 176.09 146.18 174.58C147.18 174.13 148.18 173.58 149.35 173.02C151.06 172.16 152.94 171.18 154.92 170.18L155.19 170.04C166.5 164.33 184.64 152.34 192.08 147.34L192.92 146.77L195.4 145.08C195.4 145.08 199.4 142.15 199.4 138.08C199.4 135.14 201.03 132.36 201.4 130.08C201.57 128.99 201.7 124.39 203.02 124.39C204.34 124.39 204.4 124.98 204.4 126.08V135.08C205.11 134.97 207.4 133.08 208.4 132.08L211.4 129.08C213.55 126.93 216.54 124.08 218.4 124.08C218.665 124.08 218.92 124.185 219.107 124.373C219.295 124.56 219.4 124.815 219.4 125.08C219.4 126.28 218.52 127.08 216.4 129.08C214.96 130.46 213.35 132.16 212.4 133.08C211.45 134 212.16 134.16 212.4 134.08C213.59 133.69 214.96 132.15 216.4 131.08C219.84 128.52 223.69 125.91 225.4 126.08C226.5 126.19 226.5 126.74 226.4 127.08C225.76 129.22 222.4 131.08 219.4 133.08C217.987 133.969 216.649 134.972 215.4 136.08C214.4 137.08 214.67 138.08 216.4 137.08C217.35 136.52 220.06 134.84 221.4 134.08C224.88 132.08 227.58 131.08 229.4 131.08C230.4 131.08 230.4 131.73 230.4 132.08C230.4 133.08 226.4 135.08 222.4 137.08C220.923 137.872 219.574 138.884 218.4 140.08C217.71 140.77 218.67 141.37 219.4 141.08C220.091 140.798 220.76 140.464 221.4 140.08C225.06 138.25 228.4 137.08 229.4 137.08C230.4 137.08 230.5 137.47 230.5 138.08Z" fill="#F4A173"/>
<path d="M35.26 127.46L32.5 158.67C32.5 158.67 32.29 181.87 31.79 189.59C31.29 197.31 28.37 236.26 23.5 250.96C23.43 251.16 23.34 251.38 23.25 251.62C22.96 252.29 22.58 253.07 22.25 253.9C21.7408 255.035 21.6452 256.312 21.98 257.51C22.6491 259.812 22.9495 262.204 22.87 264.6C22.87 265.13 22.87 265.67 22.87 266.2C22.87 267.2 22.87 268.2 22.87 269.25C22.87 270.71 22.87 272.15 22.98 273.51C23.14 275.81 22.93 278.66 22.98 280.51C23.04 282.74 23.21 283.33 22.66 283.82C22.35 284.1 21.79 283.43 21.79 283.43C21.297 280.643 21.0262 277.82 20.98 274.99V272.51C20.98 270.51 19.98 270.51 19.98 272.51C19.98 273.66 19.93 275.76 19.98 277.51C20.1 282.03 19.88 286.26 19.33 286.74C19.13 286.92 18.77 287.23 18.46 286.36C17.9 284.77 17.63 281.92 17.65 277.91C17.65 276.37 17.76 273.19 17.77 272.08C17.77 270.08 16.98 270.51 16.98 271.51V277.51C16.98 281.93 15.98 284.51 15.32 285.69C15.17 285.95 14.98 286.51 14.45 285.3C13.83 283.88 14.09 279.25 14.45 275C14.7196 273.363 14.8634 271.709 14.88 270.05C14.88 269.8 14.55 269.22 14.32 270.54C14.09 271.86 13.66 274.06 13.32 275.98C12.85 278.82 12.69 279.98 12.03 280.55C11.37 281.12 11.17 280.16 11.17 280.16C10.59 278.53 10.63 274.5 10.97 271.51C11.26 268.91 11.97 266.42 11.97 265.51C11.97 264.6 11.25 260.51 11.97 258.51C13.0517 255.732 13.8882 252.864 14.47 249.94C15.47 241.25 13.95 223.83 14.47 214.94C14.85 208.4 13.85 195.41 14.47 188.94C15.23 180.94 19 137.83 19.91 127.29C20.05 125.8 20.12 124.96 20.12 124.96L33.79 125.76C33.56 126.28 33.34 126.83 33.14 127.42L35.26 127.46Z" fill="#F4A173"/>
<path d="M112.25 199.14C116.57 212.62 124.12 217.41 122.43 220.14C118.92 225.9 57.78 227.84 36.87 223.42C36 223.24 35.2 223.04 34.48 222.84C31.84 222.1 30.22 221.2 29.96 220.14C29.02 216.27 39.53 206.14 43.41 192.91C43.53 192.51 43.64 192.09 43.75 191.68C46.6 180.59 43.33 164.9 40.54 152.68C39.54 148.43 38.65 144.6 38.08 141.53C37.6951 139.769 37.4907 137.973 37.47 136.17C37.76 128.75 40.52 122.93 40.12 120.79C40.1069 120.65 40.0645 120.515 39.9956 120.392C39.9267 120.27 39.8328 120.164 39.72 120.08C37.85 118.83 35.84 127.4 35.84 127.4H35.26C34.5641 127.445 33.8659 127.445 33.17 127.4H33.09L19.95 127.31H19.54C19.54 127.31 22.27 107.95 35.85 99.81C44.38 94.7 75.37 90.46 75.37 90.46C75.37 90.46 101.37 94.76 115.37 100.63C128.95 106.32 133 127.31 133 127.31L115.37 127.47C115.37 127.47 114.69 120.98 113.09 120.17C112.992 120.121 112.884 120.095 112.775 120.095C112.666 120.095 112.558 120.121 112.46 120.17C109.6 121.37 113.46 126.42 113.68 135.69C113.637 137.916 113.454 140.137 113.13 142.34C112.87 144.46 112.54 146.89 112.18 149.55C110.47 162.25 108.18 180.01 110.58 192.55C111.004 194.774 111.558 196.971 112.24 199.13V199.13L112.25 199.14Z" fill="#F2F2F2"/>
<path d="M81.41 177.19C81.39 176.944 81.39 176.696 81.41 176.45C81.4976 175.951 81.6629 175.468 81.9 175.02C82.3019 174.274 82.9233 173.67 83.68 173.29C84.0257 173.117 84.392 172.99 84.77 172.91C85.214 172.85 85.6624 172.83 86.11 172.85C86.3043 172.866 86.4958 172.906 86.68 172.97C86.8393 173.007 86.9962 173.054 87.15 173.11C87.6156 173.245 88.0457 173.48 88.41 173.8C88.9573 174.241 89.3811 174.816 89.64 175.47C89.7375 175.743 89.8112 176.024 89.86 176.31C89.9394 176.792 89.9595 177.283 89.92 177.77C89.8915 178.299 89.7445 178.815 89.49 179.28C89.0841 180.11 88.3966 180.769 87.55 181.14C87.255 181.282 86.9421 181.382 86.62 181.44C86.2253 181.521 85.8228 181.558 85.42 181.55C85.1716 181.531 84.9246 181.497 84.68 181.45C84.3739 181.385 84.0755 181.288 83.79 181.16C83.2025 180.907 82.6896 180.507 82.3 180C82.0097 179.634 81.7832 179.221 81.63 178.78C81.4434 178.272 81.3683 177.73 81.41 177.19ZM83.26 177.14C83.2535 177.636 83.3668 178.127 83.59 178.57C83.7802 178.934 84.063 179.242 84.4098 179.462C84.7567 179.682 85.1554 179.807 85.5659 179.824C85.9764 179.842 86.3842 179.751 86.7483 179.56C87.1124 179.37 87.4199 179.087 87.64 178.74C87.8767 178.333 88.017 177.877 88.0499 177.407C88.0828 176.937 88.0076 176.466 87.83 176.03C87.722 175.691 87.528 175.385 87.2668 175.144C87.0057 174.902 86.6864 174.732 86.34 174.65C85.9478 174.514 85.5254 174.49 85.1206 174.582C84.7158 174.674 84.3449 174.878 84.05 175.17C83.5392 175.698 83.2557 176.405 83.26 177.14V177.14Z" fill="#1A1A1A"/>
<path d="M58.56 180.02V180.86C58.5657 180.917 58.5491 180.974 58.5136 181.018C58.4781 181.063 58.4266 181.092 58.37 181.1C58.09 181.18 57.82 181.3 57.54 181.35C57.1693 181.441 56.791 181.498 56.41 181.52C56.11 181.52 55.81 181.52 55.52 181.52C54.8899 181.453 54.2874 181.226 53.77 180.86C53.1493 180.407 52.6567 179.8 52.34 179.1C52.2086 178.776 52.1048 178.441 52.03 178.1C51.9502 177.6 51.9502 177.09 52.03 176.59C52.0879 176.02 52.2724 175.47 52.57 174.98C53.0503 174.143 53.7914 173.486 54.68 173.11C54.9615 172.983 55.2624 172.906 55.57 172.88C55.77 172.88 55.97 172.81 56.17 172.82C56.4889 172.84 56.8062 172.88 57.12 172.94C57.5259 173.018 57.9241 173.132 58.31 173.28C58.4015 173.303 58.4819 173.358 58.5368 173.435C58.5917 173.512 58.6176 173.606 58.61 173.7C58.61 174.23 58.61 174.76 58.61 175.28C58.61 175.46 58.61 175.46 58.44 175.39C58.1 175.23 57.76 175.04 57.44 174.9C56.9426 174.686 56.3977 174.607 55.86 174.67C55.4658 174.714 55.0936 174.875 54.7909 175.131C54.4882 175.388 54.2686 175.728 54.16 176.11C54.0268 176.458 53.9558 176.827 53.95 177.2C53.9434 177.538 53.9872 177.875 54.08 178.2C54.1945 178.609 54.4194 178.98 54.73 179.27C55.0845 179.582 55.5297 179.771 56 179.81C56.3789 179.856 56.7631 179.825 57.13 179.72C57.5293 179.61 57.9125 179.449 58.27 179.24L58.5 179.13C58.64 179.05 58.65 179.13 58.65 179.23V180.1L58.56 180.02Z" fill="#1A1A1A"/>
<path d="M76.68 179.01C76.7328 179.143 76.7534 179.287 76.74 179.43C76.74 179.9 76.74 180.38 76.74 180.86C76.7418 180.912 76.726 180.963 76.6951 181.005C76.6642 181.046 76.6201 181.076 76.57 181.09L75.52 181.37C74.8991 181.524 74.2554 181.565 73.62 181.49C73.0933 181.426 72.5877 181.245 72.14 180.96C71.6367 180.644 71.2074 180.223 70.8812 179.726C70.5551 179.229 70.3398 178.668 70.25 178.08C70.1832 177.778 70.1464 177.47 70.14 177.16C70.1491 176.845 70.1825 176.53 70.24 176.22C70.3384 175.77 70.5 175.335 70.72 174.93C71.0329 174.363 71.4706 173.874 72 173.5C72.3794 173.228 72.802 173.022 73.25 172.89C73.4033 172.845 73.5607 172.815 73.72 172.8C73.92 172.8 74.12 172.75 74.32 172.75C74.7287 172.765 75.1345 172.825 75.53 172.93C75.89 173.03 76.24 173.15 76.59 173.28C76.6499 173.299 76.7012 173.338 76.7342 173.391C76.7673 173.445 76.78 173.508 76.77 173.57V174.94C76.765 175.03 76.765 175.12 76.77 175.21C76.77 175.37 76.77 175.39 76.58 175.31C76.3127 175.152 76.0354 175.012 75.75 174.89C75.1689 174.623 74.5211 174.536 73.89 174.64C73.4939 174.716 73.1287 174.906 72.8391 175.187C72.5495 175.467 72.3482 175.827 72.26 176.22C72.1624 176.517 72.1085 176.827 72.1 177.14C72.093 177.479 72.1438 177.818 72.25 178.14C72.3511 178.461 72.518 178.757 72.74 179.01C73.0182 179.326 73.3891 179.547 73.8 179.64C74.2007 179.751 74.6216 179.768 75.03 179.69C75.4241 179.607 75.8046 179.469 76.16 179.28L76.68 179.01Z" fill="#1A1A1A"/>
<path d="M97.13 181.55C96.3641 181.536 95.6222 181.28 95.01 180.82C94.8578 180.711 94.7141 180.591 94.58 180.46C94.44 180.32 94.44 180.26 94.58 180.12C94.89 179.76 95.2 179.39 95.5 179.02C95.5131 179.003 95.5298 178.99 95.5489 178.981C95.5679 178.971 95.5888 178.967 95.61 178.967C95.6312 178.967 95.6521 178.971 95.6711 178.981C95.6902 178.99 95.7069 179.003 95.72 179.02C95.9469 179.237 96.2027 179.422 96.48 179.57C96.69 179.72 96.9499 179.783 97.2052 179.745C97.4605 179.708 97.6915 179.574 97.85 179.37C97.9286 179.301 97.99 179.214 98.0296 179.117C98.0691 179.02 98.0857 178.915 98.0779 178.81C98.0702 178.706 98.0383 178.604 97.9849 178.514C97.9315 178.424 97.858 178.347 97.77 178.29C97.457 178.031 97.1018 177.828 96.72 177.69C96.3586 177.56 96.0077 177.403 95.67 177.22C95.3084 176.98 95.0346 176.629 94.89 176.22C94.7445 175.782 94.7068 175.316 94.78 174.86C94.8485 174.292 95.1398 173.774 95.59 173.42C95.8324 173.196 96.1233 173.032 96.44 172.94C96.868 172.795 97.3264 172.764 97.77 172.85C97.94 172.9 98.12 172.85 98.3 172.92C98.7971 173.038 99.2595 173.271 99.65 173.6C99.75 173.68 99.74 173.74 99.65 173.82C99.56 173.9 99.3 174.22 99.12 174.41C98.94 174.6 98.87 174.7 98.74 174.84C98.61 174.98 98.6 174.94 98.51 174.89C98.2437 174.747 97.9661 174.627 97.68 174.53C97.5708 174.468 97.4474 174.435 97.3218 174.435C97.1962 174.434 97.0726 174.466 96.963 174.528C96.8535 174.589 96.7616 174.678 96.6962 174.785C96.6308 174.892 96.5943 175.014 96.59 175.14C96.5755 175.272 96.5978 175.405 96.6542 175.525C96.7107 175.645 96.7992 175.747 96.91 175.82C97.2445 176.08 97.6195 176.282 98.02 176.42C98.729 176.669 99.332 177.152 99.73 177.79C99.9745 178.264 100.052 178.807 99.95 179.33C99.8217 179.953 99.4651 180.506 98.95 180.88C98.6533 181.119 98.3139 181.298 97.95 181.41C97.6838 181.492 97.4082 181.539 97.13 181.55V181.55Z" fill="#1A1A1A"/>
<path d="M92.57 189.37C91.8328 189.376 91.122 189.096 90.5869 188.589C90.0518 188.081 89.7341 187.387 89.7005 186.65C89.6668 185.914 89.9199 185.193 90.4065 184.639C90.8931 184.085 91.5753 183.741 92.31 183.68C92.6804 183.63 93.0573 183.656 93.4171 183.758C93.7769 183.859 94.112 184.033 94.4017 184.27C94.6914 184.506 94.9295 184.799 95.1012 185.131C95.2729 185.463 95.3746 185.827 95.4 186.2C95.462 186.633 95.4219 187.075 95.283 187.49C95.1441 187.905 94.9102 188.281 94.6 188.59C94.3372 188.858 94.02 189.066 93.6698 189.201C93.3195 189.335 92.9445 189.393 92.57 189.37V189.37ZM92.45 184.79C92.1784 184.792 91.9136 184.875 91.6892 185.028C91.4649 185.182 91.2911 185.398 91.19 185.65C90.9826 186.104 90.9367 186.616 91.06 187.1C91.1235 187.375 91.2647 187.626 91.4669 187.823C91.669 188.019 91.9235 188.154 92.2 188.21C92.4647 188.293 92.7478 188.296 93.0144 188.219C93.2809 188.143 93.5193 187.99 93.7 187.78C93.8869 187.561 94.0218 187.302 94.0945 187.023C94.1673 186.744 94.176 186.453 94.12 186.17C94.0699 185.77 93.8692 185.405 93.5588 185.149C93.2484 184.892 92.8518 184.764 92.45 184.79V184.79Z" fill="#1A1A1A"/>
<path d="M74.16 186.43V183.96C74.16 183.79 74.23 183.72 74.4 183.72C74.93 183.72 75.46 183.72 75.99 183.72C76.2361 183.707 76.4826 183.734 76.72 183.8C76.947 183.865 77.1557 183.981 77.3293 184.141C77.503 184.301 77.6368 184.499 77.72 184.72C77.8245 185.043 77.8451 185.387 77.78 185.72C77.748 185.958 77.662 186.185 77.5285 186.384C77.3951 186.584 77.2177 186.75 77.01 186.87C76.81 186.99 76.77 186.96 76.92 187.19L78.17 189.05L78.24 189.17C78.24 189.25 78.24 189.3 78.16 189.3H77.07C76.89 189.3 76.82 189.14 76.74 189.03C76.4 188.53 76.07 188.03 75.74 187.51C75.6911 187.414 75.627 187.326 75.55 187.25C75.55 187.25 75.48 187.18 75.43 187.2C75.3967 187.228 75.3753 187.267 75.37 187.31V189.08C75.37 189.25 75.3 189.31 75.13 189.31H74.6C74.28 189.31 74.19 189.22 74.19 188.9L74.16 186.43ZM75.34 185.43V186.08C75.34 186.22 75.43 186.28 75.56 186.28C75.7096 186.282 75.8584 186.258 76 186.21C76.1527 186.169 76.2875 186.078 76.3837 185.953C76.4798 185.827 76.5319 185.673 76.5319 185.515C76.5319 185.357 76.4798 185.203 76.3837 185.077C76.2875 184.952 76.1527 184.861 76 184.82C75.8183 184.785 75.6317 184.785 75.45 184.82C75.35 184.82 75.31 184.82 75.31 184.97L75.34 185.43Z" fill="#1A1A1A"/>
<path d="M63.4 177.19V173.19C63.4 173.06 63.45 173.02 63.57 173.02H64.88C65.17 173.02 65.24 173.1 65.23 173.4C65.22 173.7 65.23 173.74 65.23 173.91V180.08C65.23 180.44 65.23 180.79 65.23 181.14C65.23 181.49 65.15 181.46 64.93 181.46C64.48 181.46 64.04 181.46 63.59 181.46C63.42 181.46 63.38 181.39 63.38 181.24V177.24L63.4 177.19Z" fill="#1A1A1A"/>
<path d="M83.78 189.33H83.39C83.3356 189.333 83.2816 189.319 83.2352 189.29C83.1888 189.262 83.1521 189.22 83.13 189.17C83.0255 188.956 82.9353 188.736 82.86 188.51C82.8329 188.425 82.7798 188.35 82.7081 188.296C82.6364 188.242 82.5496 188.212 82.46 188.21C81.93 188.21 81.39 188.21 80.86 188.21C80.7722 188.203 80.6849 188.229 80.6149 188.283C80.5449 188.336 80.4969 188.414 80.48 188.5C80.4091 188.727 80.3187 188.948 80.21 189.16C80.1888 189.205 80.1548 189.244 80.1122 189.271C80.0696 189.297 80.0202 189.311 79.97 189.31H79.1C79.02 189.31 78.95 189.31 78.99 189.18C79.21 188.63 79.42 188.07 79.63 187.52L80.41 185.62C80.62 185.09 80.82 184.57 81.02 184.04C81.0442 183.927 81.1101 183.827 81.2046 183.76C81.2991 183.694 81.4153 183.665 81.53 183.68C81.6596 183.665 81.7904 183.665 81.92 183.68C82.0143 183.707 82.1 183.758 82.1684 183.828C82.2369 183.898 82.2857 183.985 82.31 184.08C82.53 184.64 82.75 185.2 82.98 185.76C83.21 186.32 83.51 187.11 83.78 187.76L84.36 189.14C84.36 189.27 84.36 189.31 84.24 189.31H83.78V189.33ZM81.66 187.19H82.22C82.3 187.19 82.34 187.19 82.3 187.09L81.73 185.7C81.73 185.7 81.73 185.62 81.65 185.62C81.57 185.62 81.6 185.62 81.58 185.7L81.03 187.08C81.03 187.16 81.03 187.19 81.1 187.19H81.66Z" fill="#1A1A1A"/>
<path d="M71.07 196.29H70.38C69.87 196.29 69.95 196.35 69.79 196.72C69.71 196.88 69.66 197.04 69.59 197.2C69.5697 197.255 69.5329 197.303 69.4847 197.337C69.4364 197.371 69.379 197.39 69.32 197.39H68.5C68.35 197.39 68.32 197.33 68.38 197.19C68.57 196.7 68.74 196.19 68.94 195.74L69.42 194.56L70 193.09C70.15 192.7 70.31 192.32 70.47 191.93C70.4839 191.882 70.5149 191.84 70.5571 191.812C70.5993 191.785 70.6501 191.773 70.7 191.78C70.86 191.78 71.03 191.78 71.19 191.78C71.2692 191.775 71.3481 191.795 71.416 191.836C71.4839 191.877 71.5376 191.938 71.57 192.01C71.75 192.35 71.87 192.72 72.02 193.07C72.25 193.6 72.48 194.14 72.69 194.68C72.9 195.22 73.03 195.54 73.21 195.97C73.39 196.4 73.54 196.82 73.71 197.24C73.77 197.37 73.71 197.39 73.61 197.4H72.76C72.56 197.4 72.44 197.25 72.37 196.98C72.3216 196.805 72.258 196.634 72.18 196.47C72.1516 196.411 72.1056 196.362 72.0484 196.33C71.9912 196.297 71.9254 196.284 71.86 196.29H71.07ZM70.97 195.29H71.53C71.64 195.29 71.7 195.29 71.63 195.13C71.46 194.76 71.32 194.37 71.16 194C71.16 193.94 71.16 193.88 71.08 193.83C71 193.78 71 193.75 70.96 193.83C70.92 193.91 70.82 194.11 70.76 194.26C70.6452 194.528 70.545 194.801 70.46 195.08C70.41 195.27 70.46 195.32 70.64 195.32L70.97 195.29Z" fill="#1A1A1A"/>
<path d="M67.82 189.32C68.02 188.76 68.24 188.24 68.45 187.71C68.66 187.18 68.77 186.87 68.94 186.45C69.11 186.03 69.18 185.87 69.29 185.59C69.49 185.11 69.67 184.59 69.86 184.14C69.9039 184.031 69.954 183.924 70.01 183.82C70.0228 183.796 70.0412 183.775 70.0639 183.759C70.0865 183.743 70.1127 183.733 70.14 183.73C70.3796 183.71 70.6204 183.71 70.86 183.73C70.95 183.73 71.01 183.82 71.06 183.91C71.1995 184.189 71.3231 184.477 71.43 184.77C71.7 185.4 71.94 186.05 72.22 186.68C72.41 187.12 72.57 187.57 72.75 188.01L73.2 189.12C73.25 189.26 73.2 189.33 73.07 189.33H72.25C72.04 189.33 71.98 189.15 71.91 189C71.84 188.85 71.77 188.63 71.7 188.44C71.6744 188.372 71.6276 188.313 71.5663 188.274C71.5051 188.234 71.4328 188.215 71.36 188.22H69.71C69.6395 188.214 69.5689 188.231 69.5092 188.269C69.4495 188.307 69.404 188.363 69.38 188.43C69.27 188.68 69.17 188.93 69.07 189.19C69.0605 189.224 69.0412 189.254 69.0145 189.278C68.9879 189.301 68.955 189.315 68.92 189.32C68.5538 189.345 68.1862 189.345 67.82 189.32V189.32ZM71.15 187.2C71.0072 186.652 70.7955 186.125 70.52 185.63C70.2678 186.087 70.0762 186.574 69.95 187.08C69.95 187.19 69.95 187.27 70.08 187.27C70.4377 187.266 70.7949 187.243 71.15 187.2Z" fill="#1A1A1A"/>
<path d="M52.77 186.56V184.08C52.765 184.027 52.765 183.973 52.77 183.92C52.7712 183.895 52.7774 183.871 52.7883 183.849C52.7992 183.827 52.8145 183.808 52.8332 183.792C52.852 183.776 52.8738 183.764 52.8973 183.757C52.9208 183.75 52.9455 183.747 52.97 183.75H55.73C55.84 183.75 55.9 183.75 55.9 183.9C55.9 184.17 55.9 184.44 55.9 184.71C55.9 184.81 55.83 184.81 55.77 184.81H54.25C54.214 184.804 54.1771 184.806 54.142 184.816C54.1069 184.826 54.0744 184.844 54.0467 184.867C54.0191 184.891 53.997 184.921 53.982 184.954C53.9671 184.987 53.9595 185.024 53.96 185.06C53.9088 185.318 53.9088 185.583 53.96 185.84C53.9612 185.862 53.9669 185.883 53.9768 185.903C53.9866 185.923 54.0004 185.94 54.0173 185.954C54.0342 185.968 54.0538 185.979 54.0749 185.985C54.096 185.991 54.1182 185.993 54.14 185.99H55.67C55.88 185.99 55.89 185.99 55.88 186.2C55.86 186.436 55.86 186.674 55.88 186.91C55.88 187.03 55.88 187.05 55.75 187.05C55.4735 187.065 55.1965 187.065 54.92 187.05H54.22C54.04 187.05 53.97 187.11 53.93 187.29C53.8801 187.544 53.8801 187.806 53.93 188.06C53.93 188.17 53.99 188.22 54.14 188.22C54.65 188.22 55.14 188.22 55.69 188.22C55.79 188.22 55.85 188.22 55.85 188.38C55.85 188.54 55.85 188.9 55.85 189.17C55.85 189.24 55.85 189.26 55.75 189.27C55.5868 189.314 55.4189 189.337 55.25 189.34H53.09C52.73 189.34 52.69 189.28 52.69 188.93V186.55L52.77 186.56Z" fill="#1A1A1A"/>
<path d="M67.22 184.79C67.22 184.94 67.22 185.08 67.22 185.22C67.22 185.36 67.22 185.37 67.06 185.32C66.8541 185.211 66.6401 185.117 66.42 185.04C66.0582 184.897 65.6648 184.852 65.28 184.91C65.0074 184.975 64.7587 185.115 64.5624 185.315C64.366 185.515 64.2301 185.766 64.17 186.04C64.1089 186.312 64.092 186.592 64.12 186.87C64.1379 187.161 64.2429 187.439 64.4212 187.669C64.5996 187.899 64.8431 188.07 65.12 188.16C65.5136 188.284 65.938 188.266 66.32 188.11C66.55 188.03 66.79 187.95 67.02 187.85C67.25 187.75 67.18 187.85 67.19 187.94C67.19 188.3 67.19 188.65 67.19 189C67.19 189.14 67.04 189.18 66.95 189.2C66.5799 189.326 66.1979 189.413 65.81 189.46C65.5843 189.49 65.3557 189.49 65.13 189.46C64.8025 189.395 64.486 189.284 64.19 189.13C63.7246 188.878 63.3502 188.486 63.12 188.01C62.8281 187.387 62.7305 186.69 62.84 186.01C62.9768 185.318 63.3652 184.702 63.93 184.28C64.1857 184.075 64.4773 183.919 64.79 183.82C64.9629 183.772 65.1408 183.746 65.32 183.74C65.7414 183.72 66.1633 183.768 66.57 183.88L66.92 184C66.9998 184.032 67.0683 184.087 67.1164 184.159C67.1645 184.23 67.1902 184.314 67.19 184.4C67.23 184.49 67.22 184.64 67.22 184.79Z" fill="#1A1A1A"/>
<path d="M89.01 184.73V185.21C89.01 185.33 89.01 185.38 88.85 185.32C88.5966 185.166 88.3244 185.045 88.04 184.96C87.7678 184.862 87.4745 184.838 87.19 184.89C86.9758 184.929 86.7696 185.003 86.58 185.11C86.3627 185.269 86.196 185.488 86.1 185.74C86.0111 185.969 85.9473 186.207 85.91 186.45C85.8924 186.649 85.9162 186.85 85.98 187.04C86.0509 187.418 86.2653 187.754 86.5785 187.978C86.8916 188.202 87.2792 188.296 87.66 188.24C88.0661 188.17 88.4601 188.042 88.83 187.86C88.95 187.86 88.99 187.86 88.99 187.95C88.99 188.32 88.99 188.68 88.99 189.04C88.99 189.19 88.86 189.17 88.79 189.2C88.4037 189.341 88 189.428 87.59 189.46C87.2161 189.487 86.8408 189.432 86.49 189.3C86.1131 189.179 85.7703 188.97 85.49 188.69C85.1343 188.329 84.8881 187.875 84.78 187.38C84.6857 187.055 84.6419 186.718 84.65 186.38C84.6831 185.681 84.9671 185.017 85.45 184.51C85.7254 184.206 86.0677 183.969 86.45 183.82C86.6684 183.724 86.9019 183.666 87.14 183.65C87.3598 183.635 87.5803 183.635 87.8 183.65C88.0405 183.68 88.278 183.73 88.51 183.8L88.83 183.91C88.8924 183.928 88.947 183.966 88.9851 184.019C89.0232 184.071 89.0425 184.135 89.04 184.2V184.7L89.01 184.73Z" fill="#1A1A1A"/>
<path d="M81.09 192.78V193.25C81.09 193.41 81.09 193.43 80.92 193.37C80.6535 193.214 80.3678 193.093 80.07 193.01C79.796 192.92 79.5039 192.899 79.22 192.95C78.9902 193.005 78.773 193.104 78.58 193.24C78.3473 193.443 78.1802 193.711 78.1 194.01C78.028 194.209 77.9941 194.419 78 194.63C77.9781 194.919 78.0367 195.208 78.169 195.466C78.3014 195.723 78.5025 195.94 78.75 196.09C79.0531 196.263 79.4038 196.333 79.75 196.29C80.1574 196.217 80.5539 196.093 80.93 195.92C81.04 195.92 81.08 195.92 81.08 196C81.08 196.37 81.08 196.73 81.08 197.1C81.08 197.16 81.08 197.18 81 197.21C80.7933 197.284 80.5831 197.347 80.37 197.4C80.15 197.47 79.93 197.4 79.71 197.51C79.5943 197.531 79.4758 197.531 79.36 197.51C78.7147 197.473 78.1027 197.211 77.63 196.77C77.3304 196.473 77.0984 196.115 76.95 195.72C76.7941 195.337 76.7258 194.923 76.75 194.51C76.7875 193.793 77.0658 193.109 77.54 192.57C77.8182 192.266 78.1596 192.028 78.54 191.87C78.7836 191.766 79.0453 191.712 79.31 191.71C79.6251 191.689 79.9416 191.712 80.25 191.78C80.48 191.84 80.7 191.93 80.92 192.01C80.9717 192.03 81.0154 192.066 81.0443 192.113C81.0733 192.16 81.0858 192.215 81.08 192.27V192.77L81.09 192.78Z" fill="#1A1A1A"/>
<path d="M56.95 186.49V183.99C56.95 183.76 56.95 183.75 57.19 183.73H57.95C58.17 183.73 58.21 183.78 58.21 183.99C58.21 185.19 58.21 186.39 58.21 187.59C58.21 188.21 58.21 188.07 58.74 188.11C59.06 188.11 59.37 188.11 59.68 188.11C59.81 188.11 59.86 188.17 59.86 188.29C59.86 188.6 59.86 188.9 59.86 189.2C59.86 189.29 59.86 189.32 59.74 189.33C58.88 189.33 58.02 189.33 57.16 189.33C57.06 189.33 57.02 189.33 57.01 189.2C57 189.07 57.01 188.97 57.01 188.86L56.95 186.49Z" fill="#1A1A1A"/>
<path d="M96.43 186.46V183.97C96.43 183.74 96.43 183.72 96.68 183.72C96.93 183.72 97.19 183.72 97.44 183.72C97.69 183.72 97.64 183.8 97.64 183.94V187.41C97.64 187.54 97.64 187.68 97.64 187.82C97.64 187.96 97.7 188.07 97.88 188.09C98.2794 188.12 98.6806 188.12 99.08 188.09C99.27 188.09 99.3 188.09 99.3 188.29C99.3 188.49 99.3 188.87 99.3 189.15C99.3 189.24 99.3 189.27 99.18 189.28C98.4152 189.347 97.6469 189.363 96.88 189.33H96.72C96.49 189.28 96.45 189.24 96.45 188.99L96.43 186.46Z" fill="#1A1A1A"/>
<path d="M83.25 196.79C83.248 196.926 83.2056 197.059 83.1281 197.172C83.0507 197.284 82.9417 197.371 82.8148 197.421C82.688 197.472 82.5491 197.483 82.4156 197.455C82.2822 197.426 82.1602 197.359 82.0651 197.261C81.9701 197.163 81.9061 197.039 81.8815 196.905C81.8568 196.771 81.8724 196.632 81.9265 196.507C81.9805 196.381 82.0705 196.275 82.185 196.201C82.2996 196.127 82.4335 196.088 82.57 196.09C82.6618 196.087 82.7532 196.103 82.8384 196.138C82.9236 196.172 83.0006 196.224 83.0646 196.29C83.1286 196.356 83.1782 196.434 83.2101 196.52C83.242 196.606 83.2556 196.698 83.25 196.79V196.79Z" fill="#1A1A1A"/>
<path d="M75.86 196.76C75.8677 196.855 75.8546 196.95 75.8215 197.039C75.7884 197.128 75.7362 197.209 75.6685 197.276C75.6008 197.343 75.5193 197.394 75.4297 197.425C75.3401 197.457 75.2446 197.469 75.15 197.46C75.0588 197.454 74.9697 197.429 74.8882 197.388C74.8067 197.346 74.7344 197.289 74.6755 197.219C74.6167 197.149 74.5726 197.068 74.5459 196.98C74.5192 196.893 74.5104 196.801 74.52 196.71C74.5378 196.532 74.6238 196.368 74.7599 196.253C74.896 196.137 75.0717 196.079 75.25 196.09C75.56 196.08 75.95 196.41 75.86 196.76Z" fill="#1A1A1A"/>
<path d="M67.21 141.38C67.343 141.322 67.4702 141.252 67.59 141.17C70.2412 139.043 73.5867 137.974 76.98 138.17C80.2226 138.349 83.3126 139.605 85.76 141.74C87.4334 143.05 88.8476 144.661 89.93 146.49C92.3537 150.423 95.7903 153.632 99.88 155.78C101.031 156.445 102.243 156.998 103.5 157.43C103.506 157.454 103.507 157.48 103.503 157.504C103.499 157.529 103.491 157.553 103.478 157.574C103.465 157.595 103.448 157.614 103.427 157.629C103.407 157.644 103.384 157.654 103.36 157.66C102.14 158.171 100.865 158.54 99.56 158.76C98.07 158.94 96.56 159.22 95.1 159.28C92.8562 159.396 90.6072 159.194 88.42 158.68L85.95 158.08C85.6919 157.915 85.421 157.772 85.14 157.65C85.0441 157.629 84.9534 157.589 84.8739 157.532C84.7943 157.474 84.7275 157.401 84.6777 157.316C84.6279 157.232 84.5961 157.138 84.5845 157.04C84.5728 156.943 84.5815 156.844 84.61 156.75C84.83 154.9 84.83 153.03 84.61 151.18C84.4405 149.307 83.5986 147.56 82.24 146.26C81.2755 145.325 80.0832 144.659 78.7816 144.327C77.4799 143.996 76.1142 144.01 74.82 144.37C72.9189 144.867 71.2373 145.982 70.04 147.54C69.0558 148.633 68.4541 150.016 68.326 151.481C68.1979 152.946 68.5504 154.413 69.33 155.66C69.8678 156.43 70.6234 157.023 71.4999 157.361C72.3764 157.7 73.3339 157.769 74.25 157.56C75.5616 157.401 76.8056 156.889 77.85 156.08C79.41 154.81 79.58 151.94 78.34 150.08C77.9953 149.564 77.5065 149.16 76.9345 148.919C76.3624 148.678 75.7322 148.611 75.122 148.724C74.5118 148.838 73.9485 149.129 73.5019 149.56C73.0554 149.991 72.7452 150.544 72.61 151.15C72.5017 151.475 72.5017 151.825 72.61 152.15C72.7941 152.613 73.1442 152.99 73.5917 153.208C74.0393 153.426 74.5521 153.47 75.03 153.33C75.251 153.243 75.4494 153.108 75.61 152.933C75.7706 152.758 75.8892 152.549 75.9567 152.321C76.0242 152.093 76.0389 151.853 75.9996 151.619C75.9603 151.385 75.8681 151.163 75.73 150.97C75.65 150.8 75.55 150.57 75.31 150.64C75.07 150.71 75.08 150.94 75.1 151.14C75.1415 151.408 75.1682 151.679 75.18 151.95C75.1948 152.073 75.1749 152.199 75.1226 152.311C75.0703 152.424 74.9876 152.52 74.8838 152.589C74.78 152.657 74.6592 152.696 74.5349 152.699C74.4106 152.703 74.2877 152.672 74.18 152.61C73.9678 152.541 73.7824 152.408 73.6497 152.229C73.5171 152.049 73.4437 151.833 73.44 151.61C73.4397 151.172 73.5834 150.745 73.849 150.397C74.1146 150.048 74.4873 149.796 74.91 149.68C75.3357 149.519 75.8024 149.501 76.2392 149.629C76.676 149.757 77.059 150.024 77.33 150.39C77.6228 150.87 77.8146 151.406 77.8937 151.963C77.9728 152.52 77.9375 153.087 77.79 153.63C77.7275 154.117 77.5252 154.576 77.2075 154.95C76.8899 155.325 76.4704 155.599 76 155.74C75.2066 156.045 74.3693 156.221 73.52 156.26C72.942 156.337 72.3539 156.274 71.8056 156.075C71.2573 155.877 70.7649 155.549 70.37 155.12C69.9452 154.641 69.6287 154.076 69.4423 153.463C69.256 152.85 69.204 152.205 69.29 151.57C69.4414 150.049 70.129 148.631 71.23 147.57C72.494 146.298 74.1571 145.5 75.94 145.31C77.0963 145.155 78.273 145.319 79.3428 145.784C80.4126 146.25 81.3349 146.998 82.01 147.95C82.8811 149.269 83.4072 150.785 83.54 152.36C83.7704 153.386 83.7498 154.453 83.48 155.47C83.0861 156.534 82.4678 157.501 81.6672 158.305C80.8666 159.109 79.9024 159.731 78.84 160.13C76.843 160.949 74.6825 161.291 72.53 161.13C71.5325 161.109 70.5521 160.867 69.66 160.42C68.6033 159.884 67.6216 159.212 66.74 158.42C65.4118 157.343 64.3795 155.946 63.74 154.36C63.1971 152.512 63.0715 150.567 63.3724 148.664C63.6734 146.762 64.3932 144.95 65.48 143.36C66.04 142.69 66.7 142.08 67.21 141.38Z" fill="#817E23"/>
<path d="M67.21 141.38C66.7 142.1 66.04 142.69 65.53 143.38C64.4432 144.97 63.7234 146.782 63.4224 148.684C63.1215 150.587 63.2471 152.532 63.79 154.38C64.4324 155.961 65.4644 157.355 66.79 158.43C67.6691 159.225 68.6513 159.897 69.71 160.43C70.6004 160.881 71.5819 161.124 72.58 161.14C74.7329 161.311 76.8956 160.969 78.89 160.14C79.9524 159.742 80.9166 159.119 81.7172 158.315C82.5178 157.511 83.1361 156.544 83.53 155.48C83.7998 154.463 83.8204 153.396 83.59 152.37C83.4556 150.795 82.9296 149.28 82.06 147.96C81.3834 147.01 80.4609 146.263 79.3915 145.797C78.3221 145.332 77.1461 145.167 75.99 145.32C74.2071 145.51 72.544 146.308 71.28 147.58C70.1812 148.642 69.4939 150.059 69.34 151.58C69.2538 152.216 69.3057 152.863 69.4921 153.478C69.6784 154.092 69.9949 154.659 70.42 155.14C70.8164 155.567 71.3093 155.892 71.8574 156.088C72.4056 156.285 72.9928 156.347 73.57 156.27C74.4192 156.231 75.2567 156.055 76.05 155.75C76.5204 155.609 76.9398 155.335 77.2575 154.96C77.5752 154.586 77.7776 154.127 77.84 153.64C77.9879 153.099 78.0233 152.533 77.9442 151.977C77.8651 151.422 77.6731 150.888 77.38 150.41C77.1112 150.042 76.7282 149.772 76.2906 149.644C75.853 149.516 75.3853 149.535 74.96 149.7C74.539 149.816 74.1674 150.066 73.902 150.413C73.6365 150.759 73.4919 151.183 73.49 151.62C73.4937 151.843 73.567 152.059 73.6997 152.239C73.8324 152.418 74.0178 152.551 74.23 152.62C74.3377 152.682 74.4606 152.713 74.5849 152.709C74.7092 152.706 74.83 152.667 74.9338 152.599C75.0376 152.53 75.1203 152.434 75.1726 152.321C75.2249 152.209 75.2448 152.083 75.23 151.96C75.2182 151.689 75.1915 151.418 75.15 151.15C75.15 150.95 75.15 150.71 75.36 150.65C75.57 150.59 75.7 150.81 75.78 150.98C75.9181 151.174 76.0103 151.397 76.0495 151.632C76.0888 151.866 76.0742 152.107 76.0068 152.335C75.9393 152.564 75.8209 152.774 75.6603 152.949C75.4997 153.125 75.3013 153.262 75.08 153.35C74.6009 153.489 74.087 153.444 73.6393 153.224C73.1915 153.004 72.8422 152.624 72.66 152.16C72.5517 151.835 72.5517 151.485 72.66 151.16C72.7952 150.554 73.1054 150.001 73.5519 149.57C73.9984 149.139 74.5618 148.848 75.172 148.734C75.7822 148.621 76.4124 148.688 76.9845 148.929C77.5565 149.17 78.0452 149.574 78.39 150.09C79.63 151.92 79.45 154.78 77.9 156.09C76.8392 156.89 75.5812 157.388 74.26 157.53C73.3439 157.739 72.3864 157.67 71.5099 157.331C70.6334 156.993 69.8778 156.4 69.34 155.63C68.5604 154.383 68.2079 152.916 68.336 151.451C68.4641 149.986 69.0658 148.603 70.05 147.51C71.2473 145.952 72.9289 144.837 74.83 144.34C75.9278 144.042 77.0776 143.988 78.1985 144.182C79.3194 144.376 80.3841 144.814 81.3175 145.464C82.251 146.114 83.0304 146.961 83.601 147.945C84.1716 148.93 84.5195 150.027 84.62 151.16C84.84 153.007 84.84 154.873 84.62 156.72C84.5915 156.814 84.5829 156.913 84.5945 157.01C84.6062 157.108 84.6379 157.202 84.6877 157.286C84.7375 157.371 84.8043 157.444 84.8839 157.502C84.9634 157.559 85.0541 157.599 85.15 157.62C85.4291 157.745 85.6997 157.889 85.96 158.05C85.5186 159.026 84.8901 159.906 84.11 160.64C81.9714 162.859 79.2157 164.385 76.2 165.02C72.4 165.65 68.6 165.52 65.2 163.26C62.6795 161.523 60.7611 159.045 59.71 156.17C58.8234 153.666 58.128 151.099 57.63 148.49C57.0773 145.63 56.1387 142.858 54.84 140.25C53.862 138.468 52.5477 136.892 50.97 135.61C50.2216 134.998 49.3767 134.515 48.47 134.18C51.9031 134.207 55.3096 134.785 58.56 135.89C61.8139 137.058 64.7682 138.933 67.21 141.38Z" fill="#262C57"/>
<path d="M74.5 16.08C60.14 16.08 48.5 22.39 48.5 30.17V72.42C48.5 73.03 48.29 79.15 51.5 83.49C55.67 89.14 63.39 93.01 66.5 94.56C68.5567 95.5752 70.694 96.4181 72.89 97.08C73.7223 97.4043 74.6068 97.5738 75.5 97.58C76.3407 97.5678 77.1717 97.3983 77.95 97.08C79.932 96.5311 81.8128 95.6667 83.52 94.52C85.34 93.3 92.35 89.1 96.52 83.45C98.7335 80.14 100.106 76.3403 100.52 72.38V30.08C100.5 22.34 88.86 16.08 74.5 16.08Z" fill="#F4A173"/>
<path d="M61.5 57.53C62.8807 57.53 64 56.4107 64 55.03C64 53.6493 62.8807 52.53 61.5 52.53C60.1193 52.53 59 53.6493 59 55.03C59 56.4107 60.1193 57.53 61.5 57.53Z" fill="black"/>
<path d="M87.5 57.53C88.8807 57.53 90 56.4107 90 55.03C90 53.6493 88.8807 52.53 87.5 52.53C86.1193 52.53 85 53.6493 85 55.03C85 56.4107 86.1193 57.53 87.5 57.53Z" fill="black"/>
<path d="M74.5 55.08C73.16 55.08 71.43 74.59 71.07 78.79C71.0601 78.8911 71.0717 78.9932 71.1041 79.0895C71.1364 79.1858 71.1888 79.2742 71.2578 79.3488C71.3267 79.4234 71.4107 79.4826 71.5041 79.5224C71.5976 79.5623 71.6984 79.5819 71.8 79.58H76.8C76.8875 79.5802 76.9741 79.5624 77.0545 79.5278C77.1349 79.4931 77.2073 79.4424 77.2673 79.3786C77.3273 79.3149 77.3735 79.2396 77.4032 79.1572C77.433 79.0749 77.4455 78.9874 77.44 78.9C77.2 74.89 75.85 55.08 74.5 55.08Z" fill="#CC8761"/>
<path d="M56 41.53C56 41.53 61.38 37.53 67 41.53C67 41.53 64.06 40.53 56 41.53Z" fill="black"/>
<path d="M93 41.53C93 41.53 87.63 37.53 82 41.53C82 41.53 84.95 40.53 93 41.53Z" fill="black"/>
<path d="M66.65 85.89C70.17 87.43 76.56 89.34 81.96 86.11C82.0203 86.076 82.0675 86.0229 82.0941 85.959C82.1207 85.8951 82.1251 85.8242 82.1067 85.7575C82.0883 85.6908 82.0481 85.6321 81.9925 85.5909C81.937 85.5497 81.8692 85.5282 81.8 85.53C78.99 85.7 71.68 86.02 66.8 85.25C66.725 85.2521 66.6529 85.279 66.5947 85.3265C66.5366 85.3739 66.4958 85.4392 66.4787 85.5123C66.4616 85.5853 66.4691 85.662 66.5001 85.7303C66.5311 85.7986 66.5838 85.8548 66.65 85.89Z" fill="black"/>
<path d="M55.12 423.02C55.0934 423.725 55.0165 424.426 54.89 425.12C54.55 426.9 47.66 428.78 45.16 429.67C40.99 431.16 37.86 435.12 28.74 436.03C28.74 436.03 9.95999 435.93 14.74 431.44L15.1 431.29L21.19 428.68C21.19 428.68 22.91 427.41 25.19 425.53L26.38 424.53L27.53 423.53L28.63 422.53C28.99 422.2 29.35 421.87 29.7 421.53C30.05 421.19 30.39 420.87 30.7 420.53C31.01 420.19 31.57 419.65 31.98 419.2C32.19 418.98 32.39 418.75 32.58 418.53C33.12 417.92 33.58 417.31 34.03 416.73L33.64 411.03C33.64 411.03 47.27 408.76 50.96 411.03C53.68 412.68 55.29 418.47 55.12 423.02Z" fill="#662D91"/>
<path d="M127.26 437.08C118.15 436.17 115.02 432.21 110.86 430.72C108.35 429.83 101.47 427.95 101.13 426.17C100.981 425.344 100.898 424.509 100.88 423.67C100.75 419.2 102.18 413.72 105.01 412.08C108.65 409.97 122.32 412.08 122.32 412.08L121.93 417.78C122.661 418.759 123.449 419.694 124.29 420.58C124.57 420.89 124.87 421.19 125.17 421.49C125.47 421.79 125.9 422.22 126.28 422.58C126.66 422.94 126.95 423.22 127.28 423.53C127.61 423.84 128.04 424.23 128.43 424.58L129.51 425.52C129.94 425.9 130.37 426.25 130.76 426.58L131.98 427.58C133.61 428.9 134.74 429.73 134.74 429.73L140.93 432.38L141.19 432.49C146.04 436.93 127.26 437.08 127.26 437.08Z" fill="#662D91"/>
<path d="M44 416.53H34C34 416.53 33.06 411.7 34 410.53C35.57 408.53 42.24 408.76 44 410.53C45.06 411.59 44 416.53 44 416.53Z" fill="white"/>
<path d="M55.12 423.02C55.0934 423.725 55.0165 424.426 54.89 425.12C54.55 426.9 47.66 428.78 45.16 429.67C40.99 431.16 37.86 435.12 28.74 436.03C28.74 436.03 9.95999 435.93 14.74 431.44L15.1 431.29C15.57 431.96 17.1 432.93 21.95 433.53C21.95 433.53 32.95 434.53 41.46 430.53L55.12 423.02Z" fill="white"/>
<path d="M127.26 437.08C118.15 436.17 115.02 432.21 110.86 430.72C108.35 429.83 101.47 427.95 101.13 426.17C100.981 425.345 100.898 424.509 100.88 423.67L112.1 429.58C118.74 434.58 127.61 434.58 127.61 434.58C136.01 435.16 139.51 433.7 140.95 432.38L141.21 432.49C146.04 436.93 127.26 437.08 127.26 437.08Z" fill="white"/>
<path d="M122.07 418.53H112.07C112.07 418.53 110.47 412.7 111.51 411.53C113.26 409.53 120.66 409.76 122.62 411.53C123.83 412.59 122.07 418.53 122.07 418.53Z" fill="white"/>
<path d="M40 419.08C40 419.213 39.9473 419.34 39.8536 419.434C39.7598 419.527 39.6326 419.58 39.5 419.58H32.5C32.3972 419.58 32.297 419.548 32.2129 419.489C32.1288 419.43 32.0649 419.347 32.03 419.25C32.24 419.03 32.44 418.8 32.63 418.58H39.5C39.6326 418.58 39.7598 418.633 39.8536 418.726C39.9473 418.82 40 418.947 40 419.08Z" fill="white"/>
<path d="M36 421.08C36 421.213 35.9473 421.34 35.8536 421.434C35.7598 421.527 35.6326 421.58 35.5 421.58H29.73C30.08 421.25 30.42 420.92 30.73 420.58H35.48C35.5473 420.577 35.6145 420.588 35.6775 420.612C35.7405 420.636 35.798 420.672 35.8465 420.719C35.8951 420.766 35.9338 420.822 35.9601 420.884C35.9865 420.946 36 421.013 36 421.08V421.08Z" fill="white"/>
<path d="M34 423.08C34 423.213 33.9473 423.34 33.8536 423.434C33.7598 423.527 33.6326 423.58 33.5 423.58H27.56L28.66 422.58H33.5C33.6326 422.58 33.7598 422.633 33.8536 422.726C33.9473 422.82 34 422.947 34 423.08Z" fill="white"/>
<path d="M32 425.08C32 425.213 31.9473 425.34 31.8536 425.434C31.7598 425.527 31.6326 425.58 31.5 425.58H25.22L26.41 424.58H31.5C31.6326 424.58 31.7598 424.633 31.8536 424.726C31.9473 424.82 32 424.947 32 425.08Z" fill="white"/>
<path d="M125.17 421.44C125.069 421.497 124.956 421.528 124.84 421.53H117.08C116.947 421.53 116.82 421.477 116.726 421.384C116.633 421.29 116.58 421.163 116.58 421.03C116.58 420.897 116.633 420.77 116.726 420.676C116.82 420.583 116.947 420.53 117.08 420.53H124.29C124.57 420.84 124.87 421.14 125.17 421.44Z" fill="white"/>
<path d="M127.3 423.48C127.22 423.512 127.136 423.529 127.05 423.53H119.3C119.167 423.53 119.04 423.477 118.946 423.384C118.853 423.29 118.8 423.163 118.8 423.03C118.8 422.897 118.853 422.77 118.946 422.676C119.04 422.583 119.167 422.53 119.3 422.53H126.3C126.61 422.85 126.95 423.17 127.3 423.48Z" fill="white"/>
<path d="M129.53 425.47C129.45 425.512 129.36 425.532 129.27 425.53H121.51C121.377 425.53 121.25 425.477 121.156 425.384C121.063 425.29 121.01 425.163 121.01 425.03C121.01 424.897 121.063 424.77 121.156 424.676C121.25 424.583 121.377 424.53 121.51 424.53H128.45L129.53 425.47Z" fill="white"/>
<path d="M132 427.53H124.84C124.707 427.53 124.58 427.477 124.486 427.384C124.393 427.29 124.34 427.163 124.34 427.03C124.34 426.897 124.393 426.77 124.486 426.676C124.58 426.583 124.707 426.53 124.84 426.53H130.78L132 427.53Z" fill="white"/>
<path d="M82.26 22.35C83.33 17.98 88.57 17.74 93 18.53C97.43 19.32 101.52 27.06 101 31.53C95.57 27.79 87.15 20.83 80.94 23.05" fill="#0F0400"/>
<path d="M80.87 22.43C79.3701 20.3497 77.384 18.668 75.0849 17.5316C72.7858 16.3951 70.2436 15.8384 67.68 15.91C66.92 15.91 65.91 15.84 65.78 15.09C65.65 14.34 66.63 13.9 67.39 13.75C70.7136 12.9485 74.1362 12.6352 77.55 12.82C80.94 13.17 84.39 14.66 86.3 17.48L81.42 22.08" fill="#0F0400"/>
<path d="M79.51 22.08C77.69 16.79 72.26 13.16 66.67 12.85C63.8763 12.7942 61.1054 13.3622 58.559 14.5126C56.0126 15.663 53.7548 17.3668 51.95 19.5C48.3564 23.8379 46.2095 29.1911 45.81 34.81C46.609 31.2399 48.3045 27.9323 50.7365 25.1993C53.1685 22.4664 56.2569 20.3982 59.71 19.19C66.62 16.87 72.54 17.75 78.05 22.53C77.82 21.84 80.29 22.22 80.05 21.53" fill="#0F0400"/>
<path d="M82 22.53C82.56 22.94 81.6 20.89 81 20.53C72.32 15.32 59.29 16.21 51.34 22.26C43.56 28.17 47.27 36.12 45 45.53C43.24 52.83 44.17 61.07 45 68.53C45.83 75.99 39.63 84.6 45.51 89.37C43.91 79.53 48.39 72.47 49 62.53C49.61 52.59 45.25 38.24 53.26 32.14C59.43 27.44 77.95 19.52 82 22.53Z" fill="#0F0400"/>
<path d="M78.4 22.7C76.87 20.05 80.09 17.01 82.94 15.97C85.79 14.93 89.01 15.87 91.65 17.38C96.88 20.38 100.7 25.38 103.15 30.96C105.6 36.54 105.06 42.54 106 48.53C108.34 63.47 113 77.53 110.49 93.72L104.39 57.26C103.09 49.53 101.74 41.62 97.89 34.81C94.04 28 87.12 22.42 79.36 22.44" fill="#0F0400"/>
<path d="M70.51 13.01C69.6167 12.5598 68.8845 11.8444 68.4137 10.9618C67.9429 10.0792 67.7564 9.07265 67.88 8.08C68.0163 7.0954 68.3528 6.14913 68.8688 5.29953C69.3847 4.44993 70.0692 3.71499 70.88 3.14C72.5158 1.99509 74.3608 1.18302 76.31 0.75C80.49 -0.35 85.31 -0.529992 88.72 2.18001C89.8627 3.0954 90.7553 4.28497 91.3147 5.63805C91.8741 6.99112 92.0822 8.46372 91.9195 9.91881C91.7568 11.3739 91.2287 12.7642 90.3843 13.9603C89.5399 15.1565 88.4067 16.1196 87.09 16.76" fill="#0F0400"/>
<path d="M79.32 21.93C72.24 24.86 65.32 28.45 59.82 33.81C54.32 39.17 50.47 46.52 50.65 54.18C50.4765 47.6651 52.378 41.2637 56.08 35.9C59.7833 30.5732 64.4216 25.962 69.77 22.29C71.5273 20.9492 73.4413 19.8276 75.47 18.95C76.1811 18.6327 76.9513 18.4691 77.73 18.47C78.1261 18.4679 78.5164 18.5646 78.8657 18.7514C79.2149 18.9383 79.512 19.2093 79.73 19.54C79.9168 19.8688 79.9752 20.2551 79.8939 20.6245C79.8127 20.9938 79.5975 21.32 79.29 21.54" fill="#0F0400"/>
<path d="M76.28 21.69C81.28 23.21 85.39 26.75 89.33 30.19C92.77 33.19 96.33 36.31 98.48 40.33C100.53 44.13 101.25 48.49 101.93 52.75C102.051 47.4806 101.052 42.2455 98.9992 37.391C96.946 32.5365 93.8855 28.1733 90.02 24.59C88.5877 23.141 86.8284 22.0573 84.89 21.43C82.22 20.72 79.41 21.5 76.75 22.28" fill="#0F0400"/>
<path d="M33.17 127.44C26.8 145.28 29.17 191.91 29.17 191.91C29.36 201.17 22.42 252.65 22.26 253.91C22.67 252.79 23.26 251.75 23.48 250.97C28.35 236.27 31.28 197.32 31.77 189.6C32.26 181.88 32.48 158.68 32.48 158.68L35.24 127.47L33.17 127.44Z" fill="#D68D65"/>
<path d="M22.95 266.22C22.95 267.22 22.95 268.22 22.95 269.27C20.54 268.7 15.06 267.27 15.06 266.53V264.53L17.06 262.53L22.95 266.22Z" fill="#D68D65"/>
<path d="M22 257.53C22.6691 259.832 22.9695 262.225 22.89 264.62L20 262.24C20 262.53 18 258.53 19 257.53L22.81 249.93L23.25 251.62C22.96 252.29 22.58 253.07 22.25 253.9C21.7426 255.043 21.6541 256.328 22 257.53V257.53Z" fill="#D68D65"/>
<path d="M130.59 188.95C127.52 185.57 125.25 179.34 123.5 174.09C121.5 168.09 121.5 167.09 120.06 159.19C118.72 151.86 115.98 130.84 115.55 127.53H119C119.78 137.24 123.79 181.08 130.59 188.95Z" fill="#D68D65"/>
<path d="M90.62 332.36V332.21C89.62 326.85 88.62 321.51 87.62 316.29C80.03 276.67 79.95 260.09 76.42 260.09C72.01 260.09 71.42 280.2 64.82 316.29C64.4667 318.19 64.1333 320.1 63.82 322.02C63.82 322.02 65.74 275.37 70.04 260.53C70.61 258.53 72.62 255.37 76.04 254.89C78.22 254.59 81.53 256 83.04 262.53C87.07 279.61 90.62 332.36 90.62 332.36Z" fill="#E3871C"/>
<path d="M41 120.53C40.6972 120.613 40.4027 120.724 40.12 120.86C40.1069 120.72 40.0645 120.585 39.9956 120.462C39.9267 120.34 39.8328 120.234 39.72 120.15C37.85 118.9 35.84 127.47 35.84 127.47H35.26C34.5641 127.515 33.8659 127.515 33.17 127.47H33.09C33.66 125.2 35.45 118.98 38 118.56C38.89 118.39 41 118.53 41 120.53Z" fill="#D4D4D4"/>
<path d="M46.72 181.56C46.72 181.56 46.53 189.36 45 193.56C42.77 199.65 33.73 210.98 33 218.56C32.9 219.63 36.36 222.71 36.87 223.49C36 223.31 35.2 223.11 34.48 222.91C31.84 222.17 30.22 221.27 29.96 220.21C29.02 216.34 39.53 206.21 43.41 192.98C43.53 192.58 43.64 192.16 43.75 191.75C48.32 173.96 37.15 144.36 37.47 136.27C37.76 128.85 40.52 123.03 40.12 120.89L41 120.56C39.7949 127.498 39.1262 134.519 39 141.56C39 141.56 43 160.56 44 163.56C44 163.53 47.43 175.58 46.72 181.56Z" fill="#D4D4D4"/>
<path d="M53.41 161.96C50.48 160.82 44.17 157.89 40.54 152.75C39.54 148.5 38.65 144.67 38.08 141.6C38.08 141.6 38.08 141.6 38.08 141.53C38.9643 144.695 40.28 147.724 41.99 150.53C44.95 155.24 49.41 160.08 53.41 161.96Z" fill="#D4D4D4"/>
<path d="M53.48 161.99C54.18 162.26 54.68 162.43 54.89 162.5C54.4061 162.371 53.9343 162.201 53.48 161.99V161.99Z" fill="#D4D4D4"/>
<path d="M113.13 142.32C112.87 144.44 112.54 146.87 112.18 149.53C108.84 157.26 98.74 161.01 95.85 161.94C100.04 160.43 104.85 156.55 108 151.53C109.907 148.322 111.578 144.98 113 141.53C113.05 141.8 113.09 142.08 113.13 142.32Z" fill="#D4D4D4"/>
<path d="M115.37 127.47C115.37 127.47 114.69 120.98 113.09 120.17C112.992 120.121 112.884 120.095 112.775 120.095C112.666 120.095 112.558 120.121 112.46 120.17C109.6 121.37 113.46 126.42 113.68 135.69C113.84 143.54 107.02 173.84 110.58 192.55C111.004 194.774 111.558 196.971 112.24 199.13C112.09 198.82 109.71 193.69 108.96 191.92C104.68 181.68 108.96 162.55 109.91 153.75C110.71 146.02 113.04 141.82 112 135.55C111.21 130.77 110.12 124.03 111 120.55C111.33 119.25 112.74 118.92 114 119.55C115.26 120.18 117.86 125.25 119 127.55L115.37 127.47Z" fill="#D4D4D4"/>
<path d="M14.5 264.08L24.06 268.03C25.06 268.56 25.97 268.94 26.21 267.64C26.5 266.08 22.89 264.14 22.03 263.46C20.22 262.03 19.03 258.51 16.5 257.08" fill="#F4A173"/>
</g>
<defs>
<clipPath id="clip0_0_1">
<rect width="230.5" height="453.53" fill="white"/>
</clipPath>
</defs>
</svg>
