<svg width="1060" height="600" viewBox="0 0 1060 600" fill="none" xmlns="http://www.w3.org/2000/svg">
<path d="M361.32 138.51C363.72 137.2 366.4 136.24 368.47 134.53C421 91.1 482.3 75.47 549.18 76.82C614.32 78.13 668.34 106.62 718.01 145.51C750.37 170.85 777.24 201.41 798.18 236.73C844.6 315.03 911.19 371.51 989.52 415.51C1011.95 428.11 1035.18 439.07 1059.26 447.28C1059.65 450.13 1058.13 451.04 1056.5 451.64C1032.68 460.43 1008.99 469.57 983.49 472.69C954.87 476.2 926.51 481.62 897.57 482.81C854.24 484.6 811.45 481.55 769.26 471.18C753.1 467.21 736.91 463.35 720.73 459.44C715.53 456.67 710.56 453.22 705.07 451.27C696.38 448.18 693.83 442.95 694.94 433.86C699.29 398.24 699.22 362.6 695.17 326.88C690.97 289.85 676.43 257.77 649.58 232.19C609.08 193.62 561 183.89 506.88 195.81C467.89 204.4 440.06 227.92 414.91 256.82C391.19 284.07 377.97 314.63 381.56 351.19C383.71 373.13 388.07 394.69 401.26 412.98C424.72 445.49 457.41 455.46 495.84 449.5C521.23 445.57 546 438.08 565.9 421.83C595.8 397.43 599.11 342.23 575.31 307.12C560.33 285.02 539.23 277.3 513.91 280.98C486.97 284.89 472.54 302.85 465.09 327.8C463.08 334.54 463.82 340.85 465.85 347.17C471.58 365.07 495.91 376.89 512.49 369.96C530.69 362.36 536.01 344.59 525.96 324.54C524.29 321.2 522.48 316.73 517.81 318.08C513.43 319.35 513.47 323.85 513.82 327.77C514.28 332.95 515.32 338.12 515.3 343.29C515.26 354.68 506.9 360.12 496.19 355.99C487.16 352.5 482.39 345.91 482.03 336.14C481.42 319.79 492.61 305.13 510.38 299.16C528.26 293.15 546.65 298.4 556.93 312.85C570.55 332 569.1 353.42 565.76 375.06C562.57 395.68 550.41 408.6 531.24 415.7C515.82 421.41 499.77 425.02 483.53 425.66C460.78 426.56 438.84 422.52 423.03 403.81C406.38 384.11 399.02 361.48 402.25 335.37C405.94 305.53 418.38 279.72 439.58 259.2C464.62 234.98 495.1 219.32 530.1 215.8C578.05 210.99 617.96 228.19 646.83 266.65C665.33 291.29 671.87 321.32 676.24 351.44C679.14 371.39 681.83 391.69 675.16 411.26C660.09 455.48 627.02 482.4 585.94 500.86C547.25 518.25 506.09 521.14 464.5 519.54C445.39 518.81 426.84 514.83 409.39 505.83C388.81 495.22 370.03 482.07 353.12 466.59C328.95 444.46 306.64 420.7 295.52 388.62C283.22 353.14 283.34 316.85 288.29 280.43C293.38 243.01 307.02 208.76 328.92 177.69C338.75 163.76 351.42 152.32 361.32 138.51Z" fill="#817E23"/>
<path d="M361.32 138.51C351.41 152.32 338.74 163.76 328.9 177.73C307 208.8 293.35 243.05 288.27 280.47C283.32 316.89 283.2 353.17 295.5 388.66C306.62 420.74 328.93 444.5 353.1 466.63C370.01 482.11 388.78 495.26 409.37 505.87C426.82 514.86 445.37 518.84 464.48 519.58C506.07 521.17 547.23 518.29 585.92 500.9C627 482.43 660.07 455.51 675.14 411.3C681.81 391.74 679.11 371.44 676.22 351.48C671.85 321.36 665.31 291.33 646.81 266.69C617.94 228.23 578.03 211.03 530.08 215.84C495.07 219.35 464.59 235.01 439.56 259.24C418.36 279.75 405.92 305.56 402.23 335.41C399 361.52 406.35 384.15 423.01 403.85C438.82 422.55 460.76 426.59 483.51 425.7C499.75 425.06 515.8 421.45 531.22 415.74C550.39 408.64 562.56 395.72 565.74 375.1C569.08 353.47 570.53 332.05 556.91 312.89C546.64 298.44 528.24 293.19 510.36 299.2C492.6 305.17 481.4 319.83 482.01 336.18C482.38 345.95 487.14 352.54 496.17 356.03C506.88 360.17 515.23 354.72 515.28 343.33C515.3 338.16 514.26 332.99 513.8 327.81C513.45 323.89 513.42 319.39 517.79 318.12C522.46 316.76 524.27 321.24 525.94 324.58C535.99 344.62 530.67 362.4 512.47 370C495.89 376.92 471.56 365.11 465.83 347.21C463.8 340.88 463.06 334.57 465.07 327.84C472.52 302.89 486.96 284.94 513.89 281.02C539.22 277.34 560.32 285.06 575.29 307.16C599.09 342.28 595.78 397.47 565.88 421.87C545.98 438.12 521.21 445.6 495.82 449.54C457.39 455.49 424.7 445.53 401.24 413.02C388.04 394.73 383.69 373.17 381.54 351.23C377.96 314.66 391.18 284.11 414.89 256.86C440.04 227.96 467.87 204.44 506.86 195.85C560.99 183.92 609.06 193.65 649.56 232.23C676.42 257.81 690.95 289.88 695.15 326.92C699.2 362.65 699.27 398.29 694.92 433.9C693.81 442.99 696.36 448.22 705.05 451.31C710.54 453.26 715.51 456.71 720.71 459.48C711.98 478.28 700.36 495.13 685.21 509.26C641.51 550 592.56 583.67 533.05 593.56C459.82 605.74 386.91 603.26 321.94 559.73C271.74 526.1 238.53 479.11 216.45 423.27C197.54 375.46 187.71 325.41 176.49 275.59C164.17 220.91 149.37 166.84 122.67 117.09C104.06 82.42 78.45 53.09 48.23 27.94C33.97 16.08 17.87 7.19999 0.200012 0.48999C66.37 3.00999 131.38 9.87001 194.31 33.29C257.67 56.83 313.81 90.5 361.32 138.51Z" fill="#262C57"/>
</svg>
