<svg width="1080" height="1080" viewBox="0 0 1080 1080" fill="none" xmlns="http://www.w3.org/2000/svg">
<path d="M657.71 451.21C657.71 447.93 657.18 444.55 657.82 441.4C659.15 434.81 661 428.33 664.29 422.34C669.83 412.24 677.73 404.58 687.91 399.34C692.46 397 697.34 395.49 702.41 394.33C708.38 392.97 714.3 393.79 720.23 393.6C722.73 393.52 725.26 394.49 727.76 395.07C729.93 395.57 731.98 396.34 734.1 396.94C740.39 398.72 745.84 402.08 750.82 406.12C758.19 412.09 763.62 419.66 767.22 428.39C768.67 431.92 769.35 435.78 770.13 439.58C771.46 446.04 771.08 452.51 770.9 458.95C770.7 466.01 768.37 472.66 765.21 478.97C759.55 490.27 750.83 498.5 739.42 503.78C735.51 505.59 731.37 506.89 727.04 507.7C721.74 508.69 716.41 509.47 711.09 509.15C707.83 508.95 704.5 508.52 701.22 507.83C697.11 506.97 693.17 505.74 689.39 504.04C681.55 500.51 674.94 495.44 669.59 488.6C665.69 483.62 662.68 478.19 660.65 472.31C658.31 465.51 657.04 458.46 657.71 451.21ZM682.32 450.53C682.24 457.24 683.85 463.58 686.8 469.52C692.19 480.39 701.24 486.02 713.2 486.37C724.88 486.71 734.42 482.27 740.54 471.85C747.34 460.28 747.5 448.28 743.05 435.84C739.6 426.2 733.08 420.01 723.26 417.5C712.03 414.63 701.35 415.57 692.85 424.39C685.92 431.6 682.42 440.44 682.32 450.53Z" fill="#020202"/>
<path d="M354.03 488.89C354.03 492.61 354.02 496.34 354.03 500.06C354.04 501.84 353.22 502.76 351.46 503.25C347.75 504.27 344.17 505.89 340.4 506.57C335.44 507.46 330.53 508.79 325.39 508.75C321.45 508.72 317.49 508.99 313.58 508.51C305.15 507.47 297.32 504.75 290.32 499.74C281.82 493.66 275.71 485.71 271.39 476.3C269.43 472.01 268.25 467.5 267.19 462.89C265.64 456.2 266.2 449.47 266.69 442.89C267.25 435.36 270.04 428.17 273.87 421.52C280.44 410.1 289.81 401.77 301.87 396.57C305.62 394.96 309.58 393.77 313.79 393.56C316.45 393.43 319.03 392.59 321.76 392.69C326.03 392.85 330.18 393.63 334.37 394.32C339.82 395.22 344.95 397.05 350.1 398.87C352.93 399.87 354.17 401.5 354.15 404.46C354.11 411.47 354.06 418.48 354 425.5C353.98 427.8 353.77 427.9 351.76 426.95C347.18 424.78 342.75 422.29 338.02 420.39C331.24 417.67 324.14 416.26 317.02 417.34C305.8 419.04 298.26 425.63 294.4 436.48C292.71 441.24 291.66 446.05 291.66 451.03C291.66 455.28 292.19 459.45 293.46 463.62C295.15 469.17 297.8 473.93 302.09 477.79C306.88 482.1 312.54 484.29 318.93 485.06C324.05 485.67 329.06 485.07 333.89 483.79C339.21 482.38 344.32 480.16 349.13 477.39C350.1 476.83 351.23 476.54 352.18 475.95C353.96 474.84 354.19 475.89 354.19 477.29C354.21 481.16 354.2 485.03 354.2 488.91C354.17 488.89 354.1 488.89 354.03 488.89Z" fill="#020202"/>
<path d="M594.94 475.49C595.8 477.43 595.65 479.23 595.72 480.95C595.97 487.28 596.08 493.62 596.21 499.96C596.24 501.55 595.23 502.68 593.91 503.08C589.33 504.47 584.67 505.62 580.05 506.85C571.66 509.09 563.16 509.23 554.73 508.33C547.75 507.58 541.08 505.03 535 501.33C525.24 495.4 518.05 487.11 513.39 476.74C511.53 472.59 510.18 468.22 509.35 463.66C508.6 459.58 507.95 455.47 508 451.39C508.04 447.24 508.5 443.07 509.34 438.92C510.57 432.82 512.7 427.17 515.64 421.73C519.8 414.03 525.62 407.85 532.64 402.74C537.7 399.05 543.37 396.46 549.3 394.66C551.23 394.08 553.39 393.56 555.59 393.41C558.23 393.23 560.87 392.69 563.57 392.73C569.01 392.82 574.28 393.83 579.53 395.2C584.35 396.46 589.03 398.09 593.71 399.77C595.45 400.39 596.2 401.66 596.12 403.61C595.89 409.71 595.79 415.81 595.63 421.91C595.6 423.08 595.59 424.25 595.49 425.41C595.3 427.58 594.89 427.87 593 426.76C589.43 424.66 585.75 422.77 581.94 421.21C574.02 417.97 565.98 416.1 557.22 417.9C545.39 420.33 538.97 427.8 535.58 438.82C534.33 442.88 533.57 447.03 533.44 451.15C533.3 455.49 534.09 459.87 535.52 464.12C536.97 468.42 538.96 472.32 541.91 475.73C545.68 480.07 550.48 482.58 556.02 484.1C561.48 485.59 566.96 485.73 572.35 484.71C577.58 483.73 582.62 481.82 587.38 479.3C589.85 477.96 592.37 476.77 594.94 475.49Z" fill="#020202"/>
<path d="M866.76 509.25C856.19 508.57 846.74 505.99 838.55 499.53C836.56 497.96 834.58 496.41 832.78 494.64C831 492.9 830.99 492.01 832.54 490.18C836.65 485.33 840.77 480.49 844.85 475.61C845.78 474.5 846.59 474.34 847.76 475.32C850.96 477.98 854.02 480.86 857.85 482.63C865.44 486.13 870.45 485.85 876 479.94C880.54 475.1 880.04 470.05 875 465.54C870.95 461.91 865.97 459.79 861.07 457.61C856.38 455.53 851.33 454.2 847 451.37C842.12 448.17 838.83 443.72 836.73 438.17C834.48 432.21 834.56 426.06 835.21 420.09C836.04 412.43 840.05 406.03 845.95 400.93C849.3 398.03 853.15 395.68 857.3 394.65C863.02 393.23 868.9 391.63 874.98 393.4C877.23 394.05 879.64 393.75 882.01 394.37C888.68 396.12 894.75 398.82 900.01 403.34C901.25 404.41 901.1 405.26 900.22 406.27C897.88 408.93 895.63 411.68 893.12 414.16C891.3 415.96 889.83 418.03 888.06 419.86C887.1 420.85 886.27 421.22 885.04 420.53C881.53 418.57 877.79 417.11 874.04 415.7C866.33 412.79 861.06 415.95 859.48 423.82C858.74 427.48 861.07 430.51 863.75 432.9C868.04 436.72 873.42 438.64 878.57 440.93C887.7 445 896.19 449.73 901.22 459.08C904.76 465.66 905.44 472.67 904.15 479.56C902.57 488.01 897.59 494.78 890.71 500.13C886.82 503.16 882.69 505.68 878.04 507.22C874.28 508.48 870.33 508.92 866.76 509.25Z" fill="#020202"/>
<path d="M806.17 613.1C783.19 613.62 767.71 597.13 768.47 573.51C769.14 552.55 784.03 538.55 802.66 537.51C830.47 535.95 842.02 554.93 843.73 570.96C845.01 582.94 841.89 594 833.14 602.75C825.71 610.18 816.49 613.49 806.17 613.1ZM804.48 552.27C797.91 552.37 791.34 555.65 787.8 563.66C785.06 569.84 784.29 576.32 786.08 582.9C788.21 590.72 793.26 595.88 801.17 597.78C808.79 599.61 815.79 598.17 821.12 592.06C826.49 585.9 827.97 578.56 826.75 570.57C825.08 559.7 816.81 552.24 804.48 552.27Z" fill="#020202"/>
<path d="M561.33 574.03C561.33 563.07 561.33 552.12 561.33 541.16C561.33 538.99 562.25 538.08 564.63 538.08C571.65 538.11 578.66 538.25 585.68 538.23C588.95 538.22 592.23 538.14 595.35 539.2C601.53 541.31 606.2 545.07 608.57 551.44C610.25 555.93 610.01 560.66 609.35 565.03C608.39 571.4 605.04 576.87 599.15 580.34C596.53 581.88 595.92 581.56 597.94 584.55C603.46 592.78 608.98 601.01 614.5 609.25C614.86 609.79 615.27 610.32 615.49 610.91C615.86 611.89 615.71 612.65 614.39 612.65C609.56 612.64 604.74 612.69 599.91 612.62C597.6 612.59 596.66 610.54 595.61 609.03C590.99 602.34 586.59 595.5 582.01 588.78C581.21 587.61 580.61 586.24 579.4 585.36C578.94 585.03 578.59 584.41 577.91 584.75C577.34 585.03 577.15 585.62 577.11 586.22C577.07 586.88 577.06 587.53 577.06 588.19C577.06 595.35 577.06 602.52 577.05 609.68C577.05 611.89 576.16 612.76 573.85 612.78C571.51 612.81 569.17 612.81 566.83 612.78C562.55 612.73 561.35 611.58 561.34 607.33C561.32 596.24 561.33 585.14 561.33 574.03ZM577.06 560.64C577.07 563.41 577.03 566.19 577.08 568.96C577.11 570.85 578.21 571.68 580.05 571.71C582.05 571.75 583.96 571.27 585.86 570.78C590.89 569.48 593.23 566.6 593.32 561.64C593.41 556.5 591.42 553.89 586.3 552.21C583.87 551.41 581.43 551.41 578.94 551.53C577.57 551.6 577.02 552.29 577.05 553.64C577.09 555.97 577.06 558.31 577.06 560.64Z" fill="#020202"/>
<path d="M418.33 451.25C418.33 433.35 418.34 415.45 418.31 397.56C418.31 395.83 418.99 395.25 420.66 395.27C426.43 395.33 432.2 395.29 437.98 395.29C441.86 395.29 442.84 396.33 442.72 400.3C442.65 402.56 442.52 404.82 442.52 407.08C442.51 434.4 442.5 461.73 442.52 489.05C442.52 493.72 442.68 498.39 442.8 503.05C442.88 506.15 441.77 507.36 438.77 507.38C432.85 507.42 426.94 507.39 421.02 507.57C418.8 507.64 418.24 506.67 418.24 504.73C418.26 486.91 418.25 469.08 418.25 451.26C418.28 451.25 418.3 451.25 418.33 451.25Z" fill="#020202"/>
<path d="M689.32 612.66C687.57 612.66 685.81 612.59 684.06 612.68C682.37 612.76 681.32 611.97 680.64 610.55C679.28 607.71 678.02 604.84 677.06 601.82C676.3 599.42 674.03 597.83 671.7 597.89C664.62 598.07 657.52 597.96 650.43 597.97C647.68 597.97 646.28 599.18 645.4 601.82C644.41 604.81 643.27 607.76 641.78 610.55C641.13 611.76 640.16 612.58 638.68 612.6C634.81 612.66 630.94 612.78 627.07 612.79C626.03 612.79 625 612.66 625.65 610.99C628.53 603.66 631.24 596.27 634.14 588.95C637.5 580.49 641.04 572.11 644.42 563.65C647.19 556.7 649.87 549.72 652.51 542.71C653.88 539.06 655.36 538.03 659.39 537.88C661.1 537.82 662.77 537.32 664.54 537.68C667.52 538.29 668.75 540.5 669.71 542.97C672.62 550.44 675.58 557.9 678.65 565.31C682.33 574.19 685.7 583.21 689.29 592.13C691.77 598.29 694.38 604.4 696.97 610.51C697.67 612.17 696.8 612.71 695.44 612.78C693.4 612.88 691.35 612.81 689.31 612.81C689.32 612.76 689.32 612.71 689.32 612.66ZM661.07 584.14C663.55 584.14 666.03 584.11 668.51 584.16C669.53 584.18 670.06 584.03 669.57 582.84C667.02 576.66 664.49 570.48 661.96 564.29C661.77 563.82 661.66 563.3 660.98 563.31C660.3 563.32 660.22 563.84 660.03 564.32C657.6 570.47 655.16 576.61 652.7 582.75C652.31 583.72 652.38 584.2 653.63 584.16C656.11 584.09 658.59 584.14 661.07 584.14Z" fill="#020202"/>
<path d="M520.3 705.08C517.23 705.08 514.16 705.05 511.09 705.09C504.41 705.16 505.44 705.96 503.23 710.9C502.29 713 501.5 715.16 500.6 717.28C499.95 718.83 498.78 719.67 497.06 719.69C493.41 719.73 489.76 719.84 486.11 719.83C484.13 719.82 483.81 719.12 484.55 717.2C487.04 710.77 489.37 704.26 492.01 697.89C494.17 692.68 496.23 687.44 498.33 682.21C500.92 675.73 503.53 669.25 506.08 662.75C508.11 657.59 510.24 652.45 512.31 647.31C512.78 646.15 513.66 645.19 515.33 645.3C517.51 645.45 519.71 645.22 521.9 645.22C524.17 645.23 525.91 646.15 527.01 648.25C529.37 652.77 530.96 657.61 532.96 662.28C535.99 669.38 539 676.5 541.78 683.71C544 689.46 546.4 695.13 548.71 700.84C550.98 706.48 553.12 712.18 555.46 717.79C556.16 719.46 555.36 719.81 554.11 719.83C550.31 719.9 546.51 719.98 542.71 719.86C540.09 719.78 538.57 717.85 537.53 714.34C536.84 712.02 536.23 709.66 535.07 707.49C534.13 705.73 532.73 705.06 530.83 705.08C527.32 705.1 523.81 705.08 520.3 705.08ZM518.95 691.4C521.03 691.27 523.72 691.07 526.42 690.93C527.95 690.85 528.62 690.64 527.79 688.79C525.55 683.82 523.57 678.73 521.48 673.69C521.17 672.95 520.9 672.19 520.5 671.51C519.95 670.58 519.33 670.49 518.82 671.59C517.93 673.5 516.99 675.4 516.16 677.33C514.63 680.87 513.33 684.51 512.25 688.21C511.5 690.76 512.03 691.39 514.62 691.4C515.85 691.4 517.09 691.4 518.95 691.4Z" fill="#020202"/>
<path d="M477.15 612.51C479.73 605.06 482.73 598.13 485.51 591.12C487.72 585.53 489.79 579.89 491.99 574.29C493.5 570.45 495.17 566.67 496.69 562.84C499.24 556.45 501.71 550.04 504.25 543.64C504.83 542.19 505.48 540.76 506.21 539.38C506.54 538.77 507.08 538.34 507.93 538.23C511.15 537.81 514.35 538.23 517.55 538.34C518.74 538.38 519.57 539.52 520.19 540.67C522.17 544.34 523.51 548.28 525.13 552.11C528.71 560.54 531.89 569.14 535.59 577.52C538.15 583.33 540.28 589.33 542.63 595.24C544.59 600.17 546.57 605.09 548.57 610.01C549.29 611.79 548.82 612.73 546.91 612.77C543.26 612.84 539.61 612.88 535.97 612.77C533.23 612.69 532.39 610.32 531.48 608.35C530.38 605.96 529.66 603.39 528.66 600.94C527.85 598.95 526.33 597.94 524.11 597.94C516.8 597.97 509.49 597.98 502.19 597.93C500.01 597.92 498.62 598.98 497.81 600.83C496.38 604.14 495.05 607.49 493.71 610.84C493.33 611.79 492.74 612.47 491.67 612.55C486.95 612.91 482.23 612.92 477.15 612.51ZM521.42 584.26C519.54 576.86 516.64 570.11 512.93 563.47C509.43 569.5 507.19 575.72 505.3 582.09C504.87 583.55 505.18 584.58 506.96 584.57C511.71 584.52 516.46 584.77 521.42 584.26Z" fill="#020202"/>
<path d="M277.09 575.82C277.09 564.79 277.09 553.76 277.09 542.73C277.09 542 277.05 541.26 277.18 540.55C277.45 539.09 278.32 538.23 279.9 538.24C292.1 538.25 304.31 538.27 316.51 538.26C317.93 538.26 318.79 538.91 318.84 540.3C318.97 543.87 318.99 547.45 319.07 551.03C319.1 552.36 318.08 552.35 317.26 552.38C314.2 552.49 311.13 552.56 308.07 552.56C304.42 552.56 300.77 552.49 297.12 552.42C294.77 552.38 293.65 553.35 293.2 555.67C292.51 559.18 292.88 562.65 293.42 566.12C293.64 567.53 294.4 568.06 295.81 568.05C302.6 567.97 309.4 567.93 316.19 567.93C318.88 567.93 319.08 568.14 318.92 570.72C318.72 573.86 318.64 577.01 318.99 580.12C319.18 581.73 318.5 582 317.27 582.1C313.63 582.4 309.98 582.46 306.32 582.41C303.19 582.37 300.06 582.29 296.92 582.27C294.57 582.26 293.64 583.11 293.17 585.47C292.49 588.89 292.59 592.3 293.28 595.69C293.58 597.14 294.06 597.9 296.03 597.86C302.89 597.7 309.76 597.95 316.62 598.05C317.97 598.07 318.82 598.54 318.83 600.09C318.86 603.58 318.94 607.08 319.08 610.57C319.12 611.59 318.52 611.76 317.78 611.95C315.59 612.52 313.38 612.84 311.11 612.83C301.83 612.81 292.55 612.82 283.27 612.82C282.98 612.82 282.69 612.83 282.39 612.82C277.55 612.65 277.01 612.1 277.01 607.38C277.01 596.86 277.01 586.34 277.01 575.83C277.04 575.82 277.07 575.82 277.09 575.82Z" fill="#020202"/>
<path d="M469.12 552.32C469.12 554.22 468.99 556.13 469.16 558.02C469.35 560.1 468.42 560.03 467.05 559.33C464.27 557.92 461.5 556.51 458.53 555.52C453.58 553.86 448.76 552.87 443.29 553.81C435.98 555.07 429.98 562.21 428.58 568.94C427.81 572.66 427.58 576.35 427.96 579.94C428.67 586.68 432.37 594.28 441.43 597.12C446.95 598.85 452.1 598.36 457.4 596.44C460.52 595.31 463.67 594.28 466.7 592.89C467.74 592.41 468.85 592.49 468.97 594.19C469.29 598.86 469.12 603.53 469.09 608.19C469.08 610.14 467.19 610.58 465.89 610.94C460.92 612.32 455.95 613.91 450.81 614.39C447.86 614.66 444.81 614.51 441.77 613.89C437.36 612.99 433.23 611.63 429.26 609.53C422.84 606.13 418.17 601.11 415.05 594.62C410.9 586 409.79 576.73 411.36 567.55C412.96 558.19 418.31 550.55 425.83 544.57C429.28 541.83 433.09 539.69 437.26 538.5C439.47 537.87 441.79 537.35 444.24 537.32C449.91 537.26 455.51 537.6 460.92 539.25C462.43 539.71 464.01 540.18 465.52 540.84C467.98 541.93 468.96 543.76 469.1 546.19C469.22 548.23 469.12 550.28 469.12 552.32Z" fill="#020202"/>
<path d="M758.78 551.44C758.78 553.56 758.73 555.68 758.8 557.8C758.85 559.46 758.38 560.13 756.71 559.24C753.23 557.39 749.75 555.48 745.9 554.54C742.19 553.63 738.47 552.52 734.54 553.57C731.75 554.31 729.04 554.94 726.48 556.54C723.2 558.58 721.74 561.72 720.15 564.85C718.63 567.83 718.33 571.17 717.62 574.39C717.03 577.06 717.95 579.65 718.47 582.14C719.31 586.19 721.2 589.89 724.34 592.87C729.03 597.33 734.57 598.71 740.84 598.13C746.42 597.61 751.35 595.12 756.43 593.12C758.03 592.49 758.55 592.95 758.55 594.3C758.57 599.12 758.42 603.94 758.46 608.77C758.48 610.73 756.74 610.51 755.86 610.83C750.71 612.72 745.36 613.95 739.9 614.4C734.88 614.81 730.05 613.75 725.26 612.17C720.15 610.49 715.68 607.86 711.93 604.07C707.12 599.2 704.13 593.33 702.51 586.66C701.46 582.34 700.54 578.05 700.81 573.6C701.38 564.07 704.9 555.82 711.45 548.8C715.14 544.84 719.32 541.66 724.34 539.69C727.31 538.52 730.32 537.41 733.59 537.42C736.51 537.43 739.47 537.1 742.35 537.44C745.52 537.81 748.63 538.72 751.75 539.51C753.18 539.87 754.54 540.5 755.94 541.01C757.73 541.67 758.82 542.82 758.77 544.87C758.72 547.06 758.76 549.25 758.76 551.45C758.75 551.44 758.77 551.44 758.78 551.44Z" fill="#020202"/>
<path d="M653.45 658.43C653.45 660.55 653.44 662.67 653.45 664.78C653.46 666.85 653.05 667.17 651.23 666.25C647.59 664.4 644 662.41 639.99 661.51C636.27 660.68 632.64 659.68 628.65 660.77C625.55 661.62 622.7 662.56 620.15 664.57C616.76 667.24 615.02 670.82 613.7 674.81C612.8 677.54 612.29 680.44 612.38 683.11C612.65 690.98 614.85 698.16 622.38 702.44C626.48 704.77 630.72 705.7 635.51 705.18C641.15 704.57 646.08 702.1 651.22 700.15C652.71 699.59 653.26 700.05 653.23 701.25C653.12 706.14 653.62 711.03 653.12 715.91C653.04 716.67 652.79 716.99 652.07 717.3C649.35 718.47 646.49 719.11 643.68 719.94C640.77 720.81 637.76 720.4 634.91 721.29C633.38 721.77 631.68 721.57 630.19 721.43C621.51 720.62 613.58 717.8 607.21 711.58C603.19 707.65 600.15 702.97 598.24 697.69C596.36 692.52 594.97 687.13 595.54 681.61C596.53 672.03 599.28 663.11 606.11 655.79C609.97 651.66 614.42 648.54 619.6 646.55C622.83 645.31 626.21 644.3 629.8 644.35C634 644.41 638.23 644.12 642.31 645.28C645.36 646.15 648.34 647.26 651.3 648.39C652.77 648.96 653.42 650.22 653.39 651.84C653.35 654.03 653.38 656.22 653.38 658.41C653.42 658.43 653.44 658.43 653.45 658.43Z" fill="#020202"/>
<path d="M332.74 574.89C332.74 564.29 332.74 553.7 332.74 543.1C332.74 542.59 332.73 542.08 332.74 541.57C332.83 538.57 332.93 538.37 335.89 538.22C339.1 538.07 342.32 538 345.53 538.12C348.44 538.22 348.91 538.85 348.91 541.65C348.91 557.58 349.02 573.51 348.86 589.44C348.78 597.73 349.28 595.9 355.94 596.39C360.09 596.7 364.25 596.08 368.41 596.39C370.06 596.51 370.73 597.17 370.72 598.83C370.7 602.85 370.76 606.86 370.86 610.88C370.89 612.03 370.66 612.49 369.34 612.55C357.88 613.03 346.41 612.71 334.95 612.69C333.69 612.69 333.16 612.42 333.05 611.04C332.93 609.51 332.73 608 332.73 606.46C332.74 595.94 332.74 585.42 332.74 574.89Z" fill="#020202"/>
<path d="M857.41 574.49C857.41 563.46 857.41 552.43 857.41 541.4C857.41 538.25 857.6 538.06 860.8 538.08C864.16 538.1 867.52 538.27 870.87 538.19C873.09 538.13 873.54 539.18 873.53 541.14C873.48 556.48 873.51 571.82 873.5 587.16C873.5 588.98 873.4 590.8 873.36 592.62C873.31 595.02 874.21 595.98 876.51 596.25C881.83 596.89 887.15 596.39 892.47 596.29C895.02 596.24 895.45 596.53 895.43 598.98C895.4 602.78 895.29 606.57 895.31 610.37C895.32 611.56 894.96 611.94 893.75 612.1C883.57 613.48 873.35 612.61 863.15 612.71C862.43 612.72 861.71 612.59 861 612.44C857.89 611.77 857.4 611.22 857.4 608.02C857.4 596.84 857.41 585.66 857.41 574.49Z" fill="#020202"/>
<path d="M682.21 711.75C682.69 716.38 677.62 720.81 673.03 720.61C667.67 720.38 663.93 716.46 664.01 711.55C664.09 706.13 667.86 702.57 673.18 702.44C677.65 702.33 682.69 706.13 682.21 711.75Z" fill="#020202"/>
<path d="M583.95 711.38C584.92 717.34 578.56 721.34 574.52 720.66C569.86 719.87 565.85 717.09 566.21 710.67C566.52 705.18 571.71 702.15 575.82 702.45C580.03 702.75 585.11 706.71 583.95 711.38Z" fill="#020202"/>
</svg>
