<svg width="679" height="592" viewBox="0 0 679 592" fill="none" xmlns="http://www.w3.org/2000/svg">
<g clip-path="url(#clip0_0_1)">
<path d="M156.39 211.01C227.082 211.01 284.39 202.727 284.39 192.51C284.39 182.293 227.082 174.01 156.39 174.01C85.6976 174.01 28.39 182.293 28.39 192.51C28.39 202.727 85.6976 211.01 156.39 211.01Z" fill="#E6E6E6"/>
<path d="M373.39 591.01C444.082 591.01 501.39 582.727 501.39 572.51C501.39 562.293 444.082 554.01 373.39 554.01C302.698 554.01 245.39 562.293 245.39 572.51C245.39 582.727 302.698 591.01 373.39 591.01Z" fill="#E6E6E6"/>
<path d="M274.25 118.11C277.69 108.04 292.98 107.11 300.96 114.11C308.94 121.11 311.28 132.5 312.59 143.11C313.9 153.72 314.89 164.89 321.23 173.44C331.23 186.99 351.83 188.71 367.32 182.04C382.81 175.37 394.51 162.34 405.9 149.89C427.65 126.11 450.73 102.65 479.32 87.76C507.91 72.87 543.2 67.56 572.39 81.18C605.98 96.85 624.64 133.38 634.59 169.08C645.211 207.289 648.699 247.127 644.88 286.6C642.88 307.46 636.88 330.86 618.4 340.76C600.22 350.49 578.02 342.99 558.82 335.48C444.59 290.82 324.39 249.35 202.17 259.64C160.17 263.18 117 273.64 84.34 300.37C51.68 327.1 32.23 373.09 46.22 412.91C54.78 437.26 77.56 457.84 103.37 457.56C130.94 457.26 152.67 435.21 171.79 415.35C212.79 372.75 257.6 332.67 310.32 305.89C363.04 279.11 424.73 266.51 482.14 280.68C528.246 292.075 568.684 319.743 596.008 358.589C623.331 397.436 635.701 444.846 630.84 492.09C627.67 522.85 611.25 557.9 580.53 561.45C561.35 563.67 543.28 552.45 528.31 540.31C488.64 508.01 458.5 465.78 425.39 426.75C387.61 382.2 344.78 340.75 293.29 313.23C241.8 285.71 180.62 272.95 124.02 287.38C67.42 301.81 17.19 346.33 4.69002 403.38C-7.80998 460.43 24.11 526.38 79.63 544.58C102.87 552.18 130.15 550.91 149.63 536.18C167.82 522.46 176.47 499.9 185.48 478.98C222.309 393.771 278.37 318.248 349.27 258.33C430.22 190.04 528.72 143.68 604.27 69.45C616.54 57.45 629.06 41.09 623.98 24.66C617.79 4.65999 591.28 0.789992 570.35 2.28999C506.993 6.8759 445.526 25.9053 390.66 57.92C369.37 70.37 347.86 86.52 340.89 110.17C333.75 134.37 344.26 161.23 362.09 179.08C379.92 196.93 403.98 207.08 428.09 214.47C474.59 228.61 523.62 233.75 569.33 250.26C615.04 266.77 659.27 298.11 673.63 344.54C679.28 362.82 678.25 386.15 662.38 396.84C645.29 408.36 622.52 398.7 603.88 389.89C523.59 351.89 433.36 332.77 345.1 342.74C256.84 352.71 171.04 393.09 112.63 460.01C105.04 468.71 97.71 478.23 95.16 489.5C92.61 500.77 96.16 514.15 106.11 519.94C116.42 525.94 130.11 523.81 140.68 518.36C176.39 500.01 189.92 533.01 210.39 526.01C229.04 519.66 218.39 465.01 258.02 478.36" stroke="#00A99D" stroke-width="4" stroke-miterlimit="10"/>
<path d="M243.19 51.77C257.13 58.94 267.49 86.06 267.49 118.43C267.49 150.8 257.13 177.92 243.19 185.09H253.11C267.02 177.9 277.39 150.77 277.39 118.43C277.39 86.09 267.02 59.01 253.11 51.77H243.19Z" fill="#4D4D4D"/>
<path d="M268.94 118.56C268.94 119.17 268.94 119.78 268.94 120.38V122C268.94 122.59 268.94 123.18 268.89 123.77C268.89 124.19 268.89 124.61 268.89 125.02C268.89 125.43 268.89 125.71 268.84 126.02C267.68 150.59 260.98 171.31 251.69 181.36C250.431 182.752 249.015 183.994 247.47 185.06C245.04 186.876 242.092 187.865 239.058 187.879C236.025 187.894 233.067 186.933 230.62 185.14C228.198 186.92 225.271 187.88 222.265 187.88C219.259 187.88 216.332 186.92 213.91 185.14C211.486 186.921 208.557 187.881 205.55 187.881C202.543 187.881 199.614 186.921 197.19 185.14C194.768 186.92 191.841 187.88 188.835 187.88C185.829 187.88 182.902 186.92 180.48 185.14C178.058 186.92 175.131 187.88 172.125 187.88C169.119 187.88 166.192 186.92 163.77 185.14C161.346 186.921 158.417 187.881 155.41 187.881C152.403 187.881 149.474 186.921 147.05 185.14C144.628 186.92 141.701 187.88 138.695 187.88C135.689 187.88 132.762 186.92 130.34 185.14C127.918 186.92 124.991 187.88 121.985 187.88C118.979 187.88 116.052 186.92 113.63 185.14C111.206 186.921 108.277 187.881 105.27 187.881C102.263 187.881 99.3337 186.921 96.91 185.14C94.4879 186.92 91.5607 187.88 88.555 187.88C85.5493 187.88 82.6221 186.92 80.2 185.14C77.7526 186.866 74.8445 187.821 71.85 187.88C70.1594 187.875 68.4843 187.556 66.91 186.94C66.4319 186.764 65.9645 186.56 65.51 186.33V186.33C51.96 179.59 41.81 151.74 41.81 118.4C41.81 89.4 49.52 64.46 60.47 54.08C62.5446 52.0198 65.0667 50.4661 67.84 49.54C69.1355 49.1386 70.4837 48.933 71.84 48.93C72.8226 48.9299 73.8022 49.0406 74.76 49.26C76.4396 49.6604 78.0412 50.3363 79.5 51.26C79.73 51.39 79.96 51.54 80.19 51.69L80.87 51.26C83.1464 49.754 85.8155 48.951 88.545 48.951C91.2745 48.951 93.9436 49.754 96.22 51.26C96.45 51.4 96.68 51.54 96.9 51.69L97.58 51.26C99.8564 49.754 102.526 48.951 105.255 48.951C107.984 48.951 110.654 49.754 112.93 51.26C113.16 51.39 113.39 51.54 113.62 51.69C113.84 51.54 114.07 51.4 114.3 51.26C116.574 49.7536 119.242 48.9503 121.97 48.9503C124.698 48.9503 127.366 49.7536 129.64 51.26C129.87 51.39 130.1 51.54 130.33 51.69L131.01 51.26C133.284 49.7536 135.952 48.9503 138.68 48.9503C141.408 48.9503 144.076 49.7536 146.35 51.26C146.58 51.39 146.81 51.54 147.04 51.69L147.72 51.26C149.996 49.754 152.666 48.951 155.395 48.951C158.124 48.951 160.794 49.754 163.07 51.26C163.3 51.39 163.53 51.54 163.76 51.69C163.98 51.54 164.21 51.4 164.44 51.26C166.714 49.7536 169.382 48.9503 172.11 48.9503C174.838 48.9503 177.506 49.7536 179.78 51.26C180.01 51.39 180.24 51.54 180.47 51.69L181.15 51.26C183.424 49.7536 186.092 48.9503 188.82 48.9503C191.548 48.9503 194.216 49.7536 196.49 51.26C196.72 51.39 196.95 51.54 197.18 51.69L197.86 51.26C200.136 49.754 202.806 48.951 205.535 48.951C208.264 48.951 210.934 49.754 213.21 51.26C213.44 51.39 213.67 51.54 213.9 51.69C214.12 51.54 214.35 51.4 214.58 51.26C216.854 49.7536 219.522 48.9503 222.25 48.9503C224.978 48.9503 227.646 49.7536 229.92 51.26C230.15 51.39 230.38 51.54 230.61 51.69L231.29 51.26C233.581 49.7895 236.238 48.9893 238.96 48.95C242.014 49.0025 244.98 49.9864 247.46 51.77C258.25 59.11 266.52 80.09 268.54 106.08C268.78 110.13 268.94 114.3 268.94 118.56Z" fill="#4D4D4D"/>
<path d="M226.39 54.36C227.623 53.0112 229.005 51.8068 230.51 50.77C232.955 49.0148 235.88 48.0515 238.89 48.01C255.49 48.01 268.94 79.61 268.94 118.56C268.94 149.26 260.58 175.39 248.94 185.09C258.59 173.37 265.2 149.68 265.2 122.38C265.2 83.38 251.76 51.82 235.2 51.82C234.257 51.815 233.316 51.9259 232.4 52.15C230.407 52.5808 228.523 53.4108 226.86 54.59L226.39 54.36Z" fill="#999999"/>
<path d="M210.09 54.59C211.753 53.4108 213.637 52.5808 215.63 52.15C216.546 51.9259 217.487 51.815 218.43 51.82C221.289 51.86 224.072 52.7437 226.43 54.36L226.81 54.59C239.34 63.11 248.48 90.25 248.48 122.38C248.48 149.68 241.87 173.38 232.22 185.09C243.88 175.39 252.22 149.26 252.22 118.56C252.22 87.86 243.95 61.93 232.39 52.15C231.817 51.6555 231.216 51.1948 230.59 50.77C228.174 48.9713 225.242 47.9999 222.23 47.9999C219.218 47.9999 216.286 48.9713 213.87 50.77C212.37 51.8096 210.992 53.0138 209.76 54.36L210.09 54.59Z" fill="#999999"/>
<path d="M193.39 54.59C195.055 53.4144 196.939 52.5847 198.93 52.15C199.846 51.9259 200.787 51.815 201.73 51.82C204.589 51.8606 207.372 52.7442 209.73 54.36L210.11 54.59C222.63 63.11 231.78 90.25 231.78 122.38C231.78 149.68 225.17 173.38 215.52 185.09C227.18 175.39 235.52 149.26 235.52 118.56C235.52 87.86 227.24 61.93 215.64 52.15C215.062 51.6578 214.458 51.1971 213.83 50.77C211.415 48.9737 208.485 48.0036 205.475 48.0036C202.465 48.0036 199.535 48.9737 197.12 50.77C195.616 51.8044 194.237 53.0091 193.01 54.36L193.39 54.59Z" fill="#999999"/>
<path d="M176.66 54.59C178.324 53.4125 180.208 52.5826 182.2 52.15C183.116 51.9259 184.057 51.815 185 51.82C187.858 51.8618 190.641 52.7453 193 54.36L193.37 54.59C205.9 63.11 215.04 90.25 215.04 122.38C215.04 149.68 208.43 173.38 198.78 185.09C210.44 175.39 218.78 149.26 218.78 118.56C218.78 87.86 210.5 61.93 198.89 52.15C198.317 51.6555 197.716 51.1948 197.09 50.77C194.675 48.9737 191.745 48.0036 188.735 48.0036C185.725 48.0036 182.795 48.9737 180.38 50.77C178.876 51.8044 177.497 53.0091 176.27 54.36L176.66 54.59Z" fill="#999999"/>
<path d="M202.09 118.56C202.09 149.26 193.73 175.39 182.09 185.09C191.74 173.37 198.35 149.68 198.35 122.38C198.35 90.25 189.21 63.11 176.68 54.59L176.31 54.36C173.951 52.7453 171.168 51.8618 168.31 51.82C167.367 51.815 166.426 51.9259 165.51 52.15C163.517 52.5808 161.633 53.4108 159.97 54.59L159.59 54.36C160.823 53.0112 162.205 51.8068 163.71 50.77C166.141 49.0245 169.047 48.0617 172.04 48.01C175.038 48.0677 177.948 49.0297 180.39 50.77C181.016 51.1948 181.617 51.6555 182.19 52.15C193.81 61.93 202.09 88.01 202.09 118.56Z" fill="#999999"/>
<path d="M185.39 118.56C185.39 149.26 177.04 175.39 165.39 185.09C175.04 173.37 181.65 149.68 181.65 122.38C181.65 90.25 172.5 63.11 159.98 54.59L159.6 54.36C157.242 52.7442 154.459 51.8606 151.6 51.82C150.66 51.815 149.723 51.9258 148.81 52.15C146.817 52.5808 144.933 53.4108 143.27 54.59L142.89 54.36C144.117 53.0091 145.496 51.8044 147 50.77C149.416 48.9713 152.348 47.9999 155.36 47.9999C158.372 47.9999 161.304 48.9713 163.72 50.77C164.346 51.1948 164.947 51.6555 165.52 52.15C177.09 61.93 185.39 88.01 185.39 118.56Z" fill="#999999"/>
<path d="M126.52 54.59C128.185 53.4144 130.069 52.5847 132.06 52.15C132.976 51.9259 133.917 51.815 134.86 51.82C137.719 51.8606 140.502 52.7442 142.86 54.36L143.24 54.59C155.76 63.11 164.91 90.25 164.91 122.38C164.91 149.68 158.3 173.38 148.64 185.09C160.31 175.39 168.64 149.26 168.64 118.56C168.64 87.86 160.39 61.93 148.78 52.15C148.202 51.6578 147.598 51.1971 146.97 50.77C144.555 48.9737 141.625 48.0036 138.615 48.0036C135.605 48.0036 132.675 48.9737 130.26 50.77C128.756 51.8044 127.377 53.0091 126.15 54.36L126.52 54.59Z" fill="#999999"/>
<path d="M109.81 54.59C111.485 53.4059 113.383 52.5756 115.39 52.15C116.306 51.9259 117.247 51.815 118.19 51.82C121.048 51.8618 123.831 52.7453 126.19 54.36L126.56 54.59C139.09 63.11 148.23 90.25 148.23 122.38C148.23 149.68 141.62 173.38 131.97 185.09C143.63 175.39 151.97 149.26 151.97 118.56C151.97 87.86 143.69 61.93 132.08 52.15C131.507 51.6555 130.906 51.1948 130.28 50.77C127.83 49.024 124.908 48.0617 121.9 48.01C118.9 48.0576 115.987 49.0206 113.55 50.77C112.031 51.8044 110.635 53.0088 109.39 54.36L109.81 54.59Z" fill="#999999"/>
<path d="M93.1 54.59C94.7629 53.4108 96.6475 52.5808 98.64 52.15C99.553 51.9264 100.49 51.8156 101.43 51.82C104.289 51.8606 107.072 52.7442 109.43 54.36L109.81 54.59C122.33 63.11 131.48 90.25 131.48 122.38C131.48 149.68 124.87 173.38 115.22 185.09C126.88 175.39 135.22 149.26 135.22 118.56C135.22 87.86 126.95 61.93 115.39 52.15C114.817 51.6555 114.216 51.1948 113.59 50.77C111.174 48.9713 108.242 47.9999 105.23 47.9999C102.218 47.9999 99.2861 48.9713 96.87 50.77C95.3704 51.8096 93.9918 53.0138 92.76 54.36L93.1 54.59Z" fill="#999999"/>
<path d="M76.39 54.59C78.0549 53.4144 79.9387 52.5847 81.93 52.15C82.8463 51.9259 83.7867 51.815 84.73 51.82C87.5886 51.8606 90.3715 52.7442 92.73 54.36L93.11 54.59C105.63 63.11 114.78 90.25 114.78 122.38C114.78 149.68 108.17 173.38 98.51 185.09C110.18 175.39 118.51 149.26 118.51 118.56C118.51 87.86 110.23 61.93 98.63 52.15C98.0519 51.6578 97.4477 51.1971 96.82 50.77C94.4048 48.9737 91.475 48.0036 88.465 48.0036C85.455 48.0036 82.5252 48.9737 80.11 50.77C78.6063 51.8044 77.2272 53.0091 76 54.36L76.39 54.59Z" fill="#999999"/>
<path d="M101.81 118.56C101.81 149.26 93.45 175.39 81.81 185.09C88.44 177.04 93.63 163.35 96.23 146.72C96.23 146.72 96.23 146.72 96.23 146.66C97.4671 138.626 98.079 130.508 98.06 122.38C98.06 90.24 88.91 63.1 76.39 54.59L76.02 54.36C74.7824 53.5396 73.436 52.8967 72.02 52.45C70.7277 52.0324 69.378 51.8198 68.02 51.82C65.3132 51.8498 62.6693 52.6399 60.39 54.1V54.1C59.5495 54.622 58.7475 55.2035 57.99 55.84C60.257 52.8874 63.2274 50.5497 66.63 49.04V49.04C67.8258 48.5291 69.0886 48.1923 70.38 48.04C70.8378 47.9834 71.2987 47.9567 71.76 47.96C74.7592 48.0095 77.672 48.9724 80.11 50.72C80.34 50.87 80.57 51.04 80.8 51.21C81.18 51.49 81.55 51.78 81.92 52.1C93.52 61.93 101.81 88.01 101.81 118.56Z" fill="#999999"/>
<path d="M65.39 186.36L65.16 186.43H65.09C64.8 186.51 64.52 186.58 64.23 186.64C63.94 186.7 63.61 186.77 63.3 186.81C62.99 186.85 62.67 186.89 62.36 186.91C62.05 186.93 61.73 186.91 61.41 186.91C44.81 186.91 31.36 155.8 31.36 117.43C31.36 79.06 44.84 48.01 61.44 48.01C61.76 48.01 62.07 48.01 62.39 48.01C62.71 48.01 63.01 48.06 63.33 48.11C63.65 48.16 63.95 48.21 64.26 48.28C64.57 48.35 64.83 48.41 65.12 48.49H65.19L65.88 48.71L66.3 48.86L66.57 48.96C63.1673 50.4697 60.197 52.8074 57.93 55.76C58.7096 55.1521 59.5317 54.6007 60.39 54.11C49.39 64.49 41.73 89.38 41.73 118.43C41.72 151.77 51.87 179.62 65.39 186.36Z" fill="#4D4D4D"/>
<path d="M91.48 117.49C91.48 118.2 91.48 118.91 91.48 119.62C91.48 120.11 91.48 120.62 91.48 121.06C91.48 122.067 91.45 123.067 91.39 124.06C91.39 124.06 91.39 124.14 91.39 124.18C91.39 124.68 91.39 125.18 91.32 125.67C91.25 126.16 91.32 126.75 91.23 127.28C91.23 127.54 91.23 127.81 91.23 128.07C91.23 128.64 91.16 129.22 91.11 129.79C90.83 133.383 90.4367 136.863 89.93 140.23C89.7433 141.563 89.5333 142.843 89.3 144.07C88.69 147.52 87.95 150.83 87.11 153.97L86.81 155.06C86.45 156.36 86.07 157.63 85.67 158.87C85.41 159.69 85.14 160.51 84.85 161.3L84.55 162.14C84.37 162.65 84.18 163.14 83.99 163.65L83.54 164.79C83.39 165.16 83.24 165.54 83.08 165.9C82.92 166.26 82.78 166.63 82.62 166.98C82.46 167.33 82.39 167.52 82.26 167.78C82.13 168.04 81.96 168.46 81.8 168.78C81.26 169.93 80.7 171.02 80.12 172.07L79.61 172.98C78.4399 175.043 77.102 177.006 75.61 178.85C75.26 179.29 74.9 179.71 74.54 180.11C73.3696 181.431 72.066 182.627 70.65 183.68L70.12 184.06L69.34 184.57C69.15 184.7 68.95 184.81 68.76 184.92C67.9989 185.361 67.2029 185.739 66.38 186.05L65.96 186.2L65.51 186.35C51.96 179.61 41.81 151.76 41.81 118.42C41.81 89.42 49.52 64.48 60.47 54.1C59.6295 54.622 58.8275 55.2035 58.07 55.84C60.337 52.8874 63.3074 50.5497 66.71 49.04C66.7464 49.0332 66.7836 49.0332 66.82 49.04C67.17 49.18 67.51 49.34 67.82 49.51C68.13 49.68 68.43 49.82 68.73 50C69.03 50.18 69.12 50.22 69.31 50.35L70.09 50.86L70.62 51.24C71.1207 51.6003 71.6014 51.9875 72.06 52.4C72.9282 53.1492 73.7466 53.9542 74.51 54.81C74.87 55.21 75.23 55.63 75.58 56.07C77.0698 57.9154 78.4075 59.8784 79.58 61.94L80.09 62.85C80.67 63.85 81.23 65 81.77 66.14C81.93 66.47 82.08 66.81 82.23 67.14C82.38 67.47 82.48 67.68 82.59 67.94C82.7 68.2 82.9 68.65 83.05 69.02C83.2 69.39 83.36 69.76 83.51 70.13L83.96 71.27C84.15 71.77 84.34 72.27 84.52 72.78L84.82 73.62C85.11 74.42 85.38 75.23 85.64 76.05C86.04 77.29 86.42 78.56 86.78 79.86L87.08 80.95C87.92 84.1 88.66 87.41 89.27 90.86C89.5 92.12 89.71 93.39 89.9 94.69C90.41 98.06 90.8 101.55 91.08 105.13C91.08 105.7 91.17 106.28 91.2 106.85C91.2 107.11 91.2 107.38 91.2 107.64C91.2 108.18 91.27 108.71 91.29 109.25C91.31 109.79 91.34 110.25 91.36 110.74C91.36 110.74 91.36 110.82 91.36 110.86C91.4 111.853 91.43 112.853 91.45 113.86C91.45 114.33 91.45 114.86 91.45 115.3C91.48 116.07 91.48 116.78 91.48 117.49Z" fill="#1A1A1A"/>
<path d="M98.99 117.49C99.0251 127.281 98.0973 137.051 96.22 146.66C96.22 146.66 96.22 146.66 96.22 146.72C91.44 170.49 81.03 187.01 68.95 187.01H61.44C61.76 187.01 62.07 187.01 62.39 187.01C62.71 187.01 63.01 187.01 63.33 186.91C63.65 186.81 63.95 186.81 64.26 186.74C64.57 186.67 64.83 186.61 65.12 186.53H65.19L65.42 186.46L65.87 186.31L66.29 186.16C67.1129 185.849 67.9089 185.471 68.67 185.03C68.86 184.92 69.06 184.81 69.25 184.68L70.03 184.17L70.56 183.79C71.976 182.737 73.2796 181.541 74.45 180.22C74.81 179.82 75.17 179.4 75.52 178.96C77.012 177.116 78.3499 175.153 79.52 173.09L80.03 172.18C80.61 171.18 81.17 170.04 81.71 168.89C81.86 168.56 82.02 168.22 82.17 167.89C82.32 167.56 82.42 167.36 82.53 167.09C82.64 166.82 82.84 166.38 82.99 166.01C83.14 165.64 83.3 165.27 83.45 164.9L83.9 163.76C84.09 163.26 84.28 162.76 84.46 162.25L84.76 161.41C85.05 160.62 85.32 159.8 85.58 158.98C85.98 157.74 86.36 156.47 86.72 155.17L87.02 154.08C87.86 150.94 88.6 147.63 89.21 144.18C89.4367 142.92 89.6467 141.64 89.84 140.34C90.3467 136.967 90.74 133.487 91.02 129.9C91.02 129.33 91.11 128.76 91.14 128.18C91.14 127.92 91.14 127.65 91.14 127.39C91.14 126.86 91.21 126.32 91.23 125.78C91.25 125.24 91.28 124.78 91.3 124.29C91.3 124.29 91.3 124.21 91.3 124.17C91.34 123.177 91.37 122.177 91.39 121.17C91.39 120.69 91.39 120.17 91.39 119.73C91.39 119.02 91.39 118.31 91.39 117.6C91.39 116.89 91.39 116.18 91.39 115.47C91.39 114.99 91.39 114.47 91.39 114.03C91.39 113.023 91.36 112.023 91.3 111.03C91.3 111.03 91.3 110.95 91.3 110.91C91.3 110.41 91.3 109.91 91.23 109.42C91.16 108.93 91.23 108.35 91.14 107.81C91.14 107.55 91.14 107.28 91.14 107.02C91.14 106.44 91.06 105.87 91.02 105.3C90.74 101.72 90.35 98.23 89.84 94.86C89.65 93.56 89.44 92.29 89.21 91.03C88.6 87.58 87.86 84.27 87.02 81.12L86.72 80.03C86.36 78.73 85.98 77.46 85.58 76.22C85.32 75.4 85.05 74.59 84.76 73.79L84.46 72.95C84.28 72.44 84.09 71.95 83.9 71.44L83.45 70.3C83.3 69.93 83.15 69.56 82.99 69.19C82.83 68.82 82.69 68.46 82.53 68.11C82.37 67.76 82.3 67.58 82.17 67.31C82.04 67.04 81.86 66.63 81.71 66.31C81.17 65.17 80.61 64.07 80.03 63.02L79.52 62.11C78.3475 60.0485 77.0098 58.0854 75.52 56.24C75.17 55.8 74.81 55.38 74.45 54.98C73.6866 54.1243 72.8682 53.3192 72 52.57C71.5414 52.1575 71.0607 51.7703 70.56 51.41L70.03 51.03L69.25 50.52C69.06 50.39 68.86 50.28 68.67 50.17C68.48 50.06 68.06 49.83 67.76 49.68C67.46 49.53 67.07 49.35 66.76 49.21H66.66H66.6L66.33 49.11L65.91 48.96L65.22 48.74H65.15C64.86 48.66 64.58 48.59 64.29 48.53C64 48.47 63.67 48.4 63.36 48.36C63.05 48.32 62.73 48.28 62.42 48.26C62.11 48.24 61.79 48.26 61.47 48.26H68.98C69.4577 48.2617 69.9351 48.2884 70.41 48.34C71.9 48.5094 73.3542 48.9109 74.72 49.53C76.175 50.1897 77.5395 51.0332 78.78 52.04C79.16 52.34 79.53 52.66 79.9 53.04C91.07 62.85 98.99 88.01 98.99 117.49Z" fill="#4D4D4D"/>
<path d="M275.59 430.36C261.67 437.55 251.31 464.69 251.31 497.03C251.31 529.37 261.67 556.5 275.59 563.69H285.5C271.57 556.52 261.2 529.4 261.2 497.03C261.2 464.66 271.57 437.54 285.5 430.36H275.59Z" fill="#4D4D4D"/>
<path d="M486.98 497.01C486.98 530.35 476.82 558.2 463.28 564.93C462.826 565.16 462.358 565.364 461.88 565.54C460.306 566.156 458.631 566.475 456.94 566.48C453.94 566.423 451.027 565.465 448.58 563.73C446.16 565.516 443.232 566.479 440.225 566.479C437.218 566.479 434.29 565.516 431.87 563.73C429.45 565.516 426.522 566.479 423.515 566.479C420.508 566.479 417.58 565.516 415.16 563.73C412.74 565.516 409.812 566.479 406.805 566.479C403.798 566.479 400.87 565.516 398.45 563.73C396.029 565.517 393.099 566.481 390.09 566.481C387.081 566.481 384.151 565.517 381.73 563.73C379.31 565.516 376.382 566.479 373.375 566.479C370.368 566.479 367.44 565.516 365.02 563.73C362.6 565.516 359.672 566.479 356.665 566.479C353.658 566.479 350.73 565.516 348.31 563.73C345.889 565.517 342.959 566.481 339.95 566.481C336.941 566.481 334.011 565.517 331.59 563.73C329.17 565.516 326.242 566.479 323.235 566.479C320.228 566.479 317.3 565.516 314.88 563.73C312.46 565.516 309.532 566.479 306.525 566.479C303.518 566.479 300.59 565.516 298.17 563.73C295.726 565.528 292.768 566.492 289.733 566.479C286.699 566.466 283.749 565.478 281.32 563.66C279.774 562.611 278.354 561.386 277.09 560.01C268.01 550.2 261.4 530.19 260.02 506.36C259.95 505.21 259.9 504.04 259.86 502.87C259.86 501.94 259.8 501 259.78 500.05C259.78 499.05 259.78 498.05 259.78 497.05C259.78 494.663 259.833 492.303 259.94 489.97C260.01 488.2 260.12 486.45 260.26 484.72C260.4 482.99 260.55 481.27 260.74 479.58C263.39 455.99 271.26 437.26 281.34 430.41C283.815 428.624 286.778 427.639 289.83 427.59C292.557 427.629 295.218 428.433 297.51 429.91C297.74 430.04 297.96 430.19 298.19 430.34C298.42 430.19 298.64 430.04 298.87 429.91C301.144 428.398 303.814 427.591 306.545 427.591C309.276 427.591 311.946 428.398 314.22 429.91C314.45 430.04 314.68 430.19 314.9 430.34C315.12 430.19 315.35 430.04 315.58 429.91C317.854 428.398 320.524 427.591 323.255 427.591C325.986 427.591 328.656 428.398 330.93 429.91C331.16 430.04 331.38 430.19 331.61 430.34C331.84 430.19 332.06 430.04 332.29 429.91C334.566 428.397 337.237 427.59 339.97 427.59C342.703 427.59 345.374 428.397 347.65 429.91C347.88 430.04 348.1 430.19 348.33 430.34C348.56 430.19 348.78 430.04 349.01 429.91C351.284 428.398 353.954 427.591 356.685 427.591C359.416 427.591 362.086 428.398 364.36 429.91C364.59 430.04 364.82 430.19 365.04 430.34C365.26 430.19 365.49 430.04 365.72 429.91C367.994 428.398 370.664 427.591 373.395 427.591C376.126 427.591 378.796 428.398 381.07 429.91C381.3 430.04 381.52 430.19 381.75 430.34C381.98 430.19 382.2 430.04 382.43 429.91C384.706 428.397 387.377 427.59 390.11 427.59C392.843 427.59 395.514 428.397 397.79 429.91C398.02 430.04 398.24 430.19 398.47 430.34C398.7 430.19 398.92 430.04 399.15 429.91C401.424 428.398 404.094 427.591 406.825 427.591C409.556 427.591 412.226 428.398 414.5 429.91C414.73 430.04 414.95 430.19 415.18 430.34C415.4 430.19 415.63 430.04 415.86 429.91C418.134 428.398 420.804 427.591 423.535 427.591C426.266 427.591 428.936 428.398 431.21 429.91C431.44 430.04 431.66 430.19 431.89 430.34C432.12 430.19 432.34 430.04 432.57 429.91C434.844 428.398 437.514 427.591 440.245 427.591C442.976 427.591 445.646 428.398 447.92 429.91C448.15 430.04 448.38 430.19 448.6 430.34L449.29 429.9C450.768 428.972 452.39 428.296 454.09 427.9C455.032 427.688 455.994 427.581 456.96 427.58C458.317 427.582 459.666 427.791 460.96 428.2V428.2C463.739 429.125 466.266 430.682 468.34 432.75V432.75C479.27 443.1 486.98 468.01 486.98 497.01Z" fill="#4D4D4D"/>
<path d="M301.9 433.19C300.236 432.011 298.352 431.178 296.36 430.74C295.442 430.524 294.503 430.416 293.56 430.42C276.96 430.42 263.51 462.02 263.51 500.97C263.51 528.28 270.12 551.97 279.77 563.69C268.11 553.98 259.77 527.86 259.77 497.16C259.77 458.16 273.21 426.61 289.77 426.61C292.772 426.659 295.689 427.622 298.13 429.37C299.636 430.401 301.015 431.606 302.24 432.96L301.9 433.19Z" fill="#999999"/>
<path d="M318.98 433.01C317.755 431.656 316.376 430.451 314.87 429.42C312.455 427.624 309.525 426.654 306.515 426.654C303.505 426.654 300.575 427.624 298.16 429.42C297.536 429.845 296.935 430.302 296.36 430.79C284.75 440.58 276.47 466.62 276.47 497.21C276.47 527.8 284.83 554.03 296.47 563.74C286.83 552.01 280.22 528.28 280.22 501.01C280.22 468.88 289.37 441.75 301.9 433.23C302.03 433.15 302.14 433.07 302.27 433C304.628 431.384 307.411 430.501 310.27 430.46C311.213 430.456 312.152 430.564 313.07 430.78C315.062 431.216 316.947 432.05 318.61 433.23L318.98 433.01Z" fill="#999999"/>
<path d="M335.7 433.01C334.47 431.658 333.087 430.454 331.58 429.42C329.143 427.671 326.23 426.708 323.23 426.66C320.229 426.716 317.314 427.678 314.87 429.42C314.246 429.845 313.645 430.302 313.07 430.79C301.46 440.58 293.18 466.62 293.18 497.21C293.18 527.8 301.54 554.03 313.18 563.74C303.55 552.01 296.94 528.28 296.94 501.01C296.94 468.88 306.08 441.75 318.61 433.23C318.74 433.15 318.85 433.07 318.98 433C321.339 431.385 324.122 430.502 326.98 430.46C327.923 430.456 328.862 430.564 329.78 430.78C331.773 431.215 333.657 432.048 335.32 433.23L335.7 433.01Z" fill="#999999"/>
<path d="M352.39 433.01C351.165 431.656 349.786 430.451 348.28 429.42C345.864 427.621 342.932 426.65 339.92 426.65C336.908 426.65 333.976 427.621 331.56 429.42C330.936 429.845 330.335 430.302 329.76 430.79C318.16 440.58 309.88 466.62 309.88 497.21C309.88 527.8 318.23 554.03 329.88 563.74C320.26 552.01 313.65 528.28 313.65 501.01C313.65 468.88 322.8 441.75 335.32 433.23L335.7 433C338.058 431.384 340.841 430.501 343.7 430.46C344.639 430.457 345.576 430.564 346.49 430.78C348.483 431.215 350.368 432.048 352.03 433.23L352.39 433.01Z" fill="#999999"/>
<path d="M326.61 497.16C326.61 527.86 334.96 553.98 346.61 563.69C336.97 552.01 330.39 528.28 330.39 501.01C330.39 468.88 339.54 441.75 352.06 433.23L352.39 433.01C354.748 431.394 357.531 430.511 360.39 430.47C361.333 430.466 362.272 430.574 363.19 430.79C365.182 431.228 367.066 432.061 368.73 433.24C368.86 433.16 368.97 433.08 369.1 433.01C367.875 431.656 366.496 430.451 364.99 429.42C362.575 427.624 359.645 426.654 356.635 426.654C353.625 426.654 350.695 427.624 348.28 429.42C347.66 429.84 347.06 430.3 346.47 430.79C334.89 440.53 326.61 466.57 326.61 497.16Z" fill="#999999"/>
<path d="M343.32 497.16C343.32 527.86 351.68 553.98 363.32 563.69C353.69 552.01 347.08 528.28 347.08 501.01C347.08 468.88 356.22 441.75 368.75 433.23C368.88 433.15 368.99 433.07 369.12 433C371.479 431.385 374.262 430.502 377.12 430.46C378.063 430.456 379.002 430.564 379.92 430.78C381.913 431.215 383.798 432.048 385.46 433.23C385.59 433.15 385.7 433.07 385.84 433C384.61 431.648 383.227 430.444 381.72 429.41C379.305 427.614 376.375 426.644 373.365 426.644C370.355 426.644 367.425 427.614 365.01 429.41C364.386 429.835 363.785 430.292 363.21 430.78C351.6 440.53 343.32 466.57 343.32 497.16Z" fill="#999999"/>
<path d="M402.55 433.01C401.321 431.661 399.942 430.457 398.44 429.42C396.024 427.621 393.092 426.65 390.08 426.65C387.068 426.65 384.136 427.621 381.72 429.42C381.096 429.845 380.495 430.302 379.92 430.79C368.32 440.58 360.03 466.62 360.03 497.21C360.03 527.8 368.39 554.03 380.03 563.74C370.39 552.01 363.79 528.28 363.79 501.01C363.79 468.88 372.93 441.75 385.46 433.23C385.59 433.15 385.7 433.07 385.84 433C388.198 431.384 390.981 430.501 393.84 430.46C394.779 430.457 395.716 430.565 396.63 430.78C398.623 431.215 400.508 432.048 402.17 433.23L402.55 433.01Z" fill="#999999"/>
<path d="M419.26 433.01C418.035 431.656 416.656 430.451 415.15 429.42C412.735 427.624 409.805 426.654 406.795 426.654C403.785 426.654 400.855 427.624 398.44 429.42C397.82 429.84 397.22 430.3 396.63 430.79C385.03 440.58 376.75 466.62 376.75 497.21C376.75 527.8 385.1 554.03 396.75 563.74C387.11 552.01 380.5 528.28 380.5 501.01C380.5 468.88 389.65 441.75 402.17 433.23L402.55 433C404.908 431.384 407.691 430.501 410.55 430.46C411.493 430.456 412.432 430.564 413.35 430.78C415.342 431.218 417.226 432.051 418.89 433.23L419.26 433.01Z" fill="#999999"/>
<path d="M435.97 433.01C434.745 431.656 433.366 430.451 431.86 429.42C429.445 427.624 426.515 426.654 423.505 426.654C420.495 426.654 417.565 427.624 415.15 429.42C414.526 429.845 413.925 430.302 413.35 430.79C401.74 440.58 393.46 466.62 393.46 497.21C393.46 527.8 401.82 554.03 413.46 563.74C403.83 552.01 397.22 528.28 397.22 501.01C397.22 468.88 406.36 441.75 418.89 433.23C419.02 433.15 419.13 433.07 419.26 433C421.619 431.385 424.402 430.502 427.26 430.46C428.203 430.456 429.143 430.564 430.06 430.78C432.053 431.215 433.938 432.048 435.6 433.23L435.97 433.01Z" fill="#999999"/>
<path d="M452.69 433.01C451.461 431.661 450.082 430.457 448.58 429.42C446.164 427.621 443.232 426.65 440.22 426.65C437.208 426.65 434.276 427.621 431.86 429.42C431.236 429.845 430.635 430.302 430.06 430.79C418.45 440.58 410.17 466.62 410.17 497.21C410.17 527.8 418.53 554.03 430.17 563.74C420.54 552.01 413.93 528.28 413.93 501.01C413.93 468.88 423.07 441.75 435.6 433.23C435.73 433.15 435.84 433.07 435.97 433C438.33 431.387 441.112 430.504 443.97 430.46C444.913 430.456 445.852 430.564 446.77 430.78C448.763 431.215 450.647 432.048 452.31 433.23L452.69 433.01Z" fill="#999999"/>
<path d="M470.72 434.44C469.965 433.808 469.166 433.23 468.33 432.71C466.051 431.247 463.408 430.454 460.7 430.42C459.342 430.421 457.993 430.633 456.7 431.05V431.05C455.283 431.49 453.936 432.13 452.7 432.95L452.47 433.09C439.87 441.49 430.65 468.7 430.65 500.96C430.631 509.092 431.242 517.213 432.48 525.25C432.48 525.25 432.48 525.25 432.48 525.32C435.08 541.94 440.28 555.63 446.9 563.68C435.24 553.97 426.9 527.85 426.9 497.15C426.9 466.45 435.19 440.5 446.79 430.73C447.16 430.42 447.53 430.12 447.9 429.85C448.27 429.58 448.36 429.51 448.59 429.36C451.028 427.612 453.941 426.65 456.94 426.6C457.405 426.597 457.869 426.623 458.33 426.68C459.616 426.815 460.875 427.135 462.07 427.63C465.474 429.147 468.447 431.487 470.72 434.44V434.44Z" fill="#999999"/>
<path d="M497.31 496.09C497.31 534.46 483.85 565.57 467.31 565.57C466.99 565.57 466.67 565.57 466.31 565.57C465.95 565.57 465.68 565.57 465.37 565.47C465.06 565.37 464.74 565.37 464.43 565.3L463.5 565.06L463.28 564.99C476.82 558.26 486.98 530.41 486.98 497.07C486.98 468.07 479.27 443.14 468.33 432.75C469.166 433.27 469.965 433.848 470.72 434.48C468.444 431.535 465.472 429.201 462.07 427.69L462.55 427.51C462.876 427.382 463.21 427.275 463.55 427.19L464.28 427C464.43 427 464.57 426.93 464.72 426.91C464.87 426.89 465.18 426.82 465.42 426.79C465.655 426.748 465.892 426.721 466.13 426.71C466.243 426.7 466.357 426.7 466.47 426.71H467.31C483.85 426.61 497.31 457.71 497.31 496.09Z" fill="#4D4D4D"/>
<path d="M486.98 497.01C486.98 530.35 476.82 558.2 463.28 564.93L463.5 565C463.422 564.986 463.345 564.966 463.27 564.94C462.89 564.82 462.51 564.69 462.14 564.54L461.44 564.24C461.21 564.14 460.99 564.03 460.76 563.91C460.53 563.79 460.31 563.68 460.09 563.55L459.5 563.2C459.23 563.04 458.96 562.86 458.69 562.67L458.12 562.27C457.69 561.95 457.26 561.61 456.83 561.27C456.4 560.93 455.98 560.53 455.57 560.12C455.16 559.71 454.75 559.29 454.34 558.84L453.74 558.16L453.23 557.55C452.6 556.78 451.97 555.94 451.36 555.06C451.18 554.81 451.01 554.55 450.84 554.29C450.67 554.03 450.41 553.64 450.2 553.29C449.86 552.75 449.53 552.19 449.2 551.62C448.096 549.674 447.094 547.671 446.2 545.62C446.04 545.26 445.88 544.89 445.73 544.52C445.58 544.15 445.42 543.78 445.27 543.41L444.82 542.27C444.66 541.85 444.49 541.41 444.33 540.97C444.09 540.303 443.86 539.653 443.64 539.02C443.47 538.52 443.31 538.02 443.14 537.49C442.6 535.837 442.1 534.13 441.64 532.37C441.5 531.82 441.35 531.26 441.21 530.7C441.02 529.92 440.83 529.13 440.65 528.33C440.123 525.99 439.647 523.573 439.22 521.08C439.1 520.35 438.99 519.61 438.88 518.86C438.37 515.49 437.98 512 437.7 508.42C437.7 507.85 437.61 507.27 437.58 506.7C437.58 506.44 437.58 506.17 437.58 505.91C437.58 505.37 437.51 504.84 437.49 504.3C437.49 503.94 437.49 503.58 437.49 503.22C437.43 502.05 437.39 500.88 437.37 499.69C437.37 499.22 437.37 498.74 437.37 498.25C437.37 497.54 437.37 496.83 437.37 496.12C437.37 495.41 437.37 494.69 437.37 493.98C437.37 493.5 437.37 492.98 437.37 492.54C437.37 492.1 437.37 491.36 437.37 490.77C437.37 490.18 437.37 489.6 437.44 489.01C437.44 488.65 437.44 488.29 437.44 487.94C437.44 487.4 437.49 486.86 437.53 486.33C437.53 486.07 437.53 485.8 437.53 485.54C437.53 484.96 437.6 484.39 437.65 483.82C437.92 480.3 438.31 476.88 438.8 473.58C438.92 472.77 439.04 471.96 439.17 471.16C439.35 470.16 439.53 469.11 439.72 468.11C439.81 467.63 439.91 467.16 440 466.69C440.2 465.69 440.4 464.78 440.61 463.84C440.71 463.4 440.81 462.97 440.92 462.53L441.25 461.19C441.38 460.66 441.52 460.19 441.65 459.64L441.95 458.55C442.31 457.217 442.69 455.947 443.09 454.74C443.35 453.91 443.63 453.1 443.91 452.31L444.21 451.47C444.39 450.96 444.58 450.47 444.77 449.96L445.22 448.82C445.52 448.07 445.83 447.33 446.15 446.61C446.47 445.89 446.72 445.34 447.01 444.72C447.885 442.865 448.86 441.059 449.93 439.31C450.09 439.04 450.26 438.77 450.43 438.51C450.83 437.88 451.23 437.28 451.65 436.7L452.27 435.85C452.69 435.29 453.12 434.75 453.55 434.24C453.77 433.98 453.98 433.73 454.2 433.49C454.64 433 455.09 432.54 455.54 432.1L456.17 431.49L456.61 431.11C456.92 430.83 457.24 430.57 457.61 430.32L458.28 429.81L458.35 429.76C458.57 429.61 458.79 429.45 459.02 429.31C459.25 429.17 459.48 429.01 459.71 428.87L460.39 428.49L460.83 428.27L461.13 428.11L461.83 427.81L461.96 427.76C465.362 429.271 468.334 431.605 470.61 434.55C469.855 433.918 469.056 433.34 468.22 432.82C479.27 443.1 486.98 468.01 486.98 497.01Z" fill="#1A1A1A"/>
<path d="M466.31 565.53C466.62 565.53 466.94 565.53 467.31 565.53H459.8C447.72 565.53 437.31 549.05 432.53 525.29C432.53 525.29 432.53 525.24 432.53 525.22C430.653 515.611 429.725 505.841 429.76 496.05C429.76 466.59 437.69 441.4 448.89 431.3C449.26 430.97 449.63 430.65 450.01 430.35C451.265 429.333 452.646 428.482 454.12 427.82C455.469 427.207 456.907 426.812 458.38 426.65C458.855 426.598 459.332 426.572 459.81 426.57H467.32H466.48C466.367 426.56 466.253 426.56 466.14 426.57C465.902 426.581 465.665 426.608 465.43 426.65C465.19 426.65 464.96 426.72 464.73 426.77C464.582 426.79 464.435 426.82 464.29 426.86L463.56 427.05C463.22 427.135 462.886 427.242 462.56 427.37L462.07 427.54L461.95 427.6C461.72 427.69 461.48 427.79 461.25 427.9L460.95 428.06C460.799 428.125 460.653 428.199 460.51 428.28V428.28C460.28 428.4 460.06 428.52 459.83 428.66C459.6 428.8 459.37 428.94 459.14 429.1C458.91 429.26 458.69 429.39 458.47 429.55L458.4 429.6C458.17 429.76 457.95 429.93 457.73 430.11C457.51 430.29 457.07 430.63 456.73 430.91C456.59 431.03 456.45 431.15 456.32 431.28C456.11 431.48 455.9 431.67 455.69 431.89C455.24 432.32 454.79 432.79 454.35 433.28C454.13 433.52 453.92 433.77 453.7 434.03C453.26 434.54 452.84 435.08 452.42 435.64C452.21 435.91 452 436.2 451.8 436.49C451.38 437.07 450.98 437.67 450.58 438.3C450.4 438.56 450.24 438.83 450.08 439.1C449.01 440.849 448.035 442.655 447.16 444.51C446.87 445.13 446.58 445.76 446.3 446.4C446.02 447.04 445.67 447.86 445.37 448.61L444.92 449.75C444.73 450.24 444.54 450.75 444.36 451.26L444.06 452.1C443.78 452.89 443.5 453.7 443.24 454.53C442.84 455.77 442.46 457.04 442.1 458.34L441.8 459.43C441.67 459.94 441.53 460.43 441.4 460.98L441.07 462.32C440.96 462.76 440.86 463.19 440.76 463.63C440.55 464.57 440.35 465.52 440.15 466.48C440.06 466.95 439.96 467.42 439.87 467.9C439.68 468.9 439.5 469.9 439.32 470.95C439.19 471.75 439.07 472.56 438.95 473.37C438.46 476.67 438.07 480.09 437.8 483.61C437.8 484.18 437.71 484.75 437.68 485.33C437.68 485.59 437.68 485.86 437.68 486.12C437.68 486.65 437.61 487.19 437.59 487.73C437.59 488.08 437.59 488.44 437.59 488.8C437.59 489.38 437.54 489.97 437.52 490.56C437.5 491.15 437.52 491.73 437.52 492.33C437.52 492.93 437.52 493.33 437.52 493.77C437.52 494.48 437.52 495.19 437.52 495.91C437.52 496.63 437.52 497.33 437.52 498.04C437.52 498.52 437.52 499.04 437.52 499.48C437.52 500.67 437.58 501.84 437.64 503.01C437.64 503.37 437.64 503.73 437.64 504.09C437.64 504.63 437.69 505.16 437.73 505.7C437.73 505.96 437.73 506.23 437.73 506.49C437.73 507.07 437.81 507.64 437.85 508.21C438.13 511.79 438.52 515.28 439.03 518.65C439.14 519.4 439.25 520.14 439.37 520.87C439.79 523.363 440.267 525.78 440.8 528.12C440.98 528.92 441.17 529.71 441.36 530.49C441.5 531.05 441.65 531.61 441.79 532.16C442.263 533.92 442.763 535.627 443.29 537.28C443.46 537.8 443.62 538.28 443.79 538.81C444.01 539.477 444.24 540.127 444.48 540.76C444.64 541.2 444.81 541.64 444.97 542.06L445.42 543.2C445.57 543.57 445.72 543.95 445.88 544.31C446.04 544.67 446.19 545.05 446.35 545.41C447.244 547.461 448.246 549.464 449.35 551.41C449.68 551.98 450.01 552.54 450.35 553.08C450.56 553.42 450.78 553.75 450.99 554.08C451.2 554.41 451.33 554.6 451.51 554.85C452.12 555.73 452.75 556.57 453.38 557.34L453.89 557.95L454.49 558.63C454.9 559.08 455.31 559.51 455.72 559.91C456.13 560.31 456.55 560.7 456.98 561.06C457.41 561.42 457.84 561.77 458.27 562.06L458.84 562.46C459.11 562.65 459.38 562.83 459.65 562.99L460.24 563.34C460.46 563.47 460.69 563.59 460.91 563.7C461.13 563.81 461.36 563.93 461.59 564.03L462.29 564.33C462.67 564.483 463.05 564.613 463.43 564.72L463.65 564.79L464.58 565.03C464.89 565.1 465.2 565.15 465.52 565.2C465.84 565.25 465.99 565.51 466.31 565.53Z" fill="#4D4D4D"/>
</g>
<defs>
<clipPath id="clip0_0_1">
<rect width="678.79" height="591.01" fill="white"/>
</clipPath>
</defs>
</svg>
