<svg width="284" height="284" viewBox="0 0 284 284" fill="none" xmlns="http://www.w3.org/2000/svg">
<path d="M144.4 264.6C204.5 264.6 253.2 259.9 253.2 254.1C253.2 248.3 204.5 243.6 144.4 243.6C84.3 243.6 35.6 248.3 35.6 254.1C35.6 259.9 84.3 264.6 144.4 264.6Z" fill="#E6E6E6"/>
<path d="M102.6 144.2C103.2 143.9 103.8 143.7 104.3 143.3C116.5 133.2 130.8 129.5 146.4 129.9C161.6 130.2 174.2 136.8 185.7 145.9C193.2 151.8 199.5 158.9 204.4 167.2C215.2 185.4 230.7 198.6 249 208.9C254.2 211.8 259.6 214.4 265.3 216.3C265.4 217 265 217.2 264.7 217.3C259.1 219.3 253.6 221.5 247.7 222.2C241 223 234.4 224.3 227.7 224.6C217.6 225 207.6 224.3 197.8 221.9C194 221 190.3 220.1 186.5 219.2C185.3 218.5 184.1 217.7 182.9 217.3C180.9 216.6 180.3 215.4 180.5 213.2C181.5 204.9 181.5 196.6 180.6 188.3C179.6 179.7 176.2 172.2 170 166.2C160.6 157.2 149.4 154.9 136.7 157.7C127.6 159.7 121.1 165.2 115.3 171.9C109.8 178.3 106.7 185.4 107.5 193.9C108 199 109 204 112.1 208.3C117.6 215.9 125.2 218.2 134.1 216.8C140 215.9 145.8 214.1 150.4 210.4C157.4 204.7 158.1 191.9 152.6 183.7C149.1 178.5 144.2 176.8 138.3 177.6C132 178.5 128.7 182.7 126.9 188.5C126.4 190.1 126.6 191.5 127.1 193C128.4 197.2 134.1 199.9 138 198.3C142.2 196.5 143.5 192.4 141.1 187.7C140.7 186.9 140.3 185.9 139.2 186.2C138.2 186.5 138.2 187.5 138.3 188.5C138.4 189.7 138.7 190.9 138.7 192.1C138.7 194.8 136.7 196 134.3 195.1C132.2 194.3 131.1 192.8 131 190.5C130.9 186.7 133.5 183.3 137.6 181.9C141.8 180.5 146 181.7 148.5 185.1C151.7 189.6 151.3 194.6 150.6 199.6C149.9 204.4 147 207.4 142.6 209.1C139 210.4 135.3 211.3 131.5 211.4C126.2 211.6 121.1 210.7 117.4 206.3C113.5 201.7 111.8 196.4 112.5 190.4C113.4 183.4 116.3 177.4 121.2 172.7C127 167.1 134.1 163.4 142.3 162.6C153.5 161.5 162.8 165.5 169.5 174.4C173.8 180.1 175.3 187.1 176.4 194.2C177.1 198.9 177.7 203.6 176.1 208.1C172.6 218.4 164.9 224.7 155.3 229C146.3 233 136.7 233.7 127 233.3C122.6 233.1 118.2 232.2 114.2 230.1C109.4 227.6 105 224.6 101.1 221C95.5 215.8 90.3 210.3 87.7 202.8C84.8 194.5 84.9 186.1 86 177.6C87.2 168.9 90.4 160.9 95.5 153.7C97.4 150.1 100.3 147.5 102.6 144.2Z" fill="#817E23"/>
<path d="M103.1 144.6C100.8 147.8 97.8 150.5 95.5 153.7C90.4 160.9 87.2 168.9 86 177.6C84.8 186.1 84.8 194.5 87.7 202.8C90.3 210.3 95.5 215.8 101.1 221C105 224.6 109.4 227.7 114.2 230.1C118.3 232.2 122.6 233.1 127 233.3C136.7 233.7 146.3 233 155.3 229C164.9 224.7 172.6 218.4 176.1 208.1C177.7 203.5 177 198.8 176.4 194.2C175.4 187.2 173.9 180.2 169.5 174.4C162.8 165.4 153.5 161.4 142.3 162.6C134.1 163.4 127 167.1 121.2 172.7C116.3 177.5 113.4 183.5 112.5 190.4C111.7 196.5 113.5 201.8 117.4 206.3C121.1 210.7 126.2 211.6 131.5 211.4C135.3 211.2 139 210.4 142.6 209.1C147.1 207.4 149.9 204.4 150.6 199.6C151.4 194.6 151.7 189.6 148.5 185.1C146.1 181.7 141.8 180.5 137.6 181.9C133.5 183.3 130.9 186.7 131 190.5C131.1 192.8 132.2 194.3 134.3 195.1C136.8 196.1 138.7 194.8 138.7 192.1C138.7 190.9 138.5 189.7 138.3 188.5C138.2 187.6 138.2 186.5 139.2 186.2C140.3 185.9 140.7 186.9 141.1 187.7C143.4 192.4 142.2 196.5 138 198.3C134.1 199.9 128.5 197.2 127.1 193C126.6 191.5 126.4 190.1 126.9 188.5C128.6 182.7 132 178.5 138.3 177.6C144.2 176.7 149.1 178.5 152.6 183.7C158.2 191.9 157.4 204.7 150.4 210.4C145.8 214.2 140 215.9 134.1 216.8C125.2 218.2 117.5 215.9 112.1 208.3C109 204 108 199 107.5 193.9C106.7 185.4 109.7 178.3 115.3 171.9C121.2 165.2 127.6 159.7 136.7 157.7C149.3 154.9 160.5 157.2 170 166.2C176.3 172.2 179.7 179.6 180.6 188.3C181.5 196.6 181.6 204.9 180.5 213.2C180.2 215.3 180.8 216.5 182.9 217.3C184.2 217.8 185.3 218.6 186.5 219.2C184.5 223.6 181.7 227.5 178.2 230.8C168 240.3 156.6 248.1 142.7 250.4C125.6 253.2 108.6 252.7 93.5 242.5C82.2 234.9 74.5 224 69.3 211C64.9 199.9 62.6 188.2 60 176.6C57.1 163.9 53.7 151.3 47.5 139.7C43.2 131.6 37.2 124.8 30.2 118.9C26.9 116.1 23.1 114.1 19 112.5C34.4 113.1 49.6 114.7 64.2 120.1C79 125.6 92.1 133.5 103.1 144.6Z" fill="#262C57"/>
<path d="M200.3 26V66C200.3 68.9 199.1 71.6 197.1 73.5C195.2 75.3 192.7 76.4 189.9 76.4H163.2L150 99.2L136.8 76.4H110C104.2 76.4 99.6 71.7 99.6 66V26C99.6 25 99.7 24.1 100 23.2C101.2 18.8 105.3 15.6 110 15.6H189.8C195.6 15.6 200.3 20.3 200.3 26Z" fill="#F2F2F2"/>
<path d="M167.1 41C167 42.9 166.5 44.8 165.7 46.6C164.8 48.3 163.6 49.8 162.2 51.1C161.3 51.9 160.5 52.7 159.6 53.5C158.4 54.6 157.1 55.7 155.9 56.8C153.7 58.7 151.6 60.6 149.5 62.6C149.3 62.8 149.2 62.8 149 62.6C145.5 59.2 141.8 56.1 138.2 52.9C136.6 51.5 135.1 50 133.9 48.3C132.4 46.2 131.6 43.9 131.4 41.4C131.3 40.8 131.3 40.2 131.3 39.6C131.3 36.5 132.3 33.8 134.8 31.9C138 29.4 142.6 29.3 146 31.6C147.3 32.5 148.3 33.6 149.1 34.9C149.2 35.1 149.3 35.2 149.4 35.1C149.4 35.1 149.5 35 149.5 34.9C150.9 32.7 152.7 31.1 155.2 30.4C160.2 28.9 165.9 31.6 167 37.3C167.2 38.5 167.2 39.8 167.1 41Z" fill="#CC1D23"/>
</svg>
